<?xml version="1.0" encoding="utf-8" standalone="no"?>
<!DOCTYPE svg PUBLIC "-//W3C//DTD SVG 1.1//EN"
  "http://www.w3.org/Graphics/SVG/1.1/DTD/svg11.dtd">
<svg xmlns:xlink="http://www.w3.org/1999/xlink" width="1008pt" height="576pt" viewBox="0 0 1008 576" xmlns="http://www.w3.org/2000/svg" version="1.1">
 <metadata>
  <rdf:RDF xmlns:dc="http://purl.org/dc/elements/1.1/" xmlns:cc="http://creativecommons.org/ns#" xmlns:rdf="http://www.w3.org/1999/02/22-rdf-syntax-ns#">
   <cc:Work>
    <dc:type rdf:resource="http://purl.org/dc/dcmitype/StillImage"/>
    <dc:date>2023-01-30T15:25:26.823705</dc:date>
    <dc:format>image/svg+xml</dc:format>
    <dc:creator>
     <cc:Agent>
      <dc:title>Matplotlib v3.5.0, https://matplotlib.org/</dc:title>
     </cc:Agent>
    </dc:creator>
   </cc:Work>
  </rdf:RDF>
 </metadata>
 <defs>
  <style type="text/css">*{stroke-linejoin: round; stroke-linecap: butt}</style>
 </defs>
 <g id="figure_1">
  <g id="patch_1">
   <path d="M 0 576 
L 1008 576 
L 1008 0 
L 0 0 
z
" style="fill: #ffffff"/>
  </g>
  <g id="axes_1">
   <g id="patch_2">
    <path d="M 126 512.64 
L 907.2 512.64 
L 907.2 69.12 
L 126 69.12 
z
" style="fill: #ffffff"/>
   </g>
   <g id="matplotlib.axis_1">
    <g id="xtick_1">
     <g id="text_1">
      <!-- 30 -->
      <g style="fill: #262626" transform="translate(315.182969 530.013594)scale(0.11 -0.11)">
       <defs>
        <path id="ArialMT-33" d="M 269 1209 
L 831 1284 
Q 928 806 1161 595 
Q 1394 384 1728 384 
Q 2125 384 2398 659 
Q 2672 934 2672 1341 
Q 2672 1728 2419 1979 
Q 2166 2231 1775 2231 
Q 1616 2231 1378 2169 
L 1441 2663 
Q 1497 2656 1531 2656 
Q 1891 2656 2178 2843 
Q 2466 3031 2466 3422 
Q 2466 3731 2256 3934 
Q 2047 4138 1716 4138 
Q 1388 4138 1169 3931 
Q 950 3725 888 3313 
L 325 3413 
Q 428 3978 793 4289 
Q 1159 4600 1703 4600 
Q 2078 4600 2393 4439 
Q 2709 4278 2876 4000 
Q 3044 3722 3044 3409 
Q 3044 3113 2884 2869 
Q 2725 2625 2413 2481 
Q 2819 2388 3044 2092 
Q 3269 1797 3269 1353 
Q 3269 753 2831 336 
Q 2394 -81 1725 -81 
Q 1122 -81 723 278 
Q 325 638 269 1209 
z
" transform="scale(0.015625)"/>
        <path id="ArialMT-30" d="M 266 2259 
Q 266 3072 433 3567 
Q 600 4063 929 4331 
Q 1259 4600 1759 4600 
Q 2128 4600 2406 4451 
Q 2684 4303 2865 4023 
Q 3047 3744 3150 3342 
Q 3253 2941 3253 2259 
Q 3253 1453 3087 958 
Q 2922 463 2592 192 
Q 2263 -78 1759 -78 
Q 1097 -78 719 397 
Q 266 969 266 2259 
z
M 844 2259 
Q 844 1131 1108 757 
Q 1372 384 1759 384 
Q 2147 384 2411 759 
Q 2675 1134 2675 2259 
Q 2675 3391 2411 3762 
Q 2147 4134 1753 4134 
Q 1366 4134 1134 3806 
Q 844 3388 844 2259 
z
" transform="scale(0.015625)"/>
       </defs>
       <use xlink:href="#ArialMT-33"/>
       <use xlink:href="#ArialMT-30" x="55.615234"/>
      </g>
     </g>
    </g>
    <g id="xtick_2">
     <g id="text_2">
      <!-- 60 -->
      <g style="fill: #262626" transform="translate(705.782969 530.013594)scale(0.11 -0.11)">
       <defs>
        <path id="ArialMT-36" d="M 3184 3459 
L 2625 3416 
Q 2550 3747 2413 3897 
Q 2184 4138 1850 4138 
Q 1581 4138 1378 3988 
Q 1113 3794 959 3422 
Q 806 3050 800 2363 
Q 1003 2672 1297 2822 
Q 1591 2972 1913 2972 
Q 2475 2972 2870 2558 
Q 3266 2144 3266 1488 
Q 3266 1056 3080 686 
Q 2894 316 2569 119 
Q 2244 -78 1831 -78 
Q 1128 -78 684 439 
Q 241 956 241 2144 
Q 241 3472 731 4075 
Q 1159 4600 1884 4600 
Q 2425 4600 2770 4297 
Q 3116 3994 3184 3459 
z
M 888 1484 
Q 888 1194 1011 928 
Q 1134 663 1356 523 
Q 1578 384 1822 384 
Q 2178 384 2434 671 
Q 2691 959 2691 1453 
Q 2691 1928 2437 2201 
Q 2184 2475 1800 2475 
Q 1419 2475 1153 2201 
Q 888 1928 888 1484 
z
" transform="scale(0.015625)"/>
       </defs>
       <use xlink:href="#ArialMT-36"/>
       <use xlink:href="#ArialMT-30" x="55.615234"/>
      </g>
     </g>
    </g>
    <g id="text_3">
     <!-- PND -->
     <g style="fill: #262626" transform="translate(503.931563 544.789219)scale(0.12 -0.12)">
      <defs>
       <path id="ArialMT-50" d="M 494 0 
L 494 4581 
L 2222 4581 
Q 2678 4581 2919 4538 
Q 3256 4481 3484 4323 
Q 3713 4166 3852 3881 
Q 3991 3597 3991 3256 
Q 3991 2672 3619 2267 
Q 3247 1863 2275 1863 
L 1100 1863 
L 1100 0 
L 494 0 
z
M 1100 2403 
L 2284 2403 
Q 2872 2403 3119 2622 
Q 3366 2841 3366 3238 
Q 3366 3525 3220 3729 
Q 3075 3934 2838 4000 
Q 2684 4041 2272 4041 
L 1100 4041 
L 1100 2403 
z
" transform="scale(0.015625)"/>
       <path id="ArialMT-4e" d="M 488 0 
L 488 4581 
L 1109 4581 
L 3516 984 
L 3516 4581 
L 4097 4581 
L 4097 0 
L 3475 0 
L 1069 3600 
L 1069 0 
L 488 0 
z
" transform="scale(0.015625)"/>
       <path id="ArialMT-44" d="M 494 0 
L 494 4581 
L 2072 4581 
Q 2606 4581 2888 4516 
Q 3281 4425 3559 4188 
Q 3922 3881 4101 3404 
Q 4281 2928 4281 2316 
Q 4281 1794 4159 1391 
Q 4038 988 3847 723 
Q 3656 459 3429 307 
Q 3203 156 2883 78 
Q 2563 0 2147 0 
L 494 0 
z
M 1100 541 
L 2078 541 
Q 2531 541 2789 625 
Q 3047 709 3200 863 
Q 3416 1078 3536 1442 
Q 3656 1806 3656 2325 
Q 3656 3044 3420 3430 
Q 3184 3816 2847 3947 
Q 2603 4041 2063 4041 
L 1100 4041 
L 1100 541 
z
" transform="scale(0.015625)"/>
      </defs>
      <use xlink:href="#ArialMT-50"/>
      <use xlink:href="#ArialMT-4e" x="66.699219"/>
      <use xlink:href="#ArialMT-44" x="138.916016"/>
     </g>
    </g>
   </g>
   <g id="matplotlib.axis_2">
    <g id="ytick_1">
     <g id="line2d_1">
      <path d="M 126 475.56042 
L 907.2 475.56042 
" clip-path="url(#pcc5b823b7d)" style="fill: none; stroke: #cccccc; stroke-linecap: round"/>
     </g>
     <g id="text_4">
      <!-- −8 -->
      <g style="fill: #262626" transform="translate(103.958281 479.497217)scale(0.11 -0.11)">
       <defs>
        <path id="ArialMT-2212" d="M 3381 1997 
L 356 1997 
L 356 2522 
L 3381 2522 
L 3381 1997 
z
" transform="scale(0.015625)"/>
        <path id="ArialMT-38" d="M 1131 2484 
Q 781 2613 612 2850 
Q 444 3088 444 3419 
Q 444 3919 803 4259 
Q 1163 4600 1759 4600 
Q 2359 4600 2725 4251 
Q 3091 3903 3091 3403 
Q 3091 3084 2923 2848 
Q 2756 2613 2416 2484 
Q 2838 2347 3058 2040 
Q 3278 1734 3278 1309 
Q 3278 722 2862 322 
Q 2447 -78 1769 -78 
Q 1091 -78 675 323 
Q 259 725 259 1325 
Q 259 1772 486 2073 
Q 713 2375 1131 2484 
z
M 1019 3438 
Q 1019 3113 1228 2906 
Q 1438 2700 1772 2700 
Q 2097 2700 2305 2904 
Q 2513 3109 2513 3406 
Q 2513 3716 2298 3927 
Q 2084 4138 1766 4138 
Q 1444 4138 1231 3931 
Q 1019 3725 1019 3438 
z
M 838 1322 
Q 838 1081 952 856 
Q 1066 631 1291 507 
Q 1516 384 1775 384 
Q 2178 384 2440 643 
Q 2703 903 2703 1303 
Q 2703 1709 2433 1975 
Q 2163 2241 1756 2241 
Q 1359 2241 1098 1978 
Q 838 1716 838 1322 
z
" transform="scale(0.015625)"/>
       </defs>
       <use xlink:href="#ArialMT-2212"/>
       <use xlink:href="#ArialMT-38" x="58.398438"/>
      </g>
     </g>
    </g>
    <g id="ytick_2">
     <g id="line2d_2">
      <path d="M 126 395.517356 
L 907.2 395.517356 
" clip-path="url(#pcc5b823b7d)" style="fill: none; stroke: #cccccc; stroke-linecap: round"/>
     </g>
     <g id="text_5">
      <!-- −6 -->
      <g style="fill: #262626" transform="translate(103.958281 399.454153)scale(0.11 -0.11)">
       <use xlink:href="#ArialMT-2212"/>
       <use xlink:href="#ArialMT-36" x="58.398438"/>
      </g>
     </g>
    </g>
    <g id="ytick_3">
     <g id="line2d_3">
      <path d="M 126 315.474293 
L 907.2 315.474293 
" clip-path="url(#pcc5b823b7d)" style="fill: none; stroke: #cccccc; stroke-linecap: round"/>
     </g>
     <g id="text_6">
      <!-- −4 -->
      <g style="fill: #262626" transform="translate(103.958281 319.41109)scale(0.11 -0.11)">
       <defs>
        <path id="ArialMT-34" d="M 2069 0 
L 2069 1097 
L 81 1097 
L 81 1613 
L 2172 4581 
L 2631 4581 
L 2631 1613 
L 3250 1613 
L 3250 1097 
L 2631 1097 
L 2631 0 
L 2069 0 
z
M 2069 1613 
L 2069 3678 
L 634 1613 
L 2069 1613 
z
" transform="scale(0.015625)"/>
       </defs>
       <use xlink:href="#ArialMT-2212"/>
       <use xlink:href="#ArialMT-34" x="58.398438"/>
      </g>
     </g>
    </g>
    <g id="ytick_4">
     <g id="line2d_4">
      <path d="M 126 235.431229 
L 907.2 235.431229 
" clip-path="url(#pcc5b823b7d)" style="fill: none; stroke: #cccccc; stroke-linecap: round"/>
     </g>
     <g id="text_7">
      <!-- −2 -->
      <g style="fill: #262626" transform="translate(103.958281 239.368026)scale(0.11 -0.11)">
       <defs>
        <path id="ArialMT-32" d="M 3222 541 
L 3222 0 
L 194 0 
Q 188 203 259 391 
Q 375 700 629 1000 
Q 884 1300 1366 1694 
Q 2113 2306 2375 2664 
Q 2638 3022 2638 3341 
Q 2638 3675 2398 3904 
Q 2159 4134 1775 4134 
Q 1369 4134 1125 3890 
Q 881 3647 878 3216 
L 300 3275 
Q 359 3922 746 4261 
Q 1134 4600 1788 4600 
Q 2447 4600 2831 4234 
Q 3216 3869 3216 3328 
Q 3216 3053 3103 2787 
Q 2991 2522 2730 2228 
Q 2469 1934 1863 1422 
Q 1356 997 1212 845 
Q 1069 694 975 541 
L 3222 541 
z
" transform="scale(0.015625)"/>
       </defs>
       <use xlink:href="#ArialMT-2212"/>
       <use xlink:href="#ArialMT-32" x="58.398438"/>
      </g>
     </g>
    </g>
    <g id="ytick_5">
     <g id="line2d_5">
      <path d="M 126 155.388165 
L 907.2 155.388165 
" clip-path="url(#pcc5b823b7d)" style="fill: none; stroke: #cccccc; stroke-linecap: round"/>
     </g>
     <g id="text_8">
      <!-- 0 -->
      <g style="fill: #262626" transform="translate(110.382969 159.324962)scale(0.11 -0.11)">
       <use xlink:href="#ArialMT-30"/>
      </g>
     </g>
    </g>
    <g id="ytick_6">
     <g id="line2d_6">
      <path d="M 126 75.345102 
L 907.2 75.345102 
" clip-path="url(#pcc5b823b7d)" style="fill: none; stroke: #cccccc; stroke-linecap: round"/>
     </g>
     <g id="text_9">
      <!-- 2 -->
      <g style="fill: #262626" transform="translate(110.382969 79.281898)scale(0.11 -0.11)">
       <use xlink:href="#ArialMT-32"/>
      </g>
     </g>
    </g>
    <g id="text_10">
     <!-- logNormalizedArea -->
     <g style="fill: #262626" transform="translate(97.432656 341.900625)rotate(-90)scale(0.12 -0.12)">
      <defs>
       <path id="ArialMT-6c" d="M 409 0 
L 409 4581 
L 972 4581 
L 972 0 
L 409 0 
z
" transform="scale(0.015625)"/>
       <path id="ArialMT-6f" d="M 213 1659 
Q 213 2581 725 3025 
Q 1153 3394 1769 3394 
Q 2453 3394 2887 2945 
Q 3322 2497 3322 1706 
Q 3322 1066 3130 698 
Q 2938 331 2570 128 
Q 2203 -75 1769 -75 
Q 1072 -75 642 372 
Q 213 819 213 1659 
z
M 791 1659 
Q 791 1022 1069 705 
Q 1347 388 1769 388 
Q 2188 388 2466 706 
Q 2744 1025 2744 1678 
Q 2744 2294 2464 2611 
Q 2184 2928 1769 2928 
Q 1347 2928 1069 2612 
Q 791 2297 791 1659 
z
" transform="scale(0.015625)"/>
       <path id="ArialMT-67" d="M 319 -275 
L 866 -356 
Q 900 -609 1056 -725 
Q 1266 -881 1628 -881 
Q 2019 -881 2231 -725 
Q 2444 -569 2519 -288 
Q 2563 -116 2559 434 
Q 2191 0 1641 0 
Q 956 0 581 494 
Q 206 988 206 1678 
Q 206 2153 378 2554 
Q 550 2956 876 3175 
Q 1203 3394 1644 3394 
Q 2231 3394 2613 2919 
L 2613 3319 
L 3131 3319 
L 3131 450 
Q 3131 -325 2973 -648 
Q 2816 -972 2473 -1159 
Q 2131 -1347 1631 -1347 
Q 1038 -1347 672 -1080 
Q 306 -813 319 -275 
z
M 784 1719 
Q 784 1066 1043 766 
Q 1303 466 1694 466 
Q 2081 466 2343 764 
Q 2606 1063 2606 1700 
Q 2606 2309 2336 2618 
Q 2066 2928 1684 2928 
Q 1309 2928 1046 2623 
Q 784 2319 784 1719 
z
" transform="scale(0.015625)"/>
       <path id="ArialMT-72" d="M 416 0 
L 416 3319 
L 922 3319 
L 922 2816 
Q 1116 3169 1280 3281 
Q 1444 3394 1641 3394 
Q 1925 3394 2219 3213 
L 2025 2691 
Q 1819 2813 1613 2813 
Q 1428 2813 1281 2702 
Q 1134 2591 1072 2394 
Q 978 2094 978 1738 
L 978 0 
L 416 0 
z
" transform="scale(0.015625)"/>
       <path id="ArialMT-6d" d="M 422 0 
L 422 3319 
L 925 3319 
L 925 2853 
Q 1081 3097 1340 3245 
Q 1600 3394 1931 3394 
Q 2300 3394 2536 3241 
Q 2772 3088 2869 2813 
Q 3263 3394 3894 3394 
Q 4388 3394 4653 3120 
Q 4919 2847 4919 2278 
L 4919 0 
L 4359 0 
L 4359 2091 
Q 4359 2428 4304 2576 
Q 4250 2725 4106 2815 
Q 3963 2906 3769 2906 
Q 3419 2906 3187 2673 
Q 2956 2441 2956 1928 
L 2956 0 
L 2394 0 
L 2394 2156 
Q 2394 2531 2256 2718 
Q 2119 2906 1806 2906 
Q 1569 2906 1367 2781 
Q 1166 2656 1075 2415 
Q 984 2175 984 1722 
L 984 0 
L 422 0 
z
" transform="scale(0.015625)"/>
       <path id="ArialMT-61" d="M 2588 409 
Q 2275 144 1986 34 
Q 1697 -75 1366 -75 
Q 819 -75 525 192 
Q 231 459 231 875 
Q 231 1119 342 1320 
Q 453 1522 633 1644 
Q 813 1766 1038 1828 
Q 1203 1872 1538 1913 
Q 2219 1994 2541 2106 
Q 2544 2222 2544 2253 
Q 2544 2597 2384 2738 
Q 2169 2928 1744 2928 
Q 1347 2928 1158 2789 
Q 969 2650 878 2297 
L 328 2372 
Q 403 2725 575 2942 
Q 747 3159 1072 3276 
Q 1397 3394 1825 3394 
Q 2250 3394 2515 3294 
Q 2781 3194 2906 3042 
Q 3031 2891 3081 2659 
Q 3109 2516 3109 2141 
L 3109 1391 
Q 3109 606 3145 398 
Q 3181 191 3288 0 
L 2700 0 
Q 2613 175 2588 409 
z
M 2541 1666 
Q 2234 1541 1622 1453 
Q 1275 1403 1131 1340 
Q 988 1278 909 1158 
Q 831 1038 831 891 
Q 831 666 1001 516 
Q 1172 366 1500 366 
Q 1825 366 2078 508 
Q 2331 650 2450 897 
Q 2541 1088 2541 1459 
L 2541 1666 
z
" transform="scale(0.015625)"/>
       <path id="ArialMT-69" d="M 425 3934 
L 425 4581 
L 988 4581 
L 988 3934 
L 425 3934 
z
M 425 0 
L 425 3319 
L 988 3319 
L 988 0 
L 425 0 
z
" transform="scale(0.015625)"/>
       <path id="ArialMT-7a" d="M 125 0 
L 125 456 
L 2238 2881 
Q 1878 2863 1603 2863 
L 250 2863 
L 250 3319 
L 2963 3319 
L 2963 2947 
L 1166 841 
L 819 456 
Q 1197 484 1528 484 
L 3063 484 
L 3063 0 
L 125 0 
z
" transform="scale(0.015625)"/>
       <path id="ArialMT-65" d="M 2694 1069 
L 3275 997 
Q 3138 488 2766 206 
Q 2394 -75 1816 -75 
Q 1088 -75 661 373 
Q 234 822 234 1631 
Q 234 2469 665 2931 
Q 1097 3394 1784 3394 
Q 2450 3394 2872 2941 
Q 3294 2488 3294 1666 
Q 3294 1616 3291 1516 
L 816 1516 
Q 847 969 1125 678 
Q 1403 388 1819 388 
Q 2128 388 2347 550 
Q 2566 713 2694 1069 
z
M 847 1978 
L 2700 1978 
Q 2663 2397 2488 2606 
Q 2219 2931 1791 2931 
Q 1403 2931 1139 2672 
Q 875 2413 847 1978 
z
" transform="scale(0.015625)"/>
       <path id="ArialMT-64" d="M 2575 0 
L 2575 419 
Q 2259 -75 1647 -75 
Q 1250 -75 917 144 
Q 584 363 401 755 
Q 219 1147 219 1656 
Q 219 2153 384 2558 
Q 550 2963 881 3178 
Q 1213 3394 1622 3394 
Q 1922 3394 2156 3267 
Q 2391 3141 2538 2938 
L 2538 4581 
L 3097 4581 
L 3097 0 
L 2575 0 
z
M 797 1656 
Q 797 1019 1065 703 
Q 1334 388 1700 388 
Q 2069 388 2326 689 
Q 2584 991 2584 1609 
Q 2584 2291 2321 2609 
Q 2059 2928 1675 2928 
Q 1300 2928 1048 2622 
Q 797 2316 797 1656 
z
" transform="scale(0.015625)"/>
       <path id="ArialMT-41" d="M -9 0 
L 1750 4581 
L 2403 4581 
L 4278 0 
L 3588 0 
L 3053 1388 
L 1138 1388 
L 634 0 
L -9 0 
z
M 1313 1881 
L 2866 1881 
L 2388 3150 
Q 2169 3728 2063 4100 
Q 1975 3659 1816 3225 
L 1313 1881 
z
" transform="scale(0.015625)"/>
      </defs>
      <use xlink:href="#ArialMT-6c"/>
      <use xlink:href="#ArialMT-6f" x="22.216797"/>
      <use xlink:href="#ArialMT-67" x="77.832031"/>
      <use xlink:href="#ArialMT-4e" x="133.447266"/>
      <use xlink:href="#ArialMT-6f" x="205.664062"/>
      <use xlink:href="#ArialMT-72" x="261.279297"/>
      <use xlink:href="#ArialMT-6d" x="294.580078"/>
      <use xlink:href="#ArialMT-61" x="377.880859"/>
      <use xlink:href="#ArialMT-6c" x="433.496094"/>
      <use xlink:href="#ArialMT-69" x="455.712891"/>
      <use xlink:href="#ArialMT-7a" x="477.929688"/>
      <use xlink:href="#ArialMT-65" x="527.929688"/>
      <use xlink:href="#ArialMT-64" x="583.544922"/>
      <use xlink:href="#ArialMT-41" x="639.160156"/>
      <use xlink:href="#ArialMT-72" x="705.859375"/>
      <use xlink:href="#ArialMT-65" x="739.160156"/>
      <use xlink:href="#ArialMT-61" x="794.775391"/>
     </g>
    </g>
   </g>
   <g id="patch_3">
    <path d="M 321.3 155.388165 
L 321.3 155.388165 
L 321.3 155.388165 
L 321.3 155.388165 
z
" clip-path="url(#pcc5b823b7d)" style="fill: #5875a4; stroke: #4c4c4c; stroke-width: 0.75; stroke-linejoin: miter"/>
   </g>
   <g id="PolyCollection_1">
    <defs>
     <path id="m35adcdd3e4" d="M 243.198528 -116.570554 
L 243.161472 -116.570554 
L 243.135994 -119.978585 
L 243.0881 -123.386616 
L 243.00952 -126.794647 
L 242.895464 -130.202677 
L 242.746085 -133.610708 
L 242.564537 -137.018739 
L 242.352234 -140.42677 
L 242.10474 -143.8348 
L 241.813343 -147.242831 
L 241.475342 -150.650862 
L 241.108471 -154.058893 
L 240.755857 -157.466924 
L 240.468498 -160.874954 
L 240.268221 -164.282985 
L 240.114567 -167.691016 
L 239.904023 -171.099047 
L 239.509997 -174.507078 
L 238.841116 -177.915108 
L 237.881383 -181.323139 
L 236.690929 -184.73117 
L 235.372833 -188.139201 
L 234.025388 -191.547231 
L 232.699533 -194.955262 
L 231.380889 -198.363293 
L 230.009768 -201.771324 
L 228.527762 -205.179355 
L 226.914418 -208.587385 
L 225.189833 -211.995416 
L 223.401432 -215.403447 
L 221.625525 -218.811478 
L 219.973907 -222.219509 
L 218.565156 -225.627539 
L 217.455254 -229.03557 
L 216.578439 -232.443601 
L 215.748484 -235.851632 
L 214.717006 -239.259663 
L 213.248473 -242.667693 
L 211.182289 -246.075724 
L 208.478848 -249.483755 
L 205.2509 -252.891786 
L 201.762663 -256.299816 
L 198.370638 -259.707847 
L 195.413573 -263.115878 
L 193.109262 -266.523909 
L 191.515529 -269.93194 
L 190.551781 -273.33997 
L 190.034111 -276.748001 
L 189.704843 -280.156032 
L 189.283604 -283.564063 
L 188.554521 -286.972094 
L 187.446871 -290.380124 
L 186.045638 -293.788155 
L 184.518965 -297.196186 
L 183.015527 -300.604217 
L 181.593722 -304.012248 
L 180.200218 -307.420278 
L 178.686006 -310.828309 
L 176.863447 -314.23634 
L 174.614981 -317.644371 
L 172.014347 -321.052401 
L 169.365954 -324.460432 
L 167.1035 -327.868463 
L 165.605959 -331.276494 
L 165.06 -334.684525 
L 165.447459 -338.092555 
L 166.636004 -341.500586 
L 168.499715 -344.908617 
L 171.0018 -348.316648 
L 174.198482 -351.724679 
L 178.164036 -355.132709 
L 182.884238 -358.54074 
L 188.185813 -361.948771 
L 193.744142 -365.356802 
L 199.163658 -368.764832 
L 204.091469 -372.172863 
L 208.318051 -375.580894 
L 211.826773 -378.988925 
L 214.767968 -382.396956 
L 217.366473 -385.804986 
L 219.81848 -389.213017 
L 222.242439 -392.621048 
L 224.69226 -396.029079 
L 227.181605 -399.43711 
L 229.68082 -402.84514 
L 232.107144 -406.253171 
L 234.346484 -409.661202 
L 236.301793 -413.069233 
L 237.926934 -416.477264 
L 239.224151 -419.885294 
L 240.224264 -423.293325 
L 240.975272 -426.701356 
L 241.538431 -430.109387 
L 241.976342 -433.517417 
L 242.33332 -436.925448 
L 242.625507 -440.333479 
L 242.850408 -443.74151 
L 243.005378 -447.149541 
L 243.098496 -450.557571 
L 243.146731 -453.965602 
L 243.213269 -453.965602 
L 243.213269 -453.965602 
L 243.261504 -450.557571 
L 243.354622 -447.149541 
L 243.509592 -443.74151 
L 243.734493 -440.333479 
L 244.02668 -436.925448 
L 244.383658 -433.517417 
L 244.821569 -430.109387 
L 245.384728 -426.701356 
L 246.135736 -423.293325 
L 247.135849 -419.885294 
L 248.433066 -416.477264 
L 250.058207 -413.069233 
L 252.013516 -409.661202 
L 254.252856 -406.253171 
L 256.67918 -402.84514 
L 259.178395 -399.43711 
L 261.66774 -396.029079 
L 264.117561 -392.621048 
L 266.54152 -389.213017 
L 268.993527 -385.804986 
L 271.592032 -382.396956 
L 274.533227 -378.988925 
L 278.041949 -375.580894 
L 282.268531 -372.172863 
L 287.196342 -368.764832 
L 292.615858 -365.356802 
L 298.174187 -361.948771 
L 303.475762 -358.54074 
L 308.195964 -355.132709 
L 312.161518 -351.724679 
L 315.3582 -348.316648 
L 317.860285 -344.908617 
L 319.723996 -341.500586 
L 320.912541 -338.092555 
L 321.3 -334.684525 
L 320.754041 -331.276494 
L 319.2565 -327.868463 
L 316.994046 -324.460432 
L 314.345653 -321.052401 
L 311.745019 -317.644371 
L 309.496553 -314.23634 
L 307.673994 -310.828309 
L 306.159782 -307.420278 
L 304.766278 -304.012248 
L 303.344473 -300.604217 
L 301.841035 -297.196186 
L 300.314362 -293.788155 
L 298.913129 -290.380124 
L 297.805479 -286.972094 
L 297.076396 -283.564063 
L 296.655157 -280.156032 
L 296.325889 -276.748001 
L 295.808219 -273.33997 
L 294.844471 -269.93194 
L 293.250738 -266.523909 
L 290.946427 -263.115878 
L 287.989362 -259.707847 
L 284.597337 -256.299816 
L 281.1091 -252.891786 
L 277.881152 -249.483755 
L 275.177711 -246.075724 
L 273.111527 -242.667693 
L 271.642994 -239.259663 
L 270.611516 -235.851632 
L 269.781561 -232.443601 
L 268.904746 -229.03557 
L 267.794844 -225.627539 
L 266.386093 -222.219509 
L 264.734475 -218.811478 
L 262.958568 -215.403447 
L 261.170167 -211.995416 
L 259.445582 -208.587385 
L 257.832238 -205.179355 
L 256.350232 -201.771324 
L 254.979111 -198.363293 
L 253.660467 -194.955262 
L 252.334612 -191.547231 
L 250.987167 -188.139201 
L 249.669071 -184.73117 
L 248.478617 -181.323139 
L 247.518884 -177.915108 
L 246.850003 -174.507078 
L 246.455977 -171.099047 
L 246.245433 -167.691016 
L 246.091779 -164.282985 
L 245.891502 -160.874954 
L 245.604143 -157.466924 
L 245.251529 -154.058893 
L 244.884658 -150.650862 
L 244.546657 -147.242831 
L 244.25526 -143.8348 
L 244.007766 -140.42677 
L 243.795463 -137.018739 
L 243.613915 -133.610708 
L 243.464536 -130.202677 
L 243.35048 -126.794647 
L 243.2719 -123.386616 
L 243.224006 -119.978585 
L 243.198528 -116.570554 
z
" style="stroke: #4c4c4c; stroke-width: 1.5"/>
    </defs>
    <g clip-path="url(#pcc5b823b7d)">
     <use xlink:href="#m35adcdd3e4" x="0" y="576" style="fill: #5875a4; stroke: #4c4c4c; stroke-width: 1.5"/>
    </g>
   </g>
   <g id="patch_4">
    <path d="M 321.3 155.388165 
L 321.3 155.388165 
L 321.3 155.388165 
L 321.3 155.388165 
z
" clip-path="url(#pcc5b823b7d)" style="fill: #cc8963; stroke: #4c4c4c; stroke-width: 0.75; stroke-linejoin: miter"/>
   </g>
   <g id="PolyCollection_2">
    <defs>
     <path id="md08dd62120" d="M 399.426922 -83.52 
L 399.413078 -83.52 
L 399.405062 -87.351022 
L 399.393125 -91.182044 
L 399.379519 -95.013066 
L 399.368402 -98.844087 
L 399.362962 -102.675109 
L 399.362554 -106.506131 
L 399.363308 -110.337153 
L 399.362078 -114.168175 
L 399.359116 -117.999197 
L 399.355832 -121.830218 
L 399.349668 -125.66124 
L 399.331262 -129.492262 
L 399.285191 -133.323284 
L 399.190354 -137.154306 
L 399.018074 -140.985328 
L 398.73419 -144.816349 
L 398.313219 -148.647371 
L 397.760306 -152.478393 
L 397.121935 -156.309415 
L 396.46909 -160.140437 
L 395.85781 -163.971459 
L 395.291448 -167.80248 
L 394.709677 -171.633502 
L 394.014002 -175.464524 
L 393.119606 -179.295546 
L 392.005492 -183.126568 
L 390.728605 -186.95759 
L 389.386243 -190.788611 
L 388.04897 -194.619633 
L 386.71234 -198.450655 
L 385.30672 -202.281677 
L 383.764336 -206.112699 
L 382.095433 -209.943721 
L 380.409398 -213.774742 
L 378.859392 -217.605764 
L 377.557995 -221.436786 
L 376.52999 -225.267808 
L 375.714369 -229.09883 
L 374.978267 -232.929852 
L 374.129488 -236.760873 
L 372.960032 -240.591895 
L 371.328427 -244.422917 
L 369.22082 -248.253939 
L 366.730121 -252.084961 
L 363.975284 -255.915983 
L 361.044695 -259.747005 
L 358.012363 -263.578026 
L 354.98911 -267.409048 
L 352.137633 -271.24007 
L 349.631514 -275.071092 
L 347.595733 -278.902114 
L 346.065216 -282.733136 
L 344.975727 -286.564157 
L 344.192975 -290.395179 
L 343.559844 -294.226201 
L 342.917168 -298.057223 
L 342.097465 -301.888245 
L 340.945926 -305.719267 
L 339.372948 -309.550288 
L 337.365695 -313.38131 
L 334.946736 -317.212332 
L 332.179841 -321.043354 
L 329.266673 -324.874376 
L 326.610113 -328.705398 
L 324.704974 -332.536419 
L 323.899374 -336.367441 
L 324.226184 -340.198463 
L 325.461741 -344.029485 
L 327.371651 -347.860507 
L 329.929893 -351.691529 
L 333.311383 -355.52255 
L 337.660685 -359.353572 
L 342.845945 -363.184594 
L 348.418245 -367.015616 
L 353.804449 -370.846638 
L 358.563829 -374.67766 
L 362.524545 -378.508681 
L 365.760325 -382.339703 
L 368.491295 -386.170725 
L 370.991528 -390.001747 
L 373.518189 -393.832769 
L 376.247121 -397.663791 
L 379.225155 -401.494812 
L 382.366733 -405.325834 
L 385.497051 -409.156856 
L 388.415208 -412.987878 
L 390.952901 -416.8189 
L 393.017149 -420.649922 
L 394.607873 -424.480944 
L 395.802688 -428.311965 
L 396.713684 -432.142987 
L 397.438109 -435.974009 
L 398.030319 -439.805031 
L 398.506101 -443.636053 
L 398.865811 -447.467075 
L 399.11456 -451.298096 
L 399.269069 -455.129118 
L 399.354023 -458.96014 
L 399.394807 -462.791162 
L 399.445193 -462.791162 
L 399.445193 -462.791162 
L 399.485977 -458.96014 
L 399.570931 -455.129118 
L 399.72544 -451.298096 
L 399.974189 -447.467075 
L 400.333899 -443.636053 
L 400.809681 -439.805031 
L 401.401891 -435.974009 
L 402.126316 -432.142987 
L 403.037312 -428.311965 
L 404.232127 -424.480944 
L 405.822851 -420.649922 
L 407.887099 -416.8189 
L 410.424792 -412.987878 
L 413.342949 -409.156856 
L 416.473267 -405.325834 
L 419.614845 -401.494812 
L 422.592879 -397.663791 
L 425.321811 -393.832769 
L 427.848472 -390.001747 
L 430.348705 -386.170725 
L 433.079675 -382.339703 
L 436.315455 -378.508681 
L 440.276171 -374.67766 
L 445.035551 -370.846638 
L 450.421755 -367.015616 
L 455.994055 -363.184594 
L 461.179315 -359.353572 
L 465.528617 -355.52255 
L 468.910107 -351.691529 
L 471.468349 -347.860507 
L 473.378259 -344.029485 
L 474.613816 -340.198463 
L 474.940626 -336.367441 
L 474.135026 -332.536419 
L 472.229887 -328.705398 
L 469.573327 -324.874376 
L 466.660159 -321.043354 
L 463.893264 -317.212332 
L 461.474305 -313.38131 
L 459.467052 -309.550288 
L 457.894074 -305.719267 
L 456.742535 -301.888245 
L 455.922832 -298.057223 
L 455.280156 -294.226201 
L 454.647025 -290.395179 
L 453.864273 -286.564157 
L 452.774784 -282.733136 
L 451.244267 -278.902114 
L 449.208486 -275.071092 
L 446.702367 -271.24007 
L 443.85089 -267.409048 
L 440.827637 -263.578026 
L 437.795305 -259.747005 
L 434.864716 -255.915983 
L 432.109879 -252.084961 
L 429.61918 -248.253939 
L 427.511573 -244.422917 
L 425.879968 -240.591895 
L 424.710512 -236.760873 
L 423.861733 -232.929852 
L 423.125631 -229.09883 
L 422.31001 -225.267808 
L 421.282005 -221.436786 
L 419.980608 -217.605764 
L 418.430602 -213.774742 
L 416.744567 -209.943721 
L 415.075664 -206.112699 
L 413.53328 -202.281677 
L 412.12766 -198.450655 
L 410.79103 -194.619633 
L 409.453757 -190.788611 
L 408.111395 -186.95759 
L 406.834508 -183.126568 
L 405.720394 -179.295546 
L 404.825998 -175.464524 
L 404.130323 -171.633502 
L 403.548552 -167.80248 
L 402.98219 -163.971459 
L 402.37091 -160.140437 
L 401.718065 -156.309415 
L 401.079694 -152.478393 
L 400.526781 -148.647371 
L 400.10581 -144.816349 
L 399.821926 -140.985328 
L 399.649646 -137.154306 
L 399.554809 -133.323284 
L 399.508738 -129.492262 
L 399.490332 -125.66124 
L 399.484168 -121.830218 
L 399.480884 -117.999197 
L 399.477922 -114.168175 
L 399.476692 -110.337153 
L 399.477446 -106.506131 
L 399.477038 -102.675109 
L 399.471598 -98.844087 
L 399.460481 -95.013066 
L 399.446875 -91.182044 
L 399.434938 -87.351022 
L 399.426922 -83.52 
z
" style="stroke: #4c4c4c; stroke-width: 1.5"/>
    </defs>
    <g clip-path="url(#pcc5b823b7d)">
     <use xlink:href="#md08dd62120" x="0" y="576" style="fill: #cc8963; stroke: #4c4c4c; stroke-width: 1.5"/>
    </g>
   </g>
   <g id="PolyCollection_3">
    <defs>
     <path id="ma04891fb62" d="M 633.794489 -115.533523 
L 633.765511 -115.533523 
L 633.746391 -118.997414 
L 633.711854 -122.461304 
L 633.658088 -125.925195 
L 633.584968 -129.389085 
L 633.495464 -132.852975 
L 633.390761 -136.316866 
L 633.263075 -139.780756 
L 633.091864 -143.244646 
L 632.849521 -146.708537 
L 632.517684 -150.172427 
L 632.106365 -153.636318 
L 631.660931 -157.100208 
L 631.244569 -160.564098 
L 630.899599 -164.027989 
L 630.610727 -167.491879 
L 630.298701 -170.955769 
L 629.854051 -174.41966 
L 629.191829 -177.88355 
L 628.294284 -181.347441 
L 627.218294 -184.811331 
L 626.066086 -188.275221 
L 624.935377 -191.739112 
L 623.87166 -195.203002 
L 622.84254 -198.666892 
L 621.746753 -202.130783 
L 620.459672 -205.594673 
L 618.899205 -209.058564 
L 617.079288 -212.522454 
L 615.12342 -215.986344 
L 613.237525 -219.450235 
L 611.658951 -222.914125 
L 610.592711 -226.378015 
L 610.141484 -229.841906 
L 610.248574 -233.305796 
L 610.682965 -236.769687 
L 611.081913 -240.233577 
L 611.038665 -243.697467 
L 610.205726 -247.161358 
L 608.386411 -250.625248 
L 605.593681 -254.089139 
L 602.052228 -257.553029 
L 598.12396 -261.016919 
L 594.174026 -264.48081 
L 590.447555 -267.9447 
L 587.037904 -271.40859 
L 583.963695 -274.872481 
L 581.280237 -278.336371 
L 579.118745 -281.800262 
L 577.612779 -285.264152 
L 576.775395 -288.728042 
L 576.430939 -292.191933 
L 576.253281 -295.655823 
L 575.885573 -299.119713 
L 575.0786 -302.583604 
L 573.778078 -306.047494 
L 572.105621 -309.511385 
L 570.240734 -312.975275 
L 568.298354 -316.439165 
L 566.306051 -319.903056 
L 564.281764 -323.366946 
L 562.313111 -326.830836 
L 560.55847 -330.294727 
L 559.186425 -333.758617 
L 558.322728 -337.222508 
L 558.046059 -340.686398 
L 558.421748 -344.150288 
L 559.537026 -347.614179 
L 561.506027 -351.078069 
L 564.431526 -354.541959 
L 568.334138 -358.00585 
L 573.085762 -361.46974 
L 578.396592 -364.933631 
L 583.87745 -368.397521 
L 589.142361 -371.861411 
L 593.889924 -375.325302 
L 597.937913 -378.789192 
L 601.231974 -382.253083 
L 603.847664 -385.716973 
L 605.976869 -389.180863 
L 607.887578 -392.644754 
L 609.862832 -396.108644 
L 612.127048 -399.572534 
L 614.771121 -403.036425 
L 617.711963 -406.500315 
L 620.727025 -409.964206 
L 623.55437 -413.428096 
L 625.994494 -416.891986 
L 627.95808 -420.355877 
L 629.456917 -423.819767 
L 630.567949 -427.283657 
L 631.394133 -430.747548 
L 632.030525 -434.211438 
L 632.541158 -437.675329 
L 632.953688 -441.139219 
L 633.272213 -444.603109 
L 633.497317 -448.067 
L 633.639114 -451.53089 
L 633.717644 -454.99478 
L 633.755632 -458.458671 
L 633.804368 -458.458671 
L 633.804368 -458.458671 
L 633.842356 -454.99478 
L 633.920886 -451.53089 
L 634.062683 -448.067 
L 634.287787 -444.603109 
L 634.606312 -441.139219 
L 635.018842 -437.675329 
L 635.529475 -434.211438 
L 636.165867 -430.747548 
L 636.992051 -427.283657 
L 638.103083 -423.819767 
L 639.60192 -420.355877 
L 641.565506 -416.891986 
L 644.00563 -413.428096 
L 646.832975 -409.964206 
L 649.848037 -406.500315 
L 652.788879 -403.036425 
L 655.432952 -399.572534 
L 657.697168 -396.108644 
L 659.672422 -392.644754 
L 661.583131 -389.180863 
L 663.712336 -385.716973 
L 666.328026 -382.253083 
L 669.622087 -378.789192 
L 673.670076 -375.325302 
L 678.417639 -371.861411 
L 683.68255 -368.397521 
L 689.163408 -364.933631 
L 694.474238 -361.46974 
L 699.225862 -358.00585 
L 703.128474 -354.541959 
L 706.053973 -351.078069 
L 708.022974 -347.614179 
L 709.138252 -344.150288 
L 709.513941 -340.686398 
L 709.237272 -337.222508 
L 708.373575 -333.758617 
L 707.00153 -330.294727 
L 705.246889 -326.830836 
L 703.278236 -323.366946 
L 701.253949 -319.903056 
L 699.261646 -316.439165 
L 697.319266 -312.975275 
L 695.454379 -309.511385 
L 693.781922 -306.047494 
L 692.4814 -302.583604 
L 691.674427 -299.119713 
L 691.306719 -295.655823 
L 691.129061 -292.191933 
L 690.784605 -288.728042 
L 689.947221 -285.264152 
L 688.441255 -281.800262 
L 686.279763 -278.336371 
L 683.596305 -274.872481 
L 680.522096 -271.40859 
L 677.112445 -267.9447 
L 673.385974 -264.48081 
L 669.43604 -261.016919 
L 665.507772 -257.553029 
L 661.966319 -254.089139 
L 659.173589 -250.625248 
L 657.354274 -247.161358 
L 656.521335 -243.697467 
L 656.478087 -240.233577 
L 656.877035 -236.769687 
L 657.311426 -233.305796 
L 657.418516 -229.841906 
L 656.967289 -226.378015 
L 655.901049 -222.914125 
L 654.322475 -219.450235 
L 652.43658 -215.986344 
L 650.480712 -212.522454 
L 648.660795 -209.058564 
L 647.100328 -205.594673 
L 645.813247 -202.130783 
L 644.71746 -198.666892 
L 643.68834 -195.203002 
L 642.624623 -191.739112 
L 641.493914 -188.275221 
L 640.341706 -184.811331 
L 639.265716 -181.347441 
L 638.368171 -177.88355 
L 637.705949 -174.41966 
L 637.261299 -170.955769 
L 636.949273 -167.491879 
L 636.660401 -164.027989 
L 636.315431 -160.564098 
L 635.899069 -157.100208 
L 635.453635 -153.636318 
L 635.042316 -150.172427 
L 634.710479 -146.708537 
L 634.468136 -143.244646 
L 634.296925 -139.780756 
L 634.169239 -136.316866 
L 634.064536 -132.852975 
L 633.975032 -129.389085 
L 633.901912 -125.925195 
L 633.848146 -122.461304 
L 633.813609 -118.997414 
L 633.794489 -115.533523 
z
" style="stroke: #4c4c4c; stroke-width: 1.5"/>
    </defs>
    <g clip-path="url(#pcc5b823b7d)">
     <use xlink:href="#ma04891fb62" x="0" y="576" style="fill: #5875a4; stroke: #4c4c4c; stroke-width: 1.5"/>
    </g>
   </g>
   <g id="PolyCollection_4">
    <defs>
     <path id="m0513a90aa9" d="M 790.03474 -117.64521 
L 790.00526 -117.64521 
L 789.98316 -121.373238 
L 789.940554 -125.101266 
L 789.870172 -128.829295 
L 789.768515 -132.557323 
L 789.635729 -136.285351 
L 789.4706 -140.013379 
L 789.263529 -143.741407 
L 788.994416 -147.469436 
L 788.641091 -151.197464 
L 788.195651 -154.925492 
L 787.676986 -158.65352 
L 787.127379 -162.381548 
L 786.590732 -166.109576 
L 786.081948 -169.837605 
L 785.565598 -173.565633 
L 784.963948 -177.293661 
L 784.200825 -181.021689 
L 783.256894 -184.749717 
L 782.190014 -188.477745 
L 781.095063 -192.205774 
L 780.030441 -195.933802 
L 778.971117 -199.66183 
L 777.826929 -203.389858 
L 776.510069 -207.117886 
L 774.997991 -210.845915 
L 773.35209 -214.573943 
L 771.699297 -218.301971 
L 770.202111 -222.029999 
L 769.012845 -225.758027 
L 768.196745 -229.486055 
L 767.661972 -233.214084 
L 767.170867 -236.942112 
L 766.442912 -240.67014 
L 765.268994 -244.398168 
L 763.559538 -248.126196 
L 761.326953 -251.854225 
L 758.651293 -255.582253 
L 755.658908 -259.310281 
L 752.504043 -263.038309 
L 749.334799 -266.766337 
L 746.248415 -270.494365 
L 743.266994 -274.222394 
L 740.374384 -277.950422 
L 737.618819 -281.67845 
L 735.189437 -285.406478 
L 733.331898 -289.134506 
L 732.12171 -292.862535 
L 731.326982 -296.590563 
L 730.54406 -300.318591 
L 729.488613 -304.046619 
L 728.155152 -307.774647 
L 726.715484 -311.502675 
L 725.288181 -315.230704 
L 723.805969 -318.958732 
L 722.091743 -322.68676 
L 720.049453 -326.414788 
L 717.775351 -330.142816 
L 715.51088 -333.870845 
L 713.547897 -337.598873 
L 712.212621 -341.326901 
L 711.9 -345.054929 
L 713.035632 -348.782957 
L 715.918478 -352.510985 
L 720.533655 -356.239014 
L 726.477412 -359.967042 
L 733.064585 -363.69507 
L 739.560291 -367.423098 
L 745.404962 -371.151126 
L 750.329351 -374.879155 
L 754.333999 -378.607183 
L 757.580764 -382.335211 
L 760.285031 -386.063239 
L 762.671219 -389.791267 
L 764.96932 -393.519295 
L 767.385086 -397.247324 
L 770.033947 -400.975352 
L 772.899594 -404.70338 
L 775.85694 -408.431408 
L 778.73068 -412.159436 
L 781.347263 -415.887465 
L 783.572633 -419.615493 
L 785.341347 -423.343521 
L 786.668405 -427.071549 
L 787.632557 -430.799577 
L 788.336842 -434.527605 
L 788.867805 -438.255634 
L 789.27491 -441.983662 
L 789.576603 -445.71169 
L 789.780724 -449.439718 
L 789.900423 -453.167746 
L 789.956898 -456.895775 
L 789.973965 -460.623803 
L 789.972708 -464.351831 
L 789.968777 -468.079859 
L 789.970869 -471.807887 
L 789.980335 -475.535915 
L 789.993366 -479.263944 
L 790.005168 -482.991972 
L 790.013153 -486.72 
L 790.026847 -486.72 
L 790.026847 -486.72 
L 790.034832 -482.991972 
L 790.046634 -479.263944 
L 790.059665 -475.535915 
L 790.069131 -471.807887 
L 790.071223 -468.079859 
L 790.067292 -464.351831 
L 790.066035 -460.623803 
L 790.083102 -456.895775 
L 790.139577 -453.167746 
L 790.259276 -449.439718 
L 790.463397 -445.71169 
L 790.76509 -441.983662 
L 791.172195 -438.255634 
L 791.703158 -434.527605 
L 792.407443 -430.799577 
L 793.371595 -427.071549 
L 794.698653 -423.343521 
L 796.467367 -419.615493 
L 798.692737 -415.887465 
L 801.30932 -412.159436 
L 804.18306 -408.431408 
L 807.140406 -404.70338 
L 810.006053 -400.975352 
L 812.654914 -397.247324 
L 815.07068 -393.519295 
L 817.368781 -389.791267 
L 819.754969 -386.063239 
L 822.459236 -382.335211 
L 825.706001 -378.607183 
L 829.710649 -374.879155 
L 834.635038 -371.151126 
L 840.479709 -367.423098 
L 846.975415 -363.69507 
L 853.562588 -359.967042 
L 859.506345 -356.239014 
L 864.121522 -352.510985 
L 867.004368 -348.782957 
L 868.14 -345.054929 
L 867.827379 -341.326901 
L 866.492103 -337.598873 
L 864.52912 -333.870845 
L 862.264649 -330.142816 
L 859.990547 -326.414788 
L 857.948257 -322.68676 
L 856.234031 -318.958732 
L 854.751819 -315.230704 
L 853.324516 -311.502675 
L 851.884848 -307.774647 
L 850.551387 -304.046619 
L 849.49594 -300.318591 
L 848.713018 -296.590563 
L 847.91829 -292.862535 
L 846.708102 -289.134506 
L 844.850563 -285.406478 
L 842.421181 -281.67845 
L 839.665616 -277.950422 
L 836.773006 -274.222394 
L 833.791585 -270.494365 
L 830.705201 -266.766337 
L 827.535957 -263.038309 
L 824.381092 -259.310281 
L 821.388707 -255.582253 
L 818.713047 -251.854225 
L 816.480462 -248.126196 
L 814.771006 -244.398168 
L 813.597088 -240.67014 
L 812.869133 -236.942112 
L 812.378028 -233.214084 
L 811.843255 -229.486055 
L 811.027155 -225.758027 
L 809.837889 -222.029999 
L 808.340703 -218.301971 
L 806.68791 -214.573943 
L 805.042009 -210.845915 
L 803.529931 -207.117886 
L 802.213071 -203.389858 
L 801.068883 -199.66183 
L 800.009559 -195.933802 
L 798.944937 -192.205774 
L 797.849986 -188.477745 
L 796.783106 -184.749717 
L 795.839175 -181.021689 
L 795.076052 -177.293661 
L 794.474402 -173.565633 
L 793.958052 -169.837605 
L 793.449268 -166.109576 
L 792.912621 -162.381548 
L 792.363014 -158.65352 
L 791.844349 -154.925492 
L 791.398909 -151.197464 
L 791.045584 -147.469436 
L 790.776471 -143.741407 
L 790.5694 -140.013379 
L 790.404271 -136.285351 
L 790.271485 -132.557323 
L 790.169828 -128.829295 
L 790.099446 -125.101266 
L 790.05684 -121.373238 
L 790.03474 -117.64521 
z
" style="stroke: #4c4c4c; stroke-width: 1.5"/>
    </defs>
    <g clip-path="url(#pcc5b823b7d)">
     <use xlink:href="#m0513a90aa9" x="0" y="576" style="fill: #cc8963; stroke: #4c4c4c; stroke-width: 1.5"/>
    </g>
   </g>
   <g id="line2d_7">
    <path d="M 243.18 415.163288 
L 243.18 139.015377 
" clip-path="url(#pcc5b823b7d)" style="fill: none; stroke: #4c4c4c; stroke-width: 1.5; stroke-linecap: round"/>
   </g>
   <g id="line2d_8">
    <path d="M 243.18 304.081251 
L 243.18 229.734962 
" clip-path="url(#pcc5b823b7d)" style="fill: none; stroke: #4c4c4c; stroke-width: 4.5; stroke-linecap: round"/>
   </g>
   <g id="line2d_9">
    <path d="M 399.42 414.301073 
L 399.42 131.031753 
" clip-path="url(#pcc5b823b7d)" style="fill: none; stroke: #4c4c4c; stroke-width: 1.5; stroke-linecap: round"/>
   </g>
   <g id="line2d_10">
    <path d="M 399.42 300.656252 
L 399.42 224.824223 
" clip-path="url(#pcc5b823b7d)" style="fill: none; stroke: #4c4c4c; stroke-width: 4.5; stroke-linecap: round"/>
   </g>
   <g id="line2d_11">
    <path d="M 633.78 403.994675 
L 633.78 134.732402 
" clip-path="url(#pcc5b823b7d)" style="fill: none; stroke: #4c4c4c; stroke-width: 1.5; stroke-linecap: round"/>
   </g>
   <g id="line2d_12">
    <path d="M 633.78 296.612074 
L 633.78 224.702042 
" clip-path="url(#pcc5b823b7d)" style="fill: none; stroke: #4c4c4c; stroke-width: 4.5; stroke-linecap: round"/>
   </g>
   <g id="line2d_13">
    <path d="M 790.02 404.034498 
L 790.02 132.9864 
" clip-path="url(#pcc5b823b7d)" style="fill: none; stroke: #4c4c4c; stroke-width: 1.5; stroke-linecap: round"/>
   </g>
   <g id="line2d_14">
    <path d="M 790.02 296.592397 
L 790.02 224.53695 
" clip-path="url(#pcc5b823b7d)" style="fill: none; stroke: #4c4c4c; stroke-width: 4.5; stroke-linecap: round"/>
   </g>
   <g id="patch_5">
    <path d="M 126 512.64 
L 126 69.12 
" style="fill: none; stroke: #cccccc; stroke-width: 1.25; stroke-linejoin: miter; stroke-linecap: square"/>
   </g>
   <g id="patch_6">
    <path d="M 907.2 512.64 
L 907.2 69.12 
" style="fill: none; stroke: #cccccc; stroke-width: 1.25; stroke-linejoin: miter; stroke-linecap: square"/>
   </g>
   <g id="patch_7">
    <path d="M 126 512.64 
L 907.2 512.64 
" style="fill: none; stroke: #cccccc; stroke-width: 1.25; stroke-linejoin: miter; stroke-linecap: square"/>
   </g>
   <g id="patch_8">
    <path d="M 126 69.12 
L 907.2 69.12 
" style="fill: none; stroke: #cccccc; stroke-width: 1.25; stroke-linejoin: miter; stroke-linecap: square"/>
   </g>
   <g id="PathCollection_1">
    <defs>
     <path id="m4eaf80fac8" d="M 0 1.5 
C 0.397805 1.5 0.77937 1.341951 1.06066 1.06066 
C 1.341951 0.77937 1.5 0.397805 1.5 0 
C 1.5 -0.397805 1.341951 -0.77937 1.06066 -1.06066 
C 0.77937 -1.341951 0.397805 -1.5 0 -1.5 
C -0.397805 -1.5 -0.77937 -1.341951 -1.06066 -1.06066 
C -1.341951 -0.77937 -1.5 -0.397805 -1.5 0 
C -1.5 0.397805 -1.341951 0.77937 -1.06066 1.06066 
C -0.77937 1.341951 -0.397805 1.5 0 1.5 
z
" style="stroke: #4c4c4c"/>
    </defs>
    <g clip-path="url(#pcc5b823b7d)">
     <use xlink:href="#m4eaf80fac8" x="243.18" y="261.935093" style="fill: #ffffff; stroke: #4c4c4c"/>
    </g>
   </g>
   <g id="PathCollection_2">
    <g clip-path="url(#pcc5b823b7d)">
     <use xlink:href="#m4eaf80fac8" x="399.42" y="258.104253" style="fill: #ffffff; stroke: #4c4c4c"/>
    </g>
   </g>
   <g id="PathCollection_3">
    <g clip-path="url(#pcc5b823b7d)">
     <use xlink:href="#m4eaf80fac8" x="633.78" y="256.640312" style="fill: #ffffff; stroke: #4c4c4c"/>
    </g>
   </g>
   <g id="PathCollection_4">
    <g clip-path="url(#pcc5b823b7d)">
     <use xlink:href="#m4eaf80fac8" x="790.02" y="256.46786" style="fill: #ffffff; stroke: #4c4c4c"/>
    </g>
   </g>
   <g id="legend_1">
    <g id="patch_9">
     <path d="M 803.7725 125.514063 
L 899.5 125.514063 
Q 901.7 125.514063 901.7 123.314063 
L 901.7 76.82 
Q 901.7 74.62 899.5 74.62 
L 803.7725 74.62 
Q 801.5725 74.62 801.5725 76.82 
L 801.5725 123.314063 
Q 801.5725 125.514063 803.7725 125.514063 
z
" style="fill: #ffffff; opacity: 0.8; stroke: #cccccc; stroke-linejoin: miter"/>
    </g>
    <g id="text_11">
     <!-- Treatment -->
     <g style="fill: #262626" transform="translate(824.520937 87.609375)scale(0.12 -0.12)">
      <defs>
       <path id="ArialMT-54" d="M 1659 0 
L 1659 4041 
L 150 4041 
L 150 4581 
L 3781 4581 
L 3781 4041 
L 2266 4041 
L 2266 0 
L 1659 0 
z
" transform="scale(0.015625)"/>
       <path id="ArialMT-74" d="M 1650 503 
L 1731 6 
Q 1494 -44 1306 -44 
Q 1000 -44 831 53 
Q 663 150 594 308 
Q 525 466 525 972 
L 525 2881 
L 113 2881 
L 113 3319 
L 525 3319 
L 525 4141 
L 1084 4478 
L 1084 3319 
L 1650 3319 
L 1650 2881 
L 1084 2881 
L 1084 941 
Q 1084 700 1114 631 
Q 1144 563 1211 522 
Q 1278 481 1403 481 
Q 1497 481 1650 503 
z
" transform="scale(0.015625)"/>
       <path id="ArialMT-6e" d="M 422 0 
L 422 3319 
L 928 3319 
L 928 2847 
Q 1294 3394 1984 3394 
Q 2284 3394 2536 3286 
Q 2788 3178 2913 3003 
Q 3038 2828 3088 2588 
Q 3119 2431 3119 2041 
L 3119 0 
L 2556 0 
L 2556 2019 
Q 2556 2363 2490 2533 
Q 2425 2703 2258 2804 
Q 2091 2906 1866 2906 
Q 1506 2906 1245 2678 
Q 984 2450 984 1813 
L 984 0 
L 422 0 
z
" transform="scale(0.015625)"/>
      </defs>
      <use xlink:href="#ArialMT-54"/>
      <use xlink:href="#ArialMT-72" x="57.333984"/>
      <use xlink:href="#ArialMT-65" x="90.634766"/>
      <use xlink:href="#ArialMT-61" x="146.25"/>
      <use xlink:href="#ArialMT-74" x="201.865234"/>
      <use xlink:href="#ArialMT-6d" x="229.648438"/>
      <use xlink:href="#ArialMT-65" x="312.949219"/>
      <use xlink:href="#ArialMT-6e" x="368.564453"/>
      <use xlink:href="#ArialMT-74" x="424.179688"/>
     </g>
    </g>
    <g id="patch_10">
     <path d="M 805.9725 103.367969 
L 827.9725 103.367969 
L 827.9725 95.667969 
L 805.9725 95.667969 
z
" style="fill: #5875a4; stroke: #4c4c4c; stroke-width: 0.75; stroke-linejoin: miter"/>
    </g>
    <g id="text_12">
     <!-- control -->
     <g style="fill: #262626" transform="translate(836.7725 103.367969)scale(0.11 -0.11)">
      <defs>
       <path id="ArialMT-63" d="M 2588 1216 
L 3141 1144 
Q 3050 572 2676 248 
Q 2303 -75 1759 -75 
Q 1078 -75 664 370 
Q 250 816 250 1647 
Q 250 2184 428 2587 
Q 606 2991 970 3192 
Q 1334 3394 1763 3394 
Q 2303 3394 2647 3120 
Q 2991 2847 3088 2344 
L 2541 2259 
Q 2463 2594 2264 2762 
Q 2066 2931 1784 2931 
Q 1359 2931 1093 2626 
Q 828 2322 828 1663 
Q 828 994 1084 691 
Q 1341 388 1753 388 
Q 2084 388 2306 591 
Q 2528 794 2588 1216 
z
" transform="scale(0.015625)"/>
      </defs>
      <use xlink:href="#ArialMT-63"/>
      <use xlink:href="#ArialMT-6f" x="50"/>
      <use xlink:href="#ArialMT-6e" x="105.615234"/>
      <use xlink:href="#ArialMT-74" x="161.230469"/>
      <use xlink:href="#ArialMT-72" x="189.013672"/>
      <use xlink:href="#ArialMT-6f" x="222.314453"/>
      <use xlink:href="#ArialMT-6c" x="277.929688"/>
     </g>
    </g>
    <g id="patch_11">
     <path d="M 805.9725 118.927813 
L 827.9725 118.927813 
L 827.9725 111.227813 
L 805.9725 111.227813 
z
" style="fill: #cc8963; stroke: #4c4c4c; stroke-width: 0.75; stroke-linejoin: miter"/>
    </g>
    <g id="text_13">
     <!-- deltamethrin -->
     <g style="fill: #262626" transform="translate(836.7725 118.927813)scale(0.11 -0.11)">
      <defs>
       <path id="ArialMT-68" d="M 422 0 
L 422 4581 
L 984 4581 
L 984 2938 
Q 1378 3394 1978 3394 
Q 2347 3394 2619 3248 
Q 2891 3103 3008 2847 
Q 3125 2591 3125 2103 
L 3125 0 
L 2563 0 
L 2563 2103 
Q 2563 2525 2380 2717 
Q 2197 2909 1863 2909 
Q 1613 2909 1392 2779 
Q 1172 2650 1078 2428 
Q 984 2206 984 1816 
L 984 0 
L 422 0 
z
" transform="scale(0.015625)"/>
      </defs>
      <use xlink:href="#ArialMT-64"/>
      <use xlink:href="#ArialMT-65" x="55.615234"/>
      <use xlink:href="#ArialMT-6c" x="111.230469"/>
      <use xlink:href="#ArialMT-74" x="133.447266"/>
      <use xlink:href="#ArialMT-61" x="161.230469"/>
      <use xlink:href="#ArialMT-6d" x="216.845703"/>
      <use xlink:href="#ArialMT-65" x="300.146484"/>
      <use xlink:href="#ArialMT-74" x="355.761719"/>
      <use xlink:href="#ArialMT-68" x="383.544922"/>
      <use xlink:href="#ArialMT-72" x="439.160156"/>
      <use xlink:href="#ArialMT-69" x="472.460938"/>
      <use xlink:href="#ArialMT-6e" x="494.677734"/>
     </g>
    </g>
   </g>
  </g>
 </g>
 <defs>
  <clipPath id="pcc5b823b7d">
   <rect x="126" y="69.12" width="781.2" height="443.52"/>
  </clipPath>
 </defs>
</svg>
