<?xml version="1.0" encoding="utf-8" standalone="no"?>
<!DOCTYPE svg PUBLIC "-//W3C//DTD SVG 1.1//EN"
  "http://www.w3.org/Graphics/SVG/1.1/DTD/svg11.dtd">
<svg xmlns:xlink="http://www.w3.org/1999/xlink" width="864pt" height="576pt" viewBox="0 0 864 576" xmlns="http://www.w3.org/2000/svg" version="1.1">
 <metadata>
  <rdf:RDF xmlns:dc="http://purl.org/dc/elements/1.1/" xmlns:cc="http://creativecommons.org/ns#" xmlns:rdf="http://www.w3.org/1999/02/22-rdf-syntax-ns#">
   <cc:Work>
    <dc:type rdf:resource="http://purl.org/dc/dcmitype/StillImage"/>
    <dc:date>2023-01-30T15:25:26.299040</dc:date>
    <dc:format>image/svg+xml</dc:format>
    <dc:creator>
     <cc:Agent>
      <dc:title>Matplotlib v3.5.0, https://matplotlib.org/</dc:title>
     </cc:Agent>
    </dc:creator>
   </cc:Work>
  </rdf:RDF>
 </metadata>
 <defs>
  <style type="text/css">*{stroke-linejoin: round; stroke-linecap: butt}</style>
 </defs>
 <g id="figure_1">
  <g id="patch_1">
   <path d="M 0 576 
L 864 576 
L 864 0 
L 0 0 
z
" style="fill: #ffffff"/>
  </g>
  <g id="axes_1">
   <g id="patch_2">
    <path d="M 108 512.64 
L 777.6 512.64 
L 777.6 69.12 
L 108 69.12 
z
" style="fill: #ffffff"/>
   </g>
   <g id="matplotlib.axis_1">
    <g id="xtick_1">
     <g id="text_1">
      <!-- striatum -->
      <g style="fill: #262626" transform="translate(255.842344 530.013594)scale(0.11 -0.11)">
       <defs>
        <path id="ArialMT-73" d="M 197 991 
L 753 1078 
Q 800 744 1014 566 
Q 1228 388 1613 388 
Q 2000 388 2187 545 
Q 2375 703 2375 916 
Q 2375 1106 2209 1216 
Q 2094 1291 1634 1406 
Q 1016 1563 777 1677 
Q 538 1791 414 1992 
Q 291 2194 291 2438 
Q 291 2659 392 2848 
Q 494 3038 669 3163 
Q 800 3259 1026 3326 
Q 1253 3394 1513 3394 
Q 1903 3394 2198 3281 
Q 2494 3169 2634 2976 
Q 2775 2784 2828 2463 
L 2278 2388 
Q 2241 2644 2061 2787 
Q 1881 2931 1553 2931 
Q 1166 2931 1000 2803 
Q 834 2675 834 2503 
Q 834 2394 903 2306 
Q 972 2216 1119 2156 
Q 1203 2125 1616 2013 
Q 2213 1853 2448 1751 
Q 2684 1650 2818 1456 
Q 2953 1263 2953 975 
Q 2953 694 2789 445 
Q 2625 197 2315 61 
Q 2006 -75 1616 -75 
Q 969 -75 630 194 
Q 291 463 197 991 
z
" transform="scale(0.015625)"/>
        <path id="ArialMT-74" d="M 1650 503 
L 1731 6 
Q 1494 -44 1306 -44 
Q 1000 -44 831 53 
Q 663 150 594 308 
Q 525 466 525 972 
L 525 2881 
L 113 2881 
L 113 3319 
L 525 3319 
L 525 4141 
L 1084 4478 
L 1084 3319 
L 1650 3319 
L 1650 2881 
L 1084 2881 
L 1084 941 
Q 1084 700 1114 631 
Q 1144 563 1211 522 
Q 1278 481 1403 481 
Q 1497 481 1650 503 
z
" transform="scale(0.015625)"/>
        <path id="ArialMT-72" d="M 416 0 
L 416 3319 
L 922 3319 
L 922 2816 
Q 1116 3169 1280 3281 
Q 1444 3394 1641 3394 
Q 1925 3394 2219 3213 
L 2025 2691 
Q 1819 2813 1613 2813 
Q 1428 2813 1281 2702 
Q 1134 2591 1072 2394 
Q 978 2094 978 1738 
L 978 0 
L 416 0 
z
" transform="scale(0.015625)"/>
        <path id="ArialMT-69" d="M 425 3934 
L 425 4581 
L 988 4581 
L 988 3934 
L 425 3934 
z
M 425 0 
L 425 3319 
L 988 3319 
L 988 0 
L 425 0 
z
" transform="scale(0.015625)"/>
        <path id="ArialMT-61" d="M 2588 409 
Q 2275 144 1986 34 
Q 1697 -75 1366 -75 
Q 819 -75 525 192 
Q 231 459 231 875 
Q 231 1119 342 1320 
Q 453 1522 633 1644 
Q 813 1766 1038 1828 
Q 1203 1872 1538 1913 
Q 2219 1994 2541 2106 
Q 2544 2222 2544 2253 
Q 2544 2597 2384 2738 
Q 2169 2928 1744 2928 
Q 1347 2928 1158 2789 
Q 969 2650 878 2297 
L 328 2372 
Q 403 2725 575 2942 
Q 747 3159 1072 3276 
Q 1397 3394 1825 3394 
Q 2250 3394 2515 3294 
Q 2781 3194 2906 3042 
Q 3031 2891 3081 2659 
Q 3109 2516 3109 2141 
L 3109 1391 
Q 3109 606 3145 398 
Q 3181 191 3288 0 
L 2700 0 
Q 2613 175 2588 409 
z
M 2541 1666 
Q 2234 1541 1622 1453 
Q 1275 1403 1131 1340 
Q 988 1278 909 1158 
Q 831 1038 831 891 
Q 831 666 1001 516 
Q 1172 366 1500 366 
Q 1825 366 2078 508 
Q 2331 650 2450 897 
Q 2541 1088 2541 1459 
L 2541 1666 
z
" transform="scale(0.015625)"/>
        <path id="ArialMT-75" d="M 2597 0 
L 2597 488 
Q 2209 -75 1544 -75 
Q 1250 -75 995 37 
Q 741 150 617 320 
Q 494 491 444 738 
Q 409 903 409 1263 
L 409 3319 
L 972 3319 
L 972 1478 
Q 972 1038 1006 884 
Q 1059 663 1231 536 
Q 1403 409 1656 409 
Q 1909 409 2131 539 
Q 2353 669 2445 892 
Q 2538 1116 2538 1541 
L 2538 3319 
L 3100 3319 
L 3100 0 
L 2597 0 
z
" transform="scale(0.015625)"/>
        <path id="ArialMT-6d" d="M 422 0 
L 422 3319 
L 925 3319 
L 925 2853 
Q 1081 3097 1340 3245 
Q 1600 3394 1931 3394 
Q 2300 3394 2536 3241 
Q 2772 3088 2869 2813 
Q 3263 3394 3894 3394 
Q 4388 3394 4653 3120 
Q 4919 2847 4919 2278 
L 4919 0 
L 4359 0 
L 4359 2091 
Q 4359 2428 4304 2576 
Q 4250 2725 4106 2815 
Q 3963 2906 3769 2906 
Q 3419 2906 3187 2673 
Q 2956 2441 2956 1928 
L 2956 0 
L 2394 0 
L 2394 2156 
Q 2394 2531 2256 2718 
Q 2119 2906 1806 2906 
Q 1569 2906 1367 2781 
Q 1166 2656 1075 2415 
Q 984 2175 984 1722 
L 984 0 
L 422 0 
z
" transform="scale(0.015625)"/>
       </defs>
       <use xlink:href="#ArialMT-73"/>
       <use xlink:href="#ArialMT-74" x="50"/>
       <use xlink:href="#ArialMT-72" x="77.783203"/>
       <use xlink:href="#ArialMT-69" x="111.083984"/>
       <use xlink:href="#ArialMT-61" x="133.300781"/>
       <use xlink:href="#ArialMT-74" x="188.916016"/>
       <use xlink:href="#ArialMT-75" x="216.699219"/>
       <use xlink:href="#ArialMT-6d" x="272.314453"/>
      </g>
     </g>
    </g>
    <g id="xtick_2">
     <g id="text_2">
      <!-- cortex -->
      <g style="fill: #262626" transform="translate(595.223672 530.013594)scale(0.11 -0.11)">
       <defs>
        <path id="ArialMT-63" d="M 2588 1216 
L 3141 1144 
Q 3050 572 2676 248 
Q 2303 -75 1759 -75 
Q 1078 -75 664 370 
Q 250 816 250 1647 
Q 250 2184 428 2587 
Q 606 2991 970 3192 
Q 1334 3394 1763 3394 
Q 2303 3394 2647 3120 
Q 2991 2847 3088 2344 
L 2541 2259 
Q 2463 2594 2264 2762 
Q 2066 2931 1784 2931 
Q 1359 2931 1093 2626 
Q 828 2322 828 1663 
Q 828 994 1084 691 
Q 1341 388 1753 388 
Q 2084 388 2306 591 
Q 2528 794 2588 1216 
z
" transform="scale(0.015625)"/>
        <path id="ArialMT-6f" d="M 213 1659 
Q 213 2581 725 3025 
Q 1153 3394 1769 3394 
Q 2453 3394 2887 2945 
Q 3322 2497 3322 1706 
Q 3322 1066 3130 698 
Q 2938 331 2570 128 
Q 2203 -75 1769 -75 
Q 1072 -75 642 372 
Q 213 819 213 1659 
z
M 791 1659 
Q 791 1022 1069 705 
Q 1347 388 1769 388 
Q 2188 388 2466 706 
Q 2744 1025 2744 1678 
Q 2744 2294 2464 2611 
Q 2184 2928 1769 2928 
Q 1347 2928 1069 2612 
Q 791 2297 791 1659 
z
" transform="scale(0.015625)"/>
        <path id="ArialMT-65" d="M 2694 1069 
L 3275 997 
Q 3138 488 2766 206 
Q 2394 -75 1816 -75 
Q 1088 -75 661 373 
Q 234 822 234 1631 
Q 234 2469 665 2931 
Q 1097 3394 1784 3394 
Q 2450 3394 2872 2941 
Q 3294 2488 3294 1666 
Q 3294 1616 3291 1516 
L 816 1516 
Q 847 969 1125 678 
Q 1403 388 1819 388 
Q 2128 388 2347 550 
Q 2566 713 2694 1069 
z
M 847 1978 
L 2700 1978 
Q 2663 2397 2488 2606 
Q 2219 2931 1791 2931 
Q 1403 2931 1139 2672 
Q 875 2413 847 1978 
z
" transform="scale(0.015625)"/>
        <path id="ArialMT-78" d="M 47 0 
L 1259 1725 
L 138 3319 
L 841 3319 
L 1350 2541 
Q 1494 2319 1581 2169 
Q 1719 2375 1834 2534 
L 2394 3319 
L 3066 3319 
L 1919 1756 
L 3153 0 
L 2463 0 
L 1781 1031 
L 1600 1309 
L 728 0 
L 47 0 
z
" transform="scale(0.015625)"/>
       </defs>
       <use xlink:href="#ArialMT-63"/>
       <use xlink:href="#ArialMT-6f" x="50"/>
       <use xlink:href="#ArialMT-72" x="105.615234"/>
       <use xlink:href="#ArialMT-74" x="138.916016"/>
       <use xlink:href="#ArialMT-65" x="166.699219"/>
       <use xlink:href="#ArialMT-78" x="222.314453"/>
      </g>
     </g>
    </g>
    <g id="text_3">
     <!-- Tissue Type -->
     <g style="fill: #262626" transform="translate(410.784375 544.789219)scale(0.12 -0.12)">
      <defs>
       <path id="ArialMT-54" d="M 1659 0 
L 1659 4041 
L 150 4041 
L 150 4581 
L 3781 4581 
L 3781 4041 
L 2266 4041 
L 2266 0 
L 1659 0 
z
" transform="scale(0.015625)"/>
       <path id="ArialMT-20" transform="scale(0.015625)"/>
       <path id="ArialMT-79" d="M 397 -1278 
L 334 -750 
Q 519 -800 656 -800 
Q 844 -800 956 -737 
Q 1069 -675 1141 -563 
Q 1194 -478 1313 -144 
Q 1328 -97 1363 -6 
L 103 3319 
L 709 3319 
L 1400 1397 
Q 1534 1031 1641 628 
Q 1738 1016 1872 1384 
L 2581 3319 
L 3144 3319 
L 1881 -56 
Q 1678 -603 1566 -809 
Q 1416 -1088 1222 -1217 
Q 1028 -1347 759 -1347 
Q 597 -1347 397 -1278 
z
" transform="scale(0.015625)"/>
       <path id="ArialMT-70" d="M 422 -1272 
L 422 3319 
L 934 3319 
L 934 2888 
Q 1116 3141 1344 3267 
Q 1572 3394 1897 3394 
Q 2322 3394 2647 3175 
Q 2972 2956 3137 2557 
Q 3303 2159 3303 1684 
Q 3303 1175 3120 767 
Q 2938 359 2589 142 
Q 2241 -75 1856 -75 
Q 1575 -75 1351 44 
Q 1128 163 984 344 
L 984 -1272 
L 422 -1272 
z
M 931 1641 
Q 931 1000 1190 694 
Q 1450 388 1819 388 
Q 2194 388 2461 705 
Q 2728 1022 2728 1688 
Q 2728 2322 2467 2637 
Q 2206 2953 1844 2953 
Q 1484 2953 1207 2617 
Q 931 2281 931 1641 
z
" transform="scale(0.015625)"/>
      </defs>
      <use xlink:href="#ArialMT-54"/>
      <use xlink:href="#ArialMT-69" x="57.333984"/>
      <use xlink:href="#ArialMT-73" x="79.550781"/>
      <use xlink:href="#ArialMT-73" x="129.550781"/>
      <use xlink:href="#ArialMT-75" x="179.550781"/>
      <use xlink:href="#ArialMT-65" x="235.166016"/>
      <use xlink:href="#ArialMT-20" x="290.78125"/>
      <use xlink:href="#ArialMT-54" x="316.814453"/>
      <use xlink:href="#ArialMT-79" x="372.398438"/>
      <use xlink:href="#ArialMT-70" x="422.398438"/>
      <use xlink:href="#ArialMT-65" x="478.013672"/>
     </g>
    </g>
   </g>
   <g id="matplotlib.axis_2">
    <g id="ytick_1">
     <g id="line2d_1">
      <path d="M 108 476.705756 
L 777.6 476.705756 
" clip-path="url(#pd5e86b77f7)" style="fill: none; stroke: #cccccc; stroke-linecap: round"/>
     </g>
     <g id="text_4">
      <!-- −8 -->
      <g style="fill: #262626" transform="translate(85.958281 480.642553)scale(0.11 -0.11)">
       <defs>
        <path id="ArialMT-2212" d="M 3381 1997 
L 356 1997 
L 356 2522 
L 3381 2522 
L 3381 1997 
z
" transform="scale(0.015625)"/>
        <path id="ArialMT-38" d="M 1131 2484 
Q 781 2613 612 2850 
Q 444 3088 444 3419 
Q 444 3919 803 4259 
Q 1163 4600 1759 4600 
Q 2359 4600 2725 4251 
Q 3091 3903 3091 3403 
Q 3091 3084 2923 2848 
Q 2756 2613 2416 2484 
Q 2838 2347 3058 2040 
Q 3278 1734 3278 1309 
Q 3278 722 2862 322 
Q 2447 -78 1769 -78 
Q 1091 -78 675 323 
Q 259 725 259 1325 
Q 259 1772 486 2073 
Q 713 2375 1131 2484 
z
M 1019 3438 
Q 1019 3113 1228 2906 
Q 1438 2700 1772 2700 
Q 2097 2700 2305 2904 
Q 2513 3109 2513 3406 
Q 2513 3716 2298 3927 
Q 2084 4138 1766 4138 
Q 1444 4138 1231 3931 
Q 1019 3725 1019 3438 
z
M 838 1322 
Q 838 1081 952 856 
Q 1066 631 1291 507 
Q 1516 384 1775 384 
Q 2178 384 2440 643 
Q 2703 903 2703 1303 
Q 2703 1709 2433 1975 
Q 2163 2241 1756 2241 
Q 1359 2241 1098 1978 
Q 838 1716 838 1322 
z
" transform="scale(0.015625)"/>
       </defs>
       <use xlink:href="#ArialMT-2212"/>
       <use xlink:href="#ArialMT-38" x="58.398438"/>
      </g>
     </g>
    </g>
    <g id="ytick_2">
     <g id="line2d_2">
      <path d="M 108 396.301656 
L 777.6 396.301656 
" clip-path="url(#pd5e86b77f7)" style="fill: none; stroke: #cccccc; stroke-linecap: round"/>
     </g>
     <g id="text_5">
      <!-- −6 -->
      <g style="fill: #262626" transform="translate(85.958281 400.238453)scale(0.11 -0.11)">
       <defs>
        <path id="ArialMT-36" d="M 3184 3459 
L 2625 3416 
Q 2550 3747 2413 3897 
Q 2184 4138 1850 4138 
Q 1581 4138 1378 3988 
Q 1113 3794 959 3422 
Q 806 3050 800 2363 
Q 1003 2672 1297 2822 
Q 1591 2972 1913 2972 
Q 2475 2972 2870 2558 
Q 3266 2144 3266 1488 
Q 3266 1056 3080 686 
Q 2894 316 2569 119 
Q 2244 -78 1831 -78 
Q 1128 -78 684 439 
Q 241 956 241 2144 
Q 241 3472 731 4075 
Q 1159 4600 1884 4600 
Q 2425 4600 2770 4297 
Q 3116 3994 3184 3459 
z
M 888 1484 
Q 888 1194 1011 928 
Q 1134 663 1356 523 
Q 1578 384 1822 384 
Q 2178 384 2434 671 
Q 2691 959 2691 1453 
Q 2691 1928 2437 2201 
Q 2184 2475 1800 2475 
Q 1419 2475 1153 2201 
Q 888 1928 888 1484 
z
" transform="scale(0.015625)"/>
       </defs>
       <use xlink:href="#ArialMT-2212"/>
       <use xlink:href="#ArialMT-36" x="58.398438"/>
      </g>
     </g>
    </g>
    <g id="ytick_3">
     <g id="line2d_3">
      <path d="M 108 315.897555 
L 777.6 315.897555 
" clip-path="url(#pd5e86b77f7)" style="fill: none; stroke: #cccccc; stroke-linecap: round"/>
     </g>
     <g id="text_6">
      <!-- −4 -->
      <g style="fill: #262626" transform="translate(85.958281 319.834352)scale(0.11 -0.11)">
       <defs>
        <path id="ArialMT-34" d="M 2069 0 
L 2069 1097 
L 81 1097 
L 81 1613 
L 2172 4581 
L 2631 4581 
L 2631 1613 
L 3250 1613 
L 3250 1097 
L 2631 1097 
L 2631 0 
L 2069 0 
z
M 2069 1613 
L 2069 3678 
L 634 1613 
L 2069 1613 
z
" transform="scale(0.015625)"/>
       </defs>
       <use xlink:href="#ArialMT-2212"/>
       <use xlink:href="#ArialMT-34" x="58.398438"/>
      </g>
     </g>
    </g>
    <g id="ytick_4">
     <g id="line2d_4">
      <path d="M 108 235.493455 
L 777.6 235.493455 
" clip-path="url(#pd5e86b77f7)" style="fill: none; stroke: #cccccc; stroke-linecap: round"/>
     </g>
     <g id="text_7">
      <!-- −2 -->
      <g style="fill: #262626" transform="translate(85.958281 239.430252)scale(0.11 -0.11)">
       <defs>
        <path id="ArialMT-32" d="M 3222 541 
L 3222 0 
L 194 0 
Q 188 203 259 391 
Q 375 700 629 1000 
Q 884 1300 1366 1694 
Q 2113 2306 2375 2664 
Q 2638 3022 2638 3341 
Q 2638 3675 2398 3904 
Q 2159 4134 1775 4134 
Q 1369 4134 1125 3890 
Q 881 3647 878 3216 
L 300 3275 
Q 359 3922 746 4261 
Q 1134 4600 1788 4600 
Q 2447 4600 2831 4234 
Q 3216 3869 3216 3328 
Q 3216 3053 3103 2787 
Q 2991 2522 2730 2228 
Q 2469 1934 1863 1422 
Q 1356 997 1212 845 
Q 1069 694 975 541 
L 3222 541 
z
" transform="scale(0.015625)"/>
       </defs>
       <use xlink:href="#ArialMT-2212"/>
       <use xlink:href="#ArialMT-32" x="58.398438"/>
      </g>
     </g>
    </g>
    <g id="ytick_5">
     <g id="line2d_5">
      <path d="M 108 155.089354 
L 777.6 155.089354 
" clip-path="url(#pd5e86b77f7)" style="fill: none; stroke: #cccccc; stroke-linecap: round"/>
     </g>
     <g id="text_8">
      <!-- 0 -->
      <g style="fill: #262626" transform="translate(92.382969 159.026151)scale(0.11 -0.11)">
       <defs>
        <path id="ArialMT-30" d="M 266 2259 
Q 266 3072 433 3567 
Q 600 4063 929 4331 
Q 1259 4600 1759 4600 
Q 2128 4600 2406 4451 
Q 2684 4303 2865 4023 
Q 3047 3744 3150 3342 
Q 3253 2941 3253 2259 
Q 3253 1453 3087 958 
Q 2922 463 2592 192 
Q 2263 -78 1759 -78 
Q 1097 -78 719 397 
Q 266 969 266 2259 
z
M 844 2259 
Q 844 1131 1108 757 
Q 1372 384 1759 384 
Q 2147 384 2411 759 
Q 2675 1134 2675 2259 
Q 2675 3391 2411 3762 
Q 2147 4134 1753 4134 
Q 1366 4134 1134 3806 
Q 844 3388 844 2259 
z
" transform="scale(0.015625)"/>
       </defs>
       <use xlink:href="#ArialMT-30"/>
      </g>
     </g>
    </g>
    <g id="ytick_6">
     <g id="line2d_6">
      <path d="M 108 74.685254 
L 777.6 74.685254 
" clip-path="url(#pd5e86b77f7)" style="fill: none; stroke: #cccccc; stroke-linecap: round"/>
     </g>
     <g id="text_9">
      <!-- 2 -->
      <g style="fill: #262626" transform="translate(92.382969 78.622051)scale(0.11 -0.11)">
       <use xlink:href="#ArialMT-32"/>
      </g>
     </g>
    </g>
    <g id="text_10">
     <!-- logNormalizedArea -->
     <g style="fill: #262626" transform="translate(79.432656 341.900625)rotate(-90)scale(0.12 -0.12)">
      <defs>
       <path id="ArialMT-6c" d="M 409 0 
L 409 4581 
L 972 4581 
L 972 0 
L 409 0 
z
" transform="scale(0.015625)"/>
       <path id="ArialMT-67" d="M 319 -275 
L 866 -356 
Q 900 -609 1056 -725 
Q 1266 -881 1628 -881 
Q 2019 -881 2231 -725 
Q 2444 -569 2519 -288 
Q 2563 -116 2559 434 
Q 2191 0 1641 0 
Q 956 0 581 494 
Q 206 988 206 1678 
Q 206 2153 378 2554 
Q 550 2956 876 3175 
Q 1203 3394 1644 3394 
Q 2231 3394 2613 2919 
L 2613 3319 
L 3131 3319 
L 3131 450 
Q 3131 -325 2973 -648 
Q 2816 -972 2473 -1159 
Q 2131 -1347 1631 -1347 
Q 1038 -1347 672 -1080 
Q 306 -813 319 -275 
z
M 784 1719 
Q 784 1066 1043 766 
Q 1303 466 1694 466 
Q 2081 466 2343 764 
Q 2606 1063 2606 1700 
Q 2606 2309 2336 2618 
Q 2066 2928 1684 2928 
Q 1309 2928 1046 2623 
Q 784 2319 784 1719 
z
" transform="scale(0.015625)"/>
       <path id="ArialMT-4e" d="M 488 0 
L 488 4581 
L 1109 4581 
L 3516 984 
L 3516 4581 
L 4097 4581 
L 4097 0 
L 3475 0 
L 1069 3600 
L 1069 0 
L 488 0 
z
" transform="scale(0.015625)"/>
       <path id="ArialMT-7a" d="M 125 0 
L 125 456 
L 2238 2881 
Q 1878 2863 1603 2863 
L 250 2863 
L 250 3319 
L 2963 3319 
L 2963 2947 
L 1166 841 
L 819 456 
Q 1197 484 1528 484 
L 3063 484 
L 3063 0 
L 125 0 
z
" transform="scale(0.015625)"/>
       <path id="ArialMT-64" d="M 2575 0 
L 2575 419 
Q 2259 -75 1647 -75 
Q 1250 -75 917 144 
Q 584 363 401 755 
Q 219 1147 219 1656 
Q 219 2153 384 2558 
Q 550 2963 881 3178 
Q 1213 3394 1622 3394 
Q 1922 3394 2156 3267 
Q 2391 3141 2538 2938 
L 2538 4581 
L 3097 4581 
L 3097 0 
L 2575 0 
z
M 797 1656 
Q 797 1019 1065 703 
Q 1334 388 1700 388 
Q 2069 388 2326 689 
Q 2584 991 2584 1609 
Q 2584 2291 2321 2609 
Q 2059 2928 1675 2928 
Q 1300 2928 1048 2622 
Q 797 2316 797 1656 
z
" transform="scale(0.015625)"/>
       <path id="ArialMT-41" d="M -9 0 
L 1750 4581 
L 2403 4581 
L 4278 0 
L 3588 0 
L 3053 1388 
L 1138 1388 
L 634 0 
L -9 0 
z
M 1313 1881 
L 2866 1881 
L 2388 3150 
Q 2169 3728 2063 4100 
Q 1975 3659 1816 3225 
L 1313 1881 
z
" transform="scale(0.015625)"/>
      </defs>
      <use xlink:href="#ArialMT-6c"/>
      <use xlink:href="#ArialMT-6f" x="22.216797"/>
      <use xlink:href="#ArialMT-67" x="77.832031"/>
      <use xlink:href="#ArialMT-4e" x="133.447266"/>
      <use xlink:href="#ArialMT-6f" x="205.664062"/>
      <use xlink:href="#ArialMT-72" x="261.279297"/>
      <use xlink:href="#ArialMT-6d" x="294.580078"/>
      <use xlink:href="#ArialMT-61" x="377.880859"/>
      <use xlink:href="#ArialMT-6c" x="433.496094"/>
      <use xlink:href="#ArialMT-69" x="455.712891"/>
      <use xlink:href="#ArialMT-7a" x="477.929688"/>
      <use xlink:href="#ArialMT-65" x="527.929688"/>
      <use xlink:href="#ArialMT-64" x="583.544922"/>
      <use xlink:href="#ArialMT-41" x="639.160156"/>
      <use xlink:href="#ArialMT-72" x="705.859375"/>
      <use xlink:href="#ArialMT-65" x="739.160156"/>
      <use xlink:href="#ArialMT-61" x="794.775391"/>
     </g>
    </g>
   </g>
   <g id="patch_3">
    <path d="M 275.4 155.089354 
L 275.4 155.089354 
L 275.4 155.089354 
L 275.4 155.089354 
z
" clip-path="url(#pd5e86b77f7)" style="fill: #5875a4; stroke: #4c4c4c; stroke-width: 0.75; stroke-linejoin: miter"/>
   </g>
   <g id="PolyCollection_1">
    <defs>
     <path id="mf413196996" d="M 208.459865 -115.514746 
L 208.420135 -115.514746 
L 208.390421 -118.972877 
L 208.333343 -122.431008 
L 208.239941 -125.889139 
L 208.107705 -129.34727 
L 207.941263 -132.805401 
L 207.746184 -136.263532 
L 207.518711 -139.721663 
L 207.239324 -143.179794 
L 206.879196 -146.637925 
L 206.423069 -150.096056 
L 205.898259 -153.554187 
L 205.385235 -157.012318 
L 204.988633 -160.470449 
L 204.776182 -163.92858 
L 204.726322 -167.386711 
L 204.727767 -170.844842 
L 204.635799 -174.302973 
L 204.344662 -177.761104 
L 203.826831 -181.219235 
L 203.122666 -184.677366 
L 202.301587 -188.135497 
L 201.425803 -191.593628 
L 200.531128 -195.051759 
L 199.620755 -198.50989 
L 198.664533 -201.968021 
L 197.603958 -205.426152 
L 196.367867 -208.884283 
L 194.901893 -212.342414 
L 193.208848 -215.800545 
L 191.381267 -219.258676 
L 189.588385 -222.716807 
L 187.997308 -226.174938 
L 186.673019 -229.633069 
L 185.540966 -233.0912 
L 184.439876 -236.549331 
L 183.197156 -240.007462 
L 181.650348 -243.465593 
L 179.633748 -246.923724 
L 177.019872 -250.381855 
L 173.839833 -253.839986 
L 170.371123 -257.298117 
L 167.058077 -260.756248 
L 164.283941 -264.214379 
L 162.179269 -267.67251 
L 160.627661 -271.130641 
L 159.438932 -274.588772 
L 158.515465 -278.046903 
L 157.877224 -281.505034 
L 157.560742 -284.963165 
L 157.506528 -288.421296 
L 157.527459 -291.879427 
L 157.36777 -295.337558 
L 156.809309 -298.795689 
L 155.770094 -302.25382 
L 154.333734 -305.711951 
L 152.671784 -309.170082 
L 150.912445 -312.628213 
L 149.083122 -316.086344 
L 147.185848 -319.544475 
L 145.309356 -323.002606 
L 143.642122 -326.460737 
L 142.381155 -329.918868 
L 141.647396 -333.376999 
L 141.48 -336.83513 
L 141.883291 -340.293261 
L 142.875362 -343.751391 
L 144.512157 -347.209522 
L 146.871972 -350.667653 
L 150.001887 -354.125784 
L 153.859409 -357.583915 
L 158.286524 -361.042046 
L 163.025262 -364.500177 
L 167.762336 -367.958308 
L 172.187493 -371.416439 
L 176.056375 -374.87457 
L 179.25162 -378.332701 
L 181.819241 -381.790832 
L 183.942401 -385.248963 
L 185.852187 -388.707094 
L 187.739353 -392.165225 
L 189.726411 -395.623356 
L 191.880741 -399.081487 
L 194.210556 -402.539618 
L 196.64002 -405.997749 
L 199.015362 -409.45588 
L 201.164668 -412.914011 
L 202.968621 -416.372142 
L 204.390363 -419.830273 
L 205.460024 -423.288404 
L 206.24396 -426.746535 
L 206.820124 -430.204666 
L 207.259611 -433.662797 
L 207.611326 -437.120928 
L 207.895888 -440.579059 
L 208.114488 -444.03719 
L 208.265897 -447.495321 
L 208.357726 -450.953452 
L 208.405882 -454.411583 
L 208.427636 -457.869714 
L 208.452364 -457.869714 
L 208.452364 -457.869714 
L 208.474118 -454.411583 
L 208.522274 -450.953452 
L 208.614103 -447.495321 
L 208.765512 -444.03719 
L 208.984112 -440.579059 
L 209.268674 -437.120928 
L 209.620389 -433.662797 
L 210.059876 -430.204666 
L 210.63604 -426.746535 
L 211.419976 -423.288404 
L 212.489637 -419.830273 
L 213.911379 -416.372142 
L 215.715332 -412.914011 
L 217.864638 -409.45588 
L 220.23998 -405.997749 
L 222.669444 -402.539618 
L 224.999259 -399.081487 
L 227.153589 -395.623356 
L 229.140647 -392.165225 
L 231.027813 -388.707094 
L 232.937599 -385.248963 
L 235.060759 -381.790832 
L 237.62838 -378.332701 
L 240.823625 -374.87457 
L 244.692507 -371.416439 
L 249.117664 -367.958308 
L 253.854738 -364.500177 
L 258.593476 -361.042046 
L 263.020591 -357.583915 
L 266.878113 -354.125784 
L 270.008028 -350.667653 
L 272.367843 -347.209522 
L 274.004638 -343.751391 
L 274.996709 -340.293261 
L 275.4 -336.83513 
L 275.232604 -333.376999 
L 274.498845 -329.918868 
L 273.237878 -326.460737 
L 271.570644 -323.002606 
L 269.694152 -319.544475 
L 267.796878 -316.086344 
L 265.967555 -312.628213 
L 264.208216 -309.170082 
L 262.546266 -305.711951 
L 261.109906 -302.25382 
L 260.070691 -298.795689 
L 259.51223 -295.337558 
L 259.352541 -291.879427 
L 259.373472 -288.421296 
L 259.319258 -284.963165 
L 259.002776 -281.505034 
L 258.364535 -278.046903 
L 257.441068 -274.588772 
L 256.252339 -271.130641 
L 254.700731 -267.67251 
L 252.596059 -264.214379 
L 249.821923 -260.756248 
L 246.508877 -257.298117 
L 243.040167 -253.839986 
L 239.860128 -250.381855 
L 237.246252 -246.923724 
L 235.229652 -243.465593 
L 233.682844 -240.007462 
L 232.440124 -236.549331 
L 231.339034 -233.0912 
L 230.206981 -229.633069 
L 228.882692 -226.174938 
L 227.291615 -222.716807 
L 225.498733 -219.258676 
L 223.671152 -215.800545 
L 221.978107 -212.342414 
L 220.512133 -208.884283 
L 219.276042 -205.426152 
L 218.215467 -201.968021 
L 217.259245 -198.50989 
L 216.348872 -195.051759 
L 215.454197 -191.593628 
L 214.578413 -188.135497 
L 213.757334 -184.677366 
L 213.053169 -181.219235 
L 212.535338 -177.761104 
L 212.244201 -174.302973 
L 212.152233 -170.844842 
L 212.153678 -167.386711 
L 212.103818 -163.92858 
L 211.891367 -160.470449 
L 211.494765 -157.012318 
L 210.981741 -153.554187 
L 210.456931 -150.096056 
L 210.000804 -146.637925 
L 209.640676 -143.179794 
L 209.361289 -139.721663 
L 209.133816 -136.263532 
L 208.938737 -132.805401 
L 208.772295 -129.34727 
L 208.640059 -125.889139 
L 208.546657 -122.431008 
L 208.489579 -118.972877 
L 208.459865 -115.514746 
z
" style="stroke: #4c4c4c; stroke-width: 1.5"/>
    </defs>
    <g clip-path="url(#pd5e86b77f7)">
     <use xlink:href="#mf413196996" x="0" y="576" style="fill: #5875a4; stroke: #4c4c4c; stroke-width: 1.5"/>
    </g>
   </g>
   <g id="patch_4">
    <path d="M 275.4 155.089354 
L 275.4 155.089354 
L 275.4 155.089354 
L 275.4 155.089354 
z
" clip-path="url(#pd5e86b77f7)" style="fill: #cc8963; stroke: #4c4c4c; stroke-width: 0.75; stroke-linejoin: miter"/>
   </g>
   <g id="PolyCollection_2">
    <defs>
     <path id="mfc95bb1679" d="M 342.364879 -83.52 
L 342.355121 -83.52 
L 342.348485 -87.592727 
L 342.338531 -91.665455 
L 342.328194 -95.738182 
L 342.321902 -99.810909 
L 342.321267 -103.883636 
L 342.322762 -107.956364 
L 342.32101 -112.029091 
L 342.313263 -116.101818 
L 342.297978 -120.174545 
L 342.268924 -124.247273 
L 342.213445 -128.32 
L 342.116658 -132.392727 
L 341.962201 -136.465455 
L 341.724272 -140.538182 
L 341.363738 -144.610909 
L 340.846949 -148.683636 
L 340.183553 -152.756364 
L 339.451206 -156.829091 
L 338.776302 -160.901818 
L 338.270847 -164.974545 
L 337.957797 -169.047273 
L 337.736901 -173.12 
L 337.437422 -177.192727 
L 336.940425 -181.265455 
L 336.26358 -185.338182 
L 335.515057 -189.410909 
L 334.76627 -193.483636 
L 333.97857 -197.556364 
L 333.037623 -201.629091 
L 331.840414 -205.701818 
L 330.358881 -209.774545 
L 328.644071 -213.847273 
L 326.798731 -217.92 
L 324.966773 -221.992727 
L 323.311723 -226.065455 
L 321.914233 -230.138182 
L 320.643678 -234.210909 
L 319.177979 -238.283636 
L 317.22177 -242.356364 
L 314.732228 -246.429091 
L 311.928441 -250.501818 
L 309.085234 -254.574545 
L 306.33107 -258.647273 
L 303.641669 -262.72 
L 300.983642 -266.792727 
L 298.398678 -270.865455 
L 295.950086 -274.938182 
L 293.688316 -279.010909 
L 291.73839 -283.083636 
L 290.345326 -287.156364 
L 289.710271 -291.229091 
L 289.756523 -295.301818 
L 290.101401 -299.374545 
L 290.282888 -303.447273 
L 290.020517 -307.52 
L 289.264644 -311.592727 
L 288.022451 -315.665455 
L 286.227277 -319.738182 
L 283.864937 -323.810909 
L 281.187878 -327.883636 
L 278.699687 -331.956364 
L 276.902548 -336.029091 
L 276.078084 -340.101818 
L 276.294195 -344.174545 
L 277.592153 -348.247273 
L 280.125252 -352.32 
L 284.036467 -356.392727 
L 289.1584 -360.465455 
L 294.893168 -364.538182 
L 300.464595 -368.610909 
L 305.303517 -372.683636 
L 309.207629 -376.756364 
L 312.230628 -380.829091 
L 314.542453 -384.901818 
L 316.417447 -388.974545 
L 318.244877 -393.047273 
L 320.411996 -397.12 
L 323.112108 -401.192727 
L 326.254341 -405.265455 
L 329.540354 -409.338182 
L 332.618685 -413.410909 
L 335.214126 -417.483636 
L 337.198923 -421.556364 
L 338.60656 -425.629091 
L 339.586664 -429.701818 
L 340.315198 -433.774545 
L 340.910494 -437.847273 
L 341.408277 -441.92 
L 341.796595 -445.992727 
L 342.063737 -450.065455 
L 342.220345 -454.138182 
L 342.294693 -458.210909 
L 342.319491 -462.283636 
L 342.322641 -466.356364 
L 342.322963 -470.429091 
L 342.328586 -474.501818 
L 342.33863 -478.574545 
L 342.348504 -482.647273 
L 342.355123 -486.72 
L 342.364877 -486.72 
L 342.364877 -486.72 
L 342.371496 -482.647273 
L 342.38137 -478.574545 
L 342.391414 -474.501818 
L 342.397037 -470.429091 
L 342.397359 -466.356364 
L 342.400509 -462.283636 
L 342.425307 -458.210909 
L 342.499655 -454.138182 
L 342.656263 -450.065455 
L 342.923405 -445.992727 
L 343.311723 -441.92 
L 343.809506 -437.847273 
L 344.404802 -433.774545 
L 345.133336 -429.701818 
L 346.11344 -425.629091 
L 347.521077 -421.556364 
L 349.505874 -417.483636 
L 352.101315 -413.410909 
L 355.179646 -409.338182 
L 358.465659 -405.265455 
L 361.607892 -401.192727 
L 364.308004 -397.12 
L 366.475123 -393.047273 
L 368.302553 -388.974545 
L 370.177547 -384.901818 
L 372.489372 -380.829091 
L 375.512371 -376.756364 
L 379.416483 -372.683636 
L 384.255405 -368.610909 
L 389.826832 -364.538182 
L 395.5616 -360.465455 
L 400.683533 -356.392727 
L 404.594748 -352.32 
L 407.127847 -348.247273 
L 408.425805 -344.174545 
L 408.641916 -340.101818 
L 407.817452 -336.029091 
L 406.020313 -331.956364 
L 403.532122 -327.883636 
L 400.855063 -323.810909 
L 398.492723 -319.738182 
L 396.697549 -315.665455 
L 395.455356 -311.592727 
L 394.699483 -307.52 
L 394.437112 -303.447273 
L 394.618599 -299.374545 
L 394.963477 -295.301818 
L 395.009729 -291.229091 
L 394.374674 -287.156364 
L 392.98161 -283.083636 
L 391.031684 -279.010909 
L 388.769914 -274.938182 
L 386.321322 -270.865455 
L 383.736358 -266.792727 
L 381.078331 -262.72 
L 378.38893 -258.647273 
L 375.634766 -254.574545 
L 372.791559 -250.501818 
L 369.987772 -246.429091 
L 367.49823 -242.356364 
L 365.542021 -238.283636 
L 364.076322 -234.210909 
L 362.805767 -230.138182 
L 361.408277 -226.065455 
L 359.753227 -221.992727 
L 357.921269 -217.92 
L 356.075929 -213.847273 
L 354.361119 -209.774545 
L 352.879586 -205.701818 
L 351.682377 -201.629091 
L 350.74143 -197.556364 
L 349.95373 -193.483636 
L 349.204943 -189.410909 
L 348.45642 -185.338182 
L 347.779575 -181.265455 
L 347.282578 -177.192727 
L 346.983099 -173.12 
L 346.762203 -169.047273 
L 346.449153 -164.974545 
L 345.943698 -160.901818 
L 345.268794 -156.829091 
L 344.536447 -152.756364 
L 343.873051 -148.683636 
L 343.356262 -144.610909 
L 342.995728 -140.538182 
L 342.757799 -136.465455 
L 342.603342 -132.392727 
L 342.506555 -128.32 
L 342.451076 -124.247273 
L 342.422022 -120.174545 
L 342.406737 -116.101818 
L 342.39899 -112.029091 
L 342.397238 -107.956364 
L 342.398733 -103.883636 
L 342.398098 -99.810909 
L 342.391806 -95.738182 
L 342.381469 -91.665455 
L 342.371515 -87.592727 
L 342.364879 -83.52 
z
" style="stroke: #4c4c4c; stroke-width: 1.5"/>
    </defs>
    <g clip-path="url(#pd5e86b77f7)">
     <use xlink:href="#mfc95bb1679" x="0" y="576" style="fill: #cc8963; stroke: #4c4c4c; stroke-width: 1.5"/>
    </g>
   </g>
   <g id="PolyCollection_3">
    <defs>
     <path id="m8a8ed9f442" d="M 543.252477 -139.592781 
L 543.227523 -139.592781 
L 543.213601 -142.817639 
L 543.188914 -146.042497 
L 543.148685 -149.267356 
L 543.087133 -152.492214 
L 542.995975 -155.717072 
L 542.860959 -158.94193 
L 542.657178 -162.166789 
L 542.346028 -165.391647 
L 541.877898 -168.616505 
L 541.203208 -171.841364 
L 540.290179 -175.066222 
L 539.142819 -178.29108 
L 537.810122 -181.515939 
L 536.379058 -184.740797 
L 534.949404 -187.965655 
L 533.597057 -191.190513 
L 532.34148 -194.415372 
L 531.136594 -197.64023 
L 529.89589 -200.865088 
L 528.542879 -204.089947 
L 527.060029 -207.314805 
L 525.509222 -210.539663 
L 524.016616 -213.764522 
L 522.737548 -216.98938 
L 521.822729 -220.214238 
L 521.393516 -223.439096 
L 521.518743 -226.663955 
L 522.185258 -229.888813 
L 523.269185 -233.113671 
L 524.530327 -236.33853 
L 525.650588 -239.563388 
L 526.313574 -242.788246 
L 526.291677 -246.013105 
L 525.496569 -249.237963 
L 523.972392 -252.462821 
L 521.84955 -255.68768 
L 519.296609 -258.912538 
L 516.493916 -262.137396 
L 513.623212 -265.362254 
L 510.852406 -268.587113 
L 508.305593 -271.811971 
L 506.031547 -275.036829 
L 503.996058 -278.261688 
L 502.112484 -281.486546 
L 500.299114 -284.711404 
L 498.53129 -287.936263 
L 496.85623 -291.161121 
L 495.360278 -294.385979 
L 494.108497 -297.610837 
L 493.094501 -300.835696 
L 492.22967 -304.060554 
L 491.371408 -307.285412 
L 490.366295 -310.510271 
L 489.086988 -313.735129 
L 487.462263 -316.959987 
L 485.507427 -320.184846 
L 483.346087 -323.409704 
L 481.19812 -326.634562 
L 479.321341 -329.85942 
L 477.929717 -333.084279 
L 477.133737 -336.309137 
L 476.936165 -339.533995 
L 477.280905 -342.758854 
L 478.122725 -345.983712 
L 479.477446 -349.20857 
L 481.424184 -352.433429 
L 484.056057 -355.658287 
L 487.404354 -358.883145 
L 491.379739 -362.108004 
L 495.767365 -365.332862 
L 500.280323 -368.55772 
L 504.639773 -371.782578 
L 508.638211 -375.007437 
L 512.16197 -378.232295 
L 515.179961 -381.457153 
L 517.722034 -384.682012 
L 519.86423 -387.90687 
L 521.721402 -391.131728 
L 523.435762 -394.356587 
L 525.150642 -397.581445 
L 526.971483 -400.806303 
L 528.931547 -404.031161 
L 530.983895 -407.25602 
L 533.026476 -410.480878 
L 534.944993 -413.705736 
L 536.649206 -416.930595 
L 538.089329 -420.155453 
L 539.255925 -423.380311 
L 540.172514 -426.60517 
L 540.884813 -429.830028 
L 541.446218 -433.054886 
L 541.902044 -436.279744 
L 542.279364 -439.504603 
L 542.587424 -442.729461 
L 542.826548 -445.954319 
L 542.998279 -449.179178 
L 543.110557 -452.404036 
L 543.17683 -455.628894 
L 543.212006 -458.853753 
L 543.267994 -458.853753 
L 543.267994 -458.853753 
L 543.30317 -455.628894 
L 543.369443 -452.404036 
L 543.481721 -449.179178 
L 543.653452 -445.954319 
L 543.892576 -442.729461 
L 544.200636 -439.504603 
L 544.577956 -436.279744 
L 545.033782 -433.054886 
L 545.595187 -429.830028 
L 546.307486 -426.60517 
L 547.224075 -423.380311 
L 548.390671 -420.155453 
L 549.830794 -416.930595 
L 551.535007 -413.705736 
L 553.453524 -410.480878 
L 555.496105 -407.25602 
L 557.548453 -404.031161 
L 559.508517 -400.806303 
L 561.329358 -397.581445 
L 563.044238 -394.356587 
L 564.758598 -391.131728 
L 566.61577 -387.90687 
L 568.757966 -384.682012 
L 571.300039 -381.457153 
L 574.31803 -378.232295 
L 577.841789 -375.007437 
L 581.840227 -371.782578 
L 586.199677 -368.55772 
L 590.712635 -365.332862 
L 595.100261 -362.108004 
L 599.075646 -358.883145 
L 602.423943 -355.658287 
L 605.055816 -352.433429 
L 607.002554 -349.20857 
L 608.357275 -345.983712 
L 609.199095 -342.758854 
L 609.543835 -339.533995 
L 609.346263 -336.309137 
L 608.550283 -333.084279 
L 607.158659 -329.85942 
L 605.28188 -326.634562 
L 603.133913 -323.409704 
L 600.972573 -320.184846 
L 599.017737 -316.959987 
L 597.393012 -313.735129 
L 596.113705 -310.510271 
L 595.108592 -307.285412 
L 594.25033 -304.060554 
L 593.385499 -300.835696 
L 592.371503 -297.610837 
L 591.119722 -294.385979 
L 589.62377 -291.161121 
L 587.94871 -287.936263 
L 586.180886 -284.711404 
L 584.367516 -281.486546 
L 582.483942 -278.261688 
L 580.448453 -275.036829 
L 578.174407 -271.811971 
L 575.627594 -268.587113 
L 572.856788 -265.362254 
L 569.986084 -262.137396 
L 567.183391 -258.912538 
L 564.63045 -255.68768 
L 562.507608 -252.462821 
L 560.983431 -249.237963 
L 560.188323 -246.013105 
L 560.166426 -242.788246 
L 560.829412 -239.563388 
L 561.949673 -236.33853 
L 563.210815 -233.113671 
L 564.294742 -229.888813 
L 564.961257 -226.663955 
L 565.086484 -223.439096 
L 564.657271 -220.214238 
L 563.742452 -216.98938 
L 562.463384 -213.764522 
L 560.970778 -210.539663 
L 559.419971 -207.314805 
L 557.937121 -204.089947 
L 556.58411 -200.865088 
L 555.343406 -197.64023 
L 554.13852 -194.415372 
L 552.882943 -191.190513 
L 551.530596 -187.965655 
L 550.100942 -184.740797 
L 548.669878 -181.515939 
L 547.337181 -178.29108 
L 546.189821 -175.066222 
L 545.276792 -171.841364 
L 544.602102 -168.616505 
L 544.133972 -165.391647 
L 543.822822 -162.166789 
L 543.619041 -158.94193 
L 543.484025 -155.717072 
L 543.392867 -152.492214 
L 543.331315 -149.267356 
L 543.291086 -146.042497 
L 543.266399 -142.817639 
L 543.252477 -139.592781 
z
" style="stroke: #4c4c4c; stroke-width: 1.5"/>
    </defs>
    <g clip-path="url(#pd5e86b77f7)">
     <use xlink:href="#m8a8ed9f442" x="0" y="576" style="fill: #5875a4; stroke: #4c4c4c; stroke-width: 1.5"/>
    </g>
   </g>
   <g id="PolyCollection_4">
    <defs>
     <path id="m6a50986eee" d="M 677.167959 -121.751256 
L 677.152041 -121.751256 
L 677.144441 -125.189518 
L 677.1331 -128.62778 
L 677.118439 -132.066041 
L 677.101423 -135.504303 
L 677.081826 -138.942565 
L 677.055676 -142.380827 
L 677.013369 -145.819088 
L 676.939636 -149.25735 
L 676.814964 -152.695612 
L 676.61689 -156.133873 
L 676.32057 -159.572135 
L 675.899994 -163.010397 
L 675.331348 -166.448659 
L 674.597194 -169.88692 
L 673.688262 -173.325182 
L 672.602596 -176.763444 
L 671.347095 -180.201705 
L 669.945541 -183.639967 
L 668.447457 -187.078229 
L 666.923907 -190.516491 
L 665.443479 -193.954752 
L 664.041781 -197.393014 
L 662.710862 -200.831276 
L 661.423466 -204.269537 
L 660.178106 -207.707799 
L 659.030573 -211.146061 
L 658.085485 -214.584323 
L 657.451732 -218.022584 
L 657.191981 -221.460846 
L 657.297053 -224.899108 
L 657.693564 -228.337369 
L 658.269819 -231.775631 
L 658.898598 -235.213893 
L 659.445533 -238.652155 
L 659.766838 -242.090416 
L 659.710522 -245.528678 
L 659.135338 -248.96694 
L 657.949343 -252.405201 
L 656.150823 -255.843463 
L 653.84417 -259.281725 
L 651.215059 -262.719987 
L 648.476291 -266.158248 
L 645.814003 -269.59651 
L 643.357048 -273.034772 
L 641.170465 -276.473033 
L 639.260385 -279.911295 
L 637.580786 -283.349557 
L 636.041368 -286.787819 
L 634.520237 -290.22608 
L 632.885701 -293.664342 
L 631.029452 -297.102604 
L 628.905475 -300.540865 
L 626.556669 -303.979127 
L 624.106987 -307.417389 
L 621.71204 -310.855651 
L 619.491189 -314.293912 
L 617.485526 -317.732174 
L 615.673582 -321.170436 
L 614.031413 -324.608697 
L 612.584716 -328.046959 
L 611.409963 -331.485221 
L 610.593737 -334.923483 
L 610.2 -338.361744 
L 610.28041 -341.800006 
L 610.911283 -345.238268 
L 612.210018 -348.676529 
L 614.303106 -352.114791 
L 617.260954 -355.553053 
L 621.038097 -358.991315 
L 625.449596 -362.429576 
L 630.1953 -365.867838 
L 634.928215 -369.3061 
L 639.347478 -372.744361 
L 643.278471 -376.182623 
L 646.699461 -379.620885 
L 649.701389 -383.059147 
L 652.410447 -386.497408 
L 654.924022 -389.93567 
L 657.290359 -393.373932 
L 659.524099 -396.812193 
L 661.630751 -400.250455 
L 663.620988 -403.688717 
L 665.510891 -407.126979 
L 667.312429 -410.56524 
L 669.021599 -414.003502 
L 670.613067 -417.441764 
L 672.046636 -420.880025 
L 673.282838 -424.318287 
L 674.298963 -427.756549 
L 675.097339 -431.194811 
L 675.702785 -434.633072 
L 676.152094 -438.071334 
L 676.48199 -441.509596 
L 676.721596 -444.947857 
L 676.891373 -448.386119 
L 677.006193 -451.824381 
L 677.078705 -455.262643 
L 677.120724 -458.700904 
L 677.142791 -462.139166 
L 677.177209 -462.139166 
L 677.177209 -462.139166 
L 677.199276 -458.700904 
L 677.241295 -455.262643 
L 677.313807 -451.824381 
L 677.428627 -448.386119 
L 677.598404 -444.947857 
L 677.83801 -441.509596 
L 678.167906 -438.071334 
L 678.617215 -434.633072 
L 679.222661 -431.194811 
L 680.021037 -427.756549 
L 681.037162 -424.318287 
L 682.273364 -420.880025 
L 683.706933 -417.441764 
L 685.298401 -414.003502 
L 687.007571 -410.56524 
L 688.809109 -407.126979 
L 690.699012 -403.688717 
L 692.689249 -400.250455 
L 694.795901 -396.812193 
L 697.029641 -393.373932 
L 699.395978 -389.93567 
L 701.909553 -386.497408 
L 704.618611 -383.059147 
L 707.620539 -379.620885 
L 711.041529 -376.182623 
L 714.972522 -372.744361 
L 719.391785 -369.3061 
L 724.1247 -365.867838 
L 728.870404 -362.429576 
L 733.281903 -358.991315 
L 737.059046 -355.553053 
L 740.016894 -352.114791 
L 742.109982 -348.676529 
L 743.408717 -345.238268 
L 744.03959 -341.800006 
L 744.12 -338.361744 
L 743.726263 -334.923483 
L 742.910037 -331.485221 
L 741.735284 -328.046959 
L 740.288587 -324.608697 
L 738.646418 -321.170436 
L 736.834474 -317.732174 
L 734.828811 -314.293912 
L 732.60796 -310.855651 
L 730.213013 -307.417389 
L 727.763331 -303.979127 
L 725.414525 -300.540865 
L 723.290548 -297.102604 
L 721.434299 -293.664342 
L 719.799763 -290.22608 
L 718.278632 -286.787819 
L 716.739214 -283.349557 
L 715.059615 -279.911295 
L 713.149535 -276.473033 
L 710.962952 -273.034772 
L 708.505997 -269.59651 
L 705.843709 -266.158248 
L 703.104941 -262.719987 
L 700.47583 -259.281725 
L 698.169177 -255.843463 
L 696.370657 -252.405201 
L 695.184662 -248.96694 
L 694.609478 -245.528678 
L 694.553162 -242.090416 
L 694.874467 -238.652155 
L 695.421402 -235.213893 
L 696.050181 -231.775631 
L 696.626436 -228.337369 
L 697.022947 -224.899108 
L 697.128019 -221.460846 
L 696.868268 -218.022584 
L 696.234515 -214.584323 
L 695.289427 -211.146061 
L 694.141894 -207.707799 
L 692.896534 -204.269537 
L 691.609138 -200.831276 
L 690.278219 -197.393014 
L 688.876521 -193.954752 
L 687.396093 -190.516491 
L 685.872543 -187.078229 
L 684.374459 -183.639967 
L 682.972905 -180.201705 
L 681.717404 -176.763444 
L 680.631738 -173.325182 
L 679.722806 -169.88692 
L 678.988652 -166.448659 
L 678.420006 -163.010397 
L 677.99943 -159.572135 
L 677.70311 -156.133873 
L 677.505036 -152.695612 
L 677.380364 -149.25735 
L 677.306631 -145.819088 
L 677.264324 -142.380827 
L 677.238174 -138.942565 
L 677.218577 -135.504303 
L 677.201561 -132.066041 
L 677.1869 -128.62778 
L 677.175559 -125.189518 
L 677.167959 -121.751256 
z
" style="stroke: #4c4c4c; stroke-width: 1.5"/>
    </defs>
    <g clip-path="url(#pd5e86b77f7)">
     <use xlink:href="#m6a50986eee" x="0" y="576" style="fill: #cc8963; stroke: #4c4c4c; stroke-width: 1.5"/>
    </g>
   </g>
   <g id="line2d_7">
    <path d="M 208.44 414.918372 
L 208.44 134.340422 
" clip-path="url(#pd5e86b77f7)" style="fill: none; stroke: #4c4c4c; stroke-width: 1.5; stroke-linecap: round"/>
   </g>
   <g id="line2d_8">
    <path d="M 208.44 303.122821 
L 208.44 228.571856 
" clip-path="url(#pd5e86b77f7)" style="fill: none; stroke: #4c4c4c; stroke-width: 4.5; stroke-linecap: round"/>
   </g>
   <g id="line2d_9">
    <path d="M 342.36 413.855715 
L 342.36 130.623081 
" clip-path="url(#pd5e86b77f7)" style="fill: none; stroke: #4c4c4c; stroke-width: 1.5; stroke-linecap: round"/>
   </g>
   <g id="line2d_10">
    <path d="M 342.36 300.429587 
L 342.36 224.784969 
" clip-path="url(#pd5e86b77f7)" style="fill: none; stroke: #4c4c4c; stroke-width: 4.5; stroke-linecap: round"/>
   </g>
   <g id="line2d_11">
    <path d="M 543.24 399.060791 
L 543.24 135.768982 
" clip-path="url(#pd5e86b77f7)" style="fill: none; stroke: #4c4c4c; stroke-width: 1.5; stroke-linecap: round"/>
   </g>
   <g id="line2d_12">
    <path d="M 543.24 295.630058 
L 543.24 224.305471 
" clip-path="url(#pd5e86b77f7)" style="fill: none; stroke: #4c4c4c; stroke-width: 4.5; stroke-linecap: round"/>
   </g>
   <g id="line2d_13">
    <path d="M 677.16 401.399622 
L 677.16 132.763601 
" clip-path="url(#pd5e86b77f7)" style="fill: none; stroke: #4c4c4c; stroke-width: 1.5; stroke-linecap: round"/>
   </g>
   <g id="line2d_14">
    <path d="M 677.16 295.318876 
L 677.16 224.312161 
" clip-path="url(#pd5e86b77f7)" style="fill: none; stroke: #4c4c4c; stroke-width: 4.5; stroke-linecap: round"/>
   </g>
   <g id="patch_5">
    <path d="M 108 512.64 
L 108 69.12 
" style="fill: none; stroke: #cccccc; stroke-width: 1.25; stroke-linejoin: miter; stroke-linecap: square"/>
   </g>
   <g id="patch_6">
    <path d="M 777.6 512.64 
L 777.6 69.12 
" style="fill: none; stroke: #cccccc; stroke-width: 1.25; stroke-linejoin: miter; stroke-linecap: square"/>
   </g>
   <g id="patch_7">
    <path d="M 108 512.64 
L 777.6 512.64 
" style="fill: none; stroke: #cccccc; stroke-width: 1.25; stroke-linejoin: miter; stroke-linecap: square"/>
   </g>
   <g id="patch_8">
    <path d="M 108 69.12 
L 777.6 69.12 
" style="fill: none; stroke: #cccccc; stroke-width: 1.25; stroke-linejoin: miter; stroke-linecap: square"/>
   </g>
   <g id="PathCollection_1">
    <defs>
     <path id="mb82c6e5676" d="M 0 1.5 
C 0.397805 1.5 0.77937 1.341951 1.06066 1.06066 
C 1.341951 0.77937 1.5 0.397805 1.5 0 
C 1.5 -0.397805 1.341951 -0.77937 1.06066 -1.06066 
C 0.77937 -1.341951 0.397805 -1.5 0 -1.5 
C -0.397805 -1.5 -0.77937 -1.341951 -1.06066 -1.06066 
C -1.341951 -0.77937 -1.5 -0.397805 -1.5 0 
C -1.5 0.397805 -1.341951 0.77937 -1.06066 1.06066 
C -0.77937 1.341951 -0.397805 1.5 0 1.5 
z
" style="stroke: #4c4c4c"/>
    </defs>
    <g clip-path="url(#pd5e86b77f7)">
     <use xlink:href="#mb82c6e5676" x="208.44" y="261.77428" style="fill: #ffffff; stroke: #4c4c4c"/>
    </g>
   </g>
   <g id="PathCollection_2">
    <g clip-path="url(#pd5e86b77f7)">
     <use xlink:href="#mb82c6e5676" x="342.36" y="259.114343" style="fill: #ffffff; stroke: #4c4c4c"/>
    </g>
   </g>
   <g id="PathCollection_3">
    <g clip-path="url(#pd5e86b77f7)">
     <use xlink:href="#mb82c6e5676" x="543.24" y="254.644264" style="fill: #ffffff; stroke: #4c4c4c"/>
    </g>
   </g>
   <g id="PathCollection_4">
    <g clip-path="url(#pd5e86b77f7)">
     <use xlink:href="#mb82c6e5676" x="677.16" y="254.386737" style="fill: #ffffff; stroke: #4c4c4c"/>
    </g>
   </g>
   <g id="legend_1">
    <g id="patch_9">
     <path d="M 674.1725 125.514063 
L 769.9 125.514063 
Q 772.1 125.514063 772.1 123.314063 
L 772.1 76.82 
Q 772.1 74.62 769.9 74.62 
L 674.1725 74.62 
Q 671.9725 74.62 671.9725 76.82 
L 671.9725 123.314063 
Q 671.9725 125.514063 674.1725 125.514063 
z
" style="fill: #ffffff; opacity: 0.8; stroke: #cccccc; stroke-linejoin: miter"/>
    </g>
    <g id="text_11">
     <!-- Treatment -->
     <g style="fill: #262626" transform="translate(694.920938 87.609375)scale(0.12 -0.12)">
      <defs>
       <path id="ArialMT-6e" d="M 422 0 
L 422 3319 
L 928 3319 
L 928 2847 
Q 1294 3394 1984 3394 
Q 2284 3394 2536 3286 
Q 2788 3178 2913 3003 
Q 3038 2828 3088 2588 
Q 3119 2431 3119 2041 
L 3119 0 
L 2556 0 
L 2556 2019 
Q 2556 2363 2490 2533 
Q 2425 2703 2258 2804 
Q 2091 2906 1866 2906 
Q 1506 2906 1245 2678 
Q 984 2450 984 1813 
L 984 0 
L 422 0 
z
" transform="scale(0.015625)"/>
      </defs>
      <use xlink:href="#ArialMT-54"/>
      <use xlink:href="#ArialMT-72" x="57.333984"/>
      <use xlink:href="#ArialMT-65" x="90.634766"/>
      <use xlink:href="#ArialMT-61" x="146.25"/>
      <use xlink:href="#ArialMT-74" x="201.865234"/>
      <use xlink:href="#ArialMT-6d" x="229.648438"/>
      <use xlink:href="#ArialMT-65" x="312.949219"/>
      <use xlink:href="#ArialMT-6e" x="368.564453"/>
      <use xlink:href="#ArialMT-74" x="424.179688"/>
     </g>
    </g>
    <g id="patch_10">
     <path d="M 676.3725 103.367969 
L 698.3725 103.367969 
L 698.3725 95.667969 
L 676.3725 95.667969 
z
" style="fill: #5875a4; stroke: #4c4c4c; stroke-width: 0.75; stroke-linejoin: miter"/>
    </g>
    <g id="text_12">
     <!-- control -->
     <g style="fill: #262626" transform="translate(707.1725 103.367969)scale(0.11 -0.11)">
      <use xlink:href="#ArialMT-63"/>
      <use xlink:href="#ArialMT-6f" x="50"/>
      <use xlink:href="#ArialMT-6e" x="105.615234"/>
      <use xlink:href="#ArialMT-74" x="161.230469"/>
      <use xlink:href="#ArialMT-72" x="189.013672"/>
      <use xlink:href="#ArialMT-6f" x="222.314453"/>
      <use xlink:href="#ArialMT-6c" x="277.929688"/>
     </g>
    </g>
    <g id="patch_11">
     <path d="M 676.3725 118.927813 
L 698.3725 118.927813 
L 698.3725 111.227813 
L 676.3725 111.227813 
z
" style="fill: #cc8963; stroke: #4c4c4c; stroke-width: 0.75; stroke-linejoin: miter"/>
    </g>
    <g id="text_13">
     <!-- deltamethrin -->
     <g style="fill: #262626" transform="translate(707.1725 118.927813)scale(0.11 -0.11)">
      <defs>
       <path id="ArialMT-68" d="M 422 0 
L 422 4581 
L 984 4581 
L 984 2938 
Q 1378 3394 1978 3394 
Q 2347 3394 2619 3248 
Q 2891 3103 3008 2847 
Q 3125 2591 3125 2103 
L 3125 0 
L 2563 0 
L 2563 2103 
Q 2563 2525 2380 2717 
Q 2197 2909 1863 2909 
Q 1613 2909 1392 2779 
Q 1172 2650 1078 2428 
Q 984 2206 984 1816 
L 984 0 
L 422 0 
z
" transform="scale(0.015625)"/>
      </defs>
      <use xlink:href="#ArialMT-64"/>
      <use xlink:href="#ArialMT-65" x="55.615234"/>
      <use xlink:href="#ArialMT-6c" x="111.230469"/>
      <use xlink:href="#ArialMT-74" x="133.447266"/>
      <use xlink:href="#ArialMT-61" x="161.230469"/>
      <use xlink:href="#ArialMT-6d" x="216.845703"/>
      <use xlink:href="#ArialMT-65" x="300.146484"/>
      <use xlink:href="#ArialMT-74" x="355.761719"/>
      <use xlink:href="#ArialMT-68" x="383.544922"/>
      <use xlink:href="#ArialMT-72" x="439.160156"/>
      <use xlink:href="#ArialMT-69" x="472.460938"/>
      <use xlink:href="#ArialMT-6e" x="494.677734"/>
     </g>
    </g>
   </g>
  </g>
 </g>
 <defs>
  <clipPath id="pd5e86b77f7">
   <rect x="108" y="69.12" width="669.6" height="443.52"/>
  </clipPath>
 </defs>
</svg>
