<?xml version="1.0" encoding="utf-8" standalone="no"?>
<!DOCTYPE svg PUBLIC "-//W3C//DTD SVG 1.1//EN"
  "http://www.w3.org/Graphics/SVG/1.1/DTD/svg11.dtd">
<svg xmlns:xlink="http://www.w3.org/1999/xlink" width="864pt" height="576pt" viewBox="0 0 864 576" xmlns="http://www.w3.org/2000/svg" version="1.1">
 <metadata>
  <rdf:RDF xmlns:dc="http://purl.org/dc/elements/1.1/" xmlns:cc="http://creativecommons.org/ns#" xmlns:rdf="http://www.w3.org/1999/02/22-rdf-syntax-ns#">
   <cc:Work>
    <dc:type rdf:resource="http://purl.org/dc/dcmitype/StillImage"/>
    <dc:date>2023-02-13T17:12:59.175721</dc:date>
    <dc:format>image/svg+xml</dc:format>
    <dc:creator>
     <cc:Agent>
      <dc:title>Matplotlib v3.5.0, https://matplotlib.org/</dc:title>
     </cc:Agent>
    </dc:creator>
   </cc:Work>
  </rdf:RDF>
 </metadata>
 <defs>
  <style type="text/css">*{stroke-linejoin: round; stroke-linecap: butt}</style>
 </defs>
 <g id="figure_1">
  <g id="patch_1">
   <path d="M 0 576 
L 864 576 
L 864 0 
L 0 0 
z
" style="fill: #ffffff"/>
  </g>
  <g id="axes_1">
   <g id="patch_2">
    <path d="M 108 512.64 
L 777.6 512.64 
L 777.6 69.12 
L 108 69.12 
z
" style="fill: #ffffff"/>
   </g>
   <g id="matplotlib.axis_1">
    <g id="xtick_1">
     <g id="text_1">
      <!-- striatum -->
      <g style="fill: #262626" transform="translate(255.842344 530.013594)scale(0.11 -0.11)">
       <defs>
        <path id="ArialMT-73" d="M 197 991 
L 753 1078 
Q 800 744 1014 566 
Q 1228 388 1613 388 
Q 2000 388 2187 545 
Q 2375 703 2375 916 
Q 2375 1106 2209 1216 
Q 2094 1291 1634 1406 
Q 1016 1563 777 1677 
Q 538 1791 414 1992 
Q 291 2194 291 2438 
Q 291 2659 392 2848 
Q 494 3038 669 3163 
Q 800 3259 1026 3326 
Q 1253 3394 1513 3394 
Q 1903 3394 2198 3281 
Q 2494 3169 2634 2976 
Q 2775 2784 2828 2463 
L 2278 2388 
Q 2241 2644 2061 2787 
Q 1881 2931 1553 2931 
Q 1166 2931 1000 2803 
Q 834 2675 834 2503 
Q 834 2394 903 2306 
Q 972 2216 1119 2156 
Q 1203 2125 1616 2013 
Q 2213 1853 2448 1751 
Q 2684 1650 2818 1456 
Q 2953 1263 2953 975 
Q 2953 694 2789 445 
Q 2625 197 2315 61 
Q 2006 -75 1616 -75 
Q 969 -75 630 194 
Q 291 463 197 991 
z
" transform="scale(0.015625)"/>
        <path id="ArialMT-74" d="M 1650 503 
L 1731 6 
Q 1494 -44 1306 -44 
Q 1000 -44 831 53 
Q 663 150 594 308 
Q 525 466 525 972 
L 525 2881 
L 113 2881 
L 113 3319 
L 525 3319 
L 525 4141 
L 1084 4478 
L 1084 3319 
L 1650 3319 
L 1650 2881 
L 1084 2881 
L 1084 941 
Q 1084 700 1114 631 
Q 1144 563 1211 522 
Q 1278 481 1403 481 
Q 1497 481 1650 503 
z
" transform="scale(0.015625)"/>
        <path id="ArialMT-72" d="M 416 0 
L 416 3319 
L 922 3319 
L 922 2816 
Q 1116 3169 1280 3281 
Q 1444 3394 1641 3394 
Q 1925 3394 2219 3213 
L 2025 2691 
Q 1819 2813 1613 2813 
Q 1428 2813 1281 2702 
Q 1134 2591 1072 2394 
Q 978 2094 978 1738 
L 978 0 
L 416 0 
z
" transform="scale(0.015625)"/>
        <path id="ArialMT-69" d="M 425 3934 
L 425 4581 
L 988 4581 
L 988 3934 
L 425 3934 
z
M 425 0 
L 425 3319 
L 988 3319 
L 988 0 
L 425 0 
z
" transform="scale(0.015625)"/>
        <path id="ArialMT-61" d="M 2588 409 
Q 2275 144 1986 34 
Q 1697 -75 1366 -75 
Q 819 -75 525 192 
Q 231 459 231 875 
Q 231 1119 342 1320 
Q 453 1522 633 1644 
Q 813 1766 1038 1828 
Q 1203 1872 1538 1913 
Q 2219 1994 2541 2106 
Q 2544 2222 2544 2253 
Q 2544 2597 2384 2738 
Q 2169 2928 1744 2928 
Q 1347 2928 1158 2789 
Q 969 2650 878 2297 
L 328 2372 
Q 403 2725 575 2942 
Q 747 3159 1072 3276 
Q 1397 3394 1825 3394 
Q 2250 3394 2515 3294 
Q 2781 3194 2906 3042 
Q 3031 2891 3081 2659 
Q 3109 2516 3109 2141 
L 3109 1391 
Q 3109 606 3145 398 
Q 3181 191 3288 0 
L 2700 0 
Q 2613 175 2588 409 
z
M 2541 1666 
Q 2234 1541 1622 1453 
Q 1275 1403 1131 1340 
Q 988 1278 909 1158 
Q 831 1038 831 891 
Q 831 666 1001 516 
Q 1172 366 1500 366 
Q 1825 366 2078 508 
Q 2331 650 2450 897 
Q 2541 1088 2541 1459 
L 2541 1666 
z
" transform="scale(0.015625)"/>
        <path id="ArialMT-75" d="M 2597 0 
L 2597 488 
Q 2209 -75 1544 -75 
Q 1250 -75 995 37 
Q 741 150 617 320 
Q 494 491 444 738 
Q 409 903 409 1263 
L 409 3319 
L 972 3319 
L 972 1478 
Q 972 1038 1006 884 
Q 1059 663 1231 536 
Q 1403 409 1656 409 
Q 1909 409 2131 539 
Q 2353 669 2445 892 
Q 2538 1116 2538 1541 
L 2538 3319 
L 3100 3319 
L 3100 0 
L 2597 0 
z
" transform="scale(0.015625)"/>
        <path id="ArialMT-6d" d="M 422 0 
L 422 3319 
L 925 3319 
L 925 2853 
Q 1081 3097 1340 3245 
Q 1600 3394 1931 3394 
Q 2300 3394 2536 3241 
Q 2772 3088 2869 2813 
Q 3263 3394 3894 3394 
Q 4388 3394 4653 3120 
Q 4919 2847 4919 2278 
L 4919 0 
L 4359 0 
L 4359 2091 
Q 4359 2428 4304 2576 
Q 4250 2725 4106 2815 
Q 3963 2906 3769 2906 
Q 3419 2906 3187 2673 
Q 2956 2441 2956 1928 
L 2956 0 
L 2394 0 
L 2394 2156 
Q 2394 2531 2256 2718 
Q 2119 2906 1806 2906 
Q 1569 2906 1367 2781 
Q 1166 2656 1075 2415 
Q 984 2175 984 1722 
L 984 0 
L 422 0 
z
" transform="scale(0.015625)"/>
       </defs>
       <use xlink:href="#ArialMT-73"/>
       <use xlink:href="#ArialMT-74" x="50"/>
       <use xlink:href="#ArialMT-72" x="77.783203"/>
       <use xlink:href="#ArialMT-69" x="111.083984"/>
       <use xlink:href="#ArialMT-61" x="133.300781"/>
       <use xlink:href="#ArialMT-74" x="188.916016"/>
       <use xlink:href="#ArialMT-75" x="216.699219"/>
       <use xlink:href="#ArialMT-6d" x="272.314453"/>
      </g>
     </g>
    </g>
    <g id="xtick_2">
     <g id="text_2">
      <!-- cortex -->
      <g style="fill: #262626" transform="translate(595.223672 530.013594)scale(0.11 -0.11)">
       <defs>
        <path id="ArialMT-63" d="M 2588 1216 
L 3141 1144 
Q 3050 572 2676 248 
Q 2303 -75 1759 -75 
Q 1078 -75 664 370 
Q 250 816 250 1647 
Q 250 2184 428 2587 
Q 606 2991 970 3192 
Q 1334 3394 1763 3394 
Q 2303 3394 2647 3120 
Q 2991 2847 3088 2344 
L 2541 2259 
Q 2463 2594 2264 2762 
Q 2066 2931 1784 2931 
Q 1359 2931 1093 2626 
Q 828 2322 828 1663 
Q 828 994 1084 691 
Q 1341 388 1753 388 
Q 2084 388 2306 591 
Q 2528 794 2588 1216 
z
" transform="scale(0.015625)"/>
        <path id="ArialMT-6f" d="M 213 1659 
Q 213 2581 725 3025 
Q 1153 3394 1769 3394 
Q 2453 3394 2887 2945 
Q 3322 2497 3322 1706 
Q 3322 1066 3130 698 
Q 2938 331 2570 128 
Q 2203 -75 1769 -75 
Q 1072 -75 642 372 
Q 213 819 213 1659 
z
M 791 1659 
Q 791 1022 1069 705 
Q 1347 388 1769 388 
Q 2188 388 2466 706 
Q 2744 1025 2744 1678 
Q 2744 2294 2464 2611 
Q 2184 2928 1769 2928 
Q 1347 2928 1069 2612 
Q 791 2297 791 1659 
z
" transform="scale(0.015625)"/>
        <path id="ArialMT-65" d="M 2694 1069 
L 3275 997 
Q 3138 488 2766 206 
Q 2394 -75 1816 -75 
Q 1088 -75 661 373 
Q 234 822 234 1631 
Q 234 2469 665 2931 
Q 1097 3394 1784 3394 
Q 2450 3394 2872 2941 
Q 3294 2488 3294 1666 
Q 3294 1616 3291 1516 
L 816 1516 
Q 847 969 1125 678 
Q 1403 388 1819 388 
Q 2128 388 2347 550 
Q 2566 713 2694 1069 
z
M 847 1978 
L 2700 1978 
Q 2663 2397 2488 2606 
Q 2219 2931 1791 2931 
Q 1403 2931 1139 2672 
Q 875 2413 847 1978 
z
" transform="scale(0.015625)"/>
        <path id="ArialMT-78" d="M 47 0 
L 1259 1725 
L 138 3319 
L 841 3319 
L 1350 2541 
Q 1494 2319 1581 2169 
Q 1719 2375 1834 2534 
L 2394 3319 
L 3066 3319 
L 1919 1756 
L 3153 0 
L 2463 0 
L 1781 1031 
L 1600 1309 
L 728 0 
L 47 0 
z
" transform="scale(0.015625)"/>
       </defs>
       <use xlink:href="#ArialMT-63"/>
       <use xlink:href="#ArialMT-6f" x="50"/>
       <use xlink:href="#ArialMT-72" x="105.615234"/>
       <use xlink:href="#ArialMT-74" x="138.916016"/>
       <use xlink:href="#ArialMT-65" x="166.699219"/>
       <use xlink:href="#ArialMT-78" x="222.314453"/>
      </g>
     </g>
    </g>
    <g id="text_3">
     <!-- TissueType -->
     <g style="fill: #262626" transform="translate(412.34625 544.789219)scale(0.12 -0.12)">
      <defs>
       <path id="ArialMT-54" d="M 1659 0 
L 1659 4041 
L 150 4041 
L 150 4581 
L 3781 4581 
L 3781 4041 
L 2266 4041 
L 2266 0 
L 1659 0 
z
" transform="scale(0.015625)"/>
       <path id="ArialMT-79" d="M 397 -1278 
L 334 -750 
Q 519 -800 656 -800 
Q 844 -800 956 -737 
Q 1069 -675 1141 -563 
Q 1194 -478 1313 -144 
Q 1328 -97 1363 -6 
L 103 3319 
L 709 3319 
L 1400 1397 
Q 1534 1031 1641 628 
Q 1738 1016 1872 1384 
L 2581 3319 
L 3144 3319 
L 1881 -56 
Q 1678 -603 1566 -809 
Q 1416 -1088 1222 -1217 
Q 1028 -1347 759 -1347 
Q 597 -1347 397 -1278 
z
" transform="scale(0.015625)"/>
       <path id="ArialMT-70" d="M 422 -1272 
L 422 3319 
L 934 3319 
L 934 2888 
Q 1116 3141 1344 3267 
Q 1572 3394 1897 3394 
Q 2322 3394 2647 3175 
Q 2972 2956 3137 2557 
Q 3303 2159 3303 1684 
Q 3303 1175 3120 767 
Q 2938 359 2589 142 
Q 2241 -75 1856 -75 
Q 1575 -75 1351 44 
Q 1128 163 984 344 
L 984 -1272 
L 422 -1272 
z
M 931 1641 
Q 931 1000 1190 694 
Q 1450 388 1819 388 
Q 2194 388 2461 705 
Q 2728 1022 2728 1688 
Q 2728 2322 2467 2637 
Q 2206 2953 1844 2953 
Q 1484 2953 1207 2617 
Q 931 2281 931 1641 
z
" transform="scale(0.015625)"/>
      </defs>
      <use xlink:href="#ArialMT-54"/>
      <use xlink:href="#ArialMT-69" x="57.333984"/>
      <use xlink:href="#ArialMT-73" x="79.550781"/>
      <use xlink:href="#ArialMT-73" x="129.550781"/>
      <use xlink:href="#ArialMT-75" x="179.550781"/>
      <use xlink:href="#ArialMT-65" x="235.166016"/>
      <use xlink:href="#ArialMT-54" x="290.78125"/>
      <use xlink:href="#ArialMT-79" x="346.365234"/>
      <use xlink:href="#ArialMT-70" x="396.365234"/>
      <use xlink:href="#ArialMT-65" x="451.980469"/>
     </g>
    </g>
   </g>
   <g id="matplotlib.axis_2">
    <g id="ytick_1">
     <g id="line2d_1">
      <path d="M 108 478.731327 
L 777.6 478.731327 
" clip-path="url(#p05f35f8610)" style="fill: none; stroke: #cccccc; stroke-linecap: round"/>
     </g>
     <g id="text_4">
      <!-- 0.0 -->
      <g style="fill: #262626" transform="translate(83.21 482.668124)scale(0.11 -0.11)">
       <defs>
        <path id="ArialMT-30" d="M 266 2259 
Q 266 3072 433 3567 
Q 600 4063 929 4331 
Q 1259 4600 1759 4600 
Q 2128 4600 2406 4451 
Q 2684 4303 2865 4023 
Q 3047 3744 3150 3342 
Q 3253 2941 3253 2259 
Q 3253 1453 3087 958 
Q 2922 463 2592 192 
Q 2263 -78 1759 -78 
Q 1097 -78 719 397 
Q 266 969 266 2259 
z
M 844 2259 
Q 844 1131 1108 757 
Q 1372 384 1759 384 
Q 2147 384 2411 759 
Q 2675 1134 2675 2259 
Q 2675 3391 2411 3762 
Q 2147 4134 1753 4134 
Q 1366 4134 1134 3806 
Q 844 3388 844 2259 
z
" transform="scale(0.015625)"/>
        <path id="ArialMT-2e" d="M 581 0 
L 581 641 
L 1222 641 
L 1222 0 
L 581 0 
z
" transform="scale(0.015625)"/>
       </defs>
       <use xlink:href="#ArialMT-30"/>
       <use xlink:href="#ArialMT-2e" x="55.615234"/>
       <use xlink:href="#ArialMT-30" x="83.398438"/>
      </g>
     </g>
    </g>
    <g id="ytick_2">
     <g id="line2d_2">
      <path d="M 108 403.590796 
L 777.6 403.590796 
" clip-path="url(#p05f35f8610)" style="fill: none; stroke: #cccccc; stroke-linecap: round"/>
     </g>
     <g id="text_5">
      <!-- 0.2 -->
      <g style="fill: #262626" transform="translate(83.21 407.527593)scale(0.11 -0.11)">
       <defs>
        <path id="ArialMT-32" d="M 3222 541 
L 3222 0 
L 194 0 
Q 188 203 259 391 
Q 375 700 629 1000 
Q 884 1300 1366 1694 
Q 2113 2306 2375 2664 
Q 2638 3022 2638 3341 
Q 2638 3675 2398 3904 
Q 2159 4134 1775 4134 
Q 1369 4134 1125 3890 
Q 881 3647 878 3216 
L 300 3275 
Q 359 3922 746 4261 
Q 1134 4600 1788 4600 
Q 2447 4600 2831 4234 
Q 3216 3869 3216 3328 
Q 3216 3053 3103 2787 
Q 2991 2522 2730 2228 
Q 2469 1934 1863 1422 
Q 1356 997 1212 845 
Q 1069 694 975 541 
L 3222 541 
z
" transform="scale(0.015625)"/>
       </defs>
       <use xlink:href="#ArialMT-30"/>
       <use xlink:href="#ArialMT-2e" x="55.615234"/>
       <use xlink:href="#ArialMT-32" x="83.398438"/>
      </g>
     </g>
    </g>
    <g id="ytick_3">
     <g id="line2d_3">
      <path d="M 108 328.450265 
L 777.6 328.450265 
" clip-path="url(#p05f35f8610)" style="fill: none; stroke: #cccccc; stroke-linecap: round"/>
     </g>
     <g id="text_6">
      <!-- 0.4 -->
      <g style="fill: #262626" transform="translate(83.21 332.387062)scale(0.11 -0.11)">
       <defs>
        <path id="ArialMT-34" d="M 2069 0 
L 2069 1097 
L 81 1097 
L 81 1613 
L 2172 4581 
L 2631 4581 
L 2631 1613 
L 3250 1613 
L 3250 1097 
L 2631 1097 
L 2631 0 
L 2069 0 
z
M 2069 1613 
L 2069 3678 
L 634 1613 
L 2069 1613 
z
" transform="scale(0.015625)"/>
       </defs>
       <use xlink:href="#ArialMT-30"/>
       <use xlink:href="#ArialMT-2e" x="55.615234"/>
       <use xlink:href="#ArialMT-34" x="83.398438"/>
      </g>
     </g>
    </g>
    <g id="ytick_4">
     <g id="line2d_4">
      <path d="M 108 253.309735 
L 777.6 253.309735 
" clip-path="url(#p05f35f8610)" style="fill: none; stroke: #cccccc; stroke-linecap: round"/>
     </g>
     <g id="text_7">
      <!-- 0.6 -->
      <g style="fill: #262626" transform="translate(83.21 257.246531)scale(0.11 -0.11)">
       <defs>
        <path id="ArialMT-36" d="M 3184 3459 
L 2625 3416 
Q 2550 3747 2413 3897 
Q 2184 4138 1850 4138 
Q 1581 4138 1378 3988 
Q 1113 3794 959 3422 
Q 806 3050 800 2363 
Q 1003 2672 1297 2822 
Q 1591 2972 1913 2972 
Q 2475 2972 2870 2558 
Q 3266 2144 3266 1488 
Q 3266 1056 3080 686 
Q 2894 316 2569 119 
Q 2244 -78 1831 -78 
Q 1128 -78 684 439 
Q 241 956 241 2144 
Q 241 3472 731 4075 
Q 1159 4600 1884 4600 
Q 2425 4600 2770 4297 
Q 3116 3994 3184 3459 
z
M 888 1484 
Q 888 1194 1011 928 
Q 1134 663 1356 523 
Q 1578 384 1822 384 
Q 2178 384 2434 671 
Q 2691 959 2691 1453 
Q 2691 1928 2437 2201 
Q 2184 2475 1800 2475 
Q 1419 2475 1153 2201 
Q 888 1928 888 1484 
z
" transform="scale(0.015625)"/>
       </defs>
       <use xlink:href="#ArialMT-30"/>
       <use xlink:href="#ArialMT-2e" x="55.615234"/>
       <use xlink:href="#ArialMT-36" x="83.398438"/>
      </g>
     </g>
    </g>
    <g id="ytick_5">
     <g id="line2d_5">
      <path d="M 108 178.169204 
L 777.6 178.169204 
" clip-path="url(#p05f35f8610)" style="fill: none; stroke: #cccccc; stroke-linecap: round"/>
     </g>
     <g id="text_8">
      <!-- 0.8 -->
      <g style="fill: #262626" transform="translate(83.21 182.106)scale(0.11 -0.11)">
       <defs>
        <path id="ArialMT-38" d="M 1131 2484 
Q 781 2613 612 2850 
Q 444 3088 444 3419 
Q 444 3919 803 4259 
Q 1163 4600 1759 4600 
Q 2359 4600 2725 4251 
Q 3091 3903 3091 3403 
Q 3091 3084 2923 2848 
Q 2756 2613 2416 2484 
Q 2838 2347 3058 2040 
Q 3278 1734 3278 1309 
Q 3278 722 2862 322 
Q 2447 -78 1769 -78 
Q 1091 -78 675 323 
Q 259 725 259 1325 
Q 259 1772 486 2073 
Q 713 2375 1131 2484 
z
M 1019 3438 
Q 1019 3113 1228 2906 
Q 1438 2700 1772 2700 
Q 2097 2700 2305 2904 
Q 2513 3109 2513 3406 
Q 2513 3716 2298 3927 
Q 2084 4138 1766 4138 
Q 1444 4138 1231 3931 
Q 1019 3725 1019 3438 
z
M 838 1322 
Q 838 1081 952 856 
Q 1066 631 1291 507 
Q 1516 384 1775 384 
Q 2178 384 2440 643 
Q 2703 903 2703 1303 
Q 2703 1709 2433 1975 
Q 2163 2241 1756 2241 
Q 1359 2241 1098 1978 
Q 838 1716 838 1322 
z
" transform="scale(0.015625)"/>
       </defs>
       <use xlink:href="#ArialMT-30"/>
       <use xlink:href="#ArialMT-2e" x="55.615234"/>
       <use xlink:href="#ArialMT-38" x="83.398438"/>
      </g>
     </g>
    </g>
    <g id="ytick_6">
     <g id="line2d_6">
      <path d="M 108 103.028673 
L 777.6 103.028673 
" clip-path="url(#p05f35f8610)" style="fill: none; stroke: #cccccc; stroke-linecap: round"/>
     </g>
     <g id="text_9">
      <!-- 1.0 -->
      <g style="fill: #262626" transform="translate(83.21 106.965469)scale(0.11 -0.11)">
       <defs>
        <path id="ArialMT-31" d="M 2384 0 
L 1822 0 
L 1822 3584 
Q 1619 3391 1289 3197 
Q 959 3003 697 2906 
L 697 3450 
Q 1169 3672 1522 3987 
Q 1875 4303 2022 4600 
L 2384 4600 
L 2384 0 
z
" transform="scale(0.015625)"/>
       </defs>
       <use xlink:href="#ArialMT-31"/>
       <use xlink:href="#ArialMT-2e" x="55.615234"/>
       <use xlink:href="#ArialMT-30" x="83.398438"/>
      </g>
     </g>
    </g>
    <g id="text_10">
     <!-- log_scaled_area -->
     <g style="fill: #262626" transform="translate(76.684375 334.909688)rotate(-90)scale(0.12 -0.12)">
      <defs>
       <path id="ArialMT-6c" d="M 409 0 
L 409 4581 
L 972 4581 
L 972 0 
L 409 0 
z
" transform="scale(0.015625)"/>
       <path id="ArialMT-67" d="M 319 -275 
L 866 -356 
Q 900 -609 1056 -725 
Q 1266 -881 1628 -881 
Q 2019 -881 2231 -725 
Q 2444 -569 2519 -288 
Q 2563 -116 2559 434 
Q 2191 0 1641 0 
Q 956 0 581 494 
Q 206 988 206 1678 
Q 206 2153 378 2554 
Q 550 2956 876 3175 
Q 1203 3394 1644 3394 
Q 2231 3394 2613 2919 
L 2613 3319 
L 3131 3319 
L 3131 450 
Q 3131 -325 2973 -648 
Q 2816 -972 2473 -1159 
Q 2131 -1347 1631 -1347 
Q 1038 -1347 672 -1080 
Q 306 -813 319 -275 
z
M 784 1719 
Q 784 1066 1043 766 
Q 1303 466 1694 466 
Q 2081 466 2343 764 
Q 2606 1063 2606 1700 
Q 2606 2309 2336 2618 
Q 2066 2928 1684 2928 
Q 1309 2928 1046 2623 
Q 784 2319 784 1719 
z
" transform="scale(0.015625)"/>
       <path id="ArialMT-5f" d="M -97 -1272 
L -97 -866 
L 3631 -866 
L 3631 -1272 
L -97 -1272 
z
" transform="scale(0.015625)"/>
       <path id="ArialMT-64" d="M 2575 0 
L 2575 419 
Q 2259 -75 1647 -75 
Q 1250 -75 917 144 
Q 584 363 401 755 
Q 219 1147 219 1656 
Q 219 2153 384 2558 
Q 550 2963 881 3178 
Q 1213 3394 1622 3394 
Q 1922 3394 2156 3267 
Q 2391 3141 2538 2938 
L 2538 4581 
L 3097 4581 
L 3097 0 
L 2575 0 
z
M 797 1656 
Q 797 1019 1065 703 
Q 1334 388 1700 388 
Q 2069 388 2326 689 
Q 2584 991 2584 1609 
Q 2584 2291 2321 2609 
Q 2059 2928 1675 2928 
Q 1300 2928 1048 2622 
Q 797 2316 797 1656 
z
" transform="scale(0.015625)"/>
      </defs>
      <use xlink:href="#ArialMT-6c"/>
      <use xlink:href="#ArialMT-6f" x="22.216797"/>
      <use xlink:href="#ArialMT-67" x="77.832031"/>
      <use xlink:href="#ArialMT-5f" x="133.447266"/>
      <use xlink:href="#ArialMT-73" x="189.0625"/>
      <use xlink:href="#ArialMT-63" x="239.0625"/>
      <use xlink:href="#ArialMT-61" x="289.0625"/>
      <use xlink:href="#ArialMT-6c" x="344.677734"/>
      <use xlink:href="#ArialMT-65" x="366.894531"/>
      <use xlink:href="#ArialMT-64" x="422.509766"/>
      <use xlink:href="#ArialMT-5f" x="478.125"/>
      <use xlink:href="#ArialMT-61" x="533.740234"/>
      <use xlink:href="#ArialMT-72" x="589.355469"/>
      <use xlink:href="#ArialMT-65" x="622.65625"/>
      <use xlink:href="#ArialMT-61" x="678.271484"/>
     </g>
    </g>
   </g>
   <g id="patch_3">
    <path d="M 275.4 478.731327 
L 275.4 478.731327 
L 275.4 478.731327 
L 275.4 478.731327 
z
" clip-path="url(#p05f35f8610)" style="fill: #5875a4; stroke: #4c4c4c; stroke-width: 0.75; stroke-linejoin: miter"/>
   </g>
   <g id="PolyCollection_1">
    <defs>
     <path id="m611404c436" d="M 208.443413 -92.889522 
L 208.436587 -92.889522 
L 208.42921 -96.722163 
L 208.413261 -100.554804 
L 208.387089 -104.387444 
L 208.355065 -108.220085 
L 208.327005 -112.052726 
L 208.310538 -115.885367 
L 208.305332 -119.718007 
L 208.306887 -123.550648 
L 208.312043 -127.383289 
L 208.321101 -131.215929 
L 208.338476 -135.04857 
L 208.366463 -138.881211 
L 208.397656 -142.713852 
L 208.420358 -146.546492 
L 208.428425 -150.379133 
L 208.419971 -154.211774 
L 208.390264 -158.044414 
L 208.330502 -161.877055 
L 208.233434 -165.709696 
L 208.099167 -169.542337 
L 207.937179 -173.374977 
L 207.771577 -177.207618 
L 207.643264 -181.040259 
L 207.577426 -184.8729 
L 207.538542 -188.70554 
L 207.451467 -192.538181 
L 207.276201 -196.370822 
L 207.03651 -200.203462 
L 206.77293 -204.036103 
L 206.48834 -207.868744 
L 206.157987 -211.701385 
L 205.789903 -215.534025 
L 205.444407 -219.366666 
L 205.170243 -223.199307 
L 204.937744 -227.031947 
L 204.666733 -230.864588 
L 204.30302 -234.697229 
L 203.833186 -238.52987 
L 203.256178 -242.36251 
L 202.577339 -246.195151 
L 201.813876 -250.027792 
L 201.008031 -253.860432 
L 200.252459 -257.693073 
L 199.662454 -261.525714 
L 199.272073 -265.358355 
L 198.959188 -269.190995 
L 198.489051 -273.023636 
L 197.649009 -276.856277 
L 196.395475 -280.688917 
L 194.906388 -284.521558 
L 193.440947 -288.354199 
L 192.105726 -292.18684 
L 190.77176 -296.01948 
L 189.110619 -299.852121 
L 186.30739 -303.684762 
L 180.42665 -307.517403 
L 169.161699 -311.350043 
L 153.810972 -315.182684 
L 142.279905 -319.015325 
L 143.144678 -322.847965 
L 155.621906 -326.680606 
L 170.511441 -330.513247 
L 180.579251 -334.345888 
L 185.254955 -338.178528 
L 187.137236 -342.011169 
L 188.310578 -345.84381 
L 189.622645 -349.67645 
L 191.231032 -353.509091 
L 193.0431 -357.341732 
L 194.851772 -361.174373 
L 196.407879 -365.007013 
L 197.550683 -368.839654 
L 198.28908 -372.672295 
L 198.73457 -376.504935 
L 198.991749 -380.337576 
L 199.173852 -384.170217 
L 199.459822 -388.002858 
L 200.016174 -391.835498 
L 200.865062 -395.668139 
L 201.875487 -399.50078 
L 202.868841 -403.33342 
L 203.729422 -407.166061 
L 204.462802 -410.998702 
L 205.167431 -414.831343 
L 205.913119 -418.663983 
L 206.643821 -422.496624 
L 207.224722 -426.329265 
L 207.570991 -430.161906 
L 207.717164 -433.994546 
L 207.776661 -437.827187 
L 207.844816 -441.659828 
L 207.945309 -445.492468 
L 208.058838 -449.325109 
L 208.167953 -453.15775 
L 208.264463 -456.990391 
L 208.341305 -460.823031 
L 208.393451 -464.655672 
L 208.422233 -468.488313 
L 208.434681 -472.320953 
L 208.445319 -472.320953 
L 208.445319 -472.320953 
L 208.457767 -468.488313 
L 208.486549 -464.655672 
L 208.538695 -460.823031 
L 208.615537 -456.990391 
L 208.712047 -453.15775 
L 208.821162 -449.325109 
L 208.934691 -445.492468 
L 209.035184 -441.659828 
L 209.103339 -437.827187 
L 209.162836 -433.994546 
L 209.309009 -430.161906 
L 209.655278 -426.329265 
L 210.236179 -422.496624 
L 210.966881 -418.663983 
L 211.712569 -414.831343 
L 212.417198 -410.998702 
L 213.150578 -407.166061 
L 214.011159 -403.33342 
L 215.004513 -399.50078 
L 216.014938 -395.668139 
L 216.863826 -391.835498 
L 217.420178 -388.002858 
L 217.706148 -384.170217 
L 217.888251 -380.337576 
L 218.14543 -376.504935 
L 218.59092 -372.672295 
L 219.329317 -368.839654 
L 220.472121 -365.007013 
L 222.028228 -361.174373 
L 223.8369 -357.341732 
L 225.648968 -353.509091 
L 227.257355 -349.67645 
L 228.569422 -345.84381 
L 229.742764 -342.011169 
L 231.625045 -338.178528 
L 236.300749 -334.345888 
L 246.368559 -330.513247 
L 261.258094 -326.680606 
L 273.735322 -322.847965 
L 274.600095 -319.015325 
L 263.069028 -315.182684 
L 247.718301 -311.350043 
L 236.45335 -307.517403 
L 230.57261 -303.684762 
L 227.769381 -299.852121 
L 226.10824 -296.01948 
L 224.774274 -292.18684 
L 223.439053 -288.354199 
L 221.973612 -284.521558 
L 220.484525 -280.688917 
L 219.230991 -276.856277 
L 218.390949 -273.023636 
L 217.920812 -269.190995 
L 217.607927 -265.358355 
L 217.217546 -261.525714 
L 216.627541 -257.693073 
L 215.871969 -253.860432 
L 215.066124 -250.027792 
L 214.302661 -246.195151 
L 213.623822 -242.36251 
L 213.046814 -238.52987 
L 212.57698 -234.697229 
L 212.213267 -230.864588 
L 211.942256 -227.031947 
L 211.709757 -223.199307 
L 211.435593 -219.366666 
L 211.090097 -215.534025 
L 210.722013 -211.701385 
L 210.39166 -207.868744 
L 210.10707 -204.036103 
L 209.84349 -200.203462 
L 209.603799 -196.370822 
L 209.428533 -192.538181 
L 209.341458 -188.70554 
L 209.302574 -184.8729 
L 209.236736 -181.040259 
L 209.108423 -177.207618 
L 208.942821 -173.374977 
L 208.780833 -169.542337 
L 208.646566 -165.709696 
L 208.549498 -161.877055 
L 208.489736 -158.044414 
L 208.460029 -154.211774 
L 208.451575 -150.379133 
L 208.459642 -146.546492 
L 208.482344 -142.713852 
L 208.513537 -138.881211 
L 208.541524 -135.04857 
L 208.558899 -131.215929 
L 208.567957 -127.383289 
L 208.573113 -123.550648 
L 208.574668 -119.718007 
L 208.569462 -115.885367 
L 208.552995 -112.052726 
L 208.524935 -108.220085 
L 208.492911 -104.387444 
L 208.466739 -100.554804 
L 208.45079 -96.722163 
L 208.443413 -92.889522 
z
" style="stroke: #4c4c4c; stroke-width: 1.5"/>
    </defs>
    <g clip-path="url(#p05f35f8610)">
     <use xlink:href="#m611404c436" x="0" y="576" style="fill: #5875a4; stroke: #4c4c4c; stroke-width: 1.5"/>
    </g>
   </g>
   <g id="patch_4">
    <path d="M 275.4 478.731327 
L 275.4 478.731327 
L 275.4 478.731327 
L 275.4 478.731327 
z
" clip-path="url(#p05f35f8610)" style="fill: #cc8963; stroke: #4c4c4c; stroke-width: 0.75; stroke-linejoin: miter"/>
   </g>
   <g id="PolyCollection_2">
    <defs>
     <path id="mc338874bc4" d="M 342.364025 -83.52 
L 342.355975 -83.52 
L 342.347652 -87.592727 
L 342.331792 -91.665455 
L 342.309745 -95.738182 
L 342.284932 -99.810909 
L 342.258022 -103.883636 
L 342.227638 -107.956364 
L 342.195715 -112.029091 
L 342.170258 -116.101818 
L 342.163769 -120.174545 
L 342.184939 -124.247273 
L 342.228033 -128.32 
L 342.275622 -132.392727 
L 342.313213 -136.465455 
L 342.336 -140.538182 
L 342.343492 -144.610909 
L 342.33463 -148.683636 
L 342.309215 -152.756364 
L 342.269425 -156.829091 
L 342.214274 -160.901818 
L 342.13605 -164.974545 
L 342.032932 -169.047273 
L 341.921974 -173.12 
L 341.829345 -177.192727 
L 341.770616 -181.265455 
L 341.741271 -185.338182 
L 341.717961 -189.410909 
L 341.66499 -193.483636 
L 341.542429 -197.556364 
L 341.319245 -201.629091 
L 340.98472 -205.701818 
L 340.541356 -209.774545 
L 340.000256 -213.847273 
L 339.405716 -217.92 
L 338.853606 -221.992727 
L 338.460747 -226.065455 
L 338.281121 -230.138182 
L 338.213323 -234.210909 
L 338.022564 -238.283636 
L 337.523972 -242.356364 
L 336.754494 -246.429091 
L 335.936381 -250.501818 
L 335.274655 -254.574545 
L 334.816935 -258.647273 
L 334.488007 -262.72 
L 334.195141 -266.792727 
L 333.860518 -270.865455 
L 333.386317 -274.938182 
L 332.672317 -279.010909 
L 331.686732 -283.083636 
L 330.483184 -287.156364 
L 329.164766 -291.229091 
L 327.818449 -295.301818 
L 326.272791 -299.374545 
L 323.479051 -303.447273 
L 316.876542 -307.52 
L 303.808603 -311.592727 
L 286.650641 -315.665455 
L 275.4 -319.738182 
L 278.741158 -323.810909 
L 293.193241 -327.883636 
L 307.777252 -331.956364 
L 316.279198 -336.029091 
L 319.612345 -340.101818 
L 320.752351 -344.174545 
L 321.662542 -348.247273 
L 323.069527 -352.32 
L 324.905321 -356.392727 
L 326.815274 -360.465455 
L 328.519908 -364.538182 
L 329.886394 -368.610909 
L 330.86161 -372.683636 
L 331.448987 -376.756364 
L 331.764635 -380.829091 
L 332.044133 -384.901818 
L 332.519136 -388.974545 
L 333.263693 -393.047273 
L 334.17481 -397.12 
L 335.113308 -401.192727 
L 336.023994 -405.265455 
L 336.916574 -409.338182 
L 337.801644 -413.410909 
L 338.671522 -417.483636 
L 339.50693 -421.556364 
L 340.273656 -425.629091 
L 340.911296 -429.701818 
L 341.354049 -433.774545 
L 341.589259 -437.847273 
L 341.68246 -441.92 
L 341.731377 -445.992727 
L 341.80448 -450.065455 
L 341.916452 -454.138182 
L 342.041966 -458.210909 
L 342.149073 -462.283636 
L 342.224877 -466.356364 
L 342.275454 -470.429091 
L 342.310694 -474.501818 
L 342.335129 -478.574545 
L 342.34985 -482.647273 
L 342.356807 -486.72 
L 342.363193 -486.72 
L 342.363193 -486.72 
L 342.37015 -482.647273 
L 342.384871 -478.574545 
L 342.409306 -474.501818 
L 342.444546 -470.429091 
L 342.495123 -466.356364 
L 342.570927 -462.283636 
L 342.678034 -458.210909 
L 342.803548 -454.138182 
L 342.91552 -450.065455 
L 342.988623 -445.992727 
L 343.03754 -441.92 
L 343.130741 -437.847273 
L 343.365951 -433.774545 
L 343.808704 -429.701818 
L 344.446344 -425.629091 
L 345.21307 -421.556364 
L 346.048478 -417.483636 
L 346.918356 -413.410909 
L 347.803426 -409.338182 
L 348.696006 -405.265455 
L 349.606692 -401.192727 
L 350.54519 -397.12 
L 351.456307 -393.047273 
L 352.200864 -388.974545 
L 352.675867 -384.901818 
L 352.955365 -380.829091 
L 353.271013 -376.756364 
L 353.85839 -372.683636 
L 354.833606 -368.610909 
L 356.200092 -364.538182 
L 357.904726 -360.465455 
L 359.814679 -356.392727 
L 361.650473 -352.32 
L 363.057458 -348.247273 
L 363.967649 -344.174545 
L 365.107655 -340.101818 
L 368.440802 -336.029091 
L 376.942748 -331.956364 
L 391.526759 -327.883636 
L 405.978842 -323.810909 
L 409.32 -319.738182 
L 398.069359 -315.665455 
L 380.911397 -311.592727 
L 367.843458 -307.52 
L 361.240949 -303.447273 
L 358.447209 -299.374545 
L 356.901551 -295.301818 
L 355.555234 -291.229091 
L 354.236816 -287.156364 
L 353.033268 -283.083636 
L 352.047683 -279.010909 
L 351.333683 -274.938182 
L 350.859482 -270.865455 
L 350.524859 -266.792727 
L 350.231993 -262.72 
L 349.903065 -258.647273 
L 349.445345 -254.574545 
L 348.783619 -250.501818 
L 347.965506 -246.429091 
L 347.196028 -242.356364 
L 346.697436 -238.283636 
L 346.506677 -234.210909 
L 346.438879 -230.138182 
L 346.259253 -226.065455 
L 345.866394 -221.992727 
L 345.314284 -217.92 
L 344.719744 -213.847273 
L 344.178644 -209.774545 
L 343.73528 -205.701818 
L 343.400755 -201.629091 
L 343.177571 -197.556364 
L 343.05501 -193.483636 
L 343.002039 -189.410909 
L 342.978729 -185.338182 
L 342.949384 -181.265455 
L 342.890655 -177.192727 
L 342.798026 -173.12 
L 342.687068 -169.047273 
L 342.58395 -164.974545 
L 342.505726 -160.901818 
L 342.450575 -156.829091 
L 342.410785 -152.756364 
L 342.38537 -148.683636 
L 342.376508 -144.610909 
L 342.384 -140.538182 
L 342.406787 -136.465455 
L 342.444378 -132.392727 
L 342.491967 -128.32 
L 342.535061 -124.247273 
L 342.556231 -120.174545 
L 342.549742 -116.101818 
L 342.524285 -112.029091 
L 342.492362 -107.956364 
L 342.461978 -103.883636 
L 342.435068 -99.810909 
L 342.410255 -95.738182 
L 342.388208 -91.665455 
L 342.372348 -87.592727 
L 342.364025 -83.52 
z
" style="stroke: #4c4c4c; stroke-width: 1.5"/>
    </defs>
    <g clip-path="url(#p05f35f8610)">
     <use xlink:href="#mc338874bc4" x="0" y="576" style="fill: #cc8963; stroke: #4c4c4c; stroke-width: 1.5"/>
    </g>
   </g>
   <g id="PolyCollection_3">
    <defs>
     <path id="ma0cea864fc" d="M 543.254934 -91.396829 
L 543.225066 -91.396829 
L 543.201561 -95.289158 
L 543.159591 -99.181487 
L 543.101707 -103.073816 
L 543.040618 -106.966144 
L 542.991613 -110.858473 
L 542.961864 -114.750802 
L 542.950075 -118.643131 
L 542.955367 -122.53546 
L 542.98004 -126.427788 
L 543.022231 -130.320117 
L 543.071899 -134.212446 
L 543.116906 -138.104775 
L 543.150193 -141.997104 
L 543.170677 -145.889432 
L 543.18044 -149.781761 
L 543.180899 -153.67409 
L 543.167832 -157.566419 
L 543.128711 -161.458748 
L 543.04841 -165.351077 
L 542.923965 -169.243405 
L 542.778287 -173.135734 
L 542.654965 -177.028063 
L 542.587141 -180.920392 
L 542.563884 -184.812721 
L 542.53054 -188.705049 
L 542.427615 -192.597378 
L 542.230966 -196.489707 
L 541.95603 -200.382036 
L 541.627204 -204.274365 
L 541.247698 -208.166693 
L 540.802144 -212.059022 
L 540.286463 -215.951351 
L 539.728264 -219.84368 
L 539.174618 -223.736009 
L 538.662514 -227.628337 
L 538.19791 -231.520666 
L 537.747782 -235.412995 
L 537.242562 -239.305324 
L 536.603335 -243.197653 
L 535.80025 -247.089982 
L 534.897923 -250.98231 
L 534.021296 -254.874639 
L 533.251572 -258.766968 
L 532.559319 -262.659297 
L 531.848731 -266.551626 
L 531.056223 -270.443954 
L 530.200678 -274.336283 
L 529.351706 -278.228612 
L 528.553196 -282.120941 
L 527.769394 -286.01327 
L 526.896069 -289.905598 
L 525.778246 -293.797927 
L 524.101749 -297.690256 
L 521.139261 -301.582585 
L 515.669215 -305.474914 
L 506.713418 -309.367242 
L 495.252304 -313.259571 
L 485.303286 -317.1519 
L 481.954669 -321.044229 
L 487.122942 -324.936558 
L 497.661472 -328.828887 
L 508.248646 -332.721215 
L 515.570303 -336.613544 
L 519.516117 -340.505873 
L 521.569782 -344.398202 
L 523.072221 -348.290531 
L 524.646215 -352.182859 
L 526.364248 -356.075188 
L 528.043756 -359.967517 
L 529.468499 -363.859846 
L 530.530193 -367.752175 
L 531.272247 -371.644503 
L 531.822918 -375.536832 
L 532.291243 -379.429161 
L 532.735485 -383.32149 
L 533.210737 -387.213819 
L 533.799319 -391.106147 
L 534.569183 -394.998476 
L 535.510522 -398.890805 
L 536.527387 -402.783134 
L 537.500553 -406.675463 
L 538.364584 -410.567792 
L 539.127261 -414.46012 
L 539.822468 -418.352449 
L 540.457889 -422.244778 
L 541.011575 -426.137107 
L 541.465409 -430.029436 
L 541.82753 -433.921764 
L 542.123562 -437.814093 
L 542.377171 -441.706422 
L 542.600908 -445.598751 
L 542.795738 -449.49108 
L 542.954263 -453.383408 
L 543.069413 -457.275737 
L 543.14342 -461.168066 
L 543.187285 -465.060395 
L 543.212782 -468.952724 
L 543.227361 -472.845052 
L 543.234987 -476.737381 
L 543.245013 -476.737381 
L 543.245013 -476.737381 
L 543.252639 -472.845052 
L 543.267218 -468.952724 
L 543.292715 -465.060395 
L 543.33658 -461.168066 
L 543.410587 -457.275737 
L 543.525737 -453.383408 
L 543.684262 -449.49108 
L 543.879092 -445.598751 
L 544.102829 -441.706422 
L 544.356438 -437.814093 
L 544.65247 -433.921764 
L 545.014591 -430.029436 
L 545.468425 -426.137107 
L 546.022111 -422.244778 
L 546.657532 -418.352449 
L 547.352739 -414.46012 
L 548.115416 -410.567792 
L 548.979447 -406.675463 
L 549.952613 -402.783134 
L 550.969478 -398.890805 
L 551.910817 -394.998476 
L 552.680681 -391.106147 
L 553.269263 -387.213819 
L 553.744515 -383.32149 
L 554.188757 -379.429161 
L 554.657082 -375.536832 
L 555.207753 -371.644503 
L 555.949807 -367.752175 
L 557.011501 -363.859846 
L 558.436244 -359.967517 
L 560.115752 -356.075188 
L 561.833785 -352.182859 
L 563.407779 -348.290531 
L 564.910218 -344.398202 
L 566.963883 -340.505873 
L 570.909697 -336.613544 
L 578.231354 -332.721215 
L 588.818528 -328.828887 
L 599.357058 -324.936558 
L 604.525331 -321.044229 
L 601.176714 -317.1519 
L 591.227696 -313.259571 
L 579.766582 -309.367242 
L 570.810785 -305.474914 
L 565.340739 -301.582585 
L 562.378251 -297.690256 
L 560.701754 -293.797927 
L 559.583931 -289.905598 
L 558.710606 -286.01327 
L 557.926804 -282.120941 
L 557.128294 -278.228612 
L 556.279322 -274.336283 
L 555.423777 -270.443954 
L 554.631269 -266.551626 
L 553.920681 -262.659297 
L 553.228428 -258.766968 
L 552.458704 -254.874639 
L 551.582077 -250.98231 
L 550.67975 -247.089982 
L 549.876665 -243.197653 
L 549.237438 -239.305324 
L 548.732218 -235.412995 
L 548.28209 -231.520666 
L 547.817486 -227.628337 
L 547.305382 -223.736009 
L 546.751736 -219.84368 
L 546.193537 -215.951351 
L 545.677856 -212.059022 
L 545.232302 -208.166693 
L 544.852796 -204.274365 
L 544.52397 -200.382036 
L 544.249034 -196.489707 
L 544.052385 -192.597378 
L 543.94946 -188.705049 
L 543.916116 -184.812721 
L 543.892859 -180.920392 
L 543.825035 -177.028063 
L 543.701713 -173.135734 
L 543.556035 -169.243405 
L 543.43159 -165.351077 
L 543.351289 -161.458748 
L 543.312168 -157.566419 
L 543.299101 -153.67409 
L 543.29956 -149.781761 
L 543.309323 -145.889432 
L 543.329807 -141.997104 
L 543.363094 -138.104775 
L 543.408101 -134.212446 
L 543.457769 -130.320117 
L 543.49996 -126.427788 
L 543.524633 -122.53546 
L 543.529925 -118.643131 
L 543.518136 -114.750802 
L 543.488387 -110.858473 
L 543.439382 -106.966144 
L 543.378293 -103.073816 
L 543.320409 -99.181487 
L 543.278439 -95.289158 
L 543.254934 -91.396829 
z
" style="stroke: #4c4c4c; stroke-width: 1.5"/>
    </defs>
    <g clip-path="url(#p05f35f8610)">
     <use xlink:href="#ma0cea864fc" x="0" y="576" style="fill: #5875a4; stroke: #4c4c4c; stroke-width: 1.5"/>
    </g>
   </g>
   <g id="PolyCollection_4">
    <defs>
     <path id="me0ab0e2449" d="M 677.174112 -91.886095 
L 677.145888 -91.886095 
L 677.123673 -95.6424 
L 677.08357 -99.398705 
L 677.027275 -103.15501 
L 676.967305 -106.911315 
L 676.921849 -110.66762 
L 676.902194 -114.423925 
L 676.903885 -118.18023 
L 676.911709 -121.936536 
L 676.915442 -125.692841 
L 676.920352 -129.449146 
L 676.940432 -133.205451 
L 676.981956 -136.961756 
L 677.035807 -140.718061 
L 677.08468 -144.474366 
L 677.114159 -148.230671 
L 677.116556 -151.986976 
L 677.088474 -155.743281 
L 677.029267 -159.499586 
L 676.942489 -163.255892 
L 676.836417 -167.012197 
L 676.722154 -170.768502 
L 676.612812 -174.524807 
L 676.523525 -178.281112 
L 676.466376 -182.037417 
L 676.44118 -185.793722 
L 676.431848 -189.550027 
L 676.411184 -193.306332 
L 676.347635 -197.062637 
L 676.211459 -200.818942 
L 675.981186 -204.575248 
L 675.645886 -208.331553 
L 675.200143 -212.087858 
L 674.639786 -215.844163 
L 673.971478 -219.600468 
L 673.237005 -223.356773 
L 672.527197 -227.113078 
L 671.951727 -230.869383 
L 671.570226 -234.625688 
L 671.338546 -238.381993 
L 671.118538 -242.138298 
L 670.753946 -245.894604 
L 670.168237 -249.650909 
L 669.411894 -253.407214 
L 668.617486 -257.163519 
L 667.90178 -260.919824 
L 667.292884 -264.676129 
L 666.727828 -268.432434 
L 666.114121 -272.188739 
L 665.403222 -275.945044 
L 664.609548 -279.701349 
L 663.76051 -283.457654 
L 662.836517 -287.21396 
L 661.762516 -290.970265 
L 660.41568 -294.72657 
L 658.505858 -298.482875 
L 655.261399 -302.23918 
L 649.269907 -305.995485 
L 639.288354 -309.75179 
L 626.257697 -313.508095 
L 614.62952 -317.2644 
L 610.2 -321.020705 
L 615.301397 -324.77701 
L 626.589447 -328.533316 
L 638.211257 -332.289621 
L 646.478769 -336.045926 
L 651.215257 -339.802231 
L 653.953277 -343.558536 
L 656.025345 -347.314841 
L 657.996358 -351.071146 
L 659.91276 -354.827451 
L 661.647838 -358.583756 
L 663.113872 -362.340061 
L 664.323053 -366.096366 
L 665.330181 -369.852672 
L 666.157141 -373.608977 
L 666.784118 -377.365282 
L 667.203532 -381.121587 
L 667.48439 -384.877892 
L 667.785143 -388.634197 
L 668.272759 -392.390502 
L 669.003353 -396.146807 
L 669.895099 -399.903112 
L 670.822618 -403.659417 
L 671.711408 -407.415722 
L 672.541749 -411.172028 
L 673.307627 -414.928333 
L 674.000475 -418.684638 
L 674.614197 -422.440943 
L 675.142709 -426.197248 
L 675.575785 -429.953553 
L 675.910042 -433.709858 
L 676.164568 -437.466163 
L 676.376938 -441.222468 
L 676.577726 -444.978773 
L 676.76943 -448.735078 
L 676.932063 -452.491384 
L 677.047004 -456.247689 
L 677.113139 -460.003994 
L 677.143904 -463.760299 
L 677.176096 -463.760299 
L 677.176096 -463.760299 
L 677.206861 -460.003994 
L 677.272996 -456.247689 
L 677.387937 -452.491384 
L 677.55057 -448.735078 
L 677.742274 -444.978773 
L 677.943062 -441.222468 
L 678.155432 -437.466163 
L 678.409958 -433.709858 
L 678.744215 -429.953553 
L 679.177291 -426.197248 
L 679.705803 -422.440943 
L 680.319525 -418.684638 
L 681.012373 -414.928333 
L 681.778251 -411.172028 
L 682.608592 -407.415722 
L 683.497382 -403.659417 
L 684.424901 -399.903112 
L 685.316647 -396.146807 
L 686.047241 -392.390502 
L 686.534857 -388.634197 
L 686.83561 -384.877892 
L 687.116468 -381.121587 
L 687.535882 -377.365282 
L 688.162859 -373.608977 
L 688.989819 -369.852672 
L 689.996947 -366.096366 
L 691.206128 -362.340061 
L 692.672162 -358.583756 
L 694.40724 -354.827451 
L 696.323642 -351.071146 
L 698.294655 -347.314841 
L 700.366723 -343.558536 
L 703.104743 -339.802231 
L 707.841231 -336.045926 
L 716.108743 -332.289621 
L 727.730553 -328.533316 
L 739.018603 -324.77701 
L 744.12 -321.020705 
L 739.69048 -317.2644 
L 728.062303 -313.508095 
L 715.031646 -309.75179 
L 705.050093 -305.995485 
L 699.058601 -302.23918 
L 695.814142 -298.482875 
L 693.90432 -294.72657 
L 692.557484 -290.970265 
L 691.483483 -287.21396 
L 690.55949 -283.457654 
L 689.710452 -279.701349 
L 688.916778 -275.945044 
L 688.205879 -272.188739 
L 687.592172 -268.432434 
L 687.027116 -264.676129 
L 686.41822 -260.919824 
L 685.702514 -257.163519 
L 684.908106 -253.407214 
L 684.151763 -249.650909 
L 683.566054 -245.894604 
L 683.201462 -242.138298 
L 682.981454 -238.381993 
L 682.749774 -234.625688 
L 682.368273 -230.869383 
L 681.792803 -227.113078 
L 681.082995 -223.356773 
L 680.348522 -219.600468 
L 679.680214 -215.844163 
L 679.119857 -212.087858 
L 678.674114 -208.331553 
L 678.338814 -204.575248 
L 678.108541 -200.818942 
L 677.972365 -197.062637 
L 677.908816 -193.306332 
L 677.888152 -189.550027 
L 677.87882 -185.793722 
L 677.853624 -182.037417 
L 677.796475 -178.281112 
L 677.707188 -174.524807 
L 677.597846 -170.768502 
L 677.483583 -167.012197 
L 677.377511 -163.255892 
L 677.290733 -159.499586 
L 677.231526 -155.743281 
L 677.203444 -151.986976 
L 677.205841 -148.230671 
L 677.23532 -144.474366 
L 677.284193 -140.718061 
L 677.338044 -136.961756 
L 677.379568 -133.205451 
L 677.399648 -129.449146 
L 677.404558 -125.692841 
L 677.408291 -121.936536 
L 677.416115 -118.18023 
L 677.417806 -114.423925 
L 677.398151 -110.66762 
L 677.352695 -106.911315 
L 677.292725 -103.15501 
L 677.23643 -99.398705 
L 677.196327 -95.6424 
L 677.174112 -91.886095 
z
" style="stroke: #4c4c4c; stroke-width: 1.5"/>
    </defs>
    <g clip-path="url(#p05f35f8610)">
     <use xlink:href="#me0ab0e2449" x="0" y="576" style="fill: #cc8963; stroke: #4c4c4c; stroke-width: 1.5"/>
    </g>
   </g>
   <g id="line2d_7">
    <path d="M 208.44 332.938003 
L 208.44 174.638505 
" clip-path="url(#p05f35f8610)" style="fill: none; stroke: #4c4c4c; stroke-width: 1.5; stroke-linecap: round"/>
   </g>
   <g id="line2d_8">
    <path d="M 208.44 273.656837 
L 208.44 234.043159 
" clip-path="url(#p05f35f8610)" style="fill: none; stroke: #4c4c4c; stroke-width: 4.5; stroke-linecap: round"/>
   </g>
   <g id="line2d_9">
    <path d="M 342.36 327.216408 
L 342.36 169.722375 
" clip-path="url(#p05f35f8610)" style="fill: none; stroke: #4c4c4c; stroke-width: 1.5; stroke-linecap: round"/>
   </g>
   <g id="line2d_10">
    <path d="M 342.36 268.183471 
L 342.36 228.788473 
" clip-path="url(#p05f35f8610)" style="fill: none; stroke: #4c4c4c; stroke-width: 4.5; stroke-linecap: round"/>
   </g>
   <g id="line2d_11">
    <path d="M 543.24 343.625875 
L 543.24 166.313998 
" clip-path="url(#p05f35f8610)" style="fill: none; stroke: #4c4c4c; stroke-width: 1.5; stroke-linecap: round"/>
   </g>
   <g id="line2d_12">
    <path d="M 543.24 277.046495 
L 543.24 232.643885 
" clip-path="url(#p05f35f8610)" style="fill: none; stroke: #4c4c4c; stroke-width: 4.5; stroke-linecap: round"/>
   </g>
   <g id="line2d_13">
    <path d="M 677.16 330.532785 
L 677.16 175.835766 
" clip-path="url(#p05f35f8610)" style="fill: none; stroke: #4c4c4c; stroke-width: 1.5; stroke-linecap: round"/>
   </g>
   <g id="line2d_14">
    <path d="M 677.16 272.605172 
L 677.16 233.883498 
" clip-path="url(#p05f35f8610)" style="fill: none; stroke: #4c4c4c; stroke-width: 4.5; stroke-linecap: round"/>
   </g>
   <g id="patch_5">
    <path d="M 108 512.64 
L 108 69.12 
" style="fill: none; stroke: #cccccc; stroke-width: 1.25; stroke-linejoin: miter; stroke-linecap: square"/>
   </g>
   <g id="patch_6">
    <path d="M 777.6 512.64 
L 777.6 69.12 
" style="fill: none; stroke: #cccccc; stroke-width: 1.25; stroke-linejoin: miter; stroke-linecap: square"/>
   </g>
   <g id="patch_7">
    <path d="M 108 512.64 
L 777.6 512.64 
" style="fill: none; stroke: #cccccc; stroke-width: 1.25; stroke-linejoin: miter; stroke-linecap: square"/>
   </g>
   <g id="patch_8">
    <path d="M 108 69.12 
L 777.6 69.12 
" style="fill: none; stroke: #cccccc; stroke-width: 1.25; stroke-linejoin: miter; stroke-linecap: square"/>
   </g>
   <g id="PathCollection_1">
    <defs>
     <path id="m4ccd2dfe05" d="M 0 1.5 
C 0.397805 1.5 0.77937 1.341951 1.06066 1.06066 
C 1.341951 0.77937 1.5 0.397805 1.5 0 
C 1.5 -0.397805 1.341951 -0.77937 1.06066 -1.06066 
C 0.77937 -1.341951 0.397805 -1.5 0 -1.5 
C -0.397805 -1.5 -0.77937 -1.341951 -1.06066 -1.06066 
C -1.341951 -0.77937 -1.5 -0.397805 -1.5 0 
C -1.5 0.397805 -1.341951 0.77937 -1.06066 1.06066 
C -0.77937 1.341951 -0.397805 1.5 0 1.5 
z
" style="stroke: #4c4c4c"/>
    </defs>
    <g clip-path="url(#p05f35f8610)">
     <use xlink:href="#m4ccd2dfe05" x="208.44" y="255.318866" style="fill: #ffffff; stroke: #4c4c4c"/>
    </g>
   </g>
   <g id="PathCollection_2">
    <g clip-path="url(#p05f35f8610)">
     <use xlink:href="#m4ccd2dfe05" x="342.36" y="255.318866" style="fill: #ffffff; stroke: #4c4c4c"/>
    </g>
   </g>
   <g id="PathCollection_3">
    <g clip-path="url(#p05f35f8610)">
     <use xlink:href="#m4ccd2dfe05" x="543.24" y="255.318866" style="fill: #ffffff; stroke: #4c4c4c"/>
    </g>
   </g>
   <g id="PathCollection_4">
    <g clip-path="url(#p05f35f8610)">
     <use xlink:href="#m4ccd2dfe05" x="677.16" y="255.318866" style="fill: #ffffff; stroke: #4c4c4c"/>
    </g>
   </g>
   <g id="legend_1">
    <g id="patch_9">
     <path d="M 674.1725 125.514063 
L 769.9 125.514063 
Q 772.1 125.514063 772.1 123.314063 
L 772.1 76.82 
Q 772.1 74.62 769.9 74.62 
L 674.1725 74.62 
Q 671.9725 74.62 671.9725 76.82 
L 671.9725 123.314063 
Q 671.9725 125.514063 674.1725 125.514063 
z
" style="fill: #ffffff; opacity: 0.8; stroke: #cccccc; stroke-linejoin: miter"/>
    </g>
    <g id="text_11">
     <!-- Treatment -->
     <g style="fill: #262626" transform="translate(694.920938 87.609375)scale(0.12 -0.12)">
      <defs>
       <path id="ArialMT-6e" d="M 422 0 
L 422 3319 
L 928 3319 
L 928 2847 
Q 1294 3394 1984 3394 
Q 2284 3394 2536 3286 
Q 2788 3178 2913 3003 
Q 3038 2828 3088 2588 
Q 3119 2431 3119 2041 
L 3119 0 
L 2556 0 
L 2556 2019 
Q 2556 2363 2490 2533 
Q 2425 2703 2258 2804 
Q 2091 2906 1866 2906 
Q 1506 2906 1245 2678 
Q 984 2450 984 1813 
L 984 0 
L 422 0 
z
" transform="scale(0.015625)"/>
      </defs>
      <use xlink:href="#ArialMT-54"/>
      <use xlink:href="#ArialMT-72" x="57.333984"/>
      <use xlink:href="#ArialMT-65" x="90.634766"/>
      <use xlink:href="#ArialMT-61" x="146.25"/>
      <use xlink:href="#ArialMT-74" x="201.865234"/>
      <use xlink:href="#ArialMT-6d" x="229.648438"/>
      <use xlink:href="#ArialMT-65" x="312.949219"/>
      <use xlink:href="#ArialMT-6e" x="368.564453"/>
      <use xlink:href="#ArialMT-74" x="424.179688"/>
     </g>
    </g>
    <g id="patch_10">
     <path d="M 676.3725 103.367969 
L 698.3725 103.367969 
L 698.3725 95.667969 
L 676.3725 95.667969 
z
" style="fill: #5875a4; stroke: #4c4c4c; stroke-width: 0.75; stroke-linejoin: miter"/>
    </g>
    <g id="text_12">
     <!-- control -->
     <g style="fill: #262626" transform="translate(707.1725 103.367969)scale(0.11 -0.11)">
      <use xlink:href="#ArialMT-63"/>
      <use xlink:href="#ArialMT-6f" x="50"/>
      <use xlink:href="#ArialMT-6e" x="105.615234"/>
      <use xlink:href="#ArialMT-74" x="161.230469"/>
      <use xlink:href="#ArialMT-72" x="189.013672"/>
      <use xlink:href="#ArialMT-6f" x="222.314453"/>
      <use xlink:href="#ArialMT-6c" x="277.929688"/>
     </g>
    </g>
    <g id="patch_11">
     <path d="M 676.3725 118.927813 
L 698.3725 118.927813 
L 698.3725 111.227813 
L 676.3725 111.227813 
z
" style="fill: #cc8963; stroke: #4c4c4c; stroke-width: 0.75; stroke-linejoin: miter"/>
    </g>
    <g id="text_13">
     <!-- deltamethrin -->
     <g style="fill: #262626" transform="translate(707.1725 118.927813)scale(0.11 -0.11)">
      <defs>
       <path id="ArialMT-68" d="M 422 0 
L 422 4581 
L 984 4581 
L 984 2938 
Q 1378 3394 1978 3394 
Q 2347 3394 2619 3248 
Q 2891 3103 3008 2847 
Q 3125 2591 3125 2103 
L 3125 0 
L 2563 0 
L 2563 2103 
Q 2563 2525 2380 2717 
Q 2197 2909 1863 2909 
Q 1613 2909 1392 2779 
Q 1172 2650 1078 2428 
Q 984 2206 984 1816 
L 984 0 
L 422 0 
z
" transform="scale(0.015625)"/>
      </defs>
      <use xlink:href="#ArialMT-64"/>
      <use xlink:href="#ArialMT-65" x="55.615234"/>
      <use xlink:href="#ArialMT-6c" x="111.230469"/>
      <use xlink:href="#ArialMT-74" x="133.447266"/>
      <use xlink:href="#ArialMT-61" x="161.230469"/>
      <use xlink:href="#ArialMT-6d" x="216.845703"/>
      <use xlink:href="#ArialMT-65" x="300.146484"/>
      <use xlink:href="#ArialMT-74" x="355.761719"/>
      <use xlink:href="#ArialMT-68" x="383.544922"/>
      <use xlink:href="#ArialMT-72" x="439.160156"/>
      <use xlink:href="#ArialMT-69" x="472.460938"/>
      <use xlink:href="#ArialMT-6e" x="494.677734"/>
     </g>
    </g>
   </g>
  </g>
 </g>
 <defs>
  <clipPath id="p05f35f8610">
   <rect x="108" y="69.12" width="669.6" height="443.52"/>
  </clipPath>
 </defs>
</svg>
