<?xml version="1.0" encoding="utf-8" standalone="no"?>
<!DOCTYPE svg PUBLIC "-//W3C//DTD SVG 1.1//EN"
  "http://www.w3.org/Graphics/SVG/1.1/DTD/svg11.dtd">
<svg xmlns:xlink="http://www.w3.org/1999/xlink" width="864pt" height="576pt" viewBox="0 0 864 576" xmlns="http://www.w3.org/2000/svg" version="1.1">
 <metadata>
  <rdf:RDF xmlns:dc="http://purl.org/dc/elements/1.1/" xmlns:cc="http://creativecommons.org/ns#" xmlns:rdf="http://www.w3.org/1999/02/22-rdf-syntax-ns#">
   <cc:Work>
    <dc:type rdf:resource="http://purl.org/dc/dcmitype/StillImage"/>
    <dc:date>2023-02-18T18:30:07.358333</dc:date>
    <dc:format>image/svg+xml</dc:format>
    <dc:creator>
     <cc:Agent>
      <dc:title>Matplotlib v3.5.0, https://matplotlib.org/</dc:title>
     </cc:Agent>
    </dc:creator>
   </cc:Work>
  </rdf:RDF>
 </metadata>
 <defs>
  <style type="text/css">*{stroke-linejoin: round; stroke-linecap: butt}</style>
 </defs>
 <g id="figure_1">
  <g id="patch_1">
   <path d="M 0 576 
L 864 576 
L 864 0 
L 0 0 
z
" style="fill: #ffffff"/>
  </g>
  <g id="axes_1">
   <g id="patch_2">
    <path d="M 108 512.64 
L 777.6 512.64 
L 777.6 69.12 
L 108 69.12 
z
" style="fill: #ffffff"/>
   </g>
   <g id="matplotlib.axis_1">
    <g id="xtick_1">
     <g id="text_1">
      <!-- striatum -->
      <g style="fill: #262626" transform="translate(255.842344 530.013594)scale(0.11 -0.11)">
       <defs>
        <path id="ArialMT-73" d="M 197 991 
L 753 1078 
Q 800 744 1014 566 
Q 1228 388 1613 388 
Q 2000 388 2187 545 
Q 2375 703 2375 916 
Q 2375 1106 2209 1216 
Q 2094 1291 1634 1406 
Q 1016 1563 777 1677 
Q 538 1791 414 1992 
Q 291 2194 291 2438 
Q 291 2659 392 2848 
Q 494 3038 669 3163 
Q 800 3259 1026 3326 
Q 1253 3394 1513 3394 
Q 1903 3394 2198 3281 
Q 2494 3169 2634 2976 
Q 2775 2784 2828 2463 
L 2278 2388 
Q 2241 2644 2061 2787 
Q 1881 2931 1553 2931 
Q 1166 2931 1000 2803 
Q 834 2675 834 2503 
Q 834 2394 903 2306 
Q 972 2216 1119 2156 
Q 1203 2125 1616 2013 
Q 2213 1853 2448 1751 
Q 2684 1650 2818 1456 
Q 2953 1263 2953 975 
Q 2953 694 2789 445 
Q 2625 197 2315 61 
Q 2006 -75 1616 -75 
Q 969 -75 630 194 
Q 291 463 197 991 
z
" transform="scale(0.015625)"/>
        <path id="ArialMT-74" d="M 1650 503 
L 1731 6 
Q 1494 -44 1306 -44 
Q 1000 -44 831 53 
Q 663 150 594 308 
Q 525 466 525 972 
L 525 2881 
L 113 2881 
L 113 3319 
L 525 3319 
L 525 4141 
L 1084 4478 
L 1084 3319 
L 1650 3319 
L 1650 2881 
L 1084 2881 
L 1084 941 
Q 1084 700 1114 631 
Q 1144 563 1211 522 
Q 1278 481 1403 481 
Q 1497 481 1650 503 
z
" transform="scale(0.015625)"/>
        <path id="ArialMT-72" d="M 416 0 
L 416 3319 
L 922 3319 
L 922 2816 
Q 1116 3169 1280 3281 
Q 1444 3394 1641 3394 
Q 1925 3394 2219 3213 
L 2025 2691 
Q 1819 2813 1613 2813 
Q 1428 2813 1281 2702 
Q 1134 2591 1072 2394 
Q 978 2094 978 1738 
L 978 0 
L 416 0 
z
" transform="scale(0.015625)"/>
        <path id="ArialMT-69" d="M 425 3934 
L 425 4581 
L 988 4581 
L 988 3934 
L 425 3934 
z
M 425 0 
L 425 3319 
L 988 3319 
L 988 0 
L 425 0 
z
" transform="scale(0.015625)"/>
        <path id="ArialMT-61" d="M 2588 409 
Q 2275 144 1986 34 
Q 1697 -75 1366 -75 
Q 819 -75 525 192 
Q 231 459 231 875 
Q 231 1119 342 1320 
Q 453 1522 633 1644 
Q 813 1766 1038 1828 
Q 1203 1872 1538 1913 
Q 2219 1994 2541 2106 
Q 2544 2222 2544 2253 
Q 2544 2597 2384 2738 
Q 2169 2928 1744 2928 
Q 1347 2928 1158 2789 
Q 969 2650 878 2297 
L 328 2372 
Q 403 2725 575 2942 
Q 747 3159 1072 3276 
Q 1397 3394 1825 3394 
Q 2250 3394 2515 3294 
Q 2781 3194 2906 3042 
Q 3031 2891 3081 2659 
Q 3109 2516 3109 2141 
L 3109 1391 
Q 3109 606 3145 398 
Q 3181 191 3288 0 
L 2700 0 
Q 2613 175 2588 409 
z
M 2541 1666 
Q 2234 1541 1622 1453 
Q 1275 1403 1131 1340 
Q 988 1278 909 1158 
Q 831 1038 831 891 
Q 831 666 1001 516 
Q 1172 366 1500 366 
Q 1825 366 2078 508 
Q 2331 650 2450 897 
Q 2541 1088 2541 1459 
L 2541 1666 
z
" transform="scale(0.015625)"/>
        <path id="ArialMT-75" d="M 2597 0 
L 2597 488 
Q 2209 -75 1544 -75 
Q 1250 -75 995 37 
Q 741 150 617 320 
Q 494 491 444 738 
Q 409 903 409 1263 
L 409 3319 
L 972 3319 
L 972 1478 
Q 972 1038 1006 884 
Q 1059 663 1231 536 
Q 1403 409 1656 409 
Q 1909 409 2131 539 
Q 2353 669 2445 892 
Q 2538 1116 2538 1541 
L 2538 3319 
L 3100 3319 
L 3100 0 
L 2597 0 
z
" transform="scale(0.015625)"/>
        <path id="ArialMT-6d" d="M 422 0 
L 422 3319 
L 925 3319 
L 925 2853 
Q 1081 3097 1340 3245 
Q 1600 3394 1931 3394 
Q 2300 3394 2536 3241 
Q 2772 3088 2869 2813 
Q 3263 3394 3894 3394 
Q 4388 3394 4653 3120 
Q 4919 2847 4919 2278 
L 4919 0 
L 4359 0 
L 4359 2091 
Q 4359 2428 4304 2576 
Q 4250 2725 4106 2815 
Q 3963 2906 3769 2906 
Q 3419 2906 3187 2673 
Q 2956 2441 2956 1928 
L 2956 0 
L 2394 0 
L 2394 2156 
Q 2394 2531 2256 2718 
Q 2119 2906 1806 2906 
Q 1569 2906 1367 2781 
Q 1166 2656 1075 2415 
Q 984 2175 984 1722 
L 984 0 
L 422 0 
z
" transform="scale(0.015625)"/>
       </defs>
       <use xlink:href="#ArialMT-73"/>
       <use xlink:href="#ArialMT-74" x="50"/>
       <use xlink:href="#ArialMT-72" x="77.783203"/>
       <use xlink:href="#ArialMT-69" x="111.083984"/>
       <use xlink:href="#ArialMT-61" x="133.300781"/>
       <use xlink:href="#ArialMT-74" x="188.916016"/>
       <use xlink:href="#ArialMT-75" x="216.699219"/>
       <use xlink:href="#ArialMT-6d" x="272.314453"/>
      </g>
     </g>
    </g>
    <g id="xtick_2">
     <g id="text_2">
      <!-- cortex -->
      <g style="fill: #262626" transform="translate(595.223672 530.013594)scale(0.11 -0.11)">
       <defs>
        <path id="ArialMT-63" d="M 2588 1216 
L 3141 1144 
Q 3050 572 2676 248 
Q 2303 -75 1759 -75 
Q 1078 -75 664 370 
Q 250 816 250 1647 
Q 250 2184 428 2587 
Q 606 2991 970 3192 
Q 1334 3394 1763 3394 
Q 2303 3394 2647 3120 
Q 2991 2847 3088 2344 
L 2541 2259 
Q 2463 2594 2264 2762 
Q 2066 2931 1784 2931 
Q 1359 2931 1093 2626 
Q 828 2322 828 1663 
Q 828 994 1084 691 
Q 1341 388 1753 388 
Q 2084 388 2306 591 
Q 2528 794 2588 1216 
z
" transform="scale(0.015625)"/>
        <path id="ArialMT-6f" d="M 213 1659 
Q 213 2581 725 3025 
Q 1153 3394 1769 3394 
Q 2453 3394 2887 2945 
Q 3322 2497 3322 1706 
Q 3322 1066 3130 698 
Q 2938 331 2570 128 
Q 2203 -75 1769 -75 
Q 1072 -75 642 372 
Q 213 819 213 1659 
z
M 791 1659 
Q 791 1022 1069 705 
Q 1347 388 1769 388 
Q 2188 388 2466 706 
Q 2744 1025 2744 1678 
Q 2744 2294 2464 2611 
Q 2184 2928 1769 2928 
Q 1347 2928 1069 2612 
Q 791 2297 791 1659 
z
" transform="scale(0.015625)"/>
        <path id="ArialMT-65" d="M 2694 1069 
L 3275 997 
Q 3138 488 2766 206 
Q 2394 -75 1816 -75 
Q 1088 -75 661 373 
Q 234 822 234 1631 
Q 234 2469 665 2931 
Q 1097 3394 1784 3394 
Q 2450 3394 2872 2941 
Q 3294 2488 3294 1666 
Q 3294 1616 3291 1516 
L 816 1516 
Q 847 969 1125 678 
Q 1403 388 1819 388 
Q 2128 388 2347 550 
Q 2566 713 2694 1069 
z
M 847 1978 
L 2700 1978 
Q 2663 2397 2488 2606 
Q 2219 2931 1791 2931 
Q 1403 2931 1139 2672 
Q 875 2413 847 1978 
z
" transform="scale(0.015625)"/>
        <path id="ArialMT-78" d="M 47 0 
L 1259 1725 
L 138 3319 
L 841 3319 
L 1350 2541 
Q 1494 2319 1581 2169 
Q 1719 2375 1834 2534 
L 2394 3319 
L 3066 3319 
L 1919 1756 
L 3153 0 
L 2463 0 
L 1781 1031 
L 1600 1309 
L 728 0 
L 47 0 
z
" transform="scale(0.015625)"/>
       </defs>
       <use xlink:href="#ArialMT-63"/>
       <use xlink:href="#ArialMT-6f" x="50"/>
       <use xlink:href="#ArialMT-72" x="105.615234"/>
       <use xlink:href="#ArialMT-74" x="138.916016"/>
       <use xlink:href="#ArialMT-65" x="166.699219"/>
       <use xlink:href="#ArialMT-78" x="222.314453"/>
      </g>
     </g>
    </g>
    <g id="text_3">
     <!-- TissueType -->
     <g style="fill: #262626" transform="translate(412.34625 544.789219)scale(0.12 -0.12)">
      <defs>
       <path id="ArialMT-54" d="M 1659 0 
L 1659 4041 
L 150 4041 
L 150 4581 
L 3781 4581 
L 3781 4041 
L 2266 4041 
L 2266 0 
L 1659 0 
z
" transform="scale(0.015625)"/>
       <path id="ArialMT-79" d="M 397 -1278 
L 334 -750 
Q 519 -800 656 -800 
Q 844 -800 956 -737 
Q 1069 -675 1141 -563 
Q 1194 -478 1313 -144 
Q 1328 -97 1363 -6 
L 103 3319 
L 709 3319 
L 1400 1397 
Q 1534 1031 1641 628 
Q 1738 1016 1872 1384 
L 2581 3319 
L 3144 3319 
L 1881 -56 
Q 1678 -603 1566 -809 
Q 1416 -1088 1222 -1217 
Q 1028 -1347 759 -1347 
Q 597 -1347 397 -1278 
z
" transform="scale(0.015625)"/>
       <path id="ArialMT-70" d="M 422 -1272 
L 422 3319 
L 934 3319 
L 934 2888 
Q 1116 3141 1344 3267 
Q 1572 3394 1897 3394 
Q 2322 3394 2647 3175 
Q 2972 2956 3137 2557 
Q 3303 2159 3303 1684 
Q 3303 1175 3120 767 
Q 2938 359 2589 142 
Q 2241 -75 1856 -75 
Q 1575 -75 1351 44 
Q 1128 163 984 344 
L 984 -1272 
L 422 -1272 
z
M 931 1641 
Q 931 1000 1190 694 
Q 1450 388 1819 388 
Q 2194 388 2461 705 
Q 2728 1022 2728 1688 
Q 2728 2322 2467 2637 
Q 2206 2953 1844 2953 
Q 1484 2953 1207 2617 
Q 931 2281 931 1641 
z
" transform="scale(0.015625)"/>
      </defs>
      <use xlink:href="#ArialMT-54"/>
      <use xlink:href="#ArialMT-69" x="57.333984"/>
      <use xlink:href="#ArialMT-73" x="79.550781"/>
      <use xlink:href="#ArialMT-73" x="129.550781"/>
      <use xlink:href="#ArialMT-75" x="179.550781"/>
      <use xlink:href="#ArialMT-65" x="235.166016"/>
      <use xlink:href="#ArialMT-54" x="290.78125"/>
      <use xlink:href="#ArialMT-79" x="346.365234"/>
      <use xlink:href="#ArialMT-70" x="396.365234"/>
      <use xlink:href="#ArialMT-65" x="451.980469"/>
     </g>
    </g>
   </g>
   <g id="matplotlib.axis_2">
    <g id="ytick_1">
     <g id="line2d_1">
      <path d="M 108 465.392047 
L 777.6 465.392047 
" clip-path="url(#pea83492544)" style="fill: none; stroke: #cccccc; stroke-linecap: round"/>
     </g>
     <g id="text_4">
      <!-- 0.0 -->
      <g style="fill: #262626" transform="translate(83.21 469.328844)scale(0.11 -0.11)">
       <defs>
        <path id="ArialMT-30" d="M 266 2259 
Q 266 3072 433 3567 
Q 600 4063 929 4331 
Q 1259 4600 1759 4600 
Q 2128 4600 2406 4451 
Q 2684 4303 2865 4023 
Q 3047 3744 3150 3342 
Q 3253 2941 3253 2259 
Q 3253 1453 3087 958 
Q 2922 463 2592 192 
Q 2263 -78 1759 -78 
Q 1097 -78 719 397 
Q 266 969 266 2259 
z
M 844 2259 
Q 844 1131 1108 757 
Q 1372 384 1759 384 
Q 2147 384 2411 759 
Q 2675 1134 2675 2259 
Q 2675 3391 2411 3762 
Q 2147 4134 1753 4134 
Q 1366 4134 1134 3806 
Q 844 3388 844 2259 
z
" transform="scale(0.015625)"/>
        <path id="ArialMT-2e" d="M 581 0 
L 581 641 
L 1222 641 
L 1222 0 
L 581 0 
z
" transform="scale(0.015625)"/>
       </defs>
       <use xlink:href="#ArialMT-30"/>
       <use xlink:href="#ArialMT-2e" x="55.615234"/>
       <use xlink:href="#ArialMT-30" x="83.398438"/>
      </g>
     </g>
    </g>
    <g id="ytick_2">
     <g id="line2d_2">
      <path d="M 108 395.044343 
L 777.6 395.044343 
" clip-path="url(#pea83492544)" style="fill: none; stroke: #cccccc; stroke-linecap: round"/>
     </g>
     <g id="text_5">
      <!-- 0.2 -->
      <g style="fill: #262626" transform="translate(83.21 398.98114)scale(0.11 -0.11)">
       <defs>
        <path id="ArialMT-32" d="M 3222 541 
L 3222 0 
L 194 0 
Q 188 203 259 391 
Q 375 700 629 1000 
Q 884 1300 1366 1694 
Q 2113 2306 2375 2664 
Q 2638 3022 2638 3341 
Q 2638 3675 2398 3904 
Q 2159 4134 1775 4134 
Q 1369 4134 1125 3890 
Q 881 3647 878 3216 
L 300 3275 
Q 359 3922 746 4261 
Q 1134 4600 1788 4600 
Q 2447 4600 2831 4234 
Q 3216 3869 3216 3328 
Q 3216 3053 3103 2787 
Q 2991 2522 2730 2228 
Q 2469 1934 1863 1422 
Q 1356 997 1212 845 
Q 1069 694 975 541 
L 3222 541 
z
" transform="scale(0.015625)"/>
       </defs>
       <use xlink:href="#ArialMT-30"/>
       <use xlink:href="#ArialMT-2e" x="55.615234"/>
       <use xlink:href="#ArialMT-32" x="83.398438"/>
      </g>
     </g>
    </g>
    <g id="ytick_3">
     <g id="line2d_3">
      <path d="M 108 324.696639 
L 777.6 324.696639 
" clip-path="url(#pea83492544)" style="fill: none; stroke: #cccccc; stroke-linecap: round"/>
     </g>
     <g id="text_6">
      <!-- 0.4 -->
      <g style="fill: #262626" transform="translate(83.21 328.633436)scale(0.11 -0.11)">
       <defs>
        <path id="ArialMT-34" d="M 2069 0 
L 2069 1097 
L 81 1097 
L 81 1613 
L 2172 4581 
L 2631 4581 
L 2631 1613 
L 3250 1613 
L 3250 1097 
L 2631 1097 
L 2631 0 
L 2069 0 
z
M 2069 1613 
L 2069 3678 
L 634 1613 
L 2069 1613 
z
" transform="scale(0.015625)"/>
       </defs>
       <use xlink:href="#ArialMT-30"/>
       <use xlink:href="#ArialMT-2e" x="55.615234"/>
       <use xlink:href="#ArialMT-34" x="83.398438"/>
      </g>
     </g>
    </g>
    <g id="ytick_4">
     <g id="line2d_4">
      <path d="M 108 254.348935 
L 777.6 254.348935 
" clip-path="url(#pea83492544)" style="fill: none; stroke: #cccccc; stroke-linecap: round"/>
     </g>
     <g id="text_7">
      <!-- 0.6 -->
      <g style="fill: #262626" transform="translate(83.21 258.285732)scale(0.11 -0.11)">
       <defs>
        <path id="ArialMT-36" d="M 3184 3459 
L 2625 3416 
Q 2550 3747 2413 3897 
Q 2184 4138 1850 4138 
Q 1581 4138 1378 3988 
Q 1113 3794 959 3422 
Q 806 3050 800 2363 
Q 1003 2672 1297 2822 
Q 1591 2972 1913 2972 
Q 2475 2972 2870 2558 
Q 3266 2144 3266 1488 
Q 3266 1056 3080 686 
Q 2894 316 2569 119 
Q 2244 -78 1831 -78 
Q 1128 -78 684 439 
Q 241 956 241 2144 
Q 241 3472 731 4075 
Q 1159 4600 1884 4600 
Q 2425 4600 2770 4297 
Q 3116 3994 3184 3459 
z
M 888 1484 
Q 888 1194 1011 928 
Q 1134 663 1356 523 
Q 1578 384 1822 384 
Q 2178 384 2434 671 
Q 2691 959 2691 1453 
Q 2691 1928 2437 2201 
Q 2184 2475 1800 2475 
Q 1419 2475 1153 2201 
Q 888 1928 888 1484 
z
" transform="scale(0.015625)"/>
       </defs>
       <use xlink:href="#ArialMT-30"/>
       <use xlink:href="#ArialMT-2e" x="55.615234"/>
       <use xlink:href="#ArialMT-36" x="83.398438"/>
      </g>
     </g>
    </g>
    <g id="ytick_5">
     <g id="line2d_5">
      <path d="M 108 184.001231 
L 777.6 184.001231 
" clip-path="url(#pea83492544)" style="fill: none; stroke: #cccccc; stroke-linecap: round"/>
     </g>
     <g id="text_8">
      <!-- 0.8 -->
      <g style="fill: #262626" transform="translate(83.21 187.938028)scale(0.11 -0.11)">
       <defs>
        <path id="ArialMT-38" d="M 1131 2484 
Q 781 2613 612 2850 
Q 444 3088 444 3419 
Q 444 3919 803 4259 
Q 1163 4600 1759 4600 
Q 2359 4600 2725 4251 
Q 3091 3903 3091 3403 
Q 3091 3084 2923 2848 
Q 2756 2613 2416 2484 
Q 2838 2347 3058 2040 
Q 3278 1734 3278 1309 
Q 3278 722 2862 322 
Q 2447 -78 1769 -78 
Q 1091 -78 675 323 
Q 259 725 259 1325 
Q 259 1772 486 2073 
Q 713 2375 1131 2484 
z
M 1019 3438 
Q 1019 3113 1228 2906 
Q 1438 2700 1772 2700 
Q 2097 2700 2305 2904 
Q 2513 3109 2513 3406 
Q 2513 3716 2298 3927 
Q 2084 4138 1766 4138 
Q 1444 4138 1231 3931 
Q 1019 3725 1019 3438 
z
M 838 1322 
Q 838 1081 952 856 
Q 1066 631 1291 507 
Q 1516 384 1775 384 
Q 2178 384 2440 643 
Q 2703 903 2703 1303 
Q 2703 1709 2433 1975 
Q 2163 2241 1756 2241 
Q 1359 2241 1098 1978 
Q 838 1716 838 1322 
z
" transform="scale(0.015625)"/>
       </defs>
       <use xlink:href="#ArialMT-30"/>
       <use xlink:href="#ArialMT-2e" x="55.615234"/>
       <use xlink:href="#ArialMT-38" x="83.398438"/>
      </g>
     </g>
    </g>
    <g id="ytick_6">
     <g id="line2d_6">
      <path d="M 108 113.653527 
L 777.6 113.653527 
" clip-path="url(#pea83492544)" style="fill: none; stroke: #cccccc; stroke-linecap: round"/>
     </g>
     <g id="text_9">
      <!-- 1.0 -->
      <g style="fill: #262626" transform="translate(83.21 117.590324)scale(0.11 -0.11)">
       <defs>
        <path id="ArialMT-31" d="M 2384 0 
L 1822 0 
L 1822 3584 
Q 1619 3391 1289 3197 
Q 959 3003 697 2906 
L 697 3450 
Q 1169 3672 1522 3987 
Q 1875 4303 2022 4600 
L 2384 4600 
L 2384 0 
z
" transform="scale(0.015625)"/>
       </defs>
       <use xlink:href="#ArialMT-31"/>
       <use xlink:href="#ArialMT-2e" x="55.615234"/>
       <use xlink:href="#ArialMT-30" x="83.398438"/>
      </g>
     </g>
    </g>
    <g id="text_10">
     <!-- log_scaled_area -->
     <g style="fill: #262626" transform="translate(76.684375 334.909688)rotate(-90)scale(0.12 -0.12)">
      <defs>
       <path id="ArialMT-6c" d="M 409 0 
L 409 4581 
L 972 4581 
L 972 0 
L 409 0 
z
" transform="scale(0.015625)"/>
       <path id="ArialMT-67" d="M 319 -275 
L 866 -356 
Q 900 -609 1056 -725 
Q 1266 -881 1628 -881 
Q 2019 -881 2231 -725 
Q 2444 -569 2519 -288 
Q 2563 -116 2559 434 
Q 2191 0 1641 0 
Q 956 0 581 494 
Q 206 988 206 1678 
Q 206 2153 378 2554 
Q 550 2956 876 3175 
Q 1203 3394 1644 3394 
Q 2231 3394 2613 2919 
L 2613 3319 
L 3131 3319 
L 3131 450 
Q 3131 -325 2973 -648 
Q 2816 -972 2473 -1159 
Q 2131 -1347 1631 -1347 
Q 1038 -1347 672 -1080 
Q 306 -813 319 -275 
z
M 784 1719 
Q 784 1066 1043 766 
Q 1303 466 1694 466 
Q 2081 466 2343 764 
Q 2606 1063 2606 1700 
Q 2606 2309 2336 2618 
Q 2066 2928 1684 2928 
Q 1309 2928 1046 2623 
Q 784 2319 784 1719 
z
" transform="scale(0.015625)"/>
       <path id="ArialMT-5f" d="M -97 -1272 
L -97 -866 
L 3631 -866 
L 3631 -1272 
L -97 -1272 
z
" transform="scale(0.015625)"/>
       <path id="ArialMT-64" d="M 2575 0 
L 2575 419 
Q 2259 -75 1647 -75 
Q 1250 -75 917 144 
Q 584 363 401 755 
Q 219 1147 219 1656 
Q 219 2153 384 2558 
Q 550 2963 881 3178 
Q 1213 3394 1622 3394 
Q 1922 3394 2156 3267 
Q 2391 3141 2538 2938 
L 2538 4581 
L 3097 4581 
L 3097 0 
L 2575 0 
z
M 797 1656 
Q 797 1019 1065 703 
Q 1334 388 1700 388 
Q 2069 388 2326 689 
Q 2584 991 2584 1609 
Q 2584 2291 2321 2609 
Q 2059 2928 1675 2928 
Q 1300 2928 1048 2622 
Q 797 2316 797 1656 
z
" transform="scale(0.015625)"/>
      </defs>
      <use xlink:href="#ArialMT-6c"/>
      <use xlink:href="#ArialMT-6f" x="22.216797"/>
      <use xlink:href="#ArialMT-67" x="77.832031"/>
      <use xlink:href="#ArialMT-5f" x="133.447266"/>
      <use xlink:href="#ArialMT-73" x="189.0625"/>
      <use xlink:href="#ArialMT-63" x="239.0625"/>
      <use xlink:href="#ArialMT-61" x="289.0625"/>
      <use xlink:href="#ArialMT-6c" x="344.677734"/>
      <use xlink:href="#ArialMT-65" x="366.894531"/>
      <use xlink:href="#ArialMT-64" x="422.509766"/>
      <use xlink:href="#ArialMT-5f" x="478.125"/>
      <use xlink:href="#ArialMT-61" x="533.740234"/>
      <use xlink:href="#ArialMT-72" x="589.355469"/>
      <use xlink:href="#ArialMT-65" x="622.65625"/>
      <use xlink:href="#ArialMT-61" x="678.271484"/>
     </g>
    </g>
   </g>
   <g id="patch_3">
    <path d="M 275.4 465.392047 
L 275.4 465.392047 
L 275.4 465.392047 
L 275.4 465.392047 
z
" clip-path="url(#pea83492544)" style="fill: #5875a4; stroke: #4c4c4c; stroke-width: 0.75; stroke-linejoin: miter"/>
   </g>
   <g id="PolyCollection_1">
    <defs>
     <path id="mf1d479e186" d="M 208.528451 -94.612809 
L 208.351549 -94.612809 
L 208.233643 -98.464081 
L 208.058208 -102.315353 
L 207.879826 -106.166625 
L 207.788209 -110.017898 
L 207.838573 -113.86917 
L 207.999905 -117.720442 
L 208.184613 -121.571714 
L 208.322472 -125.422987 
L 208.397108 -129.274259 
L 208.427587 -133.125531 
L 208.437151 -136.976803 
L 208.439481 -140.828075 
L 208.439925 -144.679348 
L 208.439991 -148.53062 
L 208.439999 -152.381892 
L 208.44 -156.233164 
L 208.44 -160.084437 
L 208.44 -163.935709 
L 208.44 -167.786981 
L 208.44 -171.638253 
L 208.44 -175.489526 
L 208.44 -179.340798 
L 208.44 -183.19207 
L 208.44 -187.043342 
L 208.44 -190.894615 
L 208.44 -194.745887 
L 208.44 -198.597159 
L 208.44 -202.448431 
L 208.44 -206.299703 
L 208.44 -210.150976 
L 208.44 -214.002248 
L 208.44 -217.85352 
L 208.44 -221.704792 
L 208.44 -225.556065 
L 208.44 -229.407337 
L 208.44 -233.258609 
L 208.439998 -237.109881 
L 208.439982 -240.961154 
L 208.439875 -244.812426 
L 208.439307 -248.663698 
L 208.436967 -252.51497 
L 208.42945 -256.366243 
L 208.410744 -260.217515 
L 208.374676 -264.068787 
L 208.319072 -267.920059 
L 208.24015 -271.771331 
L 208.104174 -275.622604 
L 207.813616 -279.473876 
L 207.228736 -283.325148 
L 206.289236 -287.17642 
L 205.162612 -291.027693 
L 204.231268 -294.878965 
L 203.820072 -298.730237 
L 203.86068 -302.581509 
L 203.838508 -306.432782 
L 203.11318 -310.284054 
L 201.344404 -314.135326 
L 198.711007 -317.986598 
L 195.782641 -321.837871 
L 193.076422 -325.689143 
L 190.601957 -329.540415 
L 187.874457 -333.391687 
L 184.462775 -337.242959 
L 180.47049 -341.094232 
L 176.389266 -344.945504 
L 172.509404 -348.796776 
L 168.551053 -352.648048 
L 163.925598 -356.499321 
L 158.399517 -360.350593 
L 152.498174 -364.201865 
L 147.233617 -368.053137 
L 143.469086 -371.90441 
L 141.56016 -375.755682 
L 141.48 -379.606954 
L 143.113991 -383.458226 
L 146.398983 -387.309499 
L 151.239773 -391.160771 
L 157.290583 -395.012043 
L 163.825058 -398.863315 
L 169.939781 -402.714587 
L 174.975703 -406.56586 
L 178.730815 -410.417132 
L 181.325845 -414.268404 
L 183.023646 -418.119676 
L 184.227541 -421.970949 
L 185.513485 -425.822221 
L 187.453739 -429.673493 
L 190.269357 -433.524765 
L 193.644761 -437.376038 
L 196.94402 -441.22731 
L 199.655787 -445.078582 
L 201.673623 -448.929854 
L 203.222472 -452.781127 
L 204.573889 -456.632399 
L 205.823917 -460.483671 
L 206.889371 -464.334943 
L 207.657498 -468.186215 
L 208.109985 -472.037488 
L 208.325104 -475.88876 
L 208.554896 -475.88876 
L 208.554896 -475.88876 
L 208.770015 -472.037488 
L 209.222502 -468.186215 
L 209.990629 -464.334943 
L 211.056083 -460.483671 
L 212.306111 -456.632399 
L 213.657528 -452.781127 
L 215.206377 -448.929854 
L 217.224213 -445.078582 
L 219.93598 -441.22731 
L 223.235239 -437.376038 
L 226.610643 -433.524765 
L 229.426261 -429.673493 
L 231.366515 -425.822221 
L 232.652459 -421.970949 
L 233.856354 -418.119676 
L 235.554155 -414.268404 
L 238.149185 -410.417132 
L 241.904297 -406.56586 
L 246.940219 -402.714587 
L 253.054942 -398.863315 
L 259.589417 -395.012043 
L 265.640227 -391.160771 
L 270.481017 -387.309499 
L 273.766009 -383.458226 
L 275.4 -379.606954 
L 275.31984 -375.755682 
L 273.410914 -371.90441 
L 269.646383 -368.053137 
L 264.381826 -364.201865 
L 258.480483 -360.350593 
L 252.954402 -356.499321 
L 248.328947 -352.648048 
L 244.370596 -348.796776 
L 240.490734 -344.945504 
L 236.40951 -341.094232 
L 232.417225 -337.242959 
L 229.005543 -333.391687 
L 226.278043 -329.540415 
L 223.803578 -325.689143 
L 221.097359 -321.837871 
L 218.168993 -317.986598 
L 215.535596 -314.135326 
L 213.76682 -310.284054 
L 213.041492 -306.432782 
L 213.01932 -302.581509 
L 213.059928 -298.730237 
L 212.648732 -294.878965 
L 211.717388 -291.027693 
L 210.590764 -287.17642 
L 209.651264 -283.325148 
L 209.066384 -279.473876 
L 208.775826 -275.622604 
L 208.63985 -271.771331 
L 208.560928 -267.920059 
L 208.505324 -264.068787 
L 208.469256 -260.217515 
L 208.45055 -256.366243 
L 208.443033 -252.51497 
L 208.440693 -248.663698 
L 208.440125 -244.812426 
L 208.440018 -240.961154 
L 208.440002 -237.109881 
L 208.44 -233.258609 
L 208.44 -229.407337 
L 208.44 -225.556065 
L 208.44 -221.704792 
L 208.44 -217.85352 
L 208.44 -214.002248 
L 208.44 -210.150976 
L 208.44 -206.299703 
L 208.44 -202.448431 
L 208.44 -198.597159 
L 208.44 -194.745887 
L 208.44 -190.894615 
L 208.44 -187.043342 
L 208.44 -183.19207 
L 208.44 -179.340798 
L 208.44 -175.489526 
L 208.44 -171.638253 
L 208.44 -167.786981 
L 208.44 -163.935709 
L 208.44 -160.084437 
L 208.44 -156.233164 
L 208.440001 -152.381892 
L 208.440009 -148.53062 
L 208.440075 -144.679348 
L 208.440519 -140.828075 
L 208.442849 -136.976803 
L 208.452413 -133.125531 
L 208.482892 -129.274259 
L 208.557528 -125.422987 
L 208.695387 -121.571714 
L 208.880095 -117.720442 
L 209.041427 -113.86917 
L 209.091791 -110.017898 
L 209.000174 -106.166625 
L 208.821792 -102.315353 
L 208.646357 -98.464081 
L 208.528451 -94.612809 
z
" style="stroke: #4c4c4c; stroke-width: 1.5"/>
    </defs>
    <g clip-path="url(#pea83492544)">
     <use xlink:href="#mf1d479e186" x="0" y="576" style="fill: #5875a4; stroke: #4c4c4c; stroke-width: 1.5"/>
    </g>
   </g>
   <g id="patch_4">
    <path d="M 275.4 465.392047 
L 275.4 465.392047 
L 275.4 465.392047 
L 275.4 465.392047 
z
" clip-path="url(#pea83492544)" style="fill: #cc8963; stroke: #4c4c4c; stroke-width: 0.75; stroke-linejoin: miter"/>
   </g>
   <g id="PolyCollection_2">
    <defs>
     <path id="me6bb418bef" d="M 342.554158 -92.391035 
L 342.165842 -92.391035 
L 341.942352 -96.298508 
L 341.61262 -100.205981 
L 341.24738 -104.113455 
L 340.982073 -108.020928 
L 340.940355 -111.928401 
L 341.143232 -115.835874 
L 341.492419 -119.743347 
L 341.84538 -123.65082 
L 342.106056 -127.558293 
L 342.255753 -131.465767 
L 342.324399 -135.37324 
L 342.349886 -139.280713 
L 342.35761 -143.188186 
L 342.35953 -147.095659 
L 342.359923 -151.003132 
L 342.35999 -154.910606 
L 342.359999 -158.818079 
L 342.36 -162.725552 
L 342.36 -166.633025 
L 342.36 -170.540498 
L 342.36 -174.447971 
L 342.36 -178.355444 
L 342.36 -182.262918 
L 342.36 -186.170391 
L 342.36 -190.077864 
L 342.359998 -193.985337 
L 342.359987 -197.89281 
L 342.359927 -201.800283 
L 342.359647 -205.707756 
L 342.358574 -209.61523 
L 342.355215 -213.522703 
L 342.34664 -217.430176 
L 342.32897 -221.337649 
L 342.300042 -225.245122 
L 342.263619 -229.152595 
L 342.231111 -233.060069 
L 342.216597 -236.967542 
L 342.227187 -240.875015 
L 342.257288 -244.782488 
L 342.292412 -248.689961 
L 342.318005 -252.597434 
L 342.324411 -256.504907 
L 342.305032 -260.412381 
L 342.251394 -264.319854 
L 342.148291 -268.227327 
L 341.969105 -272.1348 
L 341.674504 -276.042273 
L 341.225317 -279.949746 
L 340.6175 -283.85722 
L 339.922886 -287.764693 
L 339.289269 -291.672166 
L 338.859086 -295.579639 
L 338.633065 -299.487112 
L 338.386057 -303.394585 
L 337.73803 -307.302058 
L 336.364711 -311.209532 
L 334.199984 -315.117005 
L 331.464111 -319.024478 
L 328.47955 -322.931951 
L 325.421812 -326.839424 
L 322.236876 -330.746897 
L 318.820115 -334.654371 
L 315.277815 -338.561844 
L 311.961882 -342.469317 
L 309.172608 -346.37679 
L 306.794702 -350.284263 
L 304.263058 -354.191736 
L 300.955317 -358.099209 
L 296.678957 -362.006683 
L 291.835712 -365.914156 
L 287.166194 -369.821629 
L 283.326846 -373.729102 
L 280.640347 -377.636575 
L 279.19266 -381.544048 
L 279.137511 -385.451521 
L 280.836539 -389.358995 
L 284.599411 -393.266468 
L 290.237031 -397.173941 
L 296.902844 -401.081414 
L 303.433402 -404.988887 
L 308.905507 -408.89636 
L 312.960546 -412.803834 
L 315.736992 -416.711307 
L 317.615234 -420.61878 
L 319.037945 -424.526253 
L 320.453743 -428.433726 
L 322.253855 -432.341199 
L 324.632881 -436.248672 
L 327.483188 -440.156146 
L 330.463542 -444.063619 
L 333.214454 -447.971092 
L 335.541972 -451.878565 
L 337.438028 -455.786038 
L 338.973355 -459.693511 
L 340.194504 -463.600985 
L 341.106606 -467.508458 
L 341.717494 -471.415931 
L 342.07297 -475.323404 
L 342.249506 -479.230877 
L 342.470494 -479.230877 
L 342.470494 -479.230877 
L 342.64703 -475.323404 
L 343.002506 -471.415931 
L 343.613394 -467.508458 
L 344.525496 -463.600985 
L 345.746645 -459.693511 
L 347.281972 -455.786038 
L 349.178028 -451.878565 
L 351.505546 -447.971092 
L 354.256458 -444.063619 
L 357.236812 -440.156146 
L 360.087119 -436.248672 
L 362.466145 -432.341199 
L 364.266257 -428.433726 
L 365.682055 -424.526253 
L 367.104766 -420.61878 
L 368.983008 -416.711307 
L 371.759454 -412.803834 
L 375.814493 -408.89636 
L 381.286598 -404.988887 
L 387.817156 -401.081414 
L 394.482969 -397.173941 
L 400.120589 -393.266468 
L 403.883461 -389.358995 
L 405.582489 -385.451521 
L 405.52734 -381.544048 
L 404.079653 -377.636575 
L 401.393154 -373.729102 
L 397.553806 -369.821629 
L 392.884288 -365.914156 
L 388.041043 -362.006683 
L 383.764683 -358.099209 
L 380.456942 -354.191736 
L 377.925298 -350.284263 
L 375.547392 -346.37679 
L 372.758118 -342.469317 
L 369.442185 -338.561844 
L 365.899885 -334.654371 
L 362.483124 -330.746897 
L 359.298188 -326.839424 
L 356.24045 -322.931951 
L 353.255889 -319.024478 
L 350.520016 -315.117005 
L 348.355289 -311.209532 
L 346.98197 -307.302058 
L 346.333943 -303.394585 
L 346.086935 -299.487112 
L 345.860914 -295.579639 
L 345.430731 -291.672166 
L 344.797114 -287.764693 
L 344.1025 -283.85722 
L 343.494683 -279.949746 
L 343.045496 -276.042273 
L 342.750895 -272.1348 
L 342.571709 -268.227327 
L 342.468606 -264.319854 
L 342.414968 -260.412381 
L 342.395589 -256.504907 
L 342.401995 -252.597434 
L 342.427588 -248.689961 
L 342.462712 -244.782488 
L 342.492813 -240.875015 
L 342.503403 -236.967542 
L 342.488889 -233.060069 
L 342.456381 -229.152595 
L 342.419958 -225.245122 
L 342.39103 -221.337649 
L 342.37336 -217.430176 
L 342.364785 -213.522703 
L 342.361426 -209.61523 
L 342.360353 -205.707756 
L 342.360073 -201.800283 
L 342.360013 -197.89281 
L 342.360002 -193.985337 
L 342.36 -190.077864 
L 342.36 -186.170391 
L 342.36 -182.262918 
L 342.36 -178.355444 
L 342.36 -174.447971 
L 342.36 -170.540498 
L 342.36 -166.633025 
L 342.36 -162.725552 
L 342.360001 -158.818079 
L 342.36001 -154.910606 
L 342.360077 -151.003132 
L 342.36047 -147.095659 
L 342.36239 -143.188186 
L 342.370114 -139.280713 
L 342.395601 -135.37324 
L 342.464247 -131.465767 
L 342.613944 -127.558293 
L 342.87462 -123.65082 
L 343.227581 -119.743347 
L 343.576768 -115.835874 
L 343.779645 -111.928401 
L 343.737927 -108.020928 
L 343.47262 -104.113455 
L 343.10738 -100.205981 
L 342.777648 -96.298508 
L 342.554158 -92.391035 
z
" style="stroke: #4c4c4c; stroke-width: 1.5"/>
    </defs>
    <g clip-path="url(#pea83492544)">
     <use xlink:href="#me6bb418bef" x="0" y="576" style="fill: #cc8963; stroke: #4c4c4c; stroke-width: 1.5"/>
    </g>
   </g>
   <g id="PolyCollection_3">
    <defs>
     <path id="m759c5d4ae2" d="M 543.606266 -86.234425 
L 542.873734 -86.234425 
L 542.566726 -90.279734 
L 542.131505 -94.325043 
L 541.605358 -98.370352 
L 541.080971 -102.415661 
L 540.685882 -106.46097 
L 540.533735 -110.506278 
L 540.671696 -114.551587 
L 541.056921 -118.596896 
L 541.577969 -122.642205 
L 542.106672 -126.687514 
L 542.54782 -130.732823 
L 542.861358 -134.778131 
L 543.054482 -138.82344 
L 543.158588 -142.868749 
L 543.208001 -146.914058 
L 543.228735 -150.959367 
L 543.236448 -155.004676 
L 543.238997 -159.049984 
L 543.239746 -163.095293 
L 543.239943 -167.140602 
L 543.239988 -171.185911 
L 543.239998 -175.23122 
L 543.24 -179.276529 
L 543.24 -183.321837 
L 543.24 -187.367146 
L 543.24 -191.412455 
L 543.24 -195.457764 
L 543.24 -199.503073 
L 543.24 -203.548382 
L 543.24 -207.59369 
L 543.24 -211.638999 
L 543.24 -215.684308 
L 543.24 -219.729617 
L 543.239999 -223.774926 
L 543.239994 -227.820235 
L 543.239972 -231.865543 
L 543.239889 -235.910852 
L 543.2396 -239.956161 
L 543.238699 -244.00147 
L 543.236161 -248.046779 
L 543.229676 -252.092088 
L 543.214578 -256.137396 
L 543.18237 -260.182705 
L 543.11914 -264.228014 
L 543.004585 -268.273323 
L 542.813076 -272.318632 
L 542.518583 -276.363941 
L 542.104209 -280.409249 
L 541.573224 -284.454558 
L 540.953071 -288.499867 
L 540.282239 -292.545176 
L 539.578238 -296.590485 
L 538.801902 -300.635794 
L 537.845343 -304.681102 
L 536.56235 -308.726411 
L 534.830382 -312.77172 
L 532.60507 -316.817029 
L 529.928791 -320.862338 
L 526.889049 -324.907647 
L 523.562116 -328.952955 
L 519.985898 -332.998264 
L 516.174407 -337.043573 
L 512.146033 -341.088882 
L 507.930676 -345.134191 
L 503.553735 -349.1795 
L 499.029818 -353.224808 
L 494.394518 -357.270117 
L 489.761256 -361.315426 
L 485.356941 -365.360735 
L 481.500734 -369.406044 
L 478.533065 -373.451353 
L 476.735591 -377.496661 
L 476.28 -381.54197 
L 477.214525 -385.587279 
L 479.471411 -389.632588 
L 482.876362 -393.677897 
L 487.157949 -397.723206 
L 491.970017 -401.768514 
L 496.936795 -405.813823 
L 501.713262 -409.859132 
L 506.04225 -413.904441 
L 509.794907 -417.94975 
L 512.990436 -421.995059 
L 515.788105 -426.040367 
L 518.436508 -430.085676 
L 521.176885 -434.130985 
L 524.134411 -438.176294 
L 527.25947 -442.221603 
L 530.360858 -446.266912 
L 533.2107 -450.31222 
L 535.650619 -454.357529 
L 537.63586 -458.402838 
L 539.208274 -462.448147 
L 540.438646 -466.493456 
L 541.385334 -470.538765 
L 542.086828 -474.584073 
L 542.575059 -478.629382 
L 542.887837 -482.674691 
L 543.069863 -486.72 
L 543.410137 -486.72 
L 543.410137 -486.72 
L 543.592163 -482.674691 
L 543.904941 -478.629382 
L 544.393172 -474.584073 
L 545.094666 -470.538765 
L 546.041354 -466.493456 
L 547.271726 -462.448147 
L 548.84414 -458.402838 
L 550.829381 -454.357529 
L 553.2693 -450.31222 
L 556.119142 -446.266912 
L 559.22053 -442.221603 
L 562.345589 -438.176294 
L 565.303115 -434.130985 
L 568.043492 -430.085676 
L 570.691895 -426.040367 
L 573.489564 -421.995059 
L 576.685093 -417.94975 
L 580.43775 -413.904441 
L 584.766738 -409.859132 
L 589.543205 -405.813823 
L 594.509983 -401.768514 
L 599.322051 -397.723206 
L 603.603638 -393.677897 
L 607.008589 -389.632588 
L 609.265475 -385.587279 
L 610.2 -381.54197 
L 609.744409 -377.496661 
L 607.946935 -373.451353 
L 604.979266 -369.406044 
L 601.123059 -365.360735 
L 596.718744 -361.315426 
L 592.085482 -357.270117 
L 587.450182 -353.224808 
L 582.926265 -349.1795 
L 578.549324 -345.134191 
L 574.333967 -341.088882 
L 570.305593 -337.043573 
L 566.494102 -332.998264 
L 562.917884 -328.952955 
L 559.590951 -324.907647 
L 556.551209 -320.862338 
L 553.87493 -316.817029 
L 551.649618 -312.77172 
L 549.91765 -308.726411 
L 548.634657 -304.681102 
L 547.678098 -300.635794 
L 546.901762 -296.590485 
L 546.197761 -292.545176 
L 545.526929 -288.499867 
L 544.906776 -284.454558 
L 544.375791 -280.409249 
L 543.961417 -276.363941 
L 543.666924 -272.318632 
L 543.475415 -268.273323 
L 543.36086 -264.228014 
L 543.29763 -260.182705 
L 543.265422 -256.137396 
L 543.250324 -252.092088 
L 543.243839 -248.046779 
L 543.241301 -244.00147 
L 543.2404 -239.956161 
L 543.240111 -235.910852 
L 543.240028 -231.865543 
L 543.240006 -227.820235 
L 543.240001 -223.774926 
L 543.24 -219.729617 
L 543.24 -215.684308 
L 543.24 -211.638999 
L 543.24 -207.59369 
L 543.24 -203.548382 
L 543.24 -199.503073 
L 543.24 -195.457764 
L 543.24 -191.412455 
L 543.24 -187.367146 
L 543.24 -183.321837 
L 543.24 -179.276529 
L 543.240002 -175.23122 
L 543.240012 -171.185911 
L 543.240057 -167.140602 
L 543.240254 -163.095293 
L 543.241003 -159.049984 
L 543.243552 -155.004676 
L 543.251265 -150.959367 
L 543.271999 -146.914058 
L 543.321412 -142.868749 
L 543.425518 -138.82344 
L 543.618642 -134.778131 
L 543.93218 -130.732823 
L 544.373328 -126.687514 
L 544.902031 -122.642205 
L 545.423079 -118.596896 
L 545.808304 -114.551587 
L 545.946265 -110.506278 
L 545.794118 -106.46097 
L 545.399029 -102.415661 
L 544.874642 -98.370352 
L 544.348495 -94.325043 
L 543.913274 -90.279734 
L 543.606266 -86.234425 
z
" style="stroke: #4c4c4c; stroke-width: 1.5"/>
    </defs>
    <g clip-path="url(#pea83492544)">
     <use xlink:href="#m759c5d4ae2" x="0" y="576" style="fill: #5875a4; stroke: #4c4c4c; stroke-width: 1.5"/>
    </g>
   </g>
   <g id="PolyCollection_4">
    <defs>
     <path id="m1167813e17" d="M 677.639365 -83.52 
L 676.680635 -83.52 
L 676.324216 -87.590435 
L 675.828637 -91.660871 
L 675.222362 -95.731306 
L 674.583543 -99.801741 
L 674.02998 -103.872176 
L 673.685875 -107.942612 
L 673.636958 -112.013047 
L 673.895894 -116.083482 
L 674.396976 -120.153918 
L 675.023125 -124.224353 
L 675.650102 -128.294788 
L 676.185257 -132.365223 
L 676.585081 -136.435659 
L 676.850189 -140.506094 
L 677.007468 -144.576529 
L 677.091388 -148.646965 
L 677.131802 -152.7174 
L 677.149412 -156.787835 
L 677.156368 -160.85827 
L 677.158862 -164.928706 
L 677.159674 -168.999141 
L 677.159915 -173.069576 
L 677.15998 -177.140012 
L 677.159996 -181.210447 
L 677.159999 -185.280882 
L 677.16 -189.351317 
L 677.16 -193.421753 
L 677.16 -197.492188 
L 677.16 -201.562623 
L 677.16 -205.633059 
L 677.16 -209.703494 
L 677.16 -213.773929 
L 677.16 -217.844364 
L 677.159999 -221.9148 
L 677.159996 -225.985235 
L 677.159982 -230.05567 
L 677.159929 -234.126106 
L 677.159747 -238.196541 
L 677.15917 -242.266976 
L 677.157489 -246.337411 
L 677.152998 -250.407847 
L 677.141998 -254.478282 
L 677.1173 -258.548717 
L 677.066485 -262.619153 
L 676.970727 -266.689588 
L 676.80548 -270.760023 
L 676.544245 -274.830458 
L 676.165334 -278.900894 
L 675.659057 -282.971329 
L 675.030513 -287.041764 
L 674.29333 -291.1122 
L 673.453815 -295.182635 
L 672.491624 -299.25307 
L 671.348046 -303.323505 
L 669.931703 -307.393941 
L 668.143294 -311.464376 
L 665.91031 -315.534811 
L 663.216434 -319.605247 
L 660.112484 -323.675682 
L 656.70436 -327.746117 
L 653.12297 -331.816552 
L 649.486894 -335.886988 
L 645.870245 -339.957423 
L 642.287119 -344.027858 
L 638.700247 -348.098294 
L 635.053568 -352.168729 
L 631.317648 -356.239164 
L 627.529199 -360.309599 
L 623.807596 -364.380035 
L 620.342835 -368.45047 
L 617.363465 -372.520905 
L 615.100459 -376.591341 
L 613.759527 -380.661776 
L 613.503512 -384.732211 
L 614.436726 -388.802646 
L 616.582332 -392.873082 
L 619.853975 -396.943517 
L 624.037067 -401.013952 
L 628.801183 -405.084388 
L 633.754803 -409.154823 
L 638.530774 -413.225258 
L 642.870467 -417.295693 
L 646.671529 -421.366129 
L 649.981114 -425.436564 
L 652.942252 -429.506999 
L 655.719815 -433.577435 
L 658.436141 -437.64787 
L 661.136845 -441.718305 
L 663.792143 -445.78874 
L 666.324746 -449.859176 
L 668.647001 -453.929611 
L 670.690164 -458.000046 
L 672.417049 -462.070482 
L 673.820137 -466.140917 
L 674.91356 -470.211352 
L 675.726163 -474.281787 
L 676.297414 -478.352223 
L 676.673981 -482.422658 
L 676.904925 -486.493093 
L 677.415075 -486.493093 
L 677.415075 -486.493093 
L 677.646019 -482.422658 
L 678.022586 -478.352223 
L 678.593837 -474.281787 
L 679.40644 -470.211352 
L 680.499863 -466.140917 
L 681.902951 -462.070482 
L 683.629836 -458.000046 
L 685.672999 -453.929611 
L 687.995254 -449.859176 
L 690.527857 -445.78874 
L 693.183155 -441.718305 
L 695.883859 -437.64787 
L 698.600185 -433.577435 
L 701.377748 -429.506999 
L 704.338886 -425.436564 
L 707.648471 -421.366129 
L 711.449533 -417.295693 
L 715.789226 -413.225258 
L 720.565197 -409.154823 
L 725.518817 -405.084388 
L 730.282933 -401.013952 
L 734.466025 -396.943517 
L 737.737668 -392.873082 
L 739.883274 -388.802646 
L 740.816488 -384.732211 
L 740.560473 -380.661776 
L 739.219541 -376.591341 
L 736.956535 -372.520905 
L 733.977165 -368.45047 
L 730.512404 -364.380035 
L 726.790801 -360.309599 
L 723.002352 -356.239164 
L 719.266432 -352.168729 
L 715.619753 -348.098294 
L 712.032881 -344.027858 
L 708.449755 -339.957423 
L 704.833106 -335.886988 
L 701.19703 -331.816552 
L 697.61564 -327.746117 
L 694.207516 -323.675682 
L 691.103566 -319.605247 
L 688.40969 -315.534811 
L 686.176706 -311.464376 
L 684.388297 -307.393941 
L 682.971954 -303.323505 
L 681.828376 -299.25307 
L 680.866185 -295.182635 
L 680.02667 -291.1122 
L 679.289487 -287.041764 
L 678.660943 -282.971329 
L 678.154666 -278.900894 
L 677.775755 -274.830458 
L 677.51452 -270.760023 
L 677.349273 -266.689588 
L 677.253515 -262.619153 
L 677.2027 -258.548717 
L 677.178002 -254.478282 
L 677.167002 -250.407847 
L 677.162511 -246.337411 
L 677.16083 -242.266976 
L 677.160253 -238.196541 
L 677.160071 -234.126106 
L 677.160018 -230.05567 
L 677.160004 -225.985235 
L 677.160001 -221.9148 
L 677.16 -217.844364 
L 677.16 -213.773929 
L 677.16 -209.703494 
L 677.16 -205.633059 
L 677.16 -201.562623 
L 677.16 -197.492188 
L 677.16 -193.421753 
L 677.16 -189.351317 
L 677.160001 -185.280882 
L 677.160004 -181.210447 
L 677.16002 -177.140012 
L 677.160085 -173.069576 
L 677.160326 -168.999141 
L 677.161138 -164.928706 
L 677.163632 -160.85827 
L 677.170588 -156.787835 
L 677.188198 -152.7174 
L 677.228612 -148.646965 
L 677.312532 -144.576529 
L 677.469811 -140.506094 
L 677.734919 -136.435659 
L 678.134743 -132.365223 
L 678.669898 -128.294788 
L 679.296875 -124.224353 
L 679.923024 -120.153918 
L 680.424106 -116.083482 
L 680.683042 -112.013047 
L 680.634125 -107.942612 
L 680.29002 -103.872176 
L 679.736457 -99.801741 
L 679.097638 -95.731306 
L 678.491363 -91.660871 
L 677.995784 -87.590435 
L 677.639365 -83.52 
z
" style="stroke: #4c4c4c; stroke-width: 1.5"/>
    </defs>
    <g clip-path="url(#pea83492544)">
     <use xlink:href="#m1167813e17" x="0" y="576" style="fill: #cc8963; stroke: #4c4c4c; stroke-width: 1.5"/>
    </g>
   </g>
   <g id="line2d_7">
    <path d="M 208.44 273.026573 
L 208.44 122.747399 
" clip-path="url(#pea83492544)" style="fill: none; stroke: #4c4c4c; stroke-width: 1.5; stroke-linecap: round"/>
   </g>
   <g id="line2d_8">
    <path d="M 208.44 216.652202 
L 208.44 178.700374 
" clip-path="url(#pea83492544)" style="fill: none; stroke: #4c4c4c; stroke-width: 4.5; stroke-linecap: round"/>
   </g>
   <g id="line2d_9">
    <path d="M 342.36 275.172588 
L 342.36 118.595295 
" clip-path="url(#pea83492544)" style="fill: none; stroke: #4c4c4c; stroke-width: 1.5; stroke-linecap: round"/>
   </g>
   <g id="line2d_10">
    <path d="M 342.36 216.657847 
L 342.36 177.431738 
" clip-path="url(#pea83492544)" style="fill: none; stroke: #4c4c4c; stroke-width: 4.5; stroke-linecap: round"/>
   </g>
   <g id="line2d_11">
    <path d="M 543.24 276.909618 
L 543.24 113.653527 
" clip-path="url(#pea83492544)" style="fill: none; stroke: #4c4c4c; stroke-width: 1.5; stroke-linecap: round"/>
   </g>
   <g id="line2d_12">
    <path d="M 543.24 215.66796 
L 543.24 174.761179 
" clip-path="url(#pea83492544)" style="fill: none; stroke: #4c4c4c; stroke-width: 4.5; stroke-linecap: round"/>
   </g>
   <g id="line2d_13">
    <path d="M 677.16 279.942093 
L 677.16 116.594859 
" clip-path="url(#pea83492544)" style="fill: none; stroke: #4c4c4c; stroke-width: 1.5; stroke-linecap: round"/>
   </g>
   <g id="line2d_14">
    <path d="M 677.16 218.120335 
L 677.16 175.337708 
" clip-path="url(#pea83492544)" style="fill: none; stroke: #4c4c4c; stroke-width: 4.5; stroke-linecap: round"/>
   </g>
   <g id="patch_5">
    <path d="M 108 512.64 
L 108 69.12 
" style="fill: none; stroke: #cccccc; stroke-width: 1.25; stroke-linejoin: miter; stroke-linecap: square"/>
   </g>
   <g id="patch_6">
    <path d="M 777.6 512.64 
L 777.6 69.12 
" style="fill: none; stroke: #cccccc; stroke-width: 1.25; stroke-linejoin: miter; stroke-linecap: square"/>
   </g>
   <g id="patch_7">
    <path d="M 108 512.64 
L 777.6 512.64 
" style="fill: none; stroke: #cccccc; stroke-width: 1.25; stroke-linejoin: miter; stroke-linecap: square"/>
   </g>
   <g id="patch_8">
    <path d="M 108 69.12 
L 777.6 69.12 
" style="fill: none; stroke: #cccccc; stroke-width: 1.25; stroke-linejoin: miter; stroke-linecap: square"/>
   </g>
   <g id="PathCollection_1">
    <defs>
     <path id="m4f2330e92d" d="M 0 1.5 
C 0.397805 1.5 0.77937 1.341951 1.06066 1.06066 
C 1.341951 0.77937 1.5 0.397805 1.5 0 
C 1.5 -0.397805 1.341951 -0.77937 1.06066 -1.06066 
C 0.77937 -1.341951 0.397805 -1.5 0 -1.5 
C -0.397805 -1.5 -0.77937 -1.341951 -1.06066 -1.06066 
C -1.341951 -0.77937 -1.5 -0.397805 -1.5 0 
C -1.5 0.397805 -1.341951 0.77937 -1.06066 1.06066 
C -0.77937 1.341951 -0.397805 1.5 0 1.5 
z
" style="stroke: #4c4c4c"/>
    </defs>
    <g clip-path="url(#pea83492544)">
     <use xlink:href="#m4f2330e92d" x="208.44" y="197.516989" style="fill: #ffffff; stroke: #4c4c4c"/>
    </g>
   </g>
   <g id="PathCollection_2">
    <g clip-path="url(#pea83492544)">
     <use xlink:href="#m4f2330e92d" x="342.36" y="195.520937" style="fill: #ffffff; stroke: #4c4c4c"/>
    </g>
   </g>
   <g id="PathCollection_3">
    <g clip-path="url(#pea83492544)">
     <use xlink:href="#m4f2330e92d" x="543.24" y="195.437603" style="fill: #ffffff; stroke: #4c4c4c"/>
    </g>
   </g>
   <g id="PathCollection_4">
    <g clip-path="url(#pea83492544)">
     <use xlink:href="#m4f2330e92d" x="677.16" y="195.225632" style="fill: #ffffff; stroke: #4c4c4c"/>
    </g>
   </g>
   <g id="legend_1">
    <g id="patch_9">
     <path d="M 115.7 507.14 
L 211.4275 507.14 
Q 213.6275 507.14 213.6275 504.94 
L 213.6275 458.445938 
Q 213.6275 456.245938 211.4275 456.245938 
L 115.7 456.245938 
Q 113.5 456.245938 113.5 458.445938 
L 113.5 504.94 
Q 113.5 507.14 115.7 507.14 
z
" style="fill: #ffffff; opacity: 0.8; stroke: #cccccc; stroke-linejoin: miter"/>
    </g>
    <g id="text_11">
     <!-- Treatment -->
     <g style="fill: #262626" transform="translate(136.448438 469.235313)scale(0.12 -0.12)">
      <defs>
       <path id="ArialMT-6e" d="M 422 0 
L 422 3319 
L 928 3319 
L 928 2847 
Q 1294 3394 1984 3394 
Q 2284 3394 2536 3286 
Q 2788 3178 2913 3003 
Q 3038 2828 3088 2588 
Q 3119 2431 3119 2041 
L 3119 0 
L 2556 0 
L 2556 2019 
Q 2556 2363 2490 2533 
Q 2425 2703 2258 2804 
Q 2091 2906 1866 2906 
Q 1506 2906 1245 2678 
Q 984 2450 984 1813 
L 984 0 
L 422 0 
z
" transform="scale(0.015625)"/>
      </defs>
      <use xlink:href="#ArialMT-54"/>
      <use xlink:href="#ArialMT-72" x="57.333984"/>
      <use xlink:href="#ArialMT-65" x="90.634766"/>
      <use xlink:href="#ArialMT-61" x="146.25"/>
      <use xlink:href="#ArialMT-74" x="201.865234"/>
      <use xlink:href="#ArialMT-6d" x="229.648438"/>
      <use xlink:href="#ArialMT-65" x="312.949219"/>
      <use xlink:href="#ArialMT-6e" x="368.564453"/>
      <use xlink:href="#ArialMT-74" x="424.179688"/>
     </g>
    </g>
    <g id="patch_10">
     <path d="M 117.9 484.993906 
L 139.9 484.993906 
L 139.9 477.293906 
L 117.9 477.293906 
z
" style="fill: #5875a4; stroke: #4c4c4c; stroke-width: 0.75; stroke-linejoin: miter"/>
    </g>
    <g id="text_12">
     <!-- control -->
     <g style="fill: #262626" transform="translate(148.7 484.993906)scale(0.11 -0.11)">
      <use xlink:href="#ArialMT-63"/>
      <use xlink:href="#ArialMT-6f" x="50"/>
      <use xlink:href="#ArialMT-6e" x="105.615234"/>
      <use xlink:href="#ArialMT-74" x="161.230469"/>
      <use xlink:href="#ArialMT-72" x="189.013672"/>
      <use xlink:href="#ArialMT-6f" x="222.314453"/>
      <use xlink:href="#ArialMT-6c" x="277.929688"/>
     </g>
    </g>
    <g id="patch_11">
     <path d="M 117.9 500.55375 
L 139.9 500.55375 
L 139.9 492.85375 
L 117.9 492.85375 
z
" style="fill: #cc8963; stroke: #4c4c4c; stroke-width: 0.75; stroke-linejoin: miter"/>
    </g>
    <g id="text_13">
     <!-- deltamethrin -->
     <g style="fill: #262626" transform="translate(148.7 500.55375)scale(0.11 -0.11)">
      <defs>
       <path id="ArialMT-68" d="M 422 0 
L 422 4581 
L 984 4581 
L 984 2938 
Q 1378 3394 1978 3394 
Q 2347 3394 2619 3248 
Q 2891 3103 3008 2847 
Q 3125 2591 3125 2103 
L 3125 0 
L 2563 0 
L 2563 2103 
Q 2563 2525 2380 2717 
Q 2197 2909 1863 2909 
Q 1613 2909 1392 2779 
Q 1172 2650 1078 2428 
Q 984 2206 984 1816 
L 984 0 
L 422 0 
z
" transform="scale(0.015625)"/>
      </defs>
      <use xlink:href="#ArialMT-64"/>
      <use xlink:href="#ArialMT-65" x="55.615234"/>
      <use xlink:href="#ArialMT-6c" x="111.230469"/>
      <use xlink:href="#ArialMT-74" x="133.447266"/>
      <use xlink:href="#ArialMT-61" x="161.230469"/>
      <use xlink:href="#ArialMT-6d" x="216.845703"/>
      <use xlink:href="#ArialMT-65" x="300.146484"/>
      <use xlink:href="#ArialMT-74" x="355.761719"/>
      <use xlink:href="#ArialMT-68" x="383.544922"/>
      <use xlink:href="#ArialMT-72" x="439.160156"/>
      <use xlink:href="#ArialMT-69" x="472.460938"/>
      <use xlink:href="#ArialMT-6e" x="494.677734"/>
     </g>
    </g>
   </g>
  </g>
 </g>
 <defs>
  <clipPath id="pea83492544">
   <rect x="108" y="69.12" width="669.6" height="443.52"/>
  </clipPath>
 </defs>
</svg>
