<?xml version="1.0" encoding="utf-8" standalone="no"?>
<!DOCTYPE svg PUBLIC "-//W3C//DTD SVG 1.1//EN"
  "http://www.w3.org/Graphics/SVG/1.1/DTD/svg11.dtd">
<svg xmlns:xlink="http://www.w3.org/1999/xlink" width="1008pt" height="576pt" viewBox="0 0 1008 576" xmlns="http://www.w3.org/2000/svg" version="1.1">
 <metadata>
  <rdf:RDF xmlns:dc="http://purl.org/dc/elements/1.1/" xmlns:cc="http://creativecommons.org/ns#" xmlns:rdf="http://www.w3.org/1999/02/22-rdf-syntax-ns#">
   <cc:Work>
    <dc:type rdf:resource="http://purl.org/dc/dcmitype/StillImage"/>
    <dc:date>2023-02-18T18:30:07.808326</dc:date>
    <dc:format>image/svg+xml</dc:format>
    <dc:creator>
     <cc:Agent>
      <dc:title>Matplotlib v3.5.0, https://matplotlib.org/</dc:title>
     </cc:Agent>
    </dc:creator>
   </cc:Work>
  </rdf:RDF>
 </metadata>
 <defs>
  <style type="text/css">*{stroke-linejoin: round; stroke-linecap: butt}</style>
 </defs>
 <g id="figure_1">
  <g id="patch_1">
   <path d="M 0 576 
L 1008 576 
L 1008 0 
L 0 0 
z
" style="fill: #ffffff"/>
  </g>
  <g id="axes_1">
   <g id="patch_2">
    <path d="M 126 512.64 
L 907.2 512.64 
L 907.2 69.12 
L 126 69.12 
z
" style="fill: #ffffff"/>
   </g>
   <g id="matplotlib.axis_1">
    <g id="xtick_1">
     <g id="text_1">
      <!-- 30 -->
      <g style="fill: #262626" transform="translate(315.182969 530.013594)scale(0.11 -0.11)">
       <defs>
        <path id="ArialMT-33" d="M 269 1209 
L 831 1284 
Q 928 806 1161 595 
Q 1394 384 1728 384 
Q 2125 384 2398 659 
Q 2672 934 2672 1341 
Q 2672 1728 2419 1979 
Q 2166 2231 1775 2231 
Q 1616 2231 1378 2169 
L 1441 2663 
Q 1497 2656 1531 2656 
Q 1891 2656 2178 2843 
Q 2466 3031 2466 3422 
Q 2466 3731 2256 3934 
Q 2047 4138 1716 4138 
Q 1388 4138 1169 3931 
Q 950 3725 888 3313 
L 325 3413 
Q 428 3978 793 4289 
Q 1159 4600 1703 4600 
Q 2078 4600 2393 4439 
Q 2709 4278 2876 4000 
Q 3044 3722 3044 3409 
Q 3044 3113 2884 2869 
Q 2725 2625 2413 2481 
Q 2819 2388 3044 2092 
Q 3269 1797 3269 1353 
Q 3269 753 2831 336 
Q 2394 -81 1725 -81 
Q 1122 -81 723 278 
Q 325 638 269 1209 
z
" transform="scale(0.015625)"/>
        <path id="ArialMT-30" d="M 266 2259 
Q 266 3072 433 3567 
Q 600 4063 929 4331 
Q 1259 4600 1759 4600 
Q 2128 4600 2406 4451 
Q 2684 4303 2865 4023 
Q 3047 3744 3150 3342 
Q 3253 2941 3253 2259 
Q 3253 1453 3087 958 
Q 2922 463 2592 192 
Q 2263 -78 1759 -78 
Q 1097 -78 719 397 
Q 266 969 266 2259 
z
M 844 2259 
Q 844 1131 1108 757 
Q 1372 384 1759 384 
Q 2147 384 2411 759 
Q 2675 1134 2675 2259 
Q 2675 3391 2411 3762 
Q 2147 4134 1753 4134 
Q 1366 4134 1134 3806 
Q 844 3388 844 2259 
z
" transform="scale(0.015625)"/>
       </defs>
       <use xlink:href="#ArialMT-33"/>
       <use xlink:href="#ArialMT-30" x="55.615234"/>
      </g>
     </g>
    </g>
    <g id="xtick_2">
     <g id="text_2">
      <!-- 60 -->
      <g style="fill: #262626" transform="translate(705.782969 530.013594)scale(0.11 -0.11)">
       <defs>
        <path id="ArialMT-36" d="M 3184 3459 
L 2625 3416 
Q 2550 3747 2413 3897 
Q 2184 4138 1850 4138 
Q 1581 4138 1378 3988 
Q 1113 3794 959 3422 
Q 806 3050 800 2363 
Q 1003 2672 1297 2822 
Q 1591 2972 1913 2972 
Q 2475 2972 2870 2558 
Q 3266 2144 3266 1488 
Q 3266 1056 3080 686 
Q 2894 316 2569 119 
Q 2244 -78 1831 -78 
Q 1128 -78 684 439 
Q 241 956 241 2144 
Q 241 3472 731 4075 
Q 1159 4600 1884 4600 
Q 2425 4600 2770 4297 
Q 3116 3994 3184 3459 
z
M 888 1484 
Q 888 1194 1011 928 
Q 1134 663 1356 523 
Q 1578 384 1822 384 
Q 2178 384 2434 671 
Q 2691 959 2691 1453 
Q 2691 1928 2437 2201 
Q 2184 2475 1800 2475 
Q 1419 2475 1153 2201 
Q 888 1928 888 1484 
z
" transform="scale(0.015625)"/>
       </defs>
       <use xlink:href="#ArialMT-36"/>
       <use xlink:href="#ArialMT-30" x="55.615234"/>
      </g>
     </g>
    </g>
    <g id="text_3">
     <!-- PND -->
     <g style="fill: #262626" transform="translate(503.931563 544.789219)scale(0.12 -0.12)">
      <defs>
       <path id="ArialMT-50" d="M 494 0 
L 494 4581 
L 2222 4581 
Q 2678 4581 2919 4538 
Q 3256 4481 3484 4323 
Q 3713 4166 3852 3881 
Q 3991 3597 3991 3256 
Q 3991 2672 3619 2267 
Q 3247 1863 2275 1863 
L 1100 1863 
L 1100 0 
L 494 0 
z
M 1100 2403 
L 2284 2403 
Q 2872 2403 3119 2622 
Q 3366 2841 3366 3238 
Q 3366 3525 3220 3729 
Q 3075 3934 2838 4000 
Q 2684 4041 2272 4041 
L 1100 4041 
L 1100 2403 
z
" transform="scale(0.015625)"/>
       <path id="ArialMT-4e" d="M 488 0 
L 488 4581 
L 1109 4581 
L 3516 984 
L 3516 4581 
L 4097 4581 
L 4097 0 
L 3475 0 
L 1069 3600 
L 1069 0 
L 488 0 
z
" transform="scale(0.015625)"/>
       <path id="ArialMT-44" d="M 494 0 
L 494 4581 
L 2072 4581 
Q 2606 4581 2888 4516 
Q 3281 4425 3559 4188 
Q 3922 3881 4101 3404 
Q 4281 2928 4281 2316 
Q 4281 1794 4159 1391 
Q 4038 988 3847 723 
Q 3656 459 3429 307 
Q 3203 156 2883 78 
Q 2563 0 2147 0 
L 494 0 
z
M 1100 541 
L 2078 541 
Q 2531 541 2789 625 
Q 3047 709 3200 863 
Q 3416 1078 3536 1442 
Q 3656 1806 3656 2325 
Q 3656 3044 3420 3430 
Q 3184 3816 2847 3947 
Q 2603 4041 2063 4041 
L 1100 4041 
L 1100 541 
z
" transform="scale(0.015625)"/>
      </defs>
      <use xlink:href="#ArialMT-50"/>
      <use xlink:href="#ArialMT-4e" x="66.699219"/>
      <use xlink:href="#ArialMT-44" x="138.916016"/>
     </g>
    </g>
   </g>
   <g id="matplotlib.axis_2">
    <g id="ytick_1">
     <g id="line2d_1">
      <path d="M 126 468.821738 
L 907.2 468.821738 
" clip-path="url(#p8c5d730098)" style="fill: none; stroke: #cccccc; stroke-linecap: round"/>
     </g>
     <g id="text_4">
      <!-- 0.0 -->
      <g style="fill: #262626" transform="translate(101.21 472.758535)scale(0.11 -0.11)">
       <defs>
        <path id="ArialMT-2e" d="M 581 0 
L 581 641 
L 1222 641 
L 1222 0 
L 581 0 
z
" transform="scale(0.015625)"/>
       </defs>
       <use xlink:href="#ArialMT-30"/>
       <use xlink:href="#ArialMT-2e" x="55.615234"/>
       <use xlink:href="#ArialMT-30" x="83.398438"/>
      </g>
     </g>
    </g>
    <g id="ytick_2">
     <g id="line2d_2">
      <path d="M 126 397.044825 
L 907.2 397.044825 
" clip-path="url(#p8c5d730098)" style="fill: none; stroke: #cccccc; stroke-linecap: round"/>
     </g>
     <g id="text_5">
      <!-- 0.2 -->
      <g style="fill: #262626" transform="translate(101.21 400.981622)scale(0.11 -0.11)">
       <defs>
        <path id="ArialMT-32" d="M 3222 541 
L 3222 0 
L 194 0 
Q 188 203 259 391 
Q 375 700 629 1000 
Q 884 1300 1366 1694 
Q 2113 2306 2375 2664 
Q 2638 3022 2638 3341 
Q 2638 3675 2398 3904 
Q 2159 4134 1775 4134 
Q 1369 4134 1125 3890 
Q 881 3647 878 3216 
L 300 3275 
Q 359 3922 746 4261 
Q 1134 4600 1788 4600 
Q 2447 4600 2831 4234 
Q 3216 3869 3216 3328 
Q 3216 3053 3103 2787 
Q 2991 2522 2730 2228 
Q 2469 1934 1863 1422 
Q 1356 997 1212 845 
Q 1069 694 975 541 
L 3222 541 
z
" transform="scale(0.015625)"/>
       </defs>
       <use xlink:href="#ArialMT-30"/>
       <use xlink:href="#ArialMT-2e" x="55.615234"/>
       <use xlink:href="#ArialMT-32" x="83.398438"/>
      </g>
     </g>
    </g>
    <g id="ytick_3">
     <g id="line2d_3">
      <path d="M 126 325.267912 
L 907.2 325.267912 
" clip-path="url(#p8c5d730098)" style="fill: none; stroke: #cccccc; stroke-linecap: round"/>
     </g>
     <g id="text_6">
      <!-- 0.4 -->
      <g style="fill: #262626" transform="translate(101.21 329.204709)scale(0.11 -0.11)">
       <defs>
        <path id="ArialMT-34" d="M 2069 0 
L 2069 1097 
L 81 1097 
L 81 1613 
L 2172 4581 
L 2631 4581 
L 2631 1613 
L 3250 1613 
L 3250 1097 
L 2631 1097 
L 2631 0 
L 2069 0 
z
M 2069 1613 
L 2069 3678 
L 634 1613 
L 2069 1613 
z
" transform="scale(0.015625)"/>
       </defs>
       <use xlink:href="#ArialMT-30"/>
       <use xlink:href="#ArialMT-2e" x="55.615234"/>
       <use xlink:href="#ArialMT-34" x="83.398438"/>
      </g>
     </g>
    </g>
    <g id="ytick_4">
     <g id="line2d_4">
      <path d="M 126 253.490999 
L 907.2 253.490999 
" clip-path="url(#p8c5d730098)" style="fill: none; stroke: #cccccc; stroke-linecap: round"/>
     </g>
     <g id="text_7">
      <!-- 0.6 -->
      <g style="fill: #262626" transform="translate(101.21 257.427796)scale(0.11 -0.11)">
       <use xlink:href="#ArialMT-30"/>
       <use xlink:href="#ArialMT-2e" x="55.615234"/>
       <use xlink:href="#ArialMT-36" x="83.398438"/>
      </g>
     </g>
    </g>
    <g id="ytick_5">
     <g id="line2d_5">
      <path d="M 126 181.714086 
L 907.2 181.714086 
" clip-path="url(#p8c5d730098)" style="fill: none; stroke: #cccccc; stroke-linecap: round"/>
     </g>
     <g id="text_8">
      <!-- 0.8 -->
      <g style="fill: #262626" transform="translate(101.21 185.650883)scale(0.11 -0.11)">
       <defs>
        <path id="ArialMT-38" d="M 1131 2484 
Q 781 2613 612 2850 
Q 444 3088 444 3419 
Q 444 3919 803 4259 
Q 1163 4600 1759 4600 
Q 2359 4600 2725 4251 
Q 3091 3903 3091 3403 
Q 3091 3084 2923 2848 
Q 2756 2613 2416 2484 
Q 2838 2347 3058 2040 
Q 3278 1734 3278 1309 
Q 3278 722 2862 322 
Q 2447 -78 1769 -78 
Q 1091 -78 675 323 
Q 259 725 259 1325 
Q 259 1772 486 2073 
Q 713 2375 1131 2484 
z
M 1019 3438 
Q 1019 3113 1228 2906 
Q 1438 2700 1772 2700 
Q 2097 2700 2305 2904 
Q 2513 3109 2513 3406 
Q 2513 3716 2298 3927 
Q 2084 4138 1766 4138 
Q 1444 4138 1231 3931 
Q 1019 3725 1019 3438 
z
M 838 1322 
Q 838 1081 952 856 
Q 1066 631 1291 507 
Q 1516 384 1775 384 
Q 2178 384 2440 643 
Q 2703 903 2703 1303 
Q 2703 1709 2433 1975 
Q 2163 2241 1756 2241 
Q 1359 2241 1098 1978 
Q 838 1716 838 1322 
z
" transform="scale(0.015625)"/>
       </defs>
       <use xlink:href="#ArialMT-30"/>
       <use xlink:href="#ArialMT-2e" x="55.615234"/>
       <use xlink:href="#ArialMT-38" x="83.398438"/>
      </g>
     </g>
    </g>
    <g id="ytick_6">
     <g id="line2d_6">
      <path d="M 126 109.937173 
L 907.2 109.937173 
" clip-path="url(#p8c5d730098)" style="fill: none; stroke: #cccccc; stroke-linecap: round"/>
     </g>
     <g id="text_9">
      <!-- 1.0 -->
      <g style="fill: #262626" transform="translate(101.21 113.87397)scale(0.11 -0.11)">
       <defs>
        <path id="ArialMT-31" d="M 2384 0 
L 1822 0 
L 1822 3584 
Q 1619 3391 1289 3197 
Q 959 3003 697 2906 
L 697 3450 
Q 1169 3672 1522 3987 
Q 1875 4303 2022 4600 
L 2384 4600 
L 2384 0 
z
" transform="scale(0.015625)"/>
       </defs>
       <use xlink:href="#ArialMT-31"/>
       <use xlink:href="#ArialMT-2e" x="55.615234"/>
       <use xlink:href="#ArialMT-30" x="83.398438"/>
      </g>
     </g>
    </g>
    <g id="text_10">
     <!-- log_scaled_area -->
     <g style="fill: #262626" transform="translate(94.684375 334.909688)rotate(-90)scale(0.12 -0.12)">
      <defs>
       <path id="ArialMT-6c" d="M 409 0 
L 409 4581 
L 972 4581 
L 972 0 
L 409 0 
z
" transform="scale(0.015625)"/>
       <path id="ArialMT-6f" d="M 213 1659 
Q 213 2581 725 3025 
Q 1153 3394 1769 3394 
Q 2453 3394 2887 2945 
Q 3322 2497 3322 1706 
Q 3322 1066 3130 698 
Q 2938 331 2570 128 
Q 2203 -75 1769 -75 
Q 1072 -75 642 372 
Q 213 819 213 1659 
z
M 791 1659 
Q 791 1022 1069 705 
Q 1347 388 1769 388 
Q 2188 388 2466 706 
Q 2744 1025 2744 1678 
Q 2744 2294 2464 2611 
Q 2184 2928 1769 2928 
Q 1347 2928 1069 2612 
Q 791 2297 791 1659 
z
" transform="scale(0.015625)"/>
       <path id="ArialMT-67" d="M 319 -275 
L 866 -356 
Q 900 -609 1056 -725 
Q 1266 -881 1628 -881 
Q 2019 -881 2231 -725 
Q 2444 -569 2519 -288 
Q 2563 -116 2559 434 
Q 2191 0 1641 0 
Q 956 0 581 494 
Q 206 988 206 1678 
Q 206 2153 378 2554 
Q 550 2956 876 3175 
Q 1203 3394 1644 3394 
Q 2231 3394 2613 2919 
L 2613 3319 
L 3131 3319 
L 3131 450 
Q 3131 -325 2973 -648 
Q 2816 -972 2473 -1159 
Q 2131 -1347 1631 -1347 
Q 1038 -1347 672 -1080 
Q 306 -813 319 -275 
z
M 784 1719 
Q 784 1066 1043 766 
Q 1303 466 1694 466 
Q 2081 466 2343 764 
Q 2606 1063 2606 1700 
Q 2606 2309 2336 2618 
Q 2066 2928 1684 2928 
Q 1309 2928 1046 2623 
Q 784 2319 784 1719 
z
" transform="scale(0.015625)"/>
       <path id="ArialMT-5f" d="M -97 -1272 
L -97 -866 
L 3631 -866 
L 3631 -1272 
L -97 -1272 
z
" transform="scale(0.015625)"/>
       <path id="ArialMT-73" d="M 197 991 
L 753 1078 
Q 800 744 1014 566 
Q 1228 388 1613 388 
Q 2000 388 2187 545 
Q 2375 703 2375 916 
Q 2375 1106 2209 1216 
Q 2094 1291 1634 1406 
Q 1016 1563 777 1677 
Q 538 1791 414 1992 
Q 291 2194 291 2438 
Q 291 2659 392 2848 
Q 494 3038 669 3163 
Q 800 3259 1026 3326 
Q 1253 3394 1513 3394 
Q 1903 3394 2198 3281 
Q 2494 3169 2634 2976 
Q 2775 2784 2828 2463 
L 2278 2388 
Q 2241 2644 2061 2787 
Q 1881 2931 1553 2931 
Q 1166 2931 1000 2803 
Q 834 2675 834 2503 
Q 834 2394 903 2306 
Q 972 2216 1119 2156 
Q 1203 2125 1616 2013 
Q 2213 1853 2448 1751 
Q 2684 1650 2818 1456 
Q 2953 1263 2953 975 
Q 2953 694 2789 445 
Q 2625 197 2315 61 
Q 2006 -75 1616 -75 
Q 969 -75 630 194 
Q 291 463 197 991 
z
" transform="scale(0.015625)"/>
       <path id="ArialMT-63" d="M 2588 1216 
L 3141 1144 
Q 3050 572 2676 248 
Q 2303 -75 1759 -75 
Q 1078 -75 664 370 
Q 250 816 250 1647 
Q 250 2184 428 2587 
Q 606 2991 970 3192 
Q 1334 3394 1763 3394 
Q 2303 3394 2647 3120 
Q 2991 2847 3088 2344 
L 2541 2259 
Q 2463 2594 2264 2762 
Q 2066 2931 1784 2931 
Q 1359 2931 1093 2626 
Q 828 2322 828 1663 
Q 828 994 1084 691 
Q 1341 388 1753 388 
Q 2084 388 2306 591 
Q 2528 794 2588 1216 
z
" transform="scale(0.015625)"/>
       <path id="ArialMT-61" d="M 2588 409 
Q 2275 144 1986 34 
Q 1697 -75 1366 -75 
Q 819 -75 525 192 
Q 231 459 231 875 
Q 231 1119 342 1320 
Q 453 1522 633 1644 
Q 813 1766 1038 1828 
Q 1203 1872 1538 1913 
Q 2219 1994 2541 2106 
Q 2544 2222 2544 2253 
Q 2544 2597 2384 2738 
Q 2169 2928 1744 2928 
Q 1347 2928 1158 2789 
Q 969 2650 878 2297 
L 328 2372 
Q 403 2725 575 2942 
Q 747 3159 1072 3276 
Q 1397 3394 1825 3394 
Q 2250 3394 2515 3294 
Q 2781 3194 2906 3042 
Q 3031 2891 3081 2659 
Q 3109 2516 3109 2141 
L 3109 1391 
Q 3109 606 3145 398 
Q 3181 191 3288 0 
L 2700 0 
Q 2613 175 2588 409 
z
M 2541 1666 
Q 2234 1541 1622 1453 
Q 1275 1403 1131 1340 
Q 988 1278 909 1158 
Q 831 1038 831 891 
Q 831 666 1001 516 
Q 1172 366 1500 366 
Q 1825 366 2078 508 
Q 2331 650 2450 897 
Q 2541 1088 2541 1459 
L 2541 1666 
z
" transform="scale(0.015625)"/>
       <path id="ArialMT-65" d="M 2694 1069 
L 3275 997 
Q 3138 488 2766 206 
Q 2394 -75 1816 -75 
Q 1088 -75 661 373 
Q 234 822 234 1631 
Q 234 2469 665 2931 
Q 1097 3394 1784 3394 
Q 2450 3394 2872 2941 
Q 3294 2488 3294 1666 
Q 3294 1616 3291 1516 
L 816 1516 
Q 847 969 1125 678 
Q 1403 388 1819 388 
Q 2128 388 2347 550 
Q 2566 713 2694 1069 
z
M 847 1978 
L 2700 1978 
Q 2663 2397 2488 2606 
Q 2219 2931 1791 2931 
Q 1403 2931 1139 2672 
Q 875 2413 847 1978 
z
" transform="scale(0.015625)"/>
       <path id="ArialMT-64" d="M 2575 0 
L 2575 419 
Q 2259 -75 1647 -75 
Q 1250 -75 917 144 
Q 584 363 401 755 
Q 219 1147 219 1656 
Q 219 2153 384 2558 
Q 550 2963 881 3178 
Q 1213 3394 1622 3394 
Q 1922 3394 2156 3267 
Q 2391 3141 2538 2938 
L 2538 4581 
L 3097 4581 
L 3097 0 
L 2575 0 
z
M 797 1656 
Q 797 1019 1065 703 
Q 1334 388 1700 388 
Q 2069 388 2326 689 
Q 2584 991 2584 1609 
Q 2584 2291 2321 2609 
Q 2059 2928 1675 2928 
Q 1300 2928 1048 2622 
Q 797 2316 797 1656 
z
" transform="scale(0.015625)"/>
       <path id="ArialMT-72" d="M 416 0 
L 416 3319 
L 922 3319 
L 922 2816 
Q 1116 3169 1280 3281 
Q 1444 3394 1641 3394 
Q 1925 3394 2219 3213 
L 2025 2691 
Q 1819 2813 1613 2813 
Q 1428 2813 1281 2702 
Q 1134 2591 1072 2394 
Q 978 2094 978 1738 
L 978 0 
L 416 0 
z
" transform="scale(0.015625)"/>
      </defs>
      <use xlink:href="#ArialMT-6c"/>
      <use xlink:href="#ArialMT-6f" x="22.216797"/>
      <use xlink:href="#ArialMT-67" x="77.832031"/>
      <use xlink:href="#ArialMT-5f" x="133.447266"/>
      <use xlink:href="#ArialMT-73" x="189.0625"/>
      <use xlink:href="#ArialMT-63" x="239.0625"/>
      <use xlink:href="#ArialMT-61" x="289.0625"/>
      <use xlink:href="#ArialMT-6c" x="344.677734"/>
      <use xlink:href="#ArialMT-65" x="366.894531"/>
      <use xlink:href="#ArialMT-64" x="422.509766"/>
      <use xlink:href="#ArialMT-5f" x="478.125"/>
      <use xlink:href="#ArialMT-61" x="533.740234"/>
      <use xlink:href="#ArialMT-72" x="589.355469"/>
      <use xlink:href="#ArialMT-65" x="622.65625"/>
      <use xlink:href="#ArialMT-61" x="678.271484"/>
     </g>
    </g>
   </g>
   <g id="patch_3">
    <path d="M 321.3 468.821738 
L 321.3 468.821738 
L 321.3 468.821738 
L 321.3 468.821738 
z
" clip-path="url(#p8c5d730098)" style="fill: #5875a4; stroke: #4c4c4c; stroke-width: 0.75; stroke-linejoin: miter"/>
   </g>
   <g id="PolyCollection_1">
    <defs>
     <path id="mc96278c04e" d="M 243.362095 -88.590679 
L 242.997905 -88.590679 
L 242.787396 -92.591282 
L 242.476704 -96.591885 
L 242.133236 -100.592489 
L 241.885547 -104.593092 
L 241.850002 -108.593695 
L 242.044616 -112.594299 
L 242.374692 -116.594902 
L 242.705422 -120.595506 
L 242.947629 -124.596109 
L 243.085467 -128.596712 
L 243.148047 -132.597316 
L 243.171026 -136.597919 
L 243.177906 -140.598522 
L 243.179594 -144.599126 
L 243.179935 -148.599729 
L 243.179991 -152.600332 
L 243.179999 -156.600936 
L 243.18 -160.601539 
L 243.18 -164.602142 
L 243.18 -168.602746 
L 243.18 -172.603349 
L 243.18 -176.603952 
L 243.18 -180.604556 
L 243.18 -184.605159 
L 243.18 -188.605763 
L 243.18 -192.606366 
L 243.18 -196.606969 
L 243.18 -200.607573 
L 243.18 -204.608176 
L 243.18 -208.608779 
L 243.18 -212.609383 
L 243.18 -216.609986 
L 243.18 -220.610589 
L 243.18 -224.611193 
L 243.18 -228.611796 
L 243.18 -232.612399 
L 243.179999 -236.613003 
L 243.179996 -240.613606 
L 243.179971 -244.614209 
L 243.179831 -248.614813 
L 243.179177 -252.615416 
L 243.176588 -256.616019 
L 243.167888 -260.616623 
L 243.142669 -264.617226 
L 243.078624 -268.61783 
L 242.934298 -272.618433 
L 242.644796 -276.619036 
L 242.133336 -280.61964 
L 241.355433 -284.620243 
L 240.368411 -288.620846 
L 239.364485 -292.62145 
L 238.585547 -296.622053 
L 238.12784 -300.622656 
L 237.78763 -304.62326 
L 237.114583 -308.623863 
L 235.6657 -312.624466 
L 233.267235 -316.62507 
L 230.089244 -320.625673 
L 226.496949 -324.626276 
L 222.808981 -328.62688 
L 219.147716 -332.627483 
L 215.471435 -336.628087 
L 211.695114 -340.62869 
L 207.726341 -344.629293 
L 203.38988 -348.629897 
L 198.413806 -352.6305 
L 192.610093 -356.631103 
L 186.125938 -360.631707 
L 179.510269 -364.63231 
L 173.518234 -368.632913 
L 168.835344 -372.633517 
L 165.929203 -376.63412 
L 165.06 -380.634723 
L 166.354329 -384.635327 
L 169.843251 -388.63593 
L 175.39558 -392.636533 
L 182.559136 -396.637137 
L 190.475266 -400.63774 
L 198.061148 -404.638344 
L 204.415268 -408.638947 
L 209.140856 -412.63955 
L 212.348813 -416.640154 
L 214.427149 -420.640757 
L 215.851381 -424.64136 
L 217.157442 -428.641964 
L 218.922742 -432.642567 
L 221.571838 -436.64317 
L 225.099571 -440.643774 
L 229.014172 -444.644377 
L 232.628401 -448.64498 
L 235.469683 -452.645584 
L 237.478757 -456.646187 
L 238.898912 -460.64679 
L 240.01993 -464.647394 
L 240.994254 -468.647997 
L 241.820461 -472.648601 
L 242.440468 -476.649204 
L 242.834201 -480.649807 
L 243.042444 -484.650411 
L 243.317556 -484.650411 
L 243.317556 -484.650411 
L 243.525799 -480.649807 
L 243.919532 -476.649204 
L 244.539539 -472.648601 
L 245.365746 -468.647997 
L 246.34007 -464.647394 
L 247.461088 -460.64679 
L 248.881243 -456.646187 
L 250.890317 -452.645584 
L 253.731599 -448.64498 
L 257.345828 -444.644377 
L 261.260429 -440.643774 
L 264.788162 -436.64317 
L 267.437258 -432.642567 
L 269.202558 -428.641964 
L 270.508619 -424.64136 
L 271.932851 -420.640757 
L 274.011187 -416.640154 
L 277.219144 -412.63955 
L 281.944732 -408.638947 
L 288.298852 -404.638344 
L 295.884734 -400.63774 
L 303.800864 -396.637137 
L 310.96442 -392.636533 
L 316.516749 -388.63593 
L 320.005671 -384.635327 
L 321.3 -380.634723 
L 320.430797 -376.63412 
L 317.524656 -372.633517 
L 312.841766 -368.632913 
L 306.849731 -364.63231 
L 300.234062 -360.631707 
L 293.749907 -356.631103 
L 287.946194 -352.6305 
L 282.97012 -348.629897 
L 278.633659 -344.629293 
L 274.664886 -340.62869 
L 270.888565 -336.628087 
L 267.212284 -332.627483 
L 263.551019 -328.62688 
L 259.863051 -324.626276 
L 256.270756 -320.625673 
L 253.092765 -316.62507 
L 250.6943 -312.624466 
L 249.245417 -308.623863 
L 248.57237 -304.62326 
L 248.23216 -300.622656 
L 247.774453 -296.622053 
L 246.995515 -292.62145 
L 245.991589 -288.620846 
L 245.004567 -284.620243 
L 244.226664 -280.61964 
L 243.715204 -276.619036 
L 243.425702 -272.618433 
L 243.281376 -268.61783 
L 243.217331 -264.617226 
L 243.192112 -260.616623 
L 243.183412 -256.616019 
L 243.180823 -252.615416 
L 243.180169 -248.614813 
L 243.180029 -244.614209 
L 243.180004 -240.613606 
L 243.180001 -236.613003 
L 243.18 -232.612399 
L 243.18 -228.611796 
L 243.18 -224.611193 
L 243.18 -220.610589 
L 243.18 -216.609986 
L 243.18 -212.609383 
L 243.18 -208.608779 
L 243.18 -204.608176 
L 243.18 -200.607573 
L 243.18 -196.606969 
L 243.18 -192.606366 
L 243.18 -188.605763 
L 243.18 -184.605159 
L 243.18 -180.604556 
L 243.18 -176.603952 
L 243.18 -172.603349 
L 243.18 -168.602746 
L 243.18 -164.602142 
L 243.18 -160.601539 
L 243.180001 -156.600936 
L 243.180009 -152.600332 
L 243.180065 -148.599729 
L 243.180406 -144.599126 
L 243.182094 -140.598522 
L 243.188974 -136.597919 
L 243.211953 -132.597316 
L 243.274533 -128.596712 
L 243.412371 -124.596109 
L 243.654578 -120.595506 
L 243.985308 -116.594902 
L 244.315384 -112.594299 
L 244.509998 -108.593695 
L 244.474453 -104.593092 
L 244.226764 -100.592489 
L 243.883296 -96.591885 
L 243.572604 -92.591282 
L 243.362095 -88.590679 
z
" style="stroke: #4c4c4c; stroke-width: 1.5"/>
    </defs>
    <g clip-path="url(#p8c5d730098)">
     <use xlink:href="#mc96278c04e" x="0" y="576" style="fill: #5875a4; stroke: #4c4c4c; stroke-width: 1.5"/>
    </g>
   </g>
   <g id="patch_4">
    <path d="M 321.3 468.821738 
L 321.3 468.821738 
L 321.3 468.821738 
L 321.3 468.821738 
z
" clip-path="url(#p8c5d730098)" style="fill: #cc8963; stroke: #4c4c4c; stroke-width: 0.75; stroke-linejoin: miter"/>
   </g>
   <g id="PolyCollection_2">
    <defs>
     <path id="me1712bfd3b" d="M 399.8492 -83.52 
L 398.9908 -83.52 
L 398.614674 -87.592727 
L 398.077848 -91.665455 
L 397.433217 -95.738182 
L 396.80773 -99.810909 
L 396.369265 -103.883636 
L 396.255468 -107.956364 
L 396.504364 -112.029091 
L 397.033971 -116.101818 
L 397.685649 -120.174545 
L 398.300261 -124.247273 
L 398.777881 -128.32 
L 399.092936 -132.392727 
L 399.272032 -136.465455 
L 399.36054 -140.538182 
L 399.398777 -144.610909 
L 399.413272 -148.683636 
L 399.418105 -152.756364 
L 399.419526 -156.829091 
L 399.419895 -160.901818 
L 399.419979 -164.974545 
L 399.419996 -169.047273 
L 399.419999 -173.12 
L 399.419999 -177.192727 
L 399.419997 -181.265455 
L 399.419984 -185.338182 
L 399.419934 -189.410909 
L 399.419757 -193.483636 
L 399.419202 -197.556364 
L 399.417669 -201.629091 
L 399.413952 -205.701818 
L 399.406064 -209.774545 
L 399.391475 -213.847273 
L 399.368139 -217.92 
L 399.336251 -221.992727 
L 399.299858 -226.065455 
L 399.266856 -230.138182 
L 399.246392 -234.210909 
L 399.244491 -238.283636 
L 399.260373 -242.356364 
L 399.285732 -246.429091 
L 399.307128 -250.501818 
L 399.309349 -254.574545 
L 399.277239 -258.647273 
L 399.195044 -262.72 
L 399.044577 -266.792727 
L 398.805107 -270.865455 
L 398.458089 -274.938182 
L 397.997407 -279.010909 
L 397.440208 -283.083636 
L 396.827399 -287.156364 
L 396.203387 -291.229091 
L 395.576532 -295.301818 
L 394.880412 -299.374545 
L 393.966092 -303.447273 
L 392.643259 -307.52 
L 390.756228 -311.592727 
L 388.252252 -315.665455 
L 385.200243 -319.738182 
L 381.752392 -323.810909 
L 378.082521 -327.883636 
L 374.345781 -331.956364 
L 370.672412 -336.029091 
L 367.165016 -340.101818 
L 363.862559 -344.174545 
L 360.679659 -348.247273 
L 357.384187 -352.32 
L 353.677141 -356.392727 
L 349.367773 -360.465455 
L 344.547295 -364.538182 
L 339.638331 -368.610909 
L 335.270122 -372.683636 
L 332.050968 -376.756364 
L 330.379835 -380.829091 
L 330.396552 -384.901818 
L 332.051578 -388.974545 
L 335.190158 -393.047273 
L 339.568234 -397.12 
L 344.816495 -401.192727 
L 350.438503 -405.265455 
L 355.900345 -409.338182 
L 360.778153 -413.410909 
L 364.870689 -417.483636 
L 368.210898 -421.556364 
L 370.988891 -425.629091 
L 373.451347 -429.701818 
L 375.829264 -433.774545 
L 378.298678 -437.847273 
L 380.954029 -441.92 
L 383.788529 -445.992727 
L 386.697422 -450.065455 
L 389.515168 -454.138182 
L 392.072561 -458.210909 
L 394.245083 -462.283636 
L 395.974029 -466.356364 
L 397.26236 -470.429091 
L 398.158142 -474.501818 
L 398.735714 -478.574545 
L 399.0784 -482.647273 
L 399.264053 -486.72 
L 399.575947 -486.72 
L 399.575947 -486.72 
L 399.7616 -482.647273 
L 400.104286 -478.574545 
L 400.681858 -474.501818 
L 401.57764 -470.429091 
L 402.865971 -466.356364 
L 404.594917 -462.283636 
L 406.767439 -458.210909 
L 409.324832 -454.138182 
L 412.142578 -450.065455 
L 415.051471 -445.992727 
L 417.885971 -441.92 
L 420.541322 -437.847273 
L 423.010736 -433.774545 
L 425.388653 -429.701818 
L 427.851109 -425.629091 
L 430.629102 -421.556364 
L 433.969311 -417.483636 
L 438.061847 -413.410909 
L 442.939655 -409.338182 
L 448.401497 -405.265455 
L 454.023505 -401.192727 
L 459.271766 -397.12 
L 463.649842 -393.047273 
L 466.788422 -388.974545 
L 468.443448 -384.901818 
L 468.460165 -380.829091 
L 466.789032 -376.756364 
L 463.569878 -372.683636 
L 459.201669 -368.610909 
L 454.292705 -364.538182 
L 449.472227 -360.465455 
L 445.162859 -356.392727 
L 441.455813 -352.32 
L 438.160341 -348.247273 
L 434.977441 -344.174545 
L 431.674984 -340.101818 
L 428.167588 -336.029091 
L 424.494219 -331.956364 
L 420.757479 -327.883636 
L 417.087608 -323.810909 
L 413.639757 -319.738182 
L 410.587748 -315.665455 
L 408.083772 -311.592727 
L 406.196741 -307.52 
L 404.873908 -303.447273 
L 403.959588 -299.374545 
L 403.263468 -295.301818 
L 402.636613 -291.229091 
L 402.012601 -287.156364 
L 401.399792 -283.083636 
L 400.842593 -279.010909 
L 400.381911 -274.938182 
L 400.034893 -270.865455 
L 399.795423 -266.792727 
L 399.644956 -262.72 
L 399.562761 -258.647273 
L 399.530651 -254.574545 
L 399.532872 -250.501818 
L 399.554268 -246.429091 
L 399.579627 -242.356364 
L 399.595509 -238.283636 
L 399.593608 -234.210909 
L 399.573144 -230.138182 
L 399.540142 -226.065455 
L 399.503749 -221.992727 
L 399.471861 -217.92 
L 399.448525 -213.847273 
L 399.433936 -209.774545 
L 399.426048 -205.701818 
L 399.422331 -201.629091 
L 399.420798 -197.556364 
L 399.420243 -193.483636 
L 399.420066 -189.410909 
L 399.420016 -185.338182 
L 399.420003 -181.265455 
L 399.420001 -177.192727 
L 399.420001 -173.12 
L 399.420004 -169.047273 
L 399.420021 -164.974545 
L 399.420105 -160.901818 
L 399.420474 -156.829091 
L 399.421895 -152.756364 
L 399.426728 -148.683636 
L 399.441223 -144.610909 
L 399.47946 -140.538182 
L 399.567968 -136.465455 
L 399.747064 -132.392727 
L 400.062119 -128.32 
L 400.539739 -124.247273 
L 401.154351 -120.174545 
L 401.806029 -116.101818 
L 402.335636 -112.029091 
L 402.584532 -107.956364 
L 402.470735 -103.883636 
L 402.03227 -99.810909 
L 401.406783 -95.738182 
L 400.762152 -91.665455 
L 400.225326 -87.592727 
L 399.8492 -83.52 
z
" style="stroke: #4c4c4c; stroke-width: 1.5"/>
    </defs>
    <g clip-path="url(#p8c5d730098)">
     <use xlink:href="#me1712bfd3b" x="0" y="576" style="fill: #cc8963; stroke: #4c4c4c; stroke-width: 1.5"/>
    </g>
   </g>
   <g id="PolyCollection_3">
    <defs>
     <path id="m8b5d964e98" d="M 634.048577 -87.097611 
L 633.511423 -87.097611 
L 633.229163 -91.103098 
L 632.816483 -95.108584 
L 632.342606 -99.114071 
L 631.951171 -103.119558 
L 631.7955 -107.125044 
L 631.94342 -111.130531 
L 632.330397 -115.136018 
L 632.804181 -119.141504 
L 633.219765 -123.146991 
L 633.505684 -127.152478 
L 633.665445 -131.157964 
L 633.7392 -135.163451 
L 633.767607 -139.168937 
L 633.776789 -143.174424 
L 633.779291 -147.179911 
L 633.779866 -151.185397 
L 633.779979 -155.190884 
L 633.779997 -159.196371 
L 633.78 -163.201857 
L 633.78 -167.207344 
L 633.78 -171.212831 
L 633.78 -175.218317 
L 633.78 -179.223804 
L 633.78 -183.22929 
L 633.78 -187.234777 
L 633.78 -191.240264 
L 633.78 -195.24575 
L 633.78 -199.251237 
L 633.78 -203.256724 
L 633.78 -207.26221 
L 633.78 -211.267697 
L 633.78 -215.273184 
L 633.78 -219.27867 
L 633.78 -223.284157 
L 633.779997 -227.289643 
L 633.779983 -231.29513 
L 633.779912 -235.300617 
L 633.779604 -239.306103 
L 633.778487 -243.31159 
L 633.775058 -247.317077 
L 633.766176 -251.322563 
L 633.74673 -255.32805 
L 633.710416 -259.333537 
L 633.650938 -263.339023 
L 633.559847 -267.34451 
L 633.416521 -271.349996 
L 633.173983 -275.355483 
L 632.759235 -279.36097 
L 632.110053 -283.366456 
L 631.241316 -287.371943 
L 630.285676 -291.37743 
L 629.440443 -295.382916 
L 628.818498 -299.388403 
L 628.306009 -303.39389 
L 627.564768 -307.399376 
L 626.219943 -311.404863 
L 624.112004 -315.410349 
L 621.406241 -319.415836 
L 618.439232 -323.421323 
L 615.403377 -327.426809 
L 612.150679 -331.432296 
L 608.329952 -335.437783 
L 603.757719 -339.443269 
L 598.658222 -343.448756 
L 593.504731 -347.454243 
L 588.597664 -351.459729 
L 583.808234 -355.465216 
L 578.766106 -359.470702 
L 573.317257 -363.476189 
L 567.808867 -367.481676 
L 562.954147 -371.487162 
L 559.445609 -375.492649 
L 557.663381 -379.498136 
L 557.646416 -383.503622 
L 559.235543 -387.509109 
L 562.214641 -391.514595 
L 566.356481 -395.520082 
L 571.388864 -399.525569 
L 576.955971 -403.531055 
L 582.638195 -407.536542 
L 588.031583 -411.542029 
L 592.838901 -415.547515 
L 596.930632 -419.553002 
L 600.365487 -423.558489 
L 603.368875 -427.563975 
L 606.258094 -431.569462 
L 609.314195 -435.574948 
L 612.64745 -439.580435 
L 616.143209 -443.585922 
L 619.542657 -447.591408 
L 622.608118 -451.596895 
L 625.242915 -455.602382 
L 627.478348 -459.607868 
L 629.370167 -463.613355 
L 630.922543 -467.618842 
L 632.102513 -471.624328 
L 632.902662 -475.629815 
L 633.375938 -479.635301 
L 633.617377 -483.640788 
L 633.942623 -483.640788 
L 633.942623 -483.640788 
L 634.184062 -479.635301 
L 634.657338 -475.629815 
L 635.457487 -471.624328 
L 636.637457 -467.618842 
L 638.189833 -463.613355 
L 640.081652 -459.607868 
L 642.317085 -455.602382 
L 644.951882 -451.596895 
L 648.017343 -447.591408 
L 651.416791 -443.585922 
L 654.91255 -439.580435 
L 658.245805 -435.574948 
L 661.301906 -431.569462 
L 664.191125 -427.563975 
L 667.194513 -423.558489 
L 670.629368 -419.553002 
L 674.721099 -415.547515 
L 679.528417 -411.542029 
L 684.921805 -407.536542 
L 690.604029 -403.531055 
L 696.171136 -399.525569 
L 701.203519 -395.520082 
L 705.345359 -391.514595 
L 708.324457 -387.509109 
L 709.913584 -383.503622 
L 709.896619 -379.498136 
L 708.114391 -375.492649 
L 704.605853 -371.487162 
L 699.751133 -367.481676 
L 694.242743 -363.476189 
L 688.793894 -359.470702 
L 683.751766 -355.465216 
L 678.962336 -351.459729 
L 674.055269 -347.454243 
L 668.901778 -343.448756 
L 663.802281 -339.443269 
L 659.230048 -335.437783 
L 655.409321 -331.432296 
L 652.156623 -327.426809 
L 649.120768 -323.421323 
L 646.153759 -319.415836 
L 643.447996 -315.410349 
L 641.340057 -311.404863 
L 639.995232 -307.399376 
L 639.253991 -303.39389 
L 638.741502 -299.388403 
L 638.119557 -295.382916 
L 637.274324 -291.37743 
L 636.318684 -287.371943 
L 635.449947 -283.366456 
L 634.800765 -279.36097 
L 634.386017 -275.355483 
L 634.143479 -271.349996 
L 634.000153 -267.34451 
L 633.909062 -263.339023 
L 633.849584 -259.333537 
L 633.81327 -255.32805 
L 633.793824 -251.322563 
L 633.784942 -247.317077 
L 633.781513 -243.31159 
L 633.780396 -239.306103 
L 633.780088 -235.300617 
L 633.780017 -231.29513 
L 633.780003 -227.289643 
L 633.78 -223.284157 
L 633.78 -219.27867 
L 633.78 -215.273184 
L 633.78 -211.267697 
L 633.78 -207.26221 
L 633.78 -203.256724 
L 633.78 -199.251237 
L 633.78 -195.24575 
L 633.78 -191.240264 
L 633.78 -187.234777 
L 633.78 -183.22929 
L 633.78 -179.223804 
L 633.78 -175.218317 
L 633.78 -171.212831 
L 633.78 -167.207344 
L 633.78 -163.201857 
L 633.780003 -159.196371 
L 633.780021 -155.190884 
L 633.780134 -151.185397 
L 633.780709 -147.179911 
L 633.783211 -143.174424 
L 633.792393 -139.168937 
L 633.8208 -135.163451 
L 633.894555 -131.157964 
L 634.054316 -127.152478 
L 634.340235 -123.146991 
L 634.755819 -119.141504 
L 635.229603 -115.136018 
L 635.61658 -111.130531 
L 635.7645 -107.125044 
L 635.608829 -103.119558 
L 635.217394 -99.114071 
L 634.743517 -95.108584 
L 634.330837 -91.103098 
L 634.048577 -87.097611 
z
" style="stroke: #4c4c4c; stroke-width: 1.5"/>
    </defs>
    <g clip-path="url(#p8c5d730098)">
     <use xlink:href="#m8b5d964e98" x="0" y="576" style="fill: #5875a4; stroke: #4c4c4c; stroke-width: 1.5"/>
    </g>
   </g>
   <g id="PolyCollection_4">
    <defs>
     <path id="mb0849ca3b6" d="M 790.263088 -87.457231 
L 789.776912 -87.457231 
L 789.515262 -91.466999 
L 789.131714 -95.476767 
L 788.69498 -99.486535 
L 788.344765 -103.496303 
L 788.2248 -107.506071 
L 788.389453 -111.515839 
L 788.764728 -115.525608 
L 789.200922 -119.535376 
L 789.567001 -123.545144 
L 789.80765 -127.554912 
L 789.935629 -131.56468 
L 789.991587 -135.574448 
L 790.01189 -139.584216 
L 790.018038 -143.593984 
L 790.019598 -147.603752 
L 790.01993 -151.61352 
L 790.01999 -155.623289 
L 790.019999 -159.633057 
L 790.02 -163.642825 
L 790.02 -167.652593 
L 790.02 -171.662361 
L 790.02 -175.672129 
L 790.02 -179.681897 
L 790.02 -183.691665 
L 790.02 -187.701433 
L 790.02 -191.711202 
L 790.02 -195.72097 
L 790.02 -199.730738 
L 790.02 -203.740506 
L 790.02 -207.750274 
L 790.02 -211.760042 
L 790.02 -215.76981 
L 790.02 -219.779578 
L 790.02 -223.789346 
L 790.02 -227.799115 
L 790.02 -231.808883 
L 790.019999 -235.818651 
L 790.019995 -239.828419 
L 790.019967 -243.838187 
L 790.019822 -247.847955 
L 790.019184 -251.857723 
L 790.016754 -255.867491 
L 790.008714 -259.877259 
L 789.985446 -263.887028 
L 789.926129 -267.896796 
L 789.792471 -271.906564 
L 789.526884 -275.916332 
L 789.065447 -279.9261 
L 788.374382 -283.935868 
L 787.498807 -287.945636 
L 786.58021 -291.955404 
L 785.793766 -295.965172 
L 785.21473 -299.974941 
L 784.708253 -303.984709 
L 783.95051 -307.994477 
L 782.590791 -312.004245 
L 780.440266 -316.014013 
L 777.544036 -320.023781 
L 774.088333 -324.033549 
L 770.237259 -328.043317 
L 766.060731 -332.053085 
L 761.624187 -336.062853 
L 757.119072 -340.072622 
L 752.830701 -344.08239 
L 748.915428 -348.092158 
L 745.225032 -352.101926 
L 741.416259 -356.111694 
L 737.259013 -360.121462 
L 732.812084 -364.13123 
L 728.305695 -368.140998 
L 723.925935 -372.150766 
L 719.775608 -376.160535 
L 716.042443 -380.170303 
L 713.179396 -384.180071 
L 711.9 -388.189839 
L 712.934912 -392.199607 
L 716.660691 -396.209375 
L 722.824924 -400.219143 
L 730.561046 -404.228911 
L 738.68896 -408.238679 
L 746.103665 -412.248448 
L 752.058334 -416.258216 
L 756.298188 -420.267984 
L 759.078779 -424.277752 
L 761.055813 -428.28752 
L 763.021692 -432.297288 
L 765.567062 -436.307056 
L 768.842333 -440.316824 
L 772.555673 -444.326592 
L 776.197169 -448.336361 
L 779.341643 -452.346129 
L 781.843154 -456.355897 
L 783.816636 -460.365665 
L 785.459581 -464.375433 
L 786.879645 -468.385201 
L 788.058034 -472.394969 
L 788.933581 -476.404737 
L 789.49473 -480.414505 
L 789.800264 -484.424274 
L 790.239736 -484.424274 
L 790.239736 -484.424274 
L 790.54527 -480.414505 
L 791.106419 -476.404737 
L 791.981966 -472.394969 
L 793.160355 -468.385201 
L 794.580419 -464.375433 
L 796.223364 -460.365665 
L 798.196846 -456.355897 
L 800.698357 -452.346129 
L 803.842831 -448.336361 
L 807.484327 -444.326592 
L 811.197667 -440.316824 
L 814.472938 -436.307056 
L 817.018308 -432.297288 
L 818.984187 -428.28752 
L 820.961221 -424.277752 
L 823.741812 -420.267984 
L 827.981666 -416.258216 
L 833.936335 -412.248448 
L 841.35104 -408.238679 
L 849.478954 -404.228911 
L 857.215076 -400.219143 
L 863.379309 -396.209375 
L 867.105088 -392.199607 
L 868.14 -388.189839 
L 866.860604 -384.180071 
L 863.997557 -380.170303 
L 860.264392 -376.160535 
L 856.114065 -372.150766 
L 851.734305 -368.140998 
L 847.227916 -364.13123 
L 842.780987 -360.121462 
L 838.623741 -356.111694 
L 834.814968 -352.101926 
L 831.124572 -348.092158 
L 827.209299 -344.08239 
L 822.920928 -340.072622 
L 818.415813 -336.062853 
L 813.979269 -332.053085 
L 809.802741 -328.043317 
L 805.951667 -324.033549 
L 802.495964 -320.023781 
L 799.599734 -316.014013 
L 797.449209 -312.004245 
L 796.08949 -307.994477 
L 795.331747 -303.984709 
L 794.82527 -299.974941 
L 794.246234 -295.965172 
L 793.45979 -291.955404 
L 792.541193 -287.945636 
L 791.665618 -283.935868 
L 790.974553 -279.9261 
L 790.513116 -275.916332 
L 790.247529 -271.906564 
L 790.113871 -267.896796 
L 790.054554 -263.887028 
L 790.031286 -259.877259 
L 790.023246 -255.867491 
L 790.020816 -251.857723 
L 790.020178 -247.847955 
L 790.020033 -243.838187 
L 790.020005 -239.828419 
L 790.020001 -235.818651 
L 790.02 -231.808883 
L 790.02 -227.799115 
L 790.02 -223.789346 
L 790.02 -219.779578 
L 790.02 -215.76981 
L 790.02 -211.760042 
L 790.02 -207.750274 
L 790.02 -203.740506 
L 790.02 -199.730738 
L 790.02 -195.72097 
L 790.02 -191.711202 
L 790.02 -187.701433 
L 790.02 -183.691665 
L 790.02 -179.681897 
L 790.02 -175.672129 
L 790.02 -171.662361 
L 790.02 -167.652593 
L 790.02 -163.642825 
L 790.020001 -159.633057 
L 790.02001 -155.623289 
L 790.02007 -151.61352 
L 790.020402 -147.603752 
L 790.021962 -143.593984 
L 790.02811 -139.584216 
L 790.048413 -135.574448 
L 790.104371 -131.56468 
L 790.23235 -127.554912 
L 790.472999 -123.545144 
L 790.839078 -119.535376 
L 791.275272 -115.525608 
L 791.650547 -111.515839 
L 791.8152 -107.506071 
L 791.695235 -103.496303 
L 791.34502 -99.486535 
L 790.908286 -95.476767 
L 790.524738 -91.466999 
L 790.263088 -87.457231 
z
" style="stroke: #4c4c4c; stroke-width: 1.5"/>
    </defs>
    <g clip-path="url(#p8c5d730098)">
     <use xlink:href="#mb0849ca3b6" x="0" y="576" style="fill: #cc8963; stroke: #4c4c4c; stroke-width: 1.5"/>
    </g>
   </g>
   <g id="line2d_7">
    <path d="M 243.18 270.28006 
L 243.18 119.765629 
" clip-path="url(#p8c5d730098)" style="fill: none; stroke: #4c4c4c; stroke-width: 1.5; stroke-linecap: round"/>
   </g>
   <g id="line2d_8">
    <path d="M 243.18 215.216405 
L 243.18 176.95377 
" clip-path="url(#p8c5d730098)" style="fill: none; stroke: #4c4c4c; stroke-width: 4.5; stroke-linecap: round"/>
   </g>
   <g id="line2d_9">
    <path d="M 399.42 282.850681 
L 399.42 112.938262 
" clip-path="url(#p8c5d730098)" style="fill: none; stroke: #4c4c4c; stroke-width: 1.5; stroke-linecap: round"/>
   </g>
   <g id="line2d_10">
    <path d="M 399.42 217.72327 
L 399.42 174.263124 
" clip-path="url(#p8c5d730098)" style="fill: none; stroke: #4c4c4c; stroke-width: 4.5; stroke-linecap: round"/>
   </g>
   <g id="line2d_11">
    <path d="M 633.78 275.785425 
L 633.78 112.439863 
" clip-path="url(#p8c5d730098)" style="fill: none; stroke: #4c4c4c; stroke-width: 1.5; stroke-linecap: round"/>
   </g>
   <g id="line2d_12">
    <path d="M 633.78 214.078066 
L 633.78 172.559472 
" clip-path="url(#p8c5d730098)" style="fill: none; stroke: #4c4c4c; stroke-width: 4.5; stroke-linecap: round"/>
   </g>
   <g id="line2d_13">
    <path d="M 790.02 274.737712 
L 790.02 113.015255 
" clip-path="url(#p8c5d730098)" style="fill: none; stroke: #4c4c4c; stroke-width: 1.5; stroke-linecap: round"/>
   </g>
   <g id="line2d_14">
    <path d="M 790.02 214.267877 
L 790.02 173.322676 
" clip-path="url(#p8c5d730098)" style="fill: none; stroke: #4c4c4c; stroke-width: 4.5; stroke-linecap: round"/>
   </g>
   <g id="patch_5">
    <path d="M 126 512.64 
L 126 69.12 
" style="fill: none; stroke: #cccccc; stroke-width: 1.25; stroke-linejoin: miter; stroke-linecap: square"/>
   </g>
   <g id="patch_6">
    <path d="M 907.2 512.64 
L 907.2 69.12 
" style="fill: none; stroke: #cccccc; stroke-width: 1.25; stroke-linejoin: miter; stroke-linecap: square"/>
   </g>
   <g id="patch_7">
    <path d="M 126 512.64 
L 907.2 512.64 
" style="fill: none; stroke: #cccccc; stroke-width: 1.25; stroke-linejoin: miter; stroke-linecap: square"/>
   </g>
   <g id="patch_8">
    <path d="M 126 69.12 
L 907.2 69.12 
" style="fill: none; stroke: #cccccc; stroke-width: 1.25; stroke-linejoin: miter; stroke-linecap: square"/>
   </g>
   <g id="PathCollection_1">
    <defs>
     <path id="mc08bb7930e" d="M 0 1.5 
C 0.397805 1.5 0.77937 1.341951 1.06066 1.06066 
C 1.341951 0.77937 1.5 0.397805 1.5 0 
C 1.5 -0.397805 1.341951 -0.77937 1.06066 -1.06066 
C 0.77937 -1.341951 0.397805 -1.5 0 -1.5 
C -0.397805 -1.5 -0.77937 -1.341951 -1.06066 -1.06066 
C -1.341951 -0.77937 -1.5 -0.397805 -1.5 0 
C -1.5 0.397805 -1.341951 0.77937 -1.06066 1.06066 
C -0.77937 1.341951 -0.397805 1.5 0 1.5 
z
" style="stroke: #4c4c4c"/>
    </defs>
    <g clip-path="url(#p8c5d730098)">
     <use xlink:href="#mc08bb7930e" x="243.18" y="196.175937" style="fill: #ffffff; stroke: #4c4c4c"/>
    </g>
   </g>
   <g id="PathCollection_2">
    <g clip-path="url(#p8c5d730098)">
     <use xlink:href="#mc08bb7930e" x="399.42" y="195.007545" style="fill: #ffffff; stroke: #4c4c4c"/>
    </g>
   </g>
   <g id="PathCollection_3">
    <g clip-path="url(#p8c5d730098)">
     <use xlink:href="#mc08bb7930e" x="633.78" y="193.579319" style="fill: #ffffff; stroke: #4c4c4c"/>
    </g>
   </g>
   <g id="PathCollection_4">
    <g clip-path="url(#p8c5d730098)">
     <use xlink:href="#mc08bb7930e" x="790.02" y="191.514428" style="fill: #ffffff; stroke: #4c4c4c"/>
    </g>
   </g>
   <g id="legend_1">
    <g id="patch_9">
     <path d="M 803.7725 125.514063 
L 899.5 125.514063 
Q 901.7 125.514063 901.7 123.314063 
L 901.7 76.82 
Q 901.7 74.62 899.5 74.62 
L 803.7725 74.62 
Q 801.5725 74.62 801.5725 76.82 
L 801.5725 123.314063 
Q 801.5725 125.514063 803.7725 125.514063 
z
" style="fill: #ffffff; opacity: 0.8; stroke: #cccccc; stroke-linejoin: miter"/>
    </g>
    <g id="text_11">
     <!-- Treatment -->
     <g style="fill: #262626" transform="translate(824.520937 87.609375)scale(0.12 -0.12)">
      <defs>
       <path id="ArialMT-54" d="M 1659 0 
L 1659 4041 
L 150 4041 
L 150 4581 
L 3781 4581 
L 3781 4041 
L 2266 4041 
L 2266 0 
L 1659 0 
z
" transform="scale(0.015625)"/>
       <path id="ArialMT-74" d="M 1650 503 
L 1731 6 
Q 1494 -44 1306 -44 
Q 1000 -44 831 53 
Q 663 150 594 308 
Q 525 466 525 972 
L 525 2881 
L 113 2881 
L 113 3319 
L 525 3319 
L 525 4141 
L 1084 4478 
L 1084 3319 
L 1650 3319 
L 1650 2881 
L 1084 2881 
L 1084 941 
Q 1084 700 1114 631 
Q 1144 563 1211 522 
Q 1278 481 1403 481 
Q 1497 481 1650 503 
z
" transform="scale(0.015625)"/>
       <path id="ArialMT-6d" d="M 422 0 
L 422 3319 
L 925 3319 
L 925 2853 
Q 1081 3097 1340 3245 
Q 1600 3394 1931 3394 
Q 2300 3394 2536 3241 
Q 2772 3088 2869 2813 
Q 3263 3394 3894 3394 
Q 4388 3394 4653 3120 
Q 4919 2847 4919 2278 
L 4919 0 
L 4359 0 
L 4359 2091 
Q 4359 2428 4304 2576 
Q 4250 2725 4106 2815 
Q 3963 2906 3769 2906 
Q 3419 2906 3187 2673 
Q 2956 2441 2956 1928 
L 2956 0 
L 2394 0 
L 2394 2156 
Q 2394 2531 2256 2718 
Q 2119 2906 1806 2906 
Q 1569 2906 1367 2781 
Q 1166 2656 1075 2415 
Q 984 2175 984 1722 
L 984 0 
L 422 0 
z
" transform="scale(0.015625)"/>
       <path id="ArialMT-6e" d="M 422 0 
L 422 3319 
L 928 3319 
L 928 2847 
Q 1294 3394 1984 3394 
Q 2284 3394 2536 3286 
Q 2788 3178 2913 3003 
Q 3038 2828 3088 2588 
Q 3119 2431 3119 2041 
L 3119 0 
L 2556 0 
L 2556 2019 
Q 2556 2363 2490 2533 
Q 2425 2703 2258 2804 
Q 2091 2906 1866 2906 
Q 1506 2906 1245 2678 
Q 984 2450 984 1813 
L 984 0 
L 422 0 
z
" transform="scale(0.015625)"/>
      </defs>
      <use xlink:href="#ArialMT-54"/>
      <use xlink:href="#ArialMT-72" x="57.333984"/>
      <use xlink:href="#ArialMT-65" x="90.634766"/>
      <use xlink:href="#ArialMT-61" x="146.25"/>
      <use xlink:href="#ArialMT-74" x="201.865234"/>
      <use xlink:href="#ArialMT-6d" x="229.648438"/>
      <use xlink:href="#ArialMT-65" x="312.949219"/>
      <use xlink:href="#ArialMT-6e" x="368.564453"/>
      <use xlink:href="#ArialMT-74" x="424.179688"/>
     </g>
    </g>
    <g id="patch_10">
     <path d="M 805.9725 103.367969 
L 827.9725 103.367969 
L 827.9725 95.667969 
L 805.9725 95.667969 
z
" style="fill: #5875a4; stroke: #4c4c4c; stroke-width: 0.75; stroke-linejoin: miter"/>
    </g>
    <g id="text_12">
     <!-- control -->
     <g style="fill: #262626" transform="translate(836.7725 103.367969)scale(0.11 -0.11)">
      <use xlink:href="#ArialMT-63"/>
      <use xlink:href="#ArialMT-6f" x="50"/>
      <use xlink:href="#ArialMT-6e" x="105.615234"/>
      <use xlink:href="#ArialMT-74" x="161.230469"/>
      <use xlink:href="#ArialMT-72" x="189.013672"/>
      <use xlink:href="#ArialMT-6f" x="222.314453"/>
      <use xlink:href="#ArialMT-6c" x="277.929688"/>
     </g>
    </g>
    <g id="patch_11">
     <path d="M 805.9725 118.927813 
L 827.9725 118.927813 
L 827.9725 111.227813 
L 805.9725 111.227813 
z
" style="fill: #cc8963; stroke: #4c4c4c; stroke-width: 0.75; stroke-linejoin: miter"/>
    </g>
    <g id="text_13">
     <!-- deltamethrin -->
     <g style="fill: #262626" transform="translate(836.7725 118.927813)scale(0.11 -0.11)">
      <defs>
       <path id="ArialMT-68" d="M 422 0 
L 422 4581 
L 984 4581 
L 984 2938 
Q 1378 3394 1978 3394 
Q 2347 3394 2619 3248 
Q 2891 3103 3008 2847 
Q 3125 2591 3125 2103 
L 3125 0 
L 2563 0 
L 2563 2103 
Q 2563 2525 2380 2717 
Q 2197 2909 1863 2909 
Q 1613 2909 1392 2779 
Q 1172 2650 1078 2428 
Q 984 2206 984 1816 
L 984 0 
L 422 0 
z
" transform="scale(0.015625)"/>
       <path id="ArialMT-69" d="M 425 3934 
L 425 4581 
L 988 4581 
L 988 3934 
L 425 3934 
z
M 425 0 
L 425 3319 
L 988 3319 
L 988 0 
L 425 0 
z
" transform="scale(0.015625)"/>
      </defs>
      <use xlink:href="#ArialMT-64"/>
      <use xlink:href="#ArialMT-65" x="55.615234"/>
      <use xlink:href="#ArialMT-6c" x="111.230469"/>
      <use xlink:href="#ArialMT-74" x="133.447266"/>
      <use xlink:href="#ArialMT-61" x="161.230469"/>
      <use xlink:href="#ArialMT-6d" x="216.845703"/>
      <use xlink:href="#ArialMT-65" x="300.146484"/>
      <use xlink:href="#ArialMT-74" x="355.761719"/>
      <use xlink:href="#ArialMT-68" x="383.544922"/>
      <use xlink:href="#ArialMT-72" x="439.160156"/>
      <use xlink:href="#ArialMT-69" x="472.460938"/>
      <use xlink:href="#ArialMT-6e" x="494.677734"/>
     </g>
    </g>
   </g>
  </g>
 </g>
 <defs>
  <clipPath id="p8c5d730098">
   <rect x="126" y="69.12" width="781.2" height="443.52"/>
  </clipPath>
 </defs>
</svg>
