<?xml version="1.0" encoding="utf-8" standalone="no"?>
<!DOCTYPE svg PUBLIC "-//W3C//DTD SVG 1.1//EN"
  "http://www.w3.org/Graphics/SVG/1.1/DTD/svg11.dtd">
<svg xmlns:xlink="http://www.w3.org/1999/xlink" width="1008pt" height="576pt" viewBox="0 0 1008 576" xmlns="http://www.w3.org/2000/svg" version="1.1">
 <metadata>
  <rdf:RDF xmlns:dc="http://purl.org/dc/elements/1.1/" xmlns:cc="http://creativecommons.org/ns#" xmlns:rdf="http://www.w3.org/1999/02/22-rdf-syntax-ns#">
   <cc:Work>
    <dc:type rdf:resource="http://purl.org/dc/dcmitype/StillImage"/>
    <dc:date>2023-02-18T15:58:31.431585</dc:date>
    <dc:format>image/svg+xml</dc:format>
    <dc:creator>
     <cc:Agent>
      <dc:title>Matplotlib v3.5.2, https://matplotlib.org/</dc:title>
     </cc:Agent>
    </dc:creator>
   </cc:Work>
  </rdf:RDF>
 </metadata>
 <defs>
  <style type="text/css">*{stroke-linejoin: round; stroke-linecap: butt}</style>
 </defs>
 <g id="figure_1">
  <g id="patch_1">
   <path d="M 0 576 
L 1008 576 
L 1008 0 
L 0 0 
z
" style="fill: #ffffff"/>
  </g>
  <g id="axes_1">
   <g id="patch_2">
    <path d="M 126 512.64 
L 907.2 512.64 
L 907.2 69.12 
L 126 69.12 
z
" style="fill: #ffffff"/>
   </g>
   <g id="matplotlib.axis_1">
    <g id="xtick_1">
     <g id="text_1">
      <!-- 30 -->
      <g style="fill: #262626" transform="translate(315.182969 530.013594)scale(0.11 -0.11)">
       <defs>
        <path id="ArialMT-33" d="M 269 1209 
L 831 1284 
Q 928 806 1161 595 
Q 1394 384 1728 384 
Q 2125 384 2398 659 
Q 2672 934 2672 1341 
Q 2672 1728 2419 1979 
Q 2166 2231 1775 2231 
Q 1616 2231 1378 2169 
L 1441 2663 
Q 1497 2656 1531 2656 
Q 1891 2656 2178 2843 
Q 2466 3031 2466 3422 
Q 2466 3731 2256 3934 
Q 2047 4138 1716 4138 
Q 1388 4138 1169 3931 
Q 950 3725 888 3313 
L 325 3413 
Q 428 3978 793 4289 
Q 1159 4600 1703 4600 
Q 2078 4600 2393 4439 
Q 2709 4278 2876 4000 
Q 3044 3722 3044 3409 
Q 3044 3113 2884 2869 
Q 2725 2625 2413 2481 
Q 2819 2388 3044 2092 
Q 3269 1797 3269 1353 
Q 3269 753 2831 336 
Q 2394 -81 1725 -81 
Q 1122 -81 723 278 
Q 325 638 269 1209 
z
" transform="scale(0.015625)"/>
        <path id="ArialMT-30" d="M 266 2259 
Q 266 3072 433 3567 
Q 600 4063 929 4331 
Q 1259 4600 1759 4600 
Q 2128 4600 2406 4451 
Q 2684 4303 2865 4023 
Q 3047 3744 3150 3342 
Q 3253 2941 3253 2259 
Q 3253 1453 3087 958 
Q 2922 463 2592 192 
Q 2263 -78 1759 -78 
Q 1097 -78 719 397 
Q 266 969 266 2259 
z
M 844 2259 
Q 844 1131 1108 757 
Q 1372 384 1759 384 
Q 2147 384 2411 759 
Q 2675 1134 2675 2259 
Q 2675 3391 2411 3762 
Q 2147 4134 1753 4134 
Q 1366 4134 1134 3806 
Q 844 3388 844 2259 
z
" transform="scale(0.015625)"/>
       </defs>
       <use xlink:href="#ArialMT-33"/>
       <use xlink:href="#ArialMT-30" x="55.615234"/>
      </g>
     </g>
    </g>
    <g id="xtick_2">
     <g id="text_2">
      <!-- 60 -->
      <g style="fill: #262626" transform="translate(705.782969 530.013594)scale(0.11 -0.11)">
       <defs>
        <path id="ArialMT-36" d="M 3184 3459 
L 2625 3416 
Q 2550 3747 2413 3897 
Q 2184 4138 1850 4138 
Q 1581 4138 1378 3988 
Q 1113 3794 959 3422 
Q 806 3050 800 2363 
Q 1003 2672 1297 2822 
Q 1591 2972 1913 2972 
Q 2475 2972 2870 2558 
Q 3266 2144 3266 1488 
Q 3266 1056 3080 686 
Q 2894 316 2569 119 
Q 2244 -78 1831 -78 
Q 1128 -78 684 439 
Q 241 956 241 2144 
Q 241 3472 731 4075 
Q 1159 4600 1884 4600 
Q 2425 4600 2770 4297 
Q 3116 3994 3184 3459 
z
M 888 1484 
Q 888 1194 1011 928 
Q 1134 663 1356 523 
Q 1578 384 1822 384 
Q 2178 384 2434 671 
Q 2691 959 2691 1453 
Q 2691 1928 2437 2201 
Q 2184 2475 1800 2475 
Q 1419 2475 1153 2201 
Q 888 1928 888 1484 
z
" transform="scale(0.015625)"/>
       </defs>
       <use xlink:href="#ArialMT-36"/>
       <use xlink:href="#ArialMT-30" x="55.615234"/>
      </g>
     </g>
    </g>
    <g id="text_3">
     <!-- PND -->
     <g style="fill: #262626" transform="translate(503.931563 544.789219)scale(0.12 -0.12)">
      <defs>
       <path id="ArialMT-50" d="M 494 0 
L 494 4581 
L 2222 4581 
Q 2678 4581 2919 4538 
Q 3256 4481 3484 4323 
Q 3713 4166 3852 3881 
Q 3991 3597 3991 3256 
Q 3991 2672 3619 2267 
Q 3247 1863 2275 1863 
L 1100 1863 
L 1100 0 
L 494 0 
z
M 1100 2403 
L 2284 2403 
Q 2872 2403 3119 2622 
Q 3366 2841 3366 3238 
Q 3366 3525 3220 3729 
Q 3075 3934 2838 4000 
Q 2684 4041 2272 4041 
L 1100 4041 
L 1100 2403 
z
" transform="scale(0.015625)"/>
       <path id="ArialMT-4e" d="M 488 0 
L 488 4581 
L 1109 4581 
L 3516 984 
L 3516 4581 
L 4097 4581 
L 4097 0 
L 3475 0 
L 1069 3600 
L 1069 0 
L 488 0 
z
" transform="scale(0.015625)"/>
       <path id="ArialMT-44" d="M 494 0 
L 494 4581 
L 2072 4581 
Q 2606 4581 2888 4516 
Q 3281 4425 3559 4188 
Q 3922 3881 4101 3404 
Q 4281 2928 4281 2316 
Q 4281 1794 4159 1391 
Q 4038 988 3847 723 
Q 3656 459 3429 307 
Q 3203 156 2883 78 
Q 2563 0 2147 0 
L 494 0 
z
M 1100 541 
L 2078 541 
Q 2531 541 2789 625 
Q 3047 709 3200 863 
Q 3416 1078 3536 1442 
Q 3656 1806 3656 2325 
Q 3656 3044 3420 3430 
Q 3184 3816 2847 3947 
Q 2603 4041 2063 4041 
L 1100 4041 
L 1100 541 
z
" transform="scale(0.015625)"/>
      </defs>
      <use xlink:href="#ArialMT-50"/>
      <use xlink:href="#ArialMT-4e" x="66.699219"/>
      <use xlink:href="#ArialMT-44" x="138.916016"/>
     </g>
    </g>
   </g>
   <g id="matplotlib.axis_2">
    <g id="ytick_1">
     <g id="line2d_1">
      <path d="M 126 463.407262 
L 907.2 463.407262 
" clip-path="url(#pc120695b92)" style="fill: none; stroke: #cccccc; stroke-linecap: round"/>
     </g>
     <g id="text_4">
      <!-- 0.0 -->
      <g style="fill: #262626" transform="translate(101.21 467.344058)scale(0.11 -0.11)">
       <defs>
        <path id="ArialMT-2e" d="M 581 0 
L 581 641 
L 1222 641 
L 1222 0 
L 581 0 
z
" transform="scale(0.015625)"/>
       </defs>
       <use xlink:href="#ArialMT-30"/>
       <use xlink:href="#ArialMT-2e" x="55.615234"/>
       <use xlink:href="#ArialMT-30" x="83.398438"/>
      </g>
     </g>
    </g>
    <g id="ytick_2">
     <g id="line2d_2">
      <path d="M 126 394.183909 
L 907.2 394.183909 
" clip-path="url(#pc120695b92)" style="fill: none; stroke: #cccccc; stroke-linecap: round"/>
     </g>
     <g id="text_5">
      <!-- 0.2 -->
      <g style="fill: #262626" transform="translate(101.21 398.120706)scale(0.11 -0.11)">
       <defs>
        <path id="ArialMT-32" d="M 3222 541 
L 3222 0 
L 194 0 
Q 188 203 259 391 
Q 375 700 629 1000 
Q 884 1300 1366 1694 
Q 2113 2306 2375 2664 
Q 2638 3022 2638 3341 
Q 2638 3675 2398 3904 
Q 2159 4134 1775 4134 
Q 1369 4134 1125 3890 
Q 881 3647 878 3216 
L 300 3275 
Q 359 3922 746 4261 
Q 1134 4600 1788 4600 
Q 2447 4600 2831 4234 
Q 3216 3869 3216 3328 
Q 3216 3053 3103 2787 
Q 2991 2522 2730 2228 
Q 2469 1934 1863 1422 
Q 1356 997 1212 845 
Q 1069 694 975 541 
L 3222 541 
z
" transform="scale(0.015625)"/>
       </defs>
       <use xlink:href="#ArialMT-30"/>
       <use xlink:href="#ArialMT-2e" x="55.615234"/>
       <use xlink:href="#ArialMT-32" x="83.398438"/>
      </g>
     </g>
    </g>
    <g id="ytick_3">
     <g id="line2d_3">
      <path d="M 126 324.960557 
L 907.2 324.960557 
" clip-path="url(#pc120695b92)" style="fill: none; stroke: #cccccc; stroke-linecap: round"/>
     </g>
     <g id="text_6">
      <!-- 0.4 -->
      <g style="fill: #262626" transform="translate(101.21 328.897354)scale(0.11 -0.11)">
       <defs>
        <path id="ArialMT-34" d="M 2069 0 
L 2069 1097 
L 81 1097 
L 81 1613 
L 2172 4581 
L 2631 4581 
L 2631 1613 
L 3250 1613 
L 3250 1097 
L 2631 1097 
L 2631 0 
L 2069 0 
z
M 2069 1613 
L 2069 3678 
L 634 1613 
L 2069 1613 
z
" transform="scale(0.015625)"/>
       </defs>
       <use xlink:href="#ArialMT-30"/>
       <use xlink:href="#ArialMT-2e" x="55.615234"/>
       <use xlink:href="#ArialMT-34" x="83.398438"/>
      </g>
     </g>
    </g>
    <g id="ytick_4">
     <g id="line2d_4">
      <path d="M 126 255.737204 
L 907.2 255.737204 
" clip-path="url(#pc120695b92)" style="fill: none; stroke: #cccccc; stroke-linecap: round"/>
     </g>
     <g id="text_7">
      <!-- 0.6 -->
      <g style="fill: #262626" transform="translate(101.21 259.674001)scale(0.11 -0.11)">
       <use xlink:href="#ArialMT-30"/>
       <use xlink:href="#ArialMT-2e" x="55.615234"/>
       <use xlink:href="#ArialMT-36" x="83.398438"/>
      </g>
     </g>
    </g>
    <g id="ytick_5">
     <g id="line2d_5">
      <path d="M 126 186.513852 
L 907.2 186.513852 
" clip-path="url(#pc120695b92)" style="fill: none; stroke: #cccccc; stroke-linecap: round"/>
     </g>
     <g id="text_8">
      <!-- 0.8 -->
      <g style="fill: #262626" transform="translate(101.21 190.450649)scale(0.11 -0.11)">
       <defs>
        <path id="ArialMT-38" d="M 1131 2484 
Q 781 2613 612 2850 
Q 444 3088 444 3419 
Q 444 3919 803 4259 
Q 1163 4600 1759 4600 
Q 2359 4600 2725 4251 
Q 3091 3903 3091 3403 
Q 3091 3084 2923 2848 
Q 2756 2613 2416 2484 
Q 2838 2347 3058 2040 
Q 3278 1734 3278 1309 
Q 3278 722 2862 322 
Q 2447 -78 1769 -78 
Q 1091 -78 675 323 
Q 259 725 259 1325 
Q 259 1772 486 2073 
Q 713 2375 1131 2484 
z
M 1019 3438 
Q 1019 3113 1228 2906 
Q 1438 2700 1772 2700 
Q 2097 2700 2305 2904 
Q 2513 3109 2513 3406 
Q 2513 3716 2298 3927 
Q 2084 4138 1766 4138 
Q 1444 4138 1231 3931 
Q 1019 3725 1019 3438 
z
M 838 1322 
Q 838 1081 952 856 
Q 1066 631 1291 507 
Q 1516 384 1775 384 
Q 2178 384 2440 643 
Q 2703 903 2703 1303 
Q 2703 1709 2433 1975 
Q 2163 2241 1756 2241 
Q 1359 2241 1098 1978 
Q 838 1716 838 1322 
z
" transform="scale(0.015625)"/>
       </defs>
       <use xlink:href="#ArialMT-30"/>
       <use xlink:href="#ArialMT-2e" x="55.615234"/>
       <use xlink:href="#ArialMT-38" x="83.398438"/>
      </g>
     </g>
    </g>
    <g id="ytick_6">
     <g id="line2d_6">
      <path d="M 126 117.290499 
L 907.2 117.290499 
" clip-path="url(#pc120695b92)" style="fill: none; stroke: #cccccc; stroke-linecap: round"/>
     </g>
     <g id="text_9">
      <!-- 1.0 -->
      <g style="fill: #262626" transform="translate(101.21 121.227296)scale(0.11 -0.11)">
       <defs>
        <path id="ArialMT-31" d="M 2384 0 
L 1822 0 
L 1822 3584 
Q 1619 3391 1289 3197 
Q 959 3003 697 2906 
L 697 3450 
Q 1169 3672 1522 3987 
Q 1875 4303 2022 4600 
L 2384 4600 
L 2384 0 
z
" transform="scale(0.015625)"/>
       </defs>
       <use xlink:href="#ArialMT-31"/>
       <use xlink:href="#ArialMT-2e" x="55.615234"/>
       <use xlink:href="#ArialMT-30" x="83.398438"/>
      </g>
     </g>
    </g>
    <g id="text_10">
     <!-- log_scaled_area -->
     <g style="fill: #262626" transform="translate(94.684375 334.909688)rotate(-90)scale(0.12 -0.12)">
      <defs>
       <path id="ArialMT-6c" d="M 409 0 
L 409 4581 
L 972 4581 
L 972 0 
L 409 0 
z
" transform="scale(0.015625)"/>
       <path id="ArialMT-6f" d="M 213 1659 
Q 213 2581 725 3025 
Q 1153 3394 1769 3394 
Q 2453 3394 2887 2945 
Q 3322 2497 3322 1706 
Q 3322 1066 3130 698 
Q 2938 331 2570 128 
Q 2203 -75 1769 -75 
Q 1072 -75 642 372 
Q 213 819 213 1659 
z
M 791 1659 
Q 791 1022 1069 705 
Q 1347 388 1769 388 
Q 2188 388 2466 706 
Q 2744 1025 2744 1678 
Q 2744 2294 2464 2611 
Q 2184 2928 1769 2928 
Q 1347 2928 1069 2612 
Q 791 2297 791 1659 
z
" transform="scale(0.015625)"/>
       <path id="ArialMT-67" d="M 319 -275 
L 866 -356 
Q 900 -609 1056 -725 
Q 1266 -881 1628 -881 
Q 2019 -881 2231 -725 
Q 2444 -569 2519 -288 
Q 2563 -116 2559 434 
Q 2191 0 1641 0 
Q 956 0 581 494 
Q 206 988 206 1678 
Q 206 2153 378 2554 
Q 550 2956 876 3175 
Q 1203 3394 1644 3394 
Q 2231 3394 2613 2919 
L 2613 3319 
L 3131 3319 
L 3131 450 
Q 3131 -325 2973 -648 
Q 2816 -972 2473 -1159 
Q 2131 -1347 1631 -1347 
Q 1038 -1347 672 -1080 
Q 306 -813 319 -275 
z
M 784 1719 
Q 784 1066 1043 766 
Q 1303 466 1694 466 
Q 2081 466 2343 764 
Q 2606 1063 2606 1700 
Q 2606 2309 2336 2618 
Q 2066 2928 1684 2928 
Q 1309 2928 1046 2623 
Q 784 2319 784 1719 
z
" transform="scale(0.015625)"/>
       <path id="ArialMT-5f" d="M -97 -1272 
L -97 -866 
L 3631 -866 
L 3631 -1272 
L -97 -1272 
z
" transform="scale(0.015625)"/>
       <path id="ArialMT-73" d="M 197 991 
L 753 1078 
Q 800 744 1014 566 
Q 1228 388 1613 388 
Q 2000 388 2187 545 
Q 2375 703 2375 916 
Q 2375 1106 2209 1216 
Q 2094 1291 1634 1406 
Q 1016 1563 777 1677 
Q 538 1791 414 1992 
Q 291 2194 291 2438 
Q 291 2659 392 2848 
Q 494 3038 669 3163 
Q 800 3259 1026 3326 
Q 1253 3394 1513 3394 
Q 1903 3394 2198 3281 
Q 2494 3169 2634 2976 
Q 2775 2784 2828 2463 
L 2278 2388 
Q 2241 2644 2061 2787 
Q 1881 2931 1553 2931 
Q 1166 2931 1000 2803 
Q 834 2675 834 2503 
Q 834 2394 903 2306 
Q 972 2216 1119 2156 
Q 1203 2125 1616 2013 
Q 2213 1853 2448 1751 
Q 2684 1650 2818 1456 
Q 2953 1263 2953 975 
Q 2953 694 2789 445 
Q 2625 197 2315 61 
Q 2006 -75 1616 -75 
Q 969 -75 630 194 
Q 291 463 197 991 
z
" transform="scale(0.015625)"/>
       <path id="ArialMT-63" d="M 2588 1216 
L 3141 1144 
Q 3050 572 2676 248 
Q 2303 -75 1759 -75 
Q 1078 -75 664 370 
Q 250 816 250 1647 
Q 250 2184 428 2587 
Q 606 2991 970 3192 
Q 1334 3394 1763 3394 
Q 2303 3394 2647 3120 
Q 2991 2847 3088 2344 
L 2541 2259 
Q 2463 2594 2264 2762 
Q 2066 2931 1784 2931 
Q 1359 2931 1093 2626 
Q 828 2322 828 1663 
Q 828 994 1084 691 
Q 1341 388 1753 388 
Q 2084 388 2306 591 
Q 2528 794 2588 1216 
z
" transform="scale(0.015625)"/>
       <path id="ArialMT-61" d="M 2588 409 
Q 2275 144 1986 34 
Q 1697 -75 1366 -75 
Q 819 -75 525 192 
Q 231 459 231 875 
Q 231 1119 342 1320 
Q 453 1522 633 1644 
Q 813 1766 1038 1828 
Q 1203 1872 1538 1913 
Q 2219 1994 2541 2106 
Q 2544 2222 2544 2253 
Q 2544 2597 2384 2738 
Q 2169 2928 1744 2928 
Q 1347 2928 1158 2789 
Q 969 2650 878 2297 
L 328 2372 
Q 403 2725 575 2942 
Q 747 3159 1072 3276 
Q 1397 3394 1825 3394 
Q 2250 3394 2515 3294 
Q 2781 3194 2906 3042 
Q 3031 2891 3081 2659 
Q 3109 2516 3109 2141 
L 3109 1391 
Q 3109 606 3145 398 
Q 3181 191 3288 0 
L 2700 0 
Q 2613 175 2588 409 
z
M 2541 1666 
Q 2234 1541 1622 1453 
Q 1275 1403 1131 1340 
Q 988 1278 909 1158 
Q 831 1038 831 891 
Q 831 666 1001 516 
Q 1172 366 1500 366 
Q 1825 366 2078 508 
Q 2331 650 2450 897 
Q 2541 1088 2541 1459 
L 2541 1666 
z
" transform="scale(0.015625)"/>
       <path id="ArialMT-65" d="M 2694 1069 
L 3275 997 
Q 3138 488 2766 206 
Q 2394 -75 1816 -75 
Q 1088 -75 661 373 
Q 234 822 234 1631 
Q 234 2469 665 2931 
Q 1097 3394 1784 3394 
Q 2450 3394 2872 2941 
Q 3294 2488 3294 1666 
Q 3294 1616 3291 1516 
L 816 1516 
Q 847 969 1125 678 
Q 1403 388 1819 388 
Q 2128 388 2347 550 
Q 2566 713 2694 1069 
z
M 847 1978 
L 2700 1978 
Q 2663 2397 2488 2606 
Q 2219 2931 1791 2931 
Q 1403 2931 1139 2672 
Q 875 2413 847 1978 
z
" transform="scale(0.015625)"/>
       <path id="ArialMT-64" d="M 2575 0 
L 2575 419 
Q 2259 -75 1647 -75 
Q 1250 -75 917 144 
Q 584 363 401 755 
Q 219 1147 219 1656 
Q 219 2153 384 2558 
Q 550 2963 881 3178 
Q 1213 3394 1622 3394 
Q 1922 3394 2156 3267 
Q 2391 3141 2538 2938 
L 2538 4581 
L 3097 4581 
L 3097 0 
L 2575 0 
z
M 797 1656 
Q 797 1019 1065 703 
Q 1334 388 1700 388 
Q 2069 388 2326 689 
Q 2584 991 2584 1609 
Q 2584 2291 2321 2609 
Q 2059 2928 1675 2928 
Q 1300 2928 1048 2622 
Q 797 2316 797 1656 
z
" transform="scale(0.015625)"/>
       <path id="ArialMT-72" d="M 416 0 
L 416 3319 
L 922 3319 
L 922 2816 
Q 1116 3169 1280 3281 
Q 1444 3394 1641 3394 
Q 1925 3394 2219 3213 
L 2025 2691 
Q 1819 2813 1613 2813 
Q 1428 2813 1281 2702 
Q 1134 2591 1072 2394 
Q 978 2094 978 1738 
L 978 0 
L 416 0 
z
" transform="scale(0.015625)"/>
      </defs>
      <use xlink:href="#ArialMT-6c"/>
      <use xlink:href="#ArialMT-6f" x="22.216797"/>
      <use xlink:href="#ArialMT-67" x="77.832031"/>
      <use xlink:href="#ArialMT-5f" x="133.447266"/>
      <use xlink:href="#ArialMT-73" x="189.0625"/>
      <use xlink:href="#ArialMT-63" x="239.0625"/>
      <use xlink:href="#ArialMT-61" x="289.0625"/>
      <use xlink:href="#ArialMT-6c" x="344.677734"/>
      <use xlink:href="#ArialMT-65" x="366.894531"/>
      <use xlink:href="#ArialMT-64" x="422.509766"/>
      <use xlink:href="#ArialMT-5f" x="478.125"/>
      <use xlink:href="#ArialMT-61" x="533.740234"/>
      <use xlink:href="#ArialMT-72" x="589.355469"/>
      <use xlink:href="#ArialMT-65" x="622.65625"/>
      <use xlink:href="#ArialMT-61" x="678.271484"/>
     </g>
    </g>
   </g>
   <g id="patch_3">
    <path d="M 321.3 463.407262 
L 321.3 463.407262 
L 321.3 463.407262 
L 321.3 463.407262 
z
" clip-path="url(#pc120695b92)" style="fill: #5875a4; stroke: #4c4c4c; stroke-width: 0.75; stroke-linejoin: miter"/>
   </g>
   <g id="PolyCollection_1">
    <defs>
     <path id="ma33ebadfb4" d="M 243.592891 -84.582239 
L 242.767109 -84.582239 
L 242.472887 -88.644237 
L 242.066705 -92.706234 
L 241.568617 -96.768232 
L 241.035853 -100.830229 
L 240.557125 -104.892227 
L 240.230368 -108.954225 
L 240.130521 -113.016222 
L 240.28165 -117.07822 
L 240.64753 -121.140217 
L 241.145724 -125.202215 
L 241.67767 -129.264212 
L 242.159774 -133.32621 
L 242.542302 -137.388208 
L 242.811436 -141.450205 
L 242.978684 -145.512203 
L 243.065799 -149.5742 
L 243.092001 -153.636198 
L 243.066395 -157.698196 
L 242.985298 -161.760193 
L 242.833021 -165.822191 
L 242.584966 -169.884188 
L 242.212641 -173.946186 
L 241.690217 -178.008184 
L 241.00154 -182.070181 
L 240.145432 -186.132179 
L 239.136609 -190.194176 
L 238.000583 -194.256174 
L 236.763493 -198.318171 
L 235.44053 -202.380169 
L 234.027376 -206.442167 
L 232.496998 -210.504164 
L 230.800753 -214.566162 
L 228.871499 -218.628159 
L 226.628853 -222.690157 
L 223.990642 -226.752155 
L 220.894943 -230.814152 
L 217.331039 -234.87615 
L 213.36797 -238.938147 
L 209.163478 -243.000145 
L 204.940251 -247.062142 
L 200.930102 -251.12414 
L 197.302751 -255.186138 
L 194.105511 -259.248135 
L 191.238862 -263.310133 
L 188.482134 -267.37213 
L 185.567861 -271.434128 
L 182.286501 -275.496126 
L 178.588954 -279.558123 
L 174.647918 -283.620121 
L 170.847067 -287.682118 
L 167.690841 -291.744116 
L 165.659634 -295.806113 
L 165.06 -299.868111 
L 165.92391 -303.930109 
L 167.992502 -307.992106 
L 170.787609 -312.054104 
L 173.742835 -316.116101 
L 176.346546 -320.178099 
L 178.247904 -324.240097 
L 179.295069 -328.302094 
L 179.506867 -332.364092 
L 179.011466 -336.426089 
L 177.998311 -340.488087 
L 176.710902 -344.550085 
L 175.467693 -348.612082 
L 174.666242 -352.67408 
L 174.729723 -356.736077 
L 175.99635 -360.798075 
L 178.601108 -364.860072 
L 182.416637 -368.92207 
L 187.090796 -372.984068 
L 192.162979 -377.046065 
L 197.199249 -381.108063 
L 201.885103 -385.17006 
L 206.049534 -389.232058 
L 209.636162 -393.294056 
L 212.658175 -397.356053 
L 215.165728 -401.418051 
L 217.2315 -405.480048 
L 218.943459 -409.542046 
L 220.39413 -413.604043 
L 221.667275 -417.666041 
L 222.831489 -421.728039 
L 223.946724 -425.790036 
L 225.077761 -429.852034 
L 226.300239 -433.914031 
L 227.688861 -437.976029 
L 229.291085 -442.038027 
L 231.101736 -446.100024 
L 233.054779 -450.162022 
L 235.038045 -454.224019 
L 236.923677 -458.286017 
L 238.600308 -462.348014 
L 239.995201 -466.410012 
L 241.081697 -470.47201 
L 241.873977 -474.534007 
L 242.414351 -478.596005 
L 242.75851 -482.658002 
L 242.962757 -486.72 
L 243.397243 -486.72 
L 243.397243 -486.72 
L 243.60149 -482.658002 
L 243.945649 -478.596005 
L 244.486023 -474.534007 
L 245.278303 -470.47201 
L 246.364799 -466.410012 
L 247.759692 -462.348014 
L 249.436323 -458.286017 
L 251.321955 -454.224019 
L 253.305221 -450.162022 
L 255.258264 -446.100024 
L 257.068915 -442.038027 
L 258.671139 -437.976029 
L 260.059761 -433.914031 
L 261.282239 -429.852034 
L 262.413276 -425.790036 
L 263.528511 -421.728039 
L 264.692725 -417.666041 
L 265.96587 -413.604043 
L 267.416541 -409.542046 
L 269.1285 -405.480048 
L 271.194272 -401.418051 
L 273.701825 -397.356053 
L 276.723838 -393.294056 
L 280.310466 -389.232058 
L 284.474897 -385.17006 
L 289.160751 -381.108063 
L 294.197021 -377.046065 
L 299.269204 -372.984068 
L 303.943363 -368.92207 
L 307.758892 -364.860072 
L 310.36365 -360.798075 
L 311.630277 -356.736077 
L 311.693758 -352.67408 
L 310.892307 -348.612082 
L 309.649098 -344.550085 
L 308.361689 -340.488087 
L 307.348534 -336.426089 
L 306.853133 -332.364092 
L 307.064931 -328.302094 
L 308.112096 -324.240097 
L 310.013454 -320.178099 
L 312.617165 -316.116101 
L 315.572391 -312.054104 
L 318.367498 -307.992106 
L 320.43609 -303.930109 
L 321.3 -299.868111 
L 320.700366 -295.806113 
L 318.669159 -291.744116 
L 315.512933 -287.682118 
L 311.712082 -283.620121 
L 307.771046 -279.558123 
L 304.073499 -275.496126 
L 300.792139 -271.434128 
L 297.877866 -267.37213 
L 295.121138 -263.310133 
L 292.254489 -259.248135 
L 289.057249 -255.186138 
L 285.429898 -251.12414 
L 281.419749 -247.062142 
L 277.196522 -243.000145 
L 272.99203 -238.938147 
L 269.028961 -234.87615 
L 265.465057 -230.814152 
L 262.369358 -226.752155 
L 259.731147 -222.690157 
L 257.488501 -218.628159 
L 255.559247 -214.566162 
L 253.863002 -210.504164 
L 252.332624 -206.442167 
L 250.91947 -202.380169 
L 249.596507 -198.318171 
L 248.359417 -194.256174 
L 247.223391 -190.194176 
L 246.214568 -186.132179 
L 245.35846 -182.070181 
L 244.669783 -178.008184 
L 244.147359 -173.946186 
L 243.775034 -169.884188 
L 243.526979 -165.822191 
L 243.374702 -161.760193 
L 243.293605 -157.698196 
L 243.267999 -153.636198 
L 243.294201 -149.5742 
L 243.381316 -145.512203 
L 243.548564 -141.450205 
L 243.817698 -137.388208 
L 244.200226 -133.32621 
L 244.68233 -129.264212 
L 245.214276 -125.202215 
L 245.71247 -121.140217 
L 246.07835 -117.07822 
L 246.229479 -113.016222 
L 246.129632 -108.954225 
L 245.802875 -104.892227 
L 245.324147 -100.830229 
L 244.791383 -96.768232 
L 244.293295 -92.706234 
L 243.887113 -88.644237 
L 243.592891 -84.582239 
z
" style="stroke: #4c4c4c; stroke-width: 1.5"/>
    </defs>
    <g clip-path="url(#pc120695b92)">
     <use xlink:href="#ma33ebadfb4" x="0" y="576" style="fill: #5875a4; stroke: #4c4c4c; stroke-width: 1.5"/>
    </g>
   </g>
   <g id="patch_4">
    <path d="M 321.3 463.407262 
L 321.3 463.407262 
L 321.3 463.407262 
L 321.3 463.407262 
z
" clip-path="url(#pc120695b92)" style="fill: #cc8963; stroke: #4c4c4c; stroke-width: 0.75; stroke-linejoin: miter"/>
   </g>
   <g id="PolyCollection_2">
    <defs>
     <path id="ma427e81346" d="M 399.820174 -83.692107 
L 399.019826 -83.692107 
L 398.745254 -87.751953 
L 398.368641 -91.811799 
L 397.906154 -95.871645 
L 397.405664 -99.931491 
L 396.943134 -103.991337 
L 396.605534 -108.051184 
L 396.464576 -112.11103 
L 396.551883 -116.170876 
L 396.847234 -120.230722 
L 397.285666 -124.290568 
L 397.779694 -128.350414 
L 398.245747 -132.41026 
L 398.623403 -136.470106 
L 398.88154 -140.529952 
L 399.012935 -144.589798 
L 399.023425 -148.649644 
L 398.921927 -152.70949 
L 398.714536 -156.769337 
L 398.402471 -160.829183 
L 397.981807 -164.889029 
L 397.443293 -168.948875 
L 396.772321 -173.008721 
L 395.950554 -177.068567 
L 394.960691 -181.128413 
L 393.793833 -185.188259 
L 392.456218 -189.248105 
L 390.970531 -193.307951 
L 389.368163 -197.367797 
L 387.672643 -201.427643 
L 385.879302 -205.487489 
L 383.939832 -209.547336 
L 381.760951 -213.607182 
L 379.223315 -217.667028 
L 376.220394 -221.726874 
L 372.708586 -225.78672 
L 368.75189 -229.846566 
L 364.54083 -233.906412 
L 360.369649 -237.966258 
L 356.569431 -242.026104 
L 353.413782 -246.08595 
L 351.029636 -250.145796 
L 349.349186 -254.205642 
L 348.125608 -258.265489 
L 347.009944 -262.325335 
L 345.661169 -266.385181 
L 343.848837 -270.445027 
L 341.513379 -274.504873 
L 338.769095 -278.564719 
L 335.857735 -282.624565 
L 333.075524 -286.684411 
L 330.69916 -290.744257 
L 328.929891 -294.804103 
L 327.865664 -298.863949 
L 327.503187 -302.923795 
L 327.764532 -306.983642 
L 328.535515 -311.043488 
L 329.697999 -315.103334 
L 331.14025 -319.16318 
L 332.741211 -323.223026 
L 334.342248 -327.282872 
L 335.733585 -331.342718 
L 336.681741 -335.402564 
L 337.004885 -339.46241 
L 336.672389 -343.522256 
L 335.879934 -347.582102 
L 335.049889 -351.641948 
L 334.73533 -355.701795 
L 335.453373 -359.761641 
L 337.51383 -363.821487 
L 340.917377 -367.881333 
L 345.366283 -371.941179 
L 350.377266 -376.001025 
L 355.440872 -380.060871 
L 360.159074 -384.120717 
L 364.314723 -388.180563 
L 367.865021 -392.240409 
L 370.882681 -396.300255 
L 373.48026 -400.360101 
L 375.747671 -404.419948 
L 377.720308 -408.479794 
L 379.383091 -412.53964 
L 380.705002 -416.599486 
L 381.688271 -420.659332 
L 382.408534 -424.719178 
L 383.023034 -428.779024 
L 383.736968 -432.83887 
L 384.739101 -436.898716 
L 386.135141 -440.958562 
L 387.910036 -445.018408 
L 389.935823 -449.078254 
L 392.018969 -453.138101 
L 393.963579 -457.197947 
L 395.623679 -461.257793 
L 396.928034 -465.317639 
L 397.876357 -469.377485 
L 398.517244 -473.437331 
L 398.921355 -477.497177 
L 399.15981 -481.557023 
L 399.291772 -485.616869 
L 399.548228 -485.616869 
L 399.548228 -485.616869 
L 399.68019 -481.557023 
L 399.918645 -477.497177 
L 400.322756 -473.437331 
L 400.963643 -469.377485 
L 401.911966 -465.317639 
L 403.216321 -461.257793 
L 404.876421 -457.197947 
L 406.821031 -453.138101 
L 408.904177 -449.078254 
L 410.929964 -445.018408 
L 412.704859 -440.958562 
L 414.100899 -436.898716 
L 415.103032 -432.83887 
L 415.816966 -428.779024 
L 416.431466 -424.719178 
L 417.151729 -420.659332 
L 418.134998 -416.599486 
L 419.456909 -412.53964 
L 421.119692 -408.479794 
L 423.092329 -404.419948 
L 425.35974 -400.360101 
L 427.957319 -396.300255 
L 430.974979 -392.240409 
L 434.525277 -388.180563 
L 438.680926 -384.120717 
L 443.399128 -380.060871 
L 448.462734 -376.001025 
L 453.473717 -371.941179 
L 457.922623 -367.881333 
L 461.32617 -363.821487 
L 463.386627 -359.761641 
L 464.10467 -355.701795 
L 463.790111 -351.641948 
L 462.960066 -347.582102 
L 462.167611 -343.522256 
L 461.835115 -339.46241 
L 462.158259 -335.402564 
L 463.106415 -331.342718 
L 464.497752 -327.282872 
L 466.098789 -323.223026 
L 467.69975 -319.16318 
L 469.142001 -315.103334 
L 470.304485 -311.043488 
L 471.075468 -306.983642 
L 471.336813 -302.923795 
L 470.974336 -298.863949 
L 469.910109 -294.804103 
L 468.14084 -290.744257 
L 465.764476 -286.684411 
L 462.982265 -282.624565 
L 460.070905 -278.564719 
L 457.326621 -274.504873 
L 454.991163 -270.445027 
L 453.178831 -266.385181 
L 451.830056 -262.325335 
L 450.714392 -258.265489 
L 449.490814 -254.205642 
L 447.810364 -250.145796 
L 445.426218 -246.08595 
L 442.270569 -242.026104 
L 438.470351 -237.966258 
L 434.29917 -233.906412 
L 430.08811 -229.846566 
L 426.131414 -225.78672 
L 422.619606 -221.726874 
L 419.616685 -217.667028 
L 417.079049 -213.607182 
L 414.900168 -209.547336 
L 412.960698 -205.487489 
L 411.167357 -201.427643 
L 409.471837 -197.367797 
L 407.869469 -193.307951 
L 406.383782 -189.248105 
L 405.046167 -185.188259 
L 403.879309 -181.128413 
L 402.889446 -177.068567 
L 402.067679 -173.008721 
L 401.396707 -168.948875 
L 400.858193 -164.889029 
L 400.437529 -160.829183 
L 400.125464 -156.769337 
L 399.918073 -152.70949 
L 399.816575 -148.649644 
L 399.827065 -144.589798 
L 399.95846 -140.529952 
L 400.216597 -136.470106 
L 400.594253 -132.41026 
L 401.060306 -128.350414 
L 401.554334 -124.290568 
L 401.992766 -120.230722 
L 402.288117 -116.170876 
L 402.375424 -112.11103 
L 402.234466 -108.051184 
L 401.896866 -103.991337 
L 401.434336 -99.931491 
L 400.933846 -95.871645 
L 400.471359 -91.811799 
L 400.094746 -87.751953 
L 399.820174 -83.692107 
z
" style="stroke: #4c4c4c; stroke-width: 1.5"/>
    </defs>
    <g clip-path="url(#pc120695b92)">
     <use xlink:href="#ma427e81346" x="0" y="576" style="fill: #cc8963; stroke: #4c4c4c; stroke-width: 1.5"/>
    </g>
   </g>
   <g id="PolyCollection_3">
    <defs>
     <path id="ma1d9c0e07f" d="M 633.923592 -150.595739 
L 633.636408 -150.595739 
L 633.53524 -153.926864 
L 633.383734 -157.257988 
L 633.169547 -160.589113 
L 632.883176 -163.920238 
L 632.520054 -167.251362 
L 632.08147 -170.582487 
L 631.573523 -173.913612 
L 631.003914 -177.244736 
L 630.37717 -180.575861 
L 629.689672 -183.906986 
L 628.926124 -187.23811 
L 628.058776 -190.569235 
L 627.049908 -193.90036 
L 625.857139 -197.231484 
L 624.44032 -200.562609 
L 622.768418 -203.893734 
L 620.824706 -207.224858 
L 618.608982 -210.555983 
L 616.136244 -213.887108 
L 613.432428 -217.218232 
L 610.529049 -220.549357 
L 607.459251 -223.880482 
L 604.257274 -227.211606 
L 600.9615 -230.542731 
L 597.618833 -233.873856 
L 594.286678 -237.20498 
L 591.029385 -240.536105 
L 587.908787 -243.86723 
L 584.97203 -247.198354 
L 582.242044 -250.529479 
L 579.71525 -253.860604 
L 577.367617 -257.191728 
L 575.165904 -260.522853 
L 573.078459 -263.853978 
L 571.080831 -267.185102 
L 569.155165 -270.516227 
L 567.286605 -273.847352 
L 565.46191 -277.178476 
L 563.673828 -280.509601 
L 561.930497 -283.840726 
L 560.264895 -287.17185 
L 558.738107 -290.502975 
L 557.432707 -293.8341 
L 556.43756 -297.165224 
L 555.82968 -300.496349 
L 555.66 -303.827474 
L 555.947269 -307.158598 
L 556.679419 -310.489723 
L 557.81757 -313.820847 
L 559.296932 -317.151972 
L 561.022059 -320.483097 
L 562.85969 -323.814221 
L 564.637379 -327.145346 
L 566.156777 -330.476471 
L 567.2254 -333.807595 
L 567.701762 -337.13872 
L 567.540594 -340.469845 
L 566.821916 -343.800969 
L 565.752004 -347.132094 
L 564.633533 -350.463219 
L 563.812061 -353.794343 
L 563.612331 -357.125468 
L 564.279197 -360.456593 
L 565.935437 -363.787717 
L 568.564112 -367.118842 
L 572.018043 -370.449967 
L 576.053735 -373.781091 
L 580.382126 -377.112216 
L 584.724842 -380.443341 
L 588.863321 -383.774465 
L 592.669975 -387.10559 
L 596.115097 -390.436715 
L 599.249187 -393.767839 
L 602.166454 -397.098964 
L 604.959933 -400.430089 
L 607.681035 -403.761213 
L 610.315438 -407.092338 
L 612.782748 -410.423463 
L 614.960229 -413.754587 
L 616.723213 -417.085712 
L 617.989355 -420.416837 
L 618.752692 -423.747961 
L 619.096887 -427.079086 
L 619.183642 -430.410211 
L 619.219628 -433.741335 
L 619.411267 -437.07246 
L 619.919706 -440.403585 
L 620.827922 -443.734709 
L 622.128129 -447.065834 
L 623.731664 -450.396959 
L 625.496939 -453.728083 
L 627.266112 -457.059208 
L 628.899587 -460.390333 
L 630.299651 -463.721457 
L 631.41935 -467.052582 
L 632.257892 -470.383707 
L 632.847455 -473.714831 
L 633.237332 -477.045956 
L 633.480168 -480.377081 
L 634.079832 -480.377081 
L 634.079832 -480.377081 
L 634.322668 -477.045956 
L 634.712545 -473.714831 
L 635.302108 -470.383707 
L 636.14065 -467.052582 
L 637.260349 -463.721457 
L 638.660413 -460.390333 
L 640.293888 -457.059208 
L 642.063061 -453.728083 
L 643.828336 -450.396959 
L 645.431871 -447.065834 
L 646.732078 -443.734709 
L 647.640294 -440.403585 
L 648.148733 -437.07246 
L 648.340372 -433.741335 
L 648.376358 -430.410211 
L 648.463113 -427.079086 
L 648.807308 -423.747961 
L 649.570645 -420.416837 
L 650.836787 -417.085712 
L 652.599771 -413.754587 
L 654.777252 -410.423463 
L 657.244562 -407.092338 
L 659.878965 -403.761213 
L 662.600067 -400.430089 
L 665.393546 -397.098964 
L 668.310813 -393.767839 
L 671.444903 -390.436715 
L 674.890025 -387.10559 
L 678.696679 -383.774465 
L 682.835158 -380.443341 
L 687.177874 -377.112216 
L 691.506265 -373.781091 
L 695.541957 -370.449967 
L 698.995888 -367.118842 
L 701.624563 -363.787717 
L 703.280803 -360.456593 
L 703.947669 -357.125468 
L 703.747939 -353.794343 
L 702.926467 -350.463219 
L 701.807996 -347.132094 
L 700.738084 -343.800969 
L 700.019406 -340.469845 
L 699.858238 -337.13872 
L 700.3346 -333.807595 
L 701.403223 -330.476471 
L 702.922621 -327.145346 
L 704.70031 -323.814221 
L 706.537941 -320.483097 
L 708.263068 -317.151972 
L 709.74243 -313.820847 
L 710.880581 -310.489723 
L 711.612731 -307.158598 
L 711.9 -303.827474 
L 711.73032 -300.496349 
L 711.12244 -297.165224 
L 710.127293 -293.8341 
L 708.821893 -290.502975 
L 707.295105 -287.17185 
L 705.629503 -283.840726 
L 703.886172 -280.509601 
L 702.09809 -277.178476 
L 700.273395 -273.847352 
L 698.404835 -270.516227 
L 696.479169 -267.185102 
L 694.481541 -263.853978 
L 692.394096 -260.522853 
L 690.192383 -257.191728 
L 687.84475 -253.860604 
L 685.317956 -250.529479 
L 682.58797 -247.198354 
L 679.651213 -243.86723 
L 676.530615 -240.536105 
L 673.273322 -237.20498 
L 669.941167 -233.873856 
L 666.5985 -230.542731 
L 663.302726 -227.211606 
L 660.100749 -223.880482 
L 657.030951 -220.549357 
L 654.127572 -217.218232 
L 651.423756 -213.887108 
L 648.951018 -210.555983 
L 646.735294 -207.224858 
L 644.791582 -203.893734 
L 643.11968 -200.562609 
L 641.702861 -197.231484 
L 640.510092 -193.90036 
L 639.501224 -190.569235 
L 638.633876 -187.23811 
L 637.870328 -183.906986 
L 637.18283 -180.575861 
L 636.556086 -177.244736 
L 635.986477 -173.913612 
L 635.47853 -170.582487 
L 635.039946 -167.251362 
L 634.676824 -163.920238 
L 634.390453 -160.589113 
L 634.176266 -157.257988 
L 634.02476 -153.926864 
L 633.923592 -150.595739 
z
" style="stroke: #4c4c4c; stroke-width: 1.5"/>
    </defs>
    <g clip-path="url(#pc120695b92)">
     <use xlink:href="#ma1d9c0e07f" x="0" y="576" style="fill: #5875a4; stroke: #4c4c4c; stroke-width: 1.5"/>
    </g>
   </g>
   <g id="PolyCollection_4">
    <defs>
     <path id="m2f48054b7a" d="M 790.690196 -83.52 
L 789.349804 -83.52 
L 788.897619 -87.546594 
L 788.279173 -91.573188 
L 787.51938 -95.599782 
L 786.693279 -99.626377 
L 785.921151 -103.652971 
L 785.342819 -107.679565 
L 785.077079 -111.706159 
L 785.182048 -115.732753 
L 785.634464 -119.759347 
L 786.337986 -123.785941 
L 787.156355 -127.812536 
L 787.95562 -131.83913 
L 788.637341 -135.865724 
L 789.151873 -139.892318 
L 789.491928 -143.918912 
L 789.674696 -147.945506 
L 789.722767 -151.972101 
L 789.651007 -155.998695 
L 789.461797 -160.025289 
L 789.147334 -164.051883 
L 788.695815 -168.078477 
L 788.098062 -172.105071 
L 787.351814 -176.131665 
L 786.46224 -180.15826 
L 785.438706 -184.184854 
L 784.289022 -188.211448 
L 783.012973 -192.238042 
L 781.596885 -196.264636 
L 780.010809 -200.29123 
L 778.209825 -204.317824 
L 776.140608 -208.344419 
L 773.753222 -212.371013 
L 771.016088 -216.397607 
L 767.930129 -220.424201 
L 764.537469 -224.450795 
L 760.921195 -228.477389 
L 757.194962 -232.503983 
L 753.48351 -236.530578 
L 749.897256 -240.557172 
L 746.506329 -244.583766 
L 743.321761 -248.61036 
L 740.292221 -252.636954 
L 737.321606 -256.663548 
L 734.305359 -260.690143 
L 731.174682 -264.716737 
L 727.932648 -268.743331 
L 724.66825 -272.769925 
L 721.542638 -276.796519 
L 718.752108 -280.823113 
L 716.480064 -284.849707 
L 714.853199 -288.876302 
L 713.915403 -292.902896 
L 713.627007 -296.92949 
L 713.887647 -300.956084 
L 714.571223 -304.982678 
L 715.555973 -309.009272 
L 716.735877 -313.035866 
L 718.010681 -317.062461 
L 719.264958 -321.089055 
L 720.354187 -325.115649 
L 721.114056 -329.142243 
L 721.398881 -333.168837 
L 721.140744 -337.195431 
L 720.408138 -341.222025 
L 719.436962 -345.24862 
L 718.611679 -349.275214 
L 718.390783 -353.301808 
L 719.193405 -357.328402 
L 721.282963 -361.354996 
L 724.689243 -365.38159 
L 729.197936 -369.408185 
L 734.411374 -373.434779 
L 739.857667 -377.461373 
L 745.109584 -381.487967 
L 749.874875 -385.514561 
L 754.033895 -389.541155 
L 757.620401 -393.567749 
L 760.759544 -397.594344 
L 763.588726 -401.620938 
L 766.190342 -405.647532 
L 768.560164 -409.674126 
L 770.621755 -413.70072 
L 772.279076 -417.727314 
L 773.483063 -421.753908 
L 774.281244 -425.780503 
L 774.826734 -429.807097 
L 775.341388 -433.833691 
L 776.048495 -437.860285 
L 777.103146 -441.886879 
L 778.547718 -445.913473 
L 780.307458 -449.940067 
L 782.223655 -453.966662 
L 784.107867 -457.993256 
L 785.795424 -462.01985 
L 787.180824 -466.046444 
L 788.227997 -470.073038 
L 788.959021 -474.099632 
L 789.431348 -478.126227 
L 789.714217 -482.152821 
L 790.325783 -482.152821 
L 790.325783 -482.152821 
L 790.608652 -478.126227 
L 791.080979 -474.099632 
L 791.812003 -470.073038 
L 792.859176 -466.046444 
L 794.244576 -462.01985 
L 795.932133 -457.993256 
L 797.816345 -453.966662 
L 799.732542 -449.940067 
L 801.492282 -445.913473 
L 802.936854 -441.886879 
L 803.991505 -437.860285 
L 804.698612 -433.833691 
L 805.213266 -429.807097 
L 805.758756 -425.780503 
L 806.556937 -421.753908 
L 807.760924 -417.727314 
L 809.418245 -413.70072 
L 811.479836 -409.674126 
L 813.849658 -405.647532 
L 816.451274 -401.620938 
L 819.280456 -397.594344 
L 822.419599 -393.567749 
L 826.006105 -389.541155 
L 830.165125 -385.514561 
L 834.930416 -381.487967 
L 840.182333 -377.461373 
L 845.628626 -373.434779 
L 850.842064 -369.408185 
L 855.350757 -365.38159 
L 858.757037 -361.354996 
L 860.846595 -357.328402 
L 861.649217 -353.301808 
L 861.428321 -349.275214 
L 860.603038 -345.24862 
L 859.631862 -341.222025 
L 858.899256 -337.195431 
L 858.641119 -333.168837 
L 858.925944 -329.142243 
L 859.685813 -325.115649 
L 860.775042 -321.089055 
L 862.029319 -317.062461 
L 863.304123 -313.035866 
L 864.484027 -309.009272 
L 865.468777 -304.982678 
L 866.152353 -300.956084 
L 866.412993 -296.92949 
L 866.124597 -292.902896 
L 865.186801 -288.876302 
L 863.559936 -284.849707 
L 861.287892 -280.823113 
L 858.497362 -276.796519 
L 855.37175 -272.769925 
L 852.107352 -268.743331 
L 848.865318 -264.716737 
L 845.734641 -260.690143 
L 842.718394 -256.663548 
L 839.747779 -252.636954 
L 836.718239 -248.61036 
L 833.533671 -244.583766 
L 830.142744 -240.557172 
L 826.55649 -236.530578 
L 822.845038 -232.503983 
L 819.118805 -228.477389 
L 815.502531 -224.450795 
L 812.109871 -220.424201 
L 809.023912 -216.397607 
L 806.286778 -212.371013 
L 803.899392 -208.344419 
L 801.830175 -204.317824 
L 800.029191 -200.29123 
L 798.443115 -196.264636 
L 797.027027 -192.238042 
L 795.750978 -188.211448 
L 794.601294 -184.184854 
L 793.57776 -180.15826 
L 792.688186 -176.131665 
L 791.941938 -172.105071 
L 791.344185 -168.078477 
L 790.892666 -164.051883 
L 790.578203 -160.025289 
L 790.388993 -155.998695 
L 790.317233 -151.972101 
L 790.365304 -147.945506 
L 790.548072 -143.918912 
L 790.888127 -139.892318 
L 791.402659 -135.865724 
L 792.08438 -131.83913 
L 792.883645 -127.812536 
L 793.702014 -123.785941 
L 794.405536 -119.759347 
L 794.857952 -115.732753 
L 794.962921 -111.706159 
L 794.697181 -107.679565 
L 794.118849 -103.652971 
L 793.346721 -99.626377 
L 792.52062 -95.599782 
L 791.760827 -91.573188 
L 791.142381 -87.546594 
L 790.690196 -83.52 
z
" style="stroke: #4c4c4c; stroke-width: 1.5"/>
    </defs>
    <g clip-path="url(#pc120695b92)">
     <use xlink:href="#m2f48054b7a" x="0" y="576" style="fill: #cc8963; stroke: #4c4c4c; stroke-width: 1.5"/>
    </g>
   </g>
   <g id="line2d_7">
    <path d="M 243.18 389.439019 
L 243.18 117.290499 
" clip-path="url(#pc120695b92)" style="fill: none; stroke: #4c4c4c; stroke-width: 1.5; stroke-linecap: round"/>
   </g>
   <g id="line2d_8">
    <path d="M 243.18 292.990521 
L 243.18 214.617386 
" clip-path="url(#pc120695b92)" style="fill: none; stroke: #4c4c4c; stroke-width: 4.5; stroke-linecap: round"/>
   </g>
   <g id="line2d_9">
    <path d="M 399.42 407.048519 
L 399.42 119.283762 
" clip-path="url(#pc120695b92)" style="fill: none; stroke: #4c4c4c; stroke-width: 1.5; stroke-linecap: round"/>
   </g>
   <g id="line2d_10">
    <path d="M 399.42 302.144364 
L 399.42 216.764497 
" clip-path="url(#pc120695b92)" style="fill: none; stroke: #4c4c4c; stroke-width: 4.5; stroke-linecap: round"/>
   </g>
   <g id="line2d_11">
    <path d="M 633.78 398.507704 
L 633.78 122.519476 
" clip-path="url(#pc120695b92)" style="fill: none; stroke: #4c4c4c; stroke-width: 1.5; stroke-linecap: round"/>
   </g>
   <g id="line2d_12">
    <path d="M 633.78 301.107474 
L 633.78 216.73011 
" clip-path="url(#pc120695b92)" style="fill: none; stroke: #4c4c4c; stroke-width: 4.5; stroke-linecap: round"/>
   </g>
   <g id="line2d_13">
    <path d="M 790.02 396.309649 
L 790.02 122.919918 
" clip-path="url(#pc120695b92)" style="fill: none; stroke: #4c4c4c; stroke-width: 1.5; stroke-linecap: round"/>
   </g>
   <g id="line2d_14">
    <path d="M 790.02 301.246064 
L 790.02 218.231999 
" clip-path="url(#pc120695b92)" style="fill: none; stroke: #4c4c4c; stroke-width: 4.5; stroke-linecap: round"/>
   </g>
   <g id="patch_5">
    <path d="M 126 512.64 
L 126 69.12 
" style="fill: none; stroke: #cccccc; stroke-width: 1.25; stroke-linejoin: miter; stroke-linecap: square"/>
   </g>
   <g id="patch_6">
    <path d="M 907.2 512.64 
L 907.2 69.12 
" style="fill: none; stroke: #cccccc; stroke-width: 1.25; stroke-linejoin: miter; stroke-linecap: square"/>
   </g>
   <g id="patch_7">
    <path d="M 126 512.64 
L 907.2 512.64 
" style="fill: none; stroke: #cccccc; stroke-width: 1.25; stroke-linejoin: miter; stroke-linecap: square"/>
   </g>
   <g id="patch_8">
    <path d="M 126 69.12 
L 907.2 69.12 
" style="fill: none; stroke: #cccccc; stroke-width: 1.25; stroke-linejoin: miter; stroke-linecap: square"/>
   </g>
   <g id="PathCollection_1">
    <defs>
     <path id="m3f99f9e36d" d="M 0 1.5 
C 0.397805 1.5 0.77937 1.341951 1.06066 1.06066 
C 1.341951 0.77937 1.5 0.397805 1.5 0 
C 1.5 -0.397805 1.341951 -0.77937 1.06066 -1.06066 
C 0.77937 -1.341951 0.397805 -1.5 0 -1.5 
C -0.397805 -1.5 -0.77937 -1.341951 -1.06066 -1.06066 
C -1.341951 -0.77937 -1.5 -0.397805 -1.5 0 
C -1.5 0.397805 -1.341951 0.77937 -1.06066 1.06066 
C -0.77937 1.341951 -0.397805 1.5 0 1.5 
z
" style="stroke: #4c4c4c"/>
    </defs>
    <g clip-path="url(#pc120695b92)">
     <use xlink:href="#m3f99f9e36d" x="243.18" y="258.85003" style="fill: #ffffff; stroke: #4c4c4c"/>
    </g>
   </g>
   <g id="PathCollection_2">
    <g clip-path="url(#pc120695b92)">
     <use xlink:href="#m3f99f9e36d" x="399.42" y="261.385447" style="fill: #ffffff; stroke: #4c4c4c"/>
    </g>
   </g>
   <g id="PathCollection_3">
    <g clip-path="url(#pc120695b92)">
     <use xlink:href="#m3f99f9e36d" x="633.78" y="261.739614" style="fill: #ffffff; stroke: #4c4c4c"/>
    </g>
   </g>
   <g id="PathCollection_4">
    <g clip-path="url(#pc120695b92)">
     <use xlink:href="#m3f99f9e36d" x="790.02" y="262.086082" style="fill: #ffffff; stroke: #4c4c4c"/>
    </g>
   </g>
   <g id="legend_1">
    <g id="patch_9">
     <path d="M 803.7725 125.514063 
L 899.5 125.514063 
Q 901.7 125.514063 901.7 123.314063 
L 901.7 76.82 
Q 901.7 74.62 899.5 74.62 
L 803.7725 74.62 
Q 801.5725 74.62 801.5725 76.82 
L 801.5725 123.314063 
Q 801.5725 125.514063 803.7725 125.514063 
z
" style="fill: #ffffff; opacity: 0.8; stroke: #cccccc; stroke-linejoin: miter"/>
    </g>
    <g id="text_11">
     <!-- Treatment -->
     <g style="fill: #262626" transform="translate(824.520937 87.609375)scale(0.12 -0.12)">
      <defs>
       <path id="ArialMT-54" d="M 1659 0 
L 1659 4041 
L 150 4041 
L 150 4581 
L 3781 4581 
L 3781 4041 
L 2266 4041 
L 2266 0 
L 1659 0 
z
" transform="scale(0.015625)"/>
       <path id="ArialMT-74" d="M 1650 503 
L 1731 6 
Q 1494 -44 1306 -44 
Q 1000 -44 831 53 
Q 663 150 594 308 
Q 525 466 525 972 
L 525 2881 
L 113 2881 
L 113 3319 
L 525 3319 
L 525 4141 
L 1084 4478 
L 1084 3319 
L 1650 3319 
L 1650 2881 
L 1084 2881 
L 1084 941 
Q 1084 700 1114 631 
Q 1144 563 1211 522 
Q 1278 481 1403 481 
Q 1497 481 1650 503 
z
" transform="scale(0.015625)"/>
       <path id="ArialMT-6d" d="M 422 0 
L 422 3319 
L 925 3319 
L 925 2853 
Q 1081 3097 1340 3245 
Q 1600 3394 1931 3394 
Q 2300 3394 2536 3241 
Q 2772 3088 2869 2813 
Q 3263 3394 3894 3394 
Q 4388 3394 4653 3120 
Q 4919 2847 4919 2278 
L 4919 0 
L 4359 0 
L 4359 2091 
Q 4359 2428 4304 2576 
Q 4250 2725 4106 2815 
Q 3963 2906 3769 2906 
Q 3419 2906 3187 2673 
Q 2956 2441 2956 1928 
L 2956 0 
L 2394 0 
L 2394 2156 
Q 2394 2531 2256 2718 
Q 2119 2906 1806 2906 
Q 1569 2906 1367 2781 
Q 1166 2656 1075 2415 
Q 984 2175 984 1722 
L 984 0 
L 422 0 
z
" transform="scale(0.015625)"/>
       <path id="ArialMT-6e" d="M 422 0 
L 422 3319 
L 928 3319 
L 928 2847 
Q 1294 3394 1984 3394 
Q 2284 3394 2536 3286 
Q 2788 3178 2913 3003 
Q 3038 2828 3088 2588 
Q 3119 2431 3119 2041 
L 3119 0 
L 2556 0 
L 2556 2019 
Q 2556 2363 2490 2533 
Q 2425 2703 2258 2804 
Q 2091 2906 1866 2906 
Q 1506 2906 1245 2678 
Q 984 2450 984 1813 
L 984 0 
L 422 0 
z
" transform="scale(0.015625)"/>
      </defs>
      <use xlink:href="#ArialMT-54"/>
      <use xlink:href="#ArialMT-72" x="57.333984"/>
      <use xlink:href="#ArialMT-65" x="90.634766"/>
      <use xlink:href="#ArialMT-61" x="146.25"/>
      <use xlink:href="#ArialMT-74" x="201.865234"/>
      <use xlink:href="#ArialMT-6d" x="229.648438"/>
      <use xlink:href="#ArialMT-65" x="312.949219"/>
      <use xlink:href="#ArialMT-6e" x="368.564453"/>
      <use xlink:href="#ArialMT-74" x="424.179688"/>
     </g>
    </g>
    <g id="patch_10">
     <path d="M 805.9725 103.367969 
L 827.9725 103.367969 
L 827.9725 95.667969 
L 805.9725 95.667969 
z
" style="fill: #5875a4; stroke: #4c4c4c; stroke-width: 0.75; stroke-linejoin: miter"/>
    </g>
    <g id="text_12">
     <!-- control -->
     <g style="fill: #262626" transform="translate(836.7725 103.367969)scale(0.11 -0.11)">
      <use xlink:href="#ArialMT-63"/>
      <use xlink:href="#ArialMT-6f" x="50"/>
      <use xlink:href="#ArialMT-6e" x="105.615234"/>
      <use xlink:href="#ArialMT-74" x="161.230469"/>
      <use xlink:href="#ArialMT-72" x="189.013672"/>
      <use xlink:href="#ArialMT-6f" x="222.314453"/>
      <use xlink:href="#ArialMT-6c" x="277.929688"/>
     </g>
    </g>
    <g id="patch_11">
     <path d="M 805.9725 118.927813 
L 827.9725 118.927813 
L 827.9725 111.227813 
L 805.9725 111.227813 
z
" style="fill: #cc8963; stroke: #4c4c4c; stroke-width: 0.75; stroke-linejoin: miter"/>
    </g>
    <g id="text_13">
     <!-- deltamethrin -->
     <g style="fill: #262626" transform="translate(836.7725 118.927813)scale(0.11 -0.11)">
      <defs>
       <path id="ArialMT-68" d="M 422 0 
L 422 4581 
L 984 4581 
L 984 2938 
Q 1378 3394 1978 3394 
Q 2347 3394 2619 3248 
Q 2891 3103 3008 2847 
Q 3125 2591 3125 2103 
L 3125 0 
L 2563 0 
L 2563 2103 
Q 2563 2525 2380 2717 
Q 2197 2909 1863 2909 
Q 1613 2909 1392 2779 
Q 1172 2650 1078 2428 
Q 984 2206 984 1816 
L 984 0 
L 422 0 
z
" transform="scale(0.015625)"/>
       <path id="ArialMT-69" d="M 425 3934 
L 425 4581 
L 988 4581 
L 988 3934 
L 425 3934 
z
M 425 0 
L 425 3319 
L 988 3319 
L 988 0 
L 425 0 
z
" transform="scale(0.015625)"/>
      </defs>
      <use xlink:href="#ArialMT-64"/>
      <use xlink:href="#ArialMT-65" x="55.615234"/>
      <use xlink:href="#ArialMT-6c" x="111.230469"/>
      <use xlink:href="#ArialMT-74" x="133.447266"/>
      <use xlink:href="#ArialMT-61" x="161.230469"/>
      <use xlink:href="#ArialMT-6d" x="216.845703"/>
      <use xlink:href="#ArialMT-65" x="300.146484"/>
      <use xlink:href="#ArialMT-74" x="355.761719"/>
      <use xlink:href="#ArialMT-68" x="383.544922"/>
      <use xlink:href="#ArialMT-72" x="439.160156"/>
      <use xlink:href="#ArialMT-69" x="472.460938"/>
      <use xlink:href="#ArialMT-6e" x="494.677734"/>
     </g>
    </g>
   </g>
  </g>
 </g>
 <defs>
  <clipPath id="pc120695b92">
   <rect x="126" y="69.12" width="781.2" height="443.52"/>
  </clipPath>
 </defs>
</svg>
