<?xml version="1.0" encoding="utf-8" standalone="no"?>
<!DOCTYPE svg PUBLIC "-//W3C//DTD SVG 1.1//EN"
  "http://www.w3.org/Graphics/SVG/1.1/DTD/svg11.dtd">
<svg xmlns:xlink="http://www.w3.org/1999/xlink" width="1008pt" height="576pt" viewBox="0 0 1008 576" xmlns="http://www.w3.org/2000/svg" version="1.1">
 <metadata>
  <rdf:RDF xmlns:dc="http://purl.org/dc/elements/1.1/" xmlns:cc="http://creativecommons.org/ns#" xmlns:rdf="http://www.w3.org/1999/02/22-rdf-syntax-ns#">
   <cc:Work>
    <dc:type rdf:resource="http://purl.org/dc/dcmitype/StillImage"/>
    <dc:date>2023-02-03T16:20:33.670931</dc:date>
    <dc:format>image/svg+xml</dc:format>
    <dc:creator>
     <cc:Agent>
      <dc:title>Matplotlib v3.5.1, https://matplotlib.org/</dc:title>
     </cc:Agent>
    </dc:creator>
   </cc:Work>
  </rdf:RDF>
 </metadata>
 <defs>
  <style type="text/css">*{stroke-linejoin: round; stroke-linecap: butt}</style>
 </defs>
 <g id="figure_1">
  <g id="patch_1">
   <path d="M 0 576 
L 1008 576 
L 1008 0 
L 0 0 
z
" style="fill: #ffffff"/>
  </g>
  <g id="axes_1">
   <g id="patch_2">
    <path d="M 126 504 
L 907.2 504 
L 907.2 69.12 
L 126 69.12 
z
" style="fill: #ffffff"/>
   </g>
   <g id="matplotlib.axis_1">
    <g id="xtick_1">
     <g id="text_1">
      <!-- 30 -->
      <g style="fill: #262626" transform="translate(315.182969 521.373594)scale(0.11 -0.11)">
       <defs>
        <path id="ArialMT-33" d="M 269 1209 
L 831 1284 
Q 928 806 1161 595 
Q 1394 384 1728 384 
Q 2125 384 2398 659 
Q 2672 934 2672 1341 
Q 2672 1728 2419 1979 
Q 2166 2231 1775 2231 
Q 1616 2231 1378 2169 
L 1441 2663 
Q 1497 2656 1531 2656 
Q 1891 2656 2178 2843 
Q 2466 3031 2466 3422 
Q 2466 3731 2256 3934 
Q 2047 4138 1716 4138 
Q 1388 4138 1169 3931 
Q 950 3725 888 3313 
L 325 3413 
Q 428 3978 793 4289 
Q 1159 4600 1703 4600 
Q 2078 4600 2393 4439 
Q 2709 4278 2876 4000 
Q 3044 3722 3044 3409 
Q 3044 3113 2884 2869 
Q 2725 2625 2413 2481 
Q 2819 2388 3044 2092 
Q 3269 1797 3269 1353 
Q 3269 753 2831 336 
Q 2394 -81 1725 -81 
Q 1122 -81 723 278 
Q 325 638 269 1209 
z
" transform="scale(0.015625)"/>
        <path id="ArialMT-30" d="M 266 2259 
Q 266 3072 433 3567 
Q 600 4063 929 4331 
Q 1259 4600 1759 4600 
Q 2128 4600 2406 4451 
Q 2684 4303 2865 4023 
Q 3047 3744 3150 3342 
Q 3253 2941 3253 2259 
Q 3253 1453 3087 958 
Q 2922 463 2592 192 
Q 2263 -78 1759 -78 
Q 1097 -78 719 397 
Q 266 969 266 2259 
z
M 844 2259 
Q 844 1131 1108 757 
Q 1372 384 1759 384 
Q 2147 384 2411 759 
Q 2675 1134 2675 2259 
Q 2675 3391 2411 3762 
Q 2147 4134 1753 4134 
Q 1366 4134 1134 3806 
Q 844 3388 844 2259 
z
" transform="scale(0.015625)"/>
       </defs>
       <use xlink:href="#ArialMT-33"/>
       <use xlink:href="#ArialMT-30" x="55.615234"/>
      </g>
     </g>
    </g>
    <g id="xtick_2">
     <g id="text_2">
      <!-- 60 -->
      <g style="fill: #262626" transform="translate(705.782969 521.373594)scale(0.11 -0.11)">
       <defs>
        <path id="ArialMT-36" d="M 3184 3459 
L 2625 3416 
Q 2550 3747 2413 3897 
Q 2184 4138 1850 4138 
Q 1581 4138 1378 3988 
Q 1113 3794 959 3422 
Q 806 3050 800 2363 
Q 1003 2672 1297 2822 
Q 1591 2972 1913 2972 
Q 2475 2972 2870 2558 
Q 3266 2144 3266 1488 
Q 3266 1056 3080 686 
Q 2894 316 2569 119 
Q 2244 -78 1831 -78 
Q 1128 -78 684 439 
Q 241 956 241 2144 
Q 241 3472 731 4075 
Q 1159 4600 1884 4600 
Q 2425 4600 2770 4297 
Q 3116 3994 3184 3459 
z
M 888 1484 
Q 888 1194 1011 928 
Q 1134 663 1356 523 
Q 1578 384 1822 384 
Q 2178 384 2434 671 
Q 2691 959 2691 1453 
Q 2691 1928 2437 2201 
Q 2184 2475 1800 2475 
Q 1419 2475 1153 2201 
Q 888 1928 888 1484 
z
" transform="scale(0.015625)"/>
       </defs>
       <use xlink:href="#ArialMT-36"/>
       <use xlink:href="#ArialMT-30" x="55.615234"/>
      </g>
     </g>
    </g>
    <g id="text_3">
     <!-- PND -->
     <g style="fill: #262626" transform="translate(503.931563 536.149219)scale(0.12 -0.12)">
      <defs>
       <path id="ArialMT-50" d="M 494 0 
L 494 4581 
L 2222 4581 
Q 2678 4581 2919 4538 
Q 3256 4481 3484 4323 
Q 3713 4166 3852 3881 
Q 3991 3597 3991 3256 
Q 3991 2672 3619 2267 
Q 3247 1863 2275 1863 
L 1100 1863 
L 1100 0 
L 494 0 
z
M 1100 2403 
L 2284 2403 
Q 2872 2403 3119 2622 
Q 3366 2841 3366 3238 
Q 3366 3525 3220 3729 
Q 3075 3934 2838 4000 
Q 2684 4041 2272 4041 
L 1100 4041 
L 1100 2403 
z
" transform="scale(0.015625)"/>
       <path id="ArialMT-4e" d="M 488 0 
L 488 4581 
L 1109 4581 
L 3516 984 
L 3516 4581 
L 4097 4581 
L 4097 0 
L 3475 0 
L 1069 3600 
L 1069 0 
L 488 0 
z
" transform="scale(0.015625)"/>
       <path id="ArialMT-44" d="M 494 0 
L 494 4581 
L 2072 4581 
Q 2606 4581 2888 4516 
Q 3281 4425 3559 4188 
Q 3922 3881 4101 3404 
Q 4281 2928 4281 2316 
Q 4281 1794 4159 1391 
Q 4038 988 3847 723 
Q 3656 459 3429 307 
Q 3203 156 2883 78 
Q 2563 0 2147 0 
L 494 0 
z
M 1100 541 
L 2078 541 
Q 2531 541 2789 625 
Q 3047 709 3200 863 
Q 3416 1078 3536 1442 
Q 3656 1806 3656 2325 
Q 3656 3044 3420 3430 
Q 3184 3816 2847 3947 
Q 2603 4041 2063 4041 
L 1100 4041 
L 1100 541 
z
" transform="scale(0.015625)"/>
      </defs>
      <use xlink:href="#ArialMT-50"/>
      <use xlink:href="#ArialMT-4e" x="66.699219"/>
      <use xlink:href="#ArialMT-44" x="138.916016"/>
     </g>
    </g>
   </g>
   <g id="matplotlib.axis_2">
    <g id="ytick_1">
     <g id="text_4">
      <!-- −6 -->
      <g style="fill: #262626" transform="translate(103.958281 424.800584)scale(0.11 -0.11)">
       <defs>
        <path id="ArialMT-2212" d="M 3381 1997 
L 356 1997 
L 356 2522 
L 3381 2522 
L 3381 1997 
z
" transform="scale(0.015625)"/>
       </defs>
       <use xlink:href="#ArialMT-2212"/>
       <use xlink:href="#ArialMT-36" x="58.398438"/>
      </g>
     </g>
    </g>
    <g id="ytick_2">
     <g id="text_5">
      <!-- −4 -->
      <g style="fill: #262626" transform="translate(103.958281 330.897936)scale(0.11 -0.11)">
       <defs>
        <path id="ArialMT-34" d="M 2069 0 
L 2069 1097 
L 81 1097 
L 81 1613 
L 2172 4581 
L 2631 4581 
L 2631 1613 
L 3250 1613 
L 3250 1097 
L 2631 1097 
L 2631 0 
L 2069 0 
z
M 2069 1613 
L 2069 3678 
L 634 1613 
L 2069 1613 
z
" transform="scale(0.015625)"/>
       </defs>
       <use xlink:href="#ArialMT-2212"/>
       <use xlink:href="#ArialMT-34" x="58.398438"/>
      </g>
     </g>
    </g>
    <g id="ytick_3">
     <g id="text_6">
      <!-- −2 -->
      <g style="fill: #262626" transform="translate(103.958281 236.995289)scale(0.11 -0.11)">
       <defs>
        <path id="ArialMT-32" d="M 3222 541 
L 3222 0 
L 194 0 
Q 188 203 259 391 
Q 375 700 629 1000 
Q 884 1300 1366 1694 
Q 2113 2306 2375 2664 
Q 2638 3022 2638 3341 
Q 2638 3675 2398 3904 
Q 2159 4134 1775 4134 
Q 1369 4134 1125 3890 
Q 881 3647 878 3216 
L 300 3275 
Q 359 3922 746 4261 
Q 1134 4600 1788 4600 
Q 2447 4600 2831 4234 
Q 3216 3869 3216 3328 
Q 3216 3053 3103 2787 
Q 2991 2522 2730 2228 
Q 2469 1934 1863 1422 
Q 1356 997 1212 845 
Q 1069 694 975 541 
L 3222 541 
z
" transform="scale(0.015625)"/>
       </defs>
       <use xlink:href="#ArialMT-2212"/>
       <use xlink:href="#ArialMT-32" x="58.398438"/>
      </g>
     </g>
    </g>
    <g id="ytick_4">
     <g id="text_7">
      <!-- 0 -->
      <g style="fill: #262626" transform="translate(110.382969 143.092642)scale(0.11 -0.11)">
       <use xlink:href="#ArialMT-30"/>
      </g>
     </g>
    </g>
    <g id="text_8">
     <!-- logNormalizedArea -->
     <g style="fill: #262626" transform="translate(97.432656 337.580625)rotate(-90)scale(0.12 -0.12)">
      <defs>
       <path id="ArialMT-6c" d="M 409 0 
L 409 4581 
L 972 4581 
L 972 0 
L 409 0 
z
" transform="scale(0.015625)"/>
       <path id="ArialMT-6f" d="M 213 1659 
Q 213 2581 725 3025 
Q 1153 3394 1769 3394 
Q 2453 3394 2887 2945 
Q 3322 2497 3322 1706 
Q 3322 1066 3130 698 
Q 2938 331 2570 128 
Q 2203 -75 1769 -75 
Q 1072 -75 642 372 
Q 213 819 213 1659 
z
M 791 1659 
Q 791 1022 1069 705 
Q 1347 388 1769 388 
Q 2188 388 2466 706 
Q 2744 1025 2744 1678 
Q 2744 2294 2464 2611 
Q 2184 2928 1769 2928 
Q 1347 2928 1069 2612 
Q 791 2297 791 1659 
z
" transform="scale(0.015625)"/>
       <path id="ArialMT-67" d="M 319 -275 
L 866 -356 
Q 900 -609 1056 -725 
Q 1266 -881 1628 -881 
Q 2019 -881 2231 -725 
Q 2444 -569 2519 -288 
Q 2563 -116 2559 434 
Q 2191 0 1641 0 
Q 956 0 581 494 
Q 206 988 206 1678 
Q 206 2153 378 2554 
Q 550 2956 876 3175 
Q 1203 3394 1644 3394 
Q 2231 3394 2613 2919 
L 2613 3319 
L 3131 3319 
L 3131 450 
Q 3131 -325 2973 -648 
Q 2816 -972 2473 -1159 
Q 2131 -1347 1631 -1347 
Q 1038 -1347 672 -1080 
Q 306 -813 319 -275 
z
M 784 1719 
Q 784 1066 1043 766 
Q 1303 466 1694 466 
Q 2081 466 2343 764 
Q 2606 1063 2606 1700 
Q 2606 2309 2336 2618 
Q 2066 2928 1684 2928 
Q 1309 2928 1046 2623 
Q 784 2319 784 1719 
z
" transform="scale(0.015625)"/>
       <path id="ArialMT-72" d="M 416 0 
L 416 3319 
L 922 3319 
L 922 2816 
Q 1116 3169 1280 3281 
Q 1444 3394 1641 3394 
Q 1925 3394 2219 3213 
L 2025 2691 
Q 1819 2813 1613 2813 
Q 1428 2813 1281 2702 
Q 1134 2591 1072 2394 
Q 978 2094 978 1738 
L 978 0 
L 416 0 
z
" transform="scale(0.015625)"/>
       <path id="ArialMT-6d" d="M 422 0 
L 422 3319 
L 925 3319 
L 925 2853 
Q 1081 3097 1340 3245 
Q 1600 3394 1931 3394 
Q 2300 3394 2536 3241 
Q 2772 3088 2869 2813 
Q 3263 3394 3894 3394 
Q 4388 3394 4653 3120 
Q 4919 2847 4919 2278 
L 4919 0 
L 4359 0 
L 4359 2091 
Q 4359 2428 4304 2576 
Q 4250 2725 4106 2815 
Q 3963 2906 3769 2906 
Q 3419 2906 3187 2673 
Q 2956 2441 2956 1928 
L 2956 0 
L 2394 0 
L 2394 2156 
Q 2394 2531 2256 2718 
Q 2119 2906 1806 2906 
Q 1569 2906 1367 2781 
Q 1166 2656 1075 2415 
Q 984 2175 984 1722 
L 984 0 
L 422 0 
z
" transform="scale(0.015625)"/>
       <path id="ArialMT-61" d="M 2588 409 
Q 2275 144 1986 34 
Q 1697 -75 1366 -75 
Q 819 -75 525 192 
Q 231 459 231 875 
Q 231 1119 342 1320 
Q 453 1522 633 1644 
Q 813 1766 1038 1828 
Q 1203 1872 1538 1913 
Q 2219 1994 2541 2106 
Q 2544 2222 2544 2253 
Q 2544 2597 2384 2738 
Q 2169 2928 1744 2928 
Q 1347 2928 1158 2789 
Q 969 2650 878 2297 
L 328 2372 
Q 403 2725 575 2942 
Q 747 3159 1072 3276 
Q 1397 3394 1825 3394 
Q 2250 3394 2515 3294 
Q 2781 3194 2906 3042 
Q 3031 2891 3081 2659 
Q 3109 2516 3109 2141 
L 3109 1391 
Q 3109 606 3145 398 
Q 3181 191 3288 0 
L 2700 0 
Q 2613 175 2588 409 
z
M 2541 1666 
Q 2234 1541 1622 1453 
Q 1275 1403 1131 1340 
Q 988 1278 909 1158 
Q 831 1038 831 891 
Q 831 666 1001 516 
Q 1172 366 1500 366 
Q 1825 366 2078 508 
Q 2331 650 2450 897 
Q 2541 1088 2541 1459 
L 2541 1666 
z
" transform="scale(0.015625)"/>
       <path id="ArialMT-69" d="M 425 3934 
L 425 4581 
L 988 4581 
L 988 3934 
L 425 3934 
z
M 425 0 
L 425 3319 
L 988 3319 
L 988 0 
L 425 0 
z
" transform="scale(0.015625)"/>
       <path id="ArialMT-7a" d="M 125 0 
L 125 456 
L 2238 2881 
Q 1878 2863 1603 2863 
L 250 2863 
L 250 3319 
L 2963 3319 
L 2963 2947 
L 1166 841 
L 819 456 
Q 1197 484 1528 484 
L 3063 484 
L 3063 0 
L 125 0 
z
" transform="scale(0.015625)"/>
       <path id="ArialMT-65" d="M 2694 1069 
L 3275 997 
Q 3138 488 2766 206 
Q 2394 -75 1816 -75 
Q 1088 -75 661 373 
Q 234 822 234 1631 
Q 234 2469 665 2931 
Q 1097 3394 1784 3394 
Q 2450 3394 2872 2941 
Q 3294 2488 3294 1666 
Q 3294 1616 3291 1516 
L 816 1516 
Q 847 969 1125 678 
Q 1403 388 1819 388 
Q 2128 388 2347 550 
Q 2566 713 2694 1069 
z
M 847 1978 
L 2700 1978 
Q 2663 2397 2488 2606 
Q 2219 2931 1791 2931 
Q 1403 2931 1139 2672 
Q 875 2413 847 1978 
z
" transform="scale(0.015625)"/>
       <path id="ArialMT-64" d="M 2575 0 
L 2575 419 
Q 2259 -75 1647 -75 
Q 1250 -75 917 144 
Q 584 363 401 755 
Q 219 1147 219 1656 
Q 219 2153 384 2558 
Q 550 2963 881 3178 
Q 1213 3394 1622 3394 
Q 1922 3394 2156 3267 
Q 2391 3141 2538 2938 
L 2538 4581 
L 3097 4581 
L 3097 0 
L 2575 0 
z
M 797 1656 
Q 797 1019 1065 703 
Q 1334 388 1700 388 
Q 2069 388 2326 689 
Q 2584 991 2584 1609 
Q 2584 2291 2321 2609 
Q 2059 2928 1675 2928 
Q 1300 2928 1048 2622 
Q 797 2316 797 1656 
z
" transform="scale(0.015625)"/>
       <path id="ArialMT-41" d="M -9 0 
L 1750 4581 
L 2403 4581 
L 4278 0 
L 3588 0 
L 3053 1388 
L 1138 1388 
L 634 0 
L -9 0 
z
M 1313 1881 
L 2866 1881 
L 2388 3150 
Q 2169 3728 2063 4100 
Q 1975 3659 1816 3225 
L 1313 1881 
z
" transform="scale(0.015625)"/>
      </defs>
      <use xlink:href="#ArialMT-6c"/>
      <use xlink:href="#ArialMT-6f" x="22.216797"/>
      <use xlink:href="#ArialMT-67" x="77.832031"/>
      <use xlink:href="#ArialMT-4e" x="133.447266"/>
      <use xlink:href="#ArialMT-6f" x="205.664062"/>
      <use xlink:href="#ArialMT-72" x="261.279297"/>
      <use xlink:href="#ArialMT-6d" x="294.580078"/>
      <use xlink:href="#ArialMT-61" x="377.880859"/>
      <use xlink:href="#ArialMT-6c" x="433.496094"/>
      <use xlink:href="#ArialMT-69" x="455.712891"/>
      <use xlink:href="#ArialMT-7a" x="477.929688"/>
      <use xlink:href="#ArialMT-65" x="527.929688"/>
      <use xlink:href="#ArialMT-64" x="583.544922"/>
      <use xlink:href="#ArialMT-41" x="639.160156"/>
      <use xlink:href="#ArialMT-72" x="705.859375"/>
      <use xlink:href="#ArialMT-65" x="739.160156"/>
      <use xlink:href="#ArialMT-61" x="794.775391"/>
     </g>
    </g>
   </g>
   <g id="patch_3">
    <path d="M 321.3 139.155845 
L 321.3 139.155845 
L 321.3 139.155845 
L 321.3 139.155845 
z
" clip-path="url(#pa6f3d45449)" style="fill: #5875a4; stroke: #4c4c4c; stroke-width: 0.75; stroke-linejoin: miter"/>
   </g>
   <g id="PolyCollection_1">
    <defs>
     <path id="md9837cd5cd" d="M 243.236958 -157.42578 
L 243.123042 -157.42578 
L 243.073948 -160.466591 
L 242.993164 -163.507402 
L 242.868166 -166.548213 
L 242.686269 -169.589024 
L 242.437272 -172.629835 
L 242.116426 -175.670646 
L 241.726666 -178.711458 
L 241.27894 -181.752269 
L 240.790044 -184.79308 
L 240.278448 -187.833891 
L 239.759727 -190.874702 
L 239.243519 -193.915513 
L 238.733175 -196.956324 
L 238.227661 -199.997135 
L 237.723883 -203.037946 
L 237.21729 -206.078757 
L 236.699591 -209.119568 
L 236.153894 -212.160379 
L 235.548869 -215.20119 
L 234.834128 -218.242001 
L 233.939127 -221.282812 
L 232.777824 -224.323624 
L 231.260789 -227.364435 
L 229.314797 -230.405246 
L 226.907004 -233.446057 
L 224.067311 -236.486868 
L 220.900419 -239.527679 
L 217.5801 -242.56849 
L 214.323172 -245.609301 
L 211.348021 -248.650112 
L 208.829267 -251.690923 
L 206.862688 -254.731734 
L 205.451023 -257.772545 
L 204.512969 -260.813356 
L 203.908705 -263.854167 
L 203.470426 -266.894979 
L 203.027912 -269.93579 
L 202.425544 -272.976601 
L 201.533897 -276.017412 
L 200.26151 -279.058223 
L 198.569364 -282.099034 
L 196.484121 -285.139845 
L 194.101145 -288.180656 
L 191.568654 -291.221467 
L 189.051309 -294.262278 
L 186.68213 -297.303089 
L 184.520192 -300.3439 
L 182.532522 -303.384711 
L 180.610239 -306.425522 
L 178.615007 -309.466333 
L 176.439423 -312.507145 
L 174.060084 -315.547956 
L 171.565981 -318.588767 
L 169.153746 -321.629578 
L 167.090659 -324.670389 
L 165.653827 -327.7112 
L 165.06 -330.752011 
L 165.40485 -333.792822 
L 166.63101 -336.833633 
L 168.537863 -339.874444 
L 170.833086 -342.915255 
L 173.210834 -345.956066 
L 175.431144 -348.996877 
L 177.374626 -352.037688 
L 179.056223 -355.078499 
L 180.597372 -358.119311 
L 182.170807 -361.160122 
L 183.940148 -364.200933 
L 186.014668 -367.241744 
L 188.429735 -370.282555 
L 191.15138 -373.323366 
L 194.09546 -376.364177 
L 197.151195 -379.404988 
L 200.203303 -382.445799 
L 203.151428 -385.48661 
L 205.926458 -388.527421 
L 208.501264 -391.568232 
L 210.891967 -394.609043 
L 213.147856 -397.649854 
L 215.332676 -400.690666 
L 217.503817 -403.731477 
L 219.696358 -406.772288 
L 221.916192 -409.813099 
L 224.142697 -412.85391 
L 226.338542 -415.894721 
L 228.462643 -418.935532 
L 230.481706 -421.976343 
L 232.376313 -425.017154 
L 234.139627 -428.057965 
L 235.770136 -431.098776 
L 237.262942 -434.139587 
L 238.604792 -437.180398 
L 239.775796 -440.221209 
L 240.756789 -443.26202 
L 241.538165 -446.302832 
L 242.125634 -449.343643 
L 242.540416 -452.384454 
L 242.814502 -455.425265 
L 242.983642 -458.466076 
L 243.376358 -458.466076 
L 243.376358 -458.466076 
L 243.545498 -455.425265 
L 243.819584 -452.384454 
L 244.234366 -449.343643 
L 244.821835 -446.302832 
L 245.603211 -443.26202 
L 246.584204 -440.221209 
L 247.755208 -437.180398 
L 249.097058 -434.139587 
L 250.589864 -431.098776 
L 252.220373 -428.057965 
L 253.983687 -425.017154 
L 255.878294 -421.976343 
L 257.897357 -418.935532 
L 260.021458 -415.894721 
L 262.217303 -412.85391 
L 264.443808 -409.813099 
L 266.663642 -406.772288 
L 268.856183 -403.731477 
L 271.027324 -400.690666 
L 273.212144 -397.649854 
L 275.468033 -394.609043 
L 277.858736 -391.568232 
L 280.433542 -388.527421 
L 283.208572 -385.48661 
L 286.156697 -382.445799 
L 289.208805 -379.404988 
L 292.26454 -376.364177 
L 295.20862 -373.323366 
L 297.930265 -370.282555 
L 300.345332 -367.241744 
L 302.419852 -364.200933 
L 304.189193 -361.160122 
L 305.762628 -358.119311 
L 307.303777 -355.078499 
L 308.985374 -352.037688 
L 310.928856 -348.996877 
L 313.149166 -345.956066 
L 315.526914 -342.915255 
L 317.822137 -339.874444 
L 319.72899 -336.833633 
L 320.95515 -333.792822 
L 321.3 -330.752011 
L 320.706173 -327.7112 
L 319.269341 -324.670389 
L 317.206254 -321.629578 
L 314.794019 -318.588767 
L 312.299916 -315.547956 
L 309.920577 -312.507145 
L 307.744993 -309.466333 
L 305.749761 -306.425522 
L 303.827478 -303.384711 
L 301.839808 -300.3439 
L 299.67787 -297.303089 
L 297.308691 -294.262278 
L 294.791346 -291.221467 
L 292.258855 -288.180656 
L 289.875879 -285.139845 
L 287.790636 -282.099034 
L 286.09849 -279.058223 
L 284.826103 -276.017412 
L 283.934456 -272.976601 
L 283.332088 -269.93579 
L 282.889574 -266.894979 
L 282.451295 -263.854167 
L 281.847031 -260.813356 
L 280.908977 -257.772545 
L 279.497312 -254.731734 
L 277.530733 -251.690923 
L 275.011979 -248.650112 
L 272.036828 -245.609301 
L 268.7799 -242.56849 
L 265.459581 -239.527679 
L 262.292689 -236.486868 
L 259.452996 -233.446057 
L 257.045203 -230.405246 
L 255.099211 -227.364435 
L 253.582176 -224.323624 
L 252.420873 -221.282812 
L 251.525872 -218.242001 
L 250.811131 -215.20119 
L 250.206106 -212.160379 
L 249.660409 -209.119568 
L 249.14271 -206.078757 
L 248.636117 -203.037946 
L 248.132339 -199.997135 
L 247.626825 -196.956324 
L 247.116481 -193.915513 
L 246.600273 -190.874702 
L 246.081552 -187.833891 
L 245.569956 -184.79308 
L 245.08106 -181.752269 
L 244.633334 -178.711458 
L 244.243574 -175.670646 
L 243.922728 -172.629835 
L 243.673731 -169.589024 
L 243.491834 -166.548213 
L 243.366836 -163.507402 
L 243.286052 -160.466591 
L 243.236958 -157.42578 
z
" style="stroke: #4c4c4c; stroke-width: 1.5"/>
    </defs>
    <g clip-path="url(#pa6f3d45449)">
     <use xlink:href="#md9837cd5cd" x="0" y="576" style="fill: #5875a4; stroke: #4c4c4c; stroke-width: 1.5"/>
    </g>
   </g>
   <g id="patch_4">
    <path d="M 321.3 139.155845 
L 321.3 139.155845 
L 321.3 139.155845 
L 321.3 139.155845 
z
" clip-path="url(#pa6f3d45449)" style="fill: #cc8963; stroke: #4c4c4c; stroke-width: 0.75; stroke-linejoin: miter"/>
   </g>
   <g id="PolyCollection_2">
    <defs>
     <path id="m9a1eb52a6e" d="M 399.447006 -91.767273 
L 399.392994 -91.767273 
L 399.371117 -95.731376 
L 399.340268 -99.695479 
L 399.302815 -103.659582 
L 399.264805 -107.623685 
L 399.234791 -111.587788 
L 399.220812 -115.551891 
L 399.226877 -119.515993 
L 399.250973 -123.480096 
L 399.285755 -127.444199 
L 399.321294 -131.408302 
L 399.347929 -135.372405 
L 399.357497 -139.336508 
L 399.3427 -143.300611 
L 399.295861 -147.264714 
L 399.208838 -151.228817 
L 399.075038 -155.19292 
L 398.892846 -159.157023 
L 398.66808 -163.121126 
L 398.412487 -167.085229 
L 398.136737 -171.049332 
L 397.839936 -175.013435 
L 397.501378 -178.977538 
L 397.081327 -182.941641 
L 396.533952 -186.905744 
L 395.828534 -190.869847 
L 394.968766 -194.83395 
L 393.998512 -198.798053 
L 392.98721 -202.762156 
L 391.997305 -206.726259 
L 391.045986 -210.690362 
L 390.079445 -214.654465 
L 388.975707 -218.618568 
L 387.57996 -222.582671 
L 385.75861 -226.546774 
L 383.445964 -230.510877 
L 380.661482 -234.474979 
L 377.495865 -238.439082 
L 374.085434 -242.403185 
L 370.5971 -246.367288 
L 367.226775 -250.331391 
L 364.190695 -254.295494 
L 361.686719 -258.259597 
L 359.827488 -262.2237 
L 358.578815 -266.187803 
L 357.74615 -270.151906 
L 357.028531 -274.116009 
L 356.118998 -278.080112 
L 354.801288 -282.044215 
L 352.995143 -286.008318 
L 350.736769 -289.972421 
L 348.125096 -293.936524 
L 345.284666 -297.900627 
L 342.371612 -301.86473 
L 339.597679 -305.828833 
L 337.218531 -309.792936 
L 335.461869 -313.757039 
L 334.435322 -317.721142 
L 334.087309 -321.685245 
L 334.255204 -325.649348 
L 334.757934 -329.613451 
L 335.453291 -333.577554 
L 336.223856 -337.541657 
L 336.935786 -341.50576 
L 337.447554 -345.469863 
L 337.694142 -349.433965 
L 337.785649 -353.398068 
L 338.023416 -357.362171 
L 338.789682 -361.326274 
L 340.364303 -365.290377 
L 342.782212 -369.25448 
L 345.820983 -373.218583 
L 349.121255 -377.182686 
L 352.359481 -381.146789 
L 355.368968 -385.110892 
L 358.151213 -389.074995 
L 360.797516 -393.039098 
L 363.394348 -397.003201 
L 365.980039 -400.967304 
L 368.56619 -404.931407 
L 371.182521 -408.89551 
L 373.892653 -412.859613 
L 376.763114 -416.823716 
L 379.811638 -420.787819 
L 382.975265 -424.751922 
L 386.118835 -428.716025 
L 389.074946 -432.680128 
L 391.691731 -436.644231 
L 393.868635 -440.608334 
L 395.571587 -444.572437 
L 396.828164 -448.53654 
L 397.708652 -452.500643 
L 398.301574 -456.464746 
L 398.692096 -460.428849 
L 398.948731 -464.392951 
L 399.119317 -468.357054 
L 399.233796 -472.321157 
L 399.309949 -476.28526 
L 399.358862 -480.249363 
L 399.38846 -484.213466 
L 399.45154 -484.213466 
L 399.45154 -484.213466 
L 399.481138 -480.249363 
L 399.530051 -476.28526 
L 399.606204 -472.321157 
L 399.720683 -468.357054 
L 399.891269 -464.392951 
L 400.147904 -460.428849 
L 400.538426 -456.464746 
L 401.131348 -452.500643 
L 402.011836 -448.53654 
L 403.268413 -444.572437 
L 404.971365 -440.608334 
L 407.148269 -436.644231 
L 409.765054 -432.680128 
L 412.721165 -428.716025 
L 415.864735 -424.751922 
L 419.028362 -420.787819 
L 422.076886 -416.823716 
L 424.947347 -412.859613 
L 427.657479 -408.89551 
L 430.27381 -404.931407 
L 432.859961 -400.967304 
L 435.445652 -397.003201 
L 438.042484 -393.039098 
L 440.688787 -389.074995 
L 443.471032 -385.110892 
L 446.480519 -381.146789 
L 449.718745 -377.182686 
L 453.019017 -373.218583 
L 456.057788 -369.25448 
L 458.475697 -365.290377 
L 460.050318 -361.326274 
L 460.816584 -357.362171 
L 461.054351 -353.398068 
L 461.145858 -349.433965 
L 461.392446 -345.469863 
L 461.904214 -341.50576 
L 462.616144 -337.541657 
L 463.386709 -333.577554 
L 464.082066 -329.613451 
L 464.584796 -325.649348 
L 464.752691 -321.685245 
L 464.404678 -317.721142 
L 463.378131 -313.757039 
L 461.621469 -309.792936 
L 459.242321 -305.828833 
L 456.468388 -301.86473 
L 453.555334 -297.900627 
L 450.714904 -293.936524 
L 448.103231 -289.972421 
L 445.844857 -286.008318 
L 444.038712 -282.044215 
L 442.721002 -278.080112 
L 441.811469 -274.116009 
L 441.09385 -270.151906 
L 440.261185 -266.187803 
L 439.012512 -262.2237 
L 437.153281 -258.259597 
L 434.649305 -254.295494 
L 431.613225 -250.331391 
L 428.2429 -246.367288 
L 424.754566 -242.403185 
L 421.344135 -238.439082 
L 418.178518 -234.474979 
L 415.394036 -230.510877 
L 413.08139 -226.546774 
L 411.26004 -222.582671 
L 409.864293 -218.618568 
L 408.760555 -214.654465 
L 407.794014 -210.690362 
L 406.842695 -206.726259 
L 405.85279 -202.762156 
L 404.841488 -198.798053 
L 403.871234 -194.83395 
L 403.011466 -190.869847 
L 402.306048 -186.905744 
L 401.758673 -182.941641 
L 401.338622 -178.977538 
L 401.000064 -175.013435 
L 400.703263 -171.049332 
L 400.427513 -167.085229 
L 400.17192 -163.121126 
L 399.947154 -159.157023 
L 399.764962 -155.19292 
L 399.631162 -151.228817 
L 399.544139 -147.264714 
L 399.4973 -143.300611 
L 399.482503 -139.336508 
L 399.492071 -135.372405 
L 399.518706 -131.408302 
L 399.554245 -127.444199 
L 399.589027 -123.480096 
L 399.613123 -119.515993 
L 399.619188 -115.551891 
L 399.605209 -111.587788 
L 399.575195 -107.623685 
L 399.537185 -103.659582 
L 399.499732 -99.695479 
L 399.468883 -95.731376 
L 399.447006 -91.767273 
z
" style="stroke: #4c4c4c; stroke-width: 1.5"/>
    </defs>
    <g clip-path="url(#pa6f3d45449)">
     <use xlink:href="#m9a1eb52a6e" x="0" y="576" style="fill: #cc8963; stroke: #4c4c4c; stroke-width: 1.5"/>
    </g>
   </g>
   <g id="PolyCollection_3">
    <defs>
     <path id="ma3357a064f" d="M 633.811738 -123.854035 
L 633.748262 -123.854035 
L 633.725327 -127.427584 
L 633.693394 -131.001133 
L 633.653626 -134.574682 
L 633.609534 -138.148231 
L 633.56595 -141.72178 
L 633.526466 -145.295329 
L 633.490136 -148.868878 
L 633.449096 -152.442428 
L 633.388866 -156.015977 
L 633.292047 -159.589526 
L 633.144182 -163.163075 
L 632.93885 -166.736624 
L 632.678665 -170.310173 
L 632.370692 -173.883722 
L 632.018099 -177.457272 
L 631.612894 -181.030821 
L 631.134936 -184.60437 
L 630.559179 -188.177919 
L 629.868037 -191.751468 
L 629.062026 -195.325017 
L 628.16203 -198.898566 
L 627.200471 -202.472116 
L 626.203671 -206.045665 
L 625.171424 -209.619214 
L 624.061174 -213.192763 
L 622.783914 -216.766312 
L 621.216973 -220.339861 
L 619.234682 -223.91341 
L 616.751139 -227.486959 
L 613.762009 -231.060509 
L 610.368544 -234.634058 
L 606.770125 -238.207607 
L 603.222017 -241.781156 
L 599.969102 -245.354705 
L 597.178316 -248.928254 
L 594.896146 -252.501803 
L 593.048969 -256.075353 
L 591.485018 -259.648902 
L 590.036435 -263.222451 
L 588.570274 -266.796 
L 587.00602 -270.369549 
L 585.299255 -273.943098 
L 583.412074 -277.516647 
L 581.296328 -281.090197 
L 578.903305 -284.663746 
L 576.213798 -288.237295 
L 573.27031 -291.810844 
L 570.194372 -295.384393 
L 567.180753 -298.957942 
L 564.467203 -302.531491 
L 562.281793 -306.10504 
L 560.7762 -309.67859 
L 559.965882 -313.252139 
L 559.708043 -316.825688 
L 559.740222 -320.399237 
L 559.772877 -323.972786 
L 559.595588 -327.546335 
L 559.145006 -331.119884 
L 558.504344 -334.693434 
L 557.844166 -338.266983 
L 557.344207 -341.840532 
L 557.138456 -345.414081 
L 557.304275 -348.98763 
L 557.887838 -352.561179 
L 558.938785 -356.134728 
L 560.524849 -359.708277 
L 562.712193 -363.281827 
L 565.520962 -366.855376 
L 568.883806 -370.428925 
L 572.635083 -374.002474 
L 576.540041 -377.576023 
L 580.350522 -381.149572 
L 583.863036 -384.723121 
L 586.960327 -388.296671 
L 589.629204 -391.87022 
L 591.954544 -395.443769 
L 594.091144 -399.017318 
L 596.21806 -402.590867 
L 598.487325 -406.164416 
L 600.984737 -409.737965 
L 603.717404 -413.311515 
L 606.630217 -416.885064 
L 609.639223 -420.458613 
L 612.663242 -424.032162 
L 615.639428 -427.605711 
L 618.520177 -431.17926 
L 621.260004 -434.752809 
L 623.805245 -438.326358 
L 626.095151 -441.899908 
L 628.07395 -445.473457 
L 629.706297 -449.047006 
L 630.987321 -452.620555 
L 631.942761 -456.194104 
L 632.620502 -459.767653 
L 633.07844 -463.341202 
L 633.373584 -466.914752 
L 633.5551 -470.488301 
L 633.661504 -474.06185 
L 633.720792 -477.635399 
L 633.839208 -477.635399 
L 633.839208 -477.635399 
L 633.898496 -474.06185 
L 634.0049 -470.488301 
L 634.186416 -466.914752 
L 634.48156 -463.341202 
L 634.939498 -459.767653 
L 635.617239 -456.194104 
L 636.572679 -452.620555 
L 637.853703 -449.047006 
L 639.48605 -445.473457 
L 641.464849 -441.899908 
L 643.754755 -438.326358 
L 646.299996 -434.752809 
L 649.039823 -431.17926 
L 651.920572 -427.605711 
L 654.896758 -424.032162 
L 657.920777 -420.458613 
L 660.929783 -416.885064 
L 663.842596 -413.311515 
L 666.575263 -409.737965 
L 669.072675 -406.164416 
L 671.34194 -402.590867 
L 673.468856 -399.017318 
L 675.605456 -395.443769 
L 677.930796 -391.87022 
L 680.599673 -388.296671 
L 683.696964 -384.723121 
L 687.209478 -381.149572 
L 691.019959 -377.576023 
L 694.924917 -374.002474 
L 698.676194 -370.428925 
L 702.039038 -366.855376 
L 704.847807 -363.281827 
L 707.035151 -359.708277 
L 708.621215 -356.134728 
L 709.672162 -352.561179 
L 710.255725 -348.98763 
L 710.421544 -345.414081 
L 710.215793 -341.840532 
L 709.715834 -338.266983 
L 709.055656 -334.693434 
L 708.414994 -331.119884 
L 707.964412 -327.546335 
L 707.787123 -323.972786 
L 707.819778 -320.399237 
L 707.851957 -316.825688 
L 707.594118 -313.252139 
L 706.7838 -309.67859 
L 705.278207 -306.10504 
L 703.092797 -302.531491 
L 700.379247 -298.957942 
L 697.365628 -295.384393 
L 694.28969 -291.810844 
L 691.346202 -288.237295 
L 688.656695 -284.663746 
L 686.263672 -281.090197 
L 684.147926 -277.516647 
L 682.260745 -273.943098 
L 680.55398 -270.369549 
L 678.989726 -266.796 
L 677.523565 -263.222451 
L 676.074982 -259.648902 
L 674.511031 -256.075353 
L 672.663854 -252.501803 
L 670.381684 -248.928254 
L 667.590898 -245.354705 
L 664.337983 -241.781156 
L 660.789875 -238.207607 
L 657.191456 -234.634058 
L 653.797991 -231.060509 
L 650.808861 -227.486959 
L 648.325318 -223.91341 
L 646.343027 -220.339861 
L 644.776086 -216.766312 
L 643.498826 -213.192763 
L 642.388576 -209.619214 
L 641.356329 -206.045665 
L 640.359529 -202.472116 
L 639.39797 -198.898566 
L 638.497974 -195.325017 
L 637.691963 -191.751468 
L 637.000821 -188.177919 
L 636.425064 -184.60437 
L 635.947106 -181.030821 
L 635.541901 -177.457272 
L 635.189308 -173.883722 
L 634.881335 -170.310173 
L 634.62115 -166.736624 
L 634.415818 -163.163075 
L 634.267953 -159.589526 
L 634.171134 -156.015977 
L 634.110904 -152.442428 
L 634.069864 -148.868878 
L 634.033534 -145.295329 
L 633.99405 -141.72178 
L 633.950466 -138.148231 
L 633.906374 -134.574682 
L 633.866606 -131.001133 
L 633.834673 -127.427584 
L 633.811738 -123.854035 
z
" style="stroke: #4c4c4c; stroke-width: 1.5"/>
    </defs>
    <g clip-path="url(#pa6f3d45449)">
     <use xlink:href="#ma3357a064f" x="0" y="576" style="fill: #5875a4; stroke: #4c4c4c; stroke-width: 1.5"/>
    </g>
   </g>
   <g id="PolyCollection_4">
    <defs>
     <path id="m1a12d5aac4" d="M 790.094678 -154.946497 
L 789.945322 -154.946497 
L 789.883038 -158.301711 
L 789.784262 -161.656926 
L 789.637984 -165.01214 
L 789.434835 -168.367355 
L 789.168669 -171.722569 
L 788.836931 -175.077784 
L 788.439357 -178.432998 
L 787.97534 -181.788212 
L 787.441336 -185.143427 
L 786.83022 -188.498641 
L 786.134149 -191.853856 
L 785.350967 -195.20907 
L 784.491849 -198.564285 
L 783.585499 -201.919499 
L 782.673663 -205.274714 
L 781.795237 -208.629928 
L 780.962039 -211.985142 
L 780.135939 -215.340357 
L 779.220326 -218.695571 
L 778.075414 -222.050786 
L 776.55663 -225.406 
L 774.563076 -228.761215 
L 772.0758 -232.116429 
L 769.168473 -235.471644 
L 765.985587 -238.826858 
L 762.69871 -242.182072 
L 759.461077 -245.537287 
L 756.379079 -248.892501 
L 753.507799 -252.247716 
L 750.864202 -255.60293 
L 748.444366 -258.958145 
L 746.233676 -262.313359 
L 744.207433 -265.668574 
L 742.326754 -269.023788 
L 740.536291 -272.379003 
L 738.767089 -275.734217 
L 736.944387 -279.089431 
L 734.999145 -282.444646 
L 732.882528 -285.79986 
L 730.581569 -289.155075 
L 728.131168 -292.510289 
L 725.615403 -295.865504 
L 723.153611 -299.220718 
L 720.873698 -302.575933 
L 718.882324 -305.931147 
L 717.243548 -309.286361 
L 715.972619 -312.641576 
L 715.043286 -315.99679 
L 714.401076 -319.352005 
L 713.975015 -322.707219 
L 713.685413 -326.062434 
L 713.451117 -329.417648 
L 713.201283 -332.772863 
L 712.892753 -336.128077 
L 712.527704 -339.483292 
L 712.163056 -342.838506 
L 711.906352 -346.19372 
L 711.9 -349.548935 
L 712.300312 -352.904149 
L 713.255918 -356.259364 
L 714.884786 -359.614578 
L 717.247459 -362.969793 
L 720.319716 -366.325007 
L 723.976155 -369.680222 
L 727.998386 -373.035436 
L 732.113109 -376.39065 
L 736.050711 -379.745865 
L 739.603907 -383.101079 
L 742.665629 -386.456294 
L 745.235567 -389.811508 
L 747.398785 -393.166723 
L 749.289833 -396.521937 
L 751.057453 -399.877152 
L 752.839384 -403.232366 
L 754.748691 -406.58758 
L 756.867404 -409.942795 
L 759.242524 -413.298009 
L 761.882397 -416.653224 
L 764.755021 -420.008438 
L 767.791177 -423.363653 
L 770.893777 -426.718867 
L 773.95199 -430.074082 
L 776.856641 -433.429296 
L 779.513405 -436.784511 
L 781.851912 -440.139725 
L 783.830679 -443.494939 
L 785.438473 -446.850154 
L 786.692472 -450.205368 
L 787.633126 -453.560583 
L 788.315932 -456.915797 
L 788.801419 -460.271012 
L 789.145634 -463.626226 
L 789.393514 -466.981441 
L 789.576466 -470.336655 
L 789.713823 -473.691869 
L 789.816559 -477.047084 
L 789.891279 -480.402298 
L 789.943075 -483.757513 
L 789.976832 -487.112727 
L 790.063168 -487.112727 
L 790.063168 -487.112727 
L 790.096925 -483.757513 
L 790.148721 -480.402298 
L 790.223441 -477.047084 
L 790.326177 -473.691869 
L 790.463534 -470.336655 
L 790.646486 -466.981441 
L 790.894366 -463.626226 
L 791.238581 -460.271012 
L 791.724068 -456.915797 
L 792.406874 -453.560583 
L 793.347528 -450.205368 
L 794.601527 -446.850154 
L 796.209321 -443.494939 
L 798.188088 -440.139725 
L 800.526595 -436.784511 
L 803.183359 -433.429296 
L 806.08801 -430.074082 
L 809.146223 -426.718867 
L 812.248823 -423.363653 
L 815.284979 -420.008438 
L 818.157603 -416.653224 
L 820.797476 -413.298009 
L 823.172596 -409.942795 
L 825.291309 -406.58758 
L 827.200616 -403.232366 
L 828.982547 -399.877152 
L 830.750167 -396.521937 
L 832.641215 -393.166723 
L 834.804433 -389.811508 
L 837.374371 -386.456294 
L 840.436093 -383.101079 
L 843.989289 -379.745865 
L 847.926891 -376.39065 
L 852.041614 -373.035436 
L 856.063845 -369.680222 
L 859.720284 -366.325007 
L 862.792541 -362.969793 
L 865.155214 -359.614578 
L 866.784082 -356.259364 
L 867.739688 -352.904149 
L 868.14 -349.548935 
L 868.133648 -346.19372 
L 867.876944 -342.838506 
L 867.512296 -339.483292 
L 867.147247 -336.128077 
L 866.838717 -332.772863 
L 866.588883 -329.417648 
L 866.354587 -326.062434 
L 866.064985 -322.707219 
L 865.638924 -319.352005 
L 864.996714 -315.99679 
L 864.067381 -312.641576 
L 862.796452 -309.286361 
L 861.157676 -305.931147 
L 859.166302 -302.575933 
L 856.886389 -299.220718 
L 854.424597 -295.865504 
L 851.908832 -292.510289 
L 849.458431 -289.155075 
L 847.157472 -285.79986 
L 845.040855 -282.444646 
L 843.095613 -279.089431 
L 841.272911 -275.734217 
L 839.503709 -272.379003 
L 837.713246 -269.023788 
L 835.832567 -265.668574 
L 833.806324 -262.313359 
L 831.595634 -258.958145 
L 829.175798 -255.60293 
L 826.532201 -252.247716 
L 823.660921 -248.892501 
L 820.578923 -245.537287 
L 817.34129 -242.182072 
L 814.054413 -238.826858 
L 810.871527 -235.471644 
L 807.9642 -232.116429 
L 805.476924 -228.761215 
L 803.48337 -225.406 
L 801.964586 -222.050786 
L 800.819674 -218.695571 
L 799.904061 -215.340357 
L 799.077961 -211.985142 
L 798.244763 -208.629928 
L 797.366337 -205.274714 
L 796.454501 -201.919499 
L 795.548151 -198.564285 
L 794.689033 -195.20907 
L 793.905851 -191.853856 
L 793.20978 -188.498641 
L 792.598664 -185.143427 
L 792.06466 -181.788212 
L 791.600643 -178.432998 
L 791.203069 -175.077784 
L 790.871331 -171.722569 
L 790.605165 -168.367355 
L 790.402016 -165.01214 
L 790.255738 -161.656926 
L 790.156962 -158.301711 
L 790.094678 -154.946497 
z
" style="stroke: #4c4c4c; stroke-width: 1.5"/>
    </defs>
    <g clip-path="url(#pa6f3d45449)">
     <use xlink:href="#m1a12d5aac4" x="0" y="576" style="fill: #cc8963; stroke: #4c4c4c; stroke-width: 1.5"/>
    </g>
   </g>
   <g id="line2d_1">
    <path d="M 243.18 387.969734 
L 243.18 140.187661 
" clip-path="url(#pa6f3d45449)" style="fill: none; stroke: #4c4c4c; stroke-width: 1.5; stroke-linecap: round"/>
   </g>
   <g id="line2d_2">
    <path d="M 243.18 284.812778 
L 243.18 215.954517 
" clip-path="url(#pa6f3d45449)" style="fill: none; stroke: #4c4c4c; stroke-width: 4.5; stroke-linecap: round"/>
   </g>
   <g id="line2d_3">
    <path d="M 399.42 399.693619 
L 399.42 116.352189 
" clip-path="url(#pa6f3d45449)" style="fill: none; stroke: #4c4c4c; stroke-width: 1.5; stroke-linecap: round"/>
   </g>
   <g id="line2d_4">
    <path d="M 399.42 286.800913 
L 399.42 210.910553 
" clip-path="url(#pa6f3d45449)" style="fill: none; stroke: #4c4c4c; stroke-width: 4.5; stroke-linecap: round"/>
   </g>
   <g id="line2d_5">
    <path d="M 633.78 397.768769 
L 633.78 122.798809 
" clip-path="url(#pa6f3d45449)" style="fill: none; stroke: #4c4c4c; stroke-width: 1.5; stroke-linecap: round"/>
   </g>
   <g id="line2d_6">
    <path d="M 633.78 285.858704 
L 633.78 210.219517 
" clip-path="url(#pa6f3d45449)" style="fill: none; stroke: #4c4c4c; stroke-width: 4.5; stroke-linecap: round"/>
   </g>
   <g id="line2d_7">
    <path d="M 790.02 394.915472 
L 790.02 112.875178 
" clip-path="url(#pa6f3d45449)" style="fill: none; stroke: #4c4c4c; stroke-width: 1.5; stroke-linecap: round"/>
   </g>
   <g id="line2d_8">
    <path d="M 790.02 284.734242 
L 790.02 210.705687 
" clip-path="url(#pa6f3d45449)" style="fill: none; stroke: #4c4c4c; stroke-width: 4.5; stroke-linecap: round"/>
   </g>
   <g id="patch_5">
    <path d="M 126 504 
L 126 69.12 
" style="fill: none; stroke: #262626; stroke-width: 1.25; stroke-linejoin: miter; stroke-linecap: square"/>
   </g>
   <g id="patch_6">
    <path d="M 907.2 504 
L 907.2 69.12 
" style="fill: none; stroke: #262626; stroke-width: 1.25; stroke-linejoin: miter; stroke-linecap: square"/>
   </g>
   <g id="patch_7">
    <path d="M 126 504 
L 907.2 504 
" style="fill: none; stroke: #262626; stroke-width: 1.25; stroke-linejoin: miter; stroke-linecap: square"/>
   </g>
   <g id="patch_8">
    <path d="M 126 69.12 
L 907.2 69.12 
" style="fill: none; stroke: #262626; stroke-width: 1.25; stroke-linejoin: miter; stroke-linecap: square"/>
   </g>
   <g id="PathCollection_1">
    <defs>
     <path id="m51172dfa3e" d="M 0 1.5 
C 0.397805 1.5 0.77937 1.341951 1.06066 1.06066 
C 1.341951 0.77937 1.5 0.397805 1.5 0 
C 1.5 -0.397805 1.341951 -0.77937 1.06066 -1.06066 
C 0.77937 -1.341951 0.397805 -1.5 0 -1.5 
C -0.397805 -1.5 -0.77937 -1.341951 -1.06066 -1.06066 
C -1.341951 -0.77937 -1.5 -0.397805 -1.5 0 
C -1.5 0.397805 -1.341951 0.77937 -1.06066 1.06066 
C -0.77937 1.341951 -0.397805 1.5 0 1.5 
z
" style="stroke: #4c4c4c"/>
    </defs>
    <g clip-path="url(#pa6f3d45449)">
     <use xlink:href="#m51172dfa3e" x="243.18" y="247.909218" style="fill: #ffffff; stroke: #4c4c4c"/>
    </g>
   </g>
   <g id="PathCollection_2">
    <g clip-path="url(#pa6f3d45449)">
     <use xlink:href="#m51172dfa3e" x="399.42" y="247.806087" style="fill: #ffffff; stroke: #4c4c4c"/>
    </g>
   </g>
   <g id="PathCollection_3">
    <g clip-path="url(#pa6f3d45449)">
     <use xlink:href="#m51172dfa3e" x="633.78" y="246.146735" style="fill: #ffffff; stroke: #4c4c4c"/>
    </g>
   </g>
   <g id="PathCollection_4">
    <g clip-path="url(#pa6f3d45449)">
     <use xlink:href="#m51172dfa3e" x="790.02" y="245.941104" style="fill: #ffffff; stroke: #4c4c4c"/>
    </g>
   </g>
   <g id="legend_1">
    <g id="patch_9">
     <path d="M 803.7725 125.514063 
L 899.5 125.514063 
Q 901.7 125.514063 901.7 123.314063 
L 901.7 76.82 
Q 901.7 74.62 899.5 74.62 
L 803.7725 74.62 
Q 801.5725 74.62 801.5725 76.82 
L 801.5725 123.314063 
Q 801.5725 125.514063 803.7725 125.514063 
z
" style="fill: #ffffff; opacity: 0.8; stroke: #cccccc; stroke-linejoin: miter"/>
    </g>
    <g id="text_9">
     <!-- Treatment -->
     <g style="fill: #262626" transform="translate(824.520937 87.609375)scale(0.12 -0.12)">
      <defs>
       <path id="ArialMT-54" d="M 1659 0 
L 1659 4041 
L 150 4041 
L 150 4581 
L 3781 4581 
L 3781 4041 
L 2266 4041 
L 2266 0 
L 1659 0 
z
" transform="scale(0.015625)"/>
       <path id="ArialMT-74" d="M 1650 503 
L 1731 6 
Q 1494 -44 1306 -44 
Q 1000 -44 831 53 
Q 663 150 594 308 
Q 525 466 525 972 
L 525 2881 
L 113 2881 
L 113 3319 
L 525 3319 
L 525 4141 
L 1084 4478 
L 1084 3319 
L 1650 3319 
L 1650 2881 
L 1084 2881 
L 1084 941 
Q 1084 700 1114 631 
Q 1144 563 1211 522 
Q 1278 481 1403 481 
Q 1497 481 1650 503 
z
" transform="scale(0.015625)"/>
       <path id="ArialMT-6e" d="M 422 0 
L 422 3319 
L 928 3319 
L 928 2847 
Q 1294 3394 1984 3394 
Q 2284 3394 2536 3286 
Q 2788 3178 2913 3003 
Q 3038 2828 3088 2588 
Q 3119 2431 3119 2041 
L 3119 0 
L 2556 0 
L 2556 2019 
Q 2556 2363 2490 2533 
Q 2425 2703 2258 2804 
Q 2091 2906 1866 2906 
Q 1506 2906 1245 2678 
Q 984 2450 984 1813 
L 984 0 
L 422 0 
z
" transform="scale(0.015625)"/>
      </defs>
      <use xlink:href="#ArialMT-54"/>
      <use xlink:href="#ArialMT-72" x="57.333984"/>
      <use xlink:href="#ArialMT-65" x="90.634766"/>
      <use xlink:href="#ArialMT-61" x="146.25"/>
      <use xlink:href="#ArialMT-74" x="201.865234"/>
      <use xlink:href="#ArialMT-6d" x="229.648438"/>
      <use xlink:href="#ArialMT-65" x="312.949219"/>
      <use xlink:href="#ArialMT-6e" x="368.564453"/>
      <use xlink:href="#ArialMT-74" x="424.179688"/>
     </g>
    </g>
    <g id="patch_10">
     <path d="M 805.9725 103.367969 
L 827.9725 103.367969 
L 827.9725 95.667969 
L 805.9725 95.667969 
z
" style="fill: #5875a4; stroke: #4c4c4c; stroke-width: 0.75; stroke-linejoin: miter"/>
    </g>
    <g id="text_10">
     <!-- control -->
     <g style="fill: #262626" transform="translate(836.7725 103.367969)scale(0.11 -0.11)">
      <defs>
       <path id="ArialMT-63" d="M 2588 1216 
L 3141 1144 
Q 3050 572 2676 248 
Q 2303 -75 1759 -75 
Q 1078 -75 664 370 
Q 250 816 250 1647 
Q 250 2184 428 2587 
Q 606 2991 970 3192 
Q 1334 3394 1763 3394 
Q 2303 3394 2647 3120 
Q 2991 2847 3088 2344 
L 2541 2259 
Q 2463 2594 2264 2762 
Q 2066 2931 1784 2931 
Q 1359 2931 1093 2626 
Q 828 2322 828 1663 
Q 828 994 1084 691 
Q 1341 388 1753 388 
Q 2084 388 2306 591 
Q 2528 794 2588 1216 
z
" transform="scale(0.015625)"/>
      </defs>
      <use xlink:href="#ArialMT-63"/>
      <use xlink:href="#ArialMT-6f" x="50"/>
      <use xlink:href="#ArialMT-6e" x="105.615234"/>
      <use xlink:href="#ArialMT-74" x="161.230469"/>
      <use xlink:href="#ArialMT-72" x="189.013672"/>
      <use xlink:href="#ArialMT-6f" x="222.314453"/>
      <use xlink:href="#ArialMT-6c" x="277.929688"/>
     </g>
    </g>
    <g id="patch_11">
     <path d="M 805.9725 118.927813 
L 827.9725 118.927813 
L 827.9725 111.227813 
L 805.9725 111.227813 
z
" style="fill: #cc8963; stroke: #4c4c4c; stroke-width: 0.75; stroke-linejoin: miter"/>
    </g>
    <g id="text_11">
     <!-- deltamethrin -->
     <g style="fill: #262626" transform="translate(836.7725 118.927813)scale(0.11 -0.11)">
      <defs>
       <path id="ArialMT-68" d="M 422 0 
L 422 4581 
L 984 4581 
L 984 2938 
Q 1378 3394 1978 3394 
Q 2347 3394 2619 3248 
Q 2891 3103 3008 2847 
Q 3125 2591 3125 2103 
L 3125 0 
L 2563 0 
L 2563 2103 
Q 2563 2525 2380 2717 
Q 2197 2909 1863 2909 
Q 1613 2909 1392 2779 
Q 1172 2650 1078 2428 
Q 984 2206 984 1816 
L 984 0 
L 422 0 
z
" transform="scale(0.015625)"/>
      </defs>
      <use xlink:href="#ArialMT-64"/>
      <use xlink:href="#ArialMT-65" x="55.615234"/>
      <use xlink:href="#ArialMT-6c" x="111.230469"/>
      <use xlink:href="#ArialMT-74" x="133.447266"/>
      <use xlink:href="#ArialMT-61" x="161.230469"/>
      <use xlink:href="#ArialMT-6d" x="216.845703"/>
      <use xlink:href="#ArialMT-65" x="300.146484"/>
      <use xlink:href="#ArialMT-74" x="355.761719"/>
      <use xlink:href="#ArialMT-68" x="383.544922"/>
      <use xlink:href="#ArialMT-72" x="439.160156"/>
      <use xlink:href="#ArialMT-69" x="472.460938"/>
      <use xlink:href="#ArialMT-6e" x="494.677734"/>
     </g>
    </g>
   </g>
  </g>
 </g>
 <defs>
  <clipPath id="pa6f3d45449">
   <rect x="126" y="69.12" width="781.2" height="434.88"/>
  </clipPath>
 </defs>
</svg>
