<?xml version="1.0" encoding="utf-8" standalone="no"?>
<!DOCTYPE svg PUBLIC "-//W3C//DTD SVG 1.1//EN"
  "http://www.w3.org/Graphics/SVG/1.1/DTD/svg11.dtd">
<svg xmlns:xlink="http://www.w3.org/1999/xlink" width="1008pt" height="576pt" viewBox="0 0 1008 576" xmlns="http://www.w3.org/2000/svg" version="1.1">
 <metadata>
  <rdf:RDF xmlns:dc="http://purl.org/dc/elements/1.1/" xmlns:cc="http://creativecommons.org/ns#" xmlns:rdf="http://www.w3.org/1999/02/22-rdf-syntax-ns#">
   <cc:Work>
    <dc:type rdf:resource="http://purl.org/dc/dcmitype/StillImage"/>
    <dc:date>2023-02-18T15:58:50.123693</dc:date>
    <dc:format>image/svg+xml</dc:format>
    <dc:creator>
     <cc:Agent>
      <dc:title>Matplotlib v3.5.2, https://matplotlib.org/</dc:title>
     </cc:Agent>
    </dc:creator>
   </cc:Work>
  </rdf:RDF>
 </metadata>
 <defs>
  <style type="text/css">*{stroke-linejoin: round; stroke-linecap: butt}</style>
 </defs>
 <g id="figure_1">
  <g id="patch_1">
   <path d="M 0 576 
L 1008 576 
L 1008 0 
L 0 0 
z
" style="fill: #ffffff"/>
  </g>
  <g id="axes_1">
   <g id="patch_2">
    <path d="M 126 512.64 
L 907.2 512.64 
L 907.2 69.12 
L 126 69.12 
z
" style="fill: #ffffff"/>
   </g>
   <g id="matplotlib.axis_1">
    <g id="xtick_1">
     <g id="text_1">
      <!-- striatum -->
      <g style="fill: #262626" transform="translate(301.742344 530.013594)scale(0.11 -0.11)">
       <defs>
        <path id="ArialMT-73" d="M 197 991 
L 753 1078 
Q 800 744 1014 566 
Q 1228 388 1613 388 
Q 2000 388 2187 545 
Q 2375 703 2375 916 
Q 2375 1106 2209 1216 
Q 2094 1291 1634 1406 
Q 1016 1563 777 1677 
Q 538 1791 414 1992 
Q 291 2194 291 2438 
Q 291 2659 392 2848 
Q 494 3038 669 3163 
Q 800 3259 1026 3326 
Q 1253 3394 1513 3394 
Q 1903 3394 2198 3281 
Q 2494 3169 2634 2976 
Q 2775 2784 2828 2463 
L 2278 2388 
Q 2241 2644 2061 2787 
Q 1881 2931 1553 2931 
Q 1166 2931 1000 2803 
Q 834 2675 834 2503 
Q 834 2394 903 2306 
Q 972 2216 1119 2156 
Q 1203 2125 1616 2013 
Q 2213 1853 2448 1751 
Q 2684 1650 2818 1456 
Q 2953 1263 2953 975 
Q 2953 694 2789 445 
Q 2625 197 2315 61 
Q 2006 -75 1616 -75 
Q 969 -75 630 194 
Q 291 463 197 991 
z
" transform="scale(0.015625)"/>
        <path id="ArialMT-74" d="M 1650 503 
L 1731 6 
Q 1494 -44 1306 -44 
Q 1000 -44 831 53 
Q 663 150 594 308 
Q 525 466 525 972 
L 525 2881 
L 113 2881 
L 113 3319 
L 525 3319 
L 525 4141 
L 1084 4478 
L 1084 3319 
L 1650 3319 
L 1650 2881 
L 1084 2881 
L 1084 941 
Q 1084 700 1114 631 
Q 1144 563 1211 522 
Q 1278 481 1403 481 
Q 1497 481 1650 503 
z
" transform="scale(0.015625)"/>
        <path id="ArialMT-72" d="M 416 0 
L 416 3319 
L 922 3319 
L 922 2816 
Q 1116 3169 1280 3281 
Q 1444 3394 1641 3394 
Q 1925 3394 2219 3213 
L 2025 2691 
Q 1819 2813 1613 2813 
Q 1428 2813 1281 2702 
Q 1134 2591 1072 2394 
Q 978 2094 978 1738 
L 978 0 
L 416 0 
z
" transform="scale(0.015625)"/>
        <path id="ArialMT-69" d="M 425 3934 
L 425 4581 
L 988 4581 
L 988 3934 
L 425 3934 
z
M 425 0 
L 425 3319 
L 988 3319 
L 988 0 
L 425 0 
z
" transform="scale(0.015625)"/>
        <path id="ArialMT-61" d="M 2588 409 
Q 2275 144 1986 34 
Q 1697 -75 1366 -75 
Q 819 -75 525 192 
Q 231 459 231 875 
Q 231 1119 342 1320 
Q 453 1522 633 1644 
Q 813 1766 1038 1828 
Q 1203 1872 1538 1913 
Q 2219 1994 2541 2106 
Q 2544 2222 2544 2253 
Q 2544 2597 2384 2738 
Q 2169 2928 1744 2928 
Q 1347 2928 1158 2789 
Q 969 2650 878 2297 
L 328 2372 
Q 403 2725 575 2942 
Q 747 3159 1072 3276 
Q 1397 3394 1825 3394 
Q 2250 3394 2515 3294 
Q 2781 3194 2906 3042 
Q 3031 2891 3081 2659 
Q 3109 2516 3109 2141 
L 3109 1391 
Q 3109 606 3145 398 
Q 3181 191 3288 0 
L 2700 0 
Q 2613 175 2588 409 
z
M 2541 1666 
Q 2234 1541 1622 1453 
Q 1275 1403 1131 1340 
Q 988 1278 909 1158 
Q 831 1038 831 891 
Q 831 666 1001 516 
Q 1172 366 1500 366 
Q 1825 366 2078 508 
Q 2331 650 2450 897 
Q 2541 1088 2541 1459 
L 2541 1666 
z
" transform="scale(0.015625)"/>
        <path id="ArialMT-75" d="M 2597 0 
L 2597 488 
Q 2209 -75 1544 -75 
Q 1250 -75 995 37 
Q 741 150 617 320 
Q 494 491 444 738 
Q 409 903 409 1263 
L 409 3319 
L 972 3319 
L 972 1478 
Q 972 1038 1006 884 
Q 1059 663 1231 536 
Q 1403 409 1656 409 
Q 1909 409 2131 539 
Q 2353 669 2445 892 
Q 2538 1116 2538 1541 
L 2538 3319 
L 3100 3319 
L 3100 0 
L 2597 0 
z
" transform="scale(0.015625)"/>
        <path id="ArialMT-6d" d="M 422 0 
L 422 3319 
L 925 3319 
L 925 2853 
Q 1081 3097 1340 3245 
Q 1600 3394 1931 3394 
Q 2300 3394 2536 3241 
Q 2772 3088 2869 2813 
Q 3263 3394 3894 3394 
Q 4388 3394 4653 3120 
Q 4919 2847 4919 2278 
L 4919 0 
L 4359 0 
L 4359 2091 
Q 4359 2428 4304 2576 
Q 4250 2725 4106 2815 
Q 3963 2906 3769 2906 
Q 3419 2906 3187 2673 
Q 2956 2441 2956 1928 
L 2956 0 
L 2394 0 
L 2394 2156 
Q 2394 2531 2256 2718 
Q 2119 2906 1806 2906 
Q 1569 2906 1367 2781 
Q 1166 2656 1075 2415 
Q 984 2175 984 1722 
L 984 0 
L 422 0 
z
" transform="scale(0.015625)"/>
       </defs>
       <use xlink:href="#ArialMT-73"/>
       <use xlink:href="#ArialMT-74" x="50"/>
       <use xlink:href="#ArialMT-72" x="77.783203"/>
       <use xlink:href="#ArialMT-69" x="111.083984"/>
       <use xlink:href="#ArialMT-61" x="133.300781"/>
       <use xlink:href="#ArialMT-74" x="188.916016"/>
       <use xlink:href="#ArialMT-75" x="216.699219"/>
       <use xlink:href="#ArialMT-6d" x="272.314453"/>
      </g>
     </g>
    </g>
    <g id="xtick_2">
     <g id="text_2">
      <!-- cortex -->
      <g style="fill: #262626" transform="translate(696.923672 530.013594)scale(0.11 -0.11)">
       <defs>
        <path id="ArialMT-63" d="M 2588 1216 
L 3141 1144 
Q 3050 572 2676 248 
Q 2303 -75 1759 -75 
Q 1078 -75 664 370 
Q 250 816 250 1647 
Q 250 2184 428 2587 
Q 606 2991 970 3192 
Q 1334 3394 1763 3394 
Q 2303 3394 2647 3120 
Q 2991 2847 3088 2344 
L 2541 2259 
Q 2463 2594 2264 2762 
Q 2066 2931 1784 2931 
Q 1359 2931 1093 2626 
Q 828 2322 828 1663 
Q 828 994 1084 691 
Q 1341 388 1753 388 
Q 2084 388 2306 591 
Q 2528 794 2588 1216 
z
" transform="scale(0.015625)"/>
        <path id="ArialMT-6f" d="M 213 1659 
Q 213 2581 725 3025 
Q 1153 3394 1769 3394 
Q 2453 3394 2887 2945 
Q 3322 2497 3322 1706 
Q 3322 1066 3130 698 
Q 2938 331 2570 128 
Q 2203 -75 1769 -75 
Q 1072 -75 642 372 
Q 213 819 213 1659 
z
M 791 1659 
Q 791 1022 1069 705 
Q 1347 388 1769 388 
Q 2188 388 2466 706 
Q 2744 1025 2744 1678 
Q 2744 2294 2464 2611 
Q 2184 2928 1769 2928 
Q 1347 2928 1069 2612 
Q 791 2297 791 1659 
z
" transform="scale(0.015625)"/>
        <path id="ArialMT-65" d="M 2694 1069 
L 3275 997 
Q 3138 488 2766 206 
Q 2394 -75 1816 -75 
Q 1088 -75 661 373 
Q 234 822 234 1631 
Q 234 2469 665 2931 
Q 1097 3394 1784 3394 
Q 2450 3394 2872 2941 
Q 3294 2488 3294 1666 
Q 3294 1616 3291 1516 
L 816 1516 
Q 847 969 1125 678 
Q 1403 388 1819 388 
Q 2128 388 2347 550 
Q 2566 713 2694 1069 
z
M 847 1978 
L 2700 1978 
Q 2663 2397 2488 2606 
Q 2219 2931 1791 2931 
Q 1403 2931 1139 2672 
Q 875 2413 847 1978 
z
" transform="scale(0.015625)"/>
        <path id="ArialMT-78" d="M 47 0 
L 1259 1725 
L 138 3319 
L 841 3319 
L 1350 2541 
Q 1494 2319 1581 2169 
Q 1719 2375 1834 2534 
L 2394 3319 
L 3066 3319 
L 1919 1756 
L 3153 0 
L 2463 0 
L 1781 1031 
L 1600 1309 
L 728 0 
L 47 0 
z
" transform="scale(0.015625)"/>
       </defs>
       <use xlink:href="#ArialMT-63"/>
       <use xlink:href="#ArialMT-6f" x="50"/>
       <use xlink:href="#ArialMT-72" x="105.615234"/>
       <use xlink:href="#ArialMT-74" x="138.916016"/>
       <use xlink:href="#ArialMT-65" x="166.699219"/>
       <use xlink:href="#ArialMT-78" x="222.314453"/>
      </g>
     </g>
    </g>
    <g id="text_3">
     <!-- TissueType -->
     <g style="fill: #262626" transform="translate(486.14625 544.789219)scale(0.12 -0.12)">
      <defs>
       <path id="ArialMT-54" d="M 1659 0 
L 1659 4041 
L 150 4041 
L 150 4581 
L 3781 4581 
L 3781 4041 
L 2266 4041 
L 2266 0 
L 1659 0 
z
" transform="scale(0.015625)"/>
       <path id="ArialMT-79" d="M 397 -1278 
L 334 -750 
Q 519 -800 656 -800 
Q 844 -800 956 -737 
Q 1069 -675 1141 -563 
Q 1194 -478 1313 -144 
Q 1328 -97 1363 -6 
L 103 3319 
L 709 3319 
L 1400 1397 
Q 1534 1031 1641 628 
Q 1738 1016 1872 1384 
L 2581 3319 
L 3144 3319 
L 1881 -56 
Q 1678 -603 1566 -809 
Q 1416 -1088 1222 -1217 
Q 1028 -1347 759 -1347 
Q 597 -1347 397 -1278 
z
" transform="scale(0.015625)"/>
       <path id="ArialMT-70" d="M 422 -1272 
L 422 3319 
L 934 3319 
L 934 2888 
Q 1116 3141 1344 3267 
Q 1572 3394 1897 3394 
Q 2322 3394 2647 3175 
Q 2972 2956 3137 2557 
Q 3303 2159 3303 1684 
Q 3303 1175 3120 767 
Q 2938 359 2589 142 
Q 2241 -75 1856 -75 
Q 1575 -75 1351 44 
Q 1128 163 984 344 
L 984 -1272 
L 422 -1272 
z
M 931 1641 
Q 931 1000 1190 694 
Q 1450 388 1819 388 
Q 2194 388 2461 705 
Q 2728 1022 2728 1688 
Q 2728 2322 2467 2637 
Q 2206 2953 1844 2953 
Q 1484 2953 1207 2617 
Q 931 2281 931 1641 
z
" transform="scale(0.015625)"/>
      </defs>
      <use xlink:href="#ArialMT-54"/>
      <use xlink:href="#ArialMT-69" x="57.333984"/>
      <use xlink:href="#ArialMT-73" x="79.550781"/>
      <use xlink:href="#ArialMT-73" x="129.550781"/>
      <use xlink:href="#ArialMT-75" x="179.550781"/>
      <use xlink:href="#ArialMT-65" x="235.166016"/>
      <use xlink:href="#ArialMT-54" x="290.78125"/>
      <use xlink:href="#ArialMT-79" x="346.365234"/>
      <use xlink:href="#ArialMT-70" x="396.365234"/>
      <use xlink:href="#ArialMT-65" x="451.980469"/>
     </g>
    </g>
   </g>
   <g id="matplotlib.axis_2">
    <g id="ytick_1">
     <g id="line2d_1">
      <path d="M 126 461.665427 
L 907.2 461.665427 
" clip-path="url(#p3c8a70f606)" style="fill: none; stroke: #cccccc; stroke-linecap: round"/>
     </g>
     <g id="text_4">
      <!-- 0.0 -->
      <g style="fill: #262626" transform="translate(101.21 465.602224)scale(0.11 -0.11)">
       <defs>
        <path id="ArialMT-30" d="M 266 2259 
Q 266 3072 433 3567 
Q 600 4063 929 4331 
Q 1259 4600 1759 4600 
Q 2128 4600 2406 4451 
Q 2684 4303 2865 4023 
Q 3047 3744 3150 3342 
Q 3253 2941 3253 2259 
Q 3253 1453 3087 958 
Q 2922 463 2592 192 
Q 2263 -78 1759 -78 
Q 1097 -78 719 397 
Q 266 969 266 2259 
z
M 844 2259 
Q 844 1131 1108 757 
Q 1372 384 1759 384 
Q 2147 384 2411 759 
Q 2675 1134 2675 2259 
Q 2675 3391 2411 3762 
Q 2147 4134 1753 4134 
Q 1366 4134 1134 3806 
Q 844 3388 844 2259 
z
" transform="scale(0.015625)"/>
        <path id="ArialMT-2e" d="M 581 0 
L 581 641 
L 1222 641 
L 1222 0 
L 581 0 
z
" transform="scale(0.015625)"/>
       </defs>
       <use xlink:href="#ArialMT-30"/>
       <use xlink:href="#ArialMT-2e" x="55.615234"/>
       <use xlink:href="#ArialMT-30" x="83.398438"/>
      </g>
     </g>
    </g>
    <g id="ytick_2">
     <g id="line2d_2">
      <path d="M 126 393.013764 
L 907.2 393.013764 
" clip-path="url(#p3c8a70f606)" style="fill: none; stroke: #cccccc; stroke-linecap: round"/>
     </g>
     <g id="text_5">
      <!-- 0.2 -->
      <g style="fill: #262626" transform="translate(101.21 396.950561)scale(0.11 -0.11)">
       <defs>
        <path id="ArialMT-32" d="M 3222 541 
L 3222 0 
L 194 0 
Q 188 203 259 391 
Q 375 700 629 1000 
Q 884 1300 1366 1694 
Q 2113 2306 2375 2664 
Q 2638 3022 2638 3341 
Q 2638 3675 2398 3904 
Q 2159 4134 1775 4134 
Q 1369 4134 1125 3890 
Q 881 3647 878 3216 
L 300 3275 
Q 359 3922 746 4261 
Q 1134 4600 1788 4600 
Q 2447 4600 2831 4234 
Q 3216 3869 3216 3328 
Q 3216 3053 3103 2787 
Q 2991 2522 2730 2228 
Q 2469 1934 1863 1422 
Q 1356 997 1212 845 
Q 1069 694 975 541 
L 3222 541 
z
" transform="scale(0.015625)"/>
       </defs>
       <use xlink:href="#ArialMT-30"/>
       <use xlink:href="#ArialMT-2e" x="55.615234"/>
       <use xlink:href="#ArialMT-32" x="83.398438"/>
      </g>
     </g>
    </g>
    <g id="ytick_3">
     <g id="line2d_3">
      <path d="M 126 324.362102 
L 907.2 324.362102 
" clip-path="url(#p3c8a70f606)" style="fill: none; stroke: #cccccc; stroke-linecap: round"/>
     </g>
     <g id="text_6">
      <!-- 0.4 -->
      <g style="fill: #262626" transform="translate(101.21 328.298899)scale(0.11 -0.11)">
       <defs>
        <path id="ArialMT-34" d="M 2069 0 
L 2069 1097 
L 81 1097 
L 81 1613 
L 2172 4581 
L 2631 4581 
L 2631 1613 
L 3250 1613 
L 3250 1097 
L 2631 1097 
L 2631 0 
L 2069 0 
z
M 2069 1613 
L 2069 3678 
L 634 1613 
L 2069 1613 
z
" transform="scale(0.015625)"/>
       </defs>
       <use xlink:href="#ArialMT-30"/>
       <use xlink:href="#ArialMT-2e" x="55.615234"/>
       <use xlink:href="#ArialMT-34" x="83.398438"/>
      </g>
     </g>
    </g>
    <g id="ytick_4">
     <g id="line2d_4">
      <path d="M 126 255.710439 
L 907.2 255.710439 
" clip-path="url(#p3c8a70f606)" style="fill: none; stroke: #cccccc; stroke-linecap: round"/>
     </g>
     <g id="text_7">
      <!-- 0.6 -->
      <g style="fill: #262626" transform="translate(101.21 259.647236)scale(0.11 -0.11)">
       <defs>
        <path id="ArialMT-36" d="M 3184 3459 
L 2625 3416 
Q 2550 3747 2413 3897 
Q 2184 4138 1850 4138 
Q 1581 4138 1378 3988 
Q 1113 3794 959 3422 
Q 806 3050 800 2363 
Q 1003 2672 1297 2822 
Q 1591 2972 1913 2972 
Q 2475 2972 2870 2558 
Q 3266 2144 3266 1488 
Q 3266 1056 3080 686 
Q 2894 316 2569 119 
Q 2244 -78 1831 -78 
Q 1128 -78 684 439 
Q 241 956 241 2144 
Q 241 3472 731 4075 
Q 1159 4600 1884 4600 
Q 2425 4600 2770 4297 
Q 3116 3994 3184 3459 
z
M 888 1484 
Q 888 1194 1011 928 
Q 1134 663 1356 523 
Q 1578 384 1822 384 
Q 2178 384 2434 671 
Q 2691 959 2691 1453 
Q 2691 1928 2437 2201 
Q 2184 2475 1800 2475 
Q 1419 2475 1153 2201 
Q 888 1928 888 1484 
z
" transform="scale(0.015625)"/>
       </defs>
       <use xlink:href="#ArialMT-30"/>
       <use xlink:href="#ArialMT-2e" x="55.615234"/>
       <use xlink:href="#ArialMT-36" x="83.398438"/>
      </g>
     </g>
    </g>
    <g id="ytick_5">
     <g id="line2d_5">
      <path d="M 126 187.058777 
L 907.2 187.058777 
" clip-path="url(#p3c8a70f606)" style="fill: none; stroke: #cccccc; stroke-linecap: round"/>
     </g>
     <g id="text_8">
      <!-- 0.8 -->
      <g style="fill: #262626" transform="translate(101.21 190.995574)scale(0.11 -0.11)">
       <defs>
        <path id="ArialMT-38" d="M 1131 2484 
Q 781 2613 612 2850 
Q 444 3088 444 3419 
Q 444 3919 803 4259 
Q 1163 4600 1759 4600 
Q 2359 4600 2725 4251 
Q 3091 3903 3091 3403 
Q 3091 3084 2923 2848 
Q 2756 2613 2416 2484 
Q 2838 2347 3058 2040 
Q 3278 1734 3278 1309 
Q 3278 722 2862 322 
Q 2447 -78 1769 -78 
Q 1091 -78 675 323 
Q 259 725 259 1325 
Q 259 1772 486 2073 
Q 713 2375 1131 2484 
z
M 1019 3438 
Q 1019 3113 1228 2906 
Q 1438 2700 1772 2700 
Q 2097 2700 2305 2904 
Q 2513 3109 2513 3406 
Q 2513 3716 2298 3927 
Q 2084 4138 1766 4138 
Q 1444 4138 1231 3931 
Q 1019 3725 1019 3438 
z
M 838 1322 
Q 838 1081 952 856 
Q 1066 631 1291 507 
Q 1516 384 1775 384 
Q 2178 384 2440 643 
Q 2703 903 2703 1303 
Q 2703 1709 2433 1975 
Q 2163 2241 1756 2241 
Q 1359 2241 1098 1978 
Q 838 1716 838 1322 
z
" transform="scale(0.015625)"/>
       </defs>
       <use xlink:href="#ArialMT-30"/>
       <use xlink:href="#ArialMT-2e" x="55.615234"/>
       <use xlink:href="#ArialMT-38" x="83.398438"/>
      </g>
     </g>
    </g>
    <g id="ytick_6">
     <g id="line2d_6">
      <path d="M 126 118.407114 
L 907.2 118.407114 
" clip-path="url(#p3c8a70f606)" style="fill: none; stroke: #cccccc; stroke-linecap: round"/>
     </g>
     <g id="text_9">
      <!-- 1.0 -->
      <g style="fill: #262626" transform="translate(101.21 122.343911)scale(0.11 -0.11)">
       <defs>
        <path id="ArialMT-31" d="M 2384 0 
L 1822 0 
L 1822 3584 
Q 1619 3391 1289 3197 
Q 959 3003 697 2906 
L 697 3450 
Q 1169 3672 1522 3987 
Q 1875 4303 2022 4600 
L 2384 4600 
L 2384 0 
z
" transform="scale(0.015625)"/>
       </defs>
       <use xlink:href="#ArialMT-31"/>
       <use xlink:href="#ArialMT-2e" x="55.615234"/>
       <use xlink:href="#ArialMT-30" x="83.398438"/>
      </g>
     </g>
    </g>
    <g id="text_10">
     <!-- log_scaled_area -->
     <g style="fill: #262626" transform="translate(94.684375 334.909688)rotate(-90)scale(0.12 -0.12)">
      <defs>
       <path id="ArialMT-6c" d="M 409 0 
L 409 4581 
L 972 4581 
L 972 0 
L 409 0 
z
" transform="scale(0.015625)"/>
       <path id="ArialMT-67" d="M 319 -275 
L 866 -356 
Q 900 -609 1056 -725 
Q 1266 -881 1628 -881 
Q 2019 -881 2231 -725 
Q 2444 -569 2519 -288 
Q 2563 -116 2559 434 
Q 2191 0 1641 0 
Q 956 0 581 494 
Q 206 988 206 1678 
Q 206 2153 378 2554 
Q 550 2956 876 3175 
Q 1203 3394 1644 3394 
Q 2231 3394 2613 2919 
L 2613 3319 
L 3131 3319 
L 3131 450 
Q 3131 -325 2973 -648 
Q 2816 -972 2473 -1159 
Q 2131 -1347 1631 -1347 
Q 1038 -1347 672 -1080 
Q 306 -813 319 -275 
z
M 784 1719 
Q 784 1066 1043 766 
Q 1303 466 1694 466 
Q 2081 466 2343 764 
Q 2606 1063 2606 1700 
Q 2606 2309 2336 2618 
Q 2066 2928 1684 2928 
Q 1309 2928 1046 2623 
Q 784 2319 784 1719 
z
" transform="scale(0.015625)"/>
       <path id="ArialMT-5f" d="M -97 -1272 
L -97 -866 
L 3631 -866 
L 3631 -1272 
L -97 -1272 
z
" transform="scale(0.015625)"/>
       <path id="ArialMT-64" d="M 2575 0 
L 2575 419 
Q 2259 -75 1647 -75 
Q 1250 -75 917 144 
Q 584 363 401 755 
Q 219 1147 219 1656 
Q 219 2153 384 2558 
Q 550 2963 881 3178 
Q 1213 3394 1622 3394 
Q 1922 3394 2156 3267 
Q 2391 3141 2538 2938 
L 2538 4581 
L 3097 4581 
L 3097 0 
L 2575 0 
z
M 797 1656 
Q 797 1019 1065 703 
Q 1334 388 1700 388 
Q 2069 388 2326 689 
Q 2584 991 2584 1609 
Q 2584 2291 2321 2609 
Q 2059 2928 1675 2928 
Q 1300 2928 1048 2622 
Q 797 2316 797 1656 
z
" transform="scale(0.015625)"/>
      </defs>
      <use xlink:href="#ArialMT-6c"/>
      <use xlink:href="#ArialMT-6f" x="22.216797"/>
      <use xlink:href="#ArialMT-67" x="77.832031"/>
      <use xlink:href="#ArialMT-5f" x="133.447266"/>
      <use xlink:href="#ArialMT-73" x="189.0625"/>
      <use xlink:href="#ArialMT-63" x="239.0625"/>
      <use xlink:href="#ArialMT-61" x="289.0625"/>
      <use xlink:href="#ArialMT-6c" x="344.677734"/>
      <use xlink:href="#ArialMT-65" x="366.894531"/>
      <use xlink:href="#ArialMT-64" x="422.509766"/>
      <use xlink:href="#ArialMT-5f" x="478.125"/>
      <use xlink:href="#ArialMT-61" x="533.740234"/>
      <use xlink:href="#ArialMT-72" x="589.355469"/>
      <use xlink:href="#ArialMT-65" x="622.65625"/>
      <use xlink:href="#ArialMT-61" x="678.271484"/>
     </g>
    </g>
   </g>
   <g id="patch_3">
    <path d="M 321.3 461.665427 
L 321.3 461.665427 
L 321.3 461.665427 
L 321.3 461.665427 
z
" clip-path="url(#p3c8a70f606)" style="fill: #5875a4; stroke: #4c4c4c; stroke-width: 0.75; stroke-linejoin: miter"/>
   </g>
   <g id="PolyCollection_1">
    <defs>
     <path id="m082d9ed566" d="M 243.378102 -88.439133 
L 242.981898 -88.439133 
L 242.832241 -92.382378 
L 242.623602 -96.325624 
L 242.368643 -100.268869 
L 242.101658 -104.212114 
L 241.873769 -108.155359 
L 241.737878 -112.098604 
L 241.72888 -116.04185 
L 241.849156 -119.985095 
L 242.067533 -123.92834 
L 242.332287 -127.871585 
L 242.590718 -131.814831 
L 242.805034 -135.758076 
L 242.958067 -139.701321 
L 243.048936 -143.644566 
L 243.083485 -147.587812 
L 243.064997 -151.531057 
L 242.988648 -155.474302 
L 242.840771 -159.417547 
L 242.602298 -163.360792 
L 242.254709 -167.304038 
L 241.78602 -171.247283 
L 241.194036 -175.190528 
L 240.485153 -179.133773 
L 239.669098 -183.077019 
L 238.752134 -187.020264 
L 237.731653 -190.963509 
L 236.593697 -194.906754 
L 235.313007 -198.85 
L 233.854562 -202.793245 
L 232.176028 -206.73649 
L 230.231033 -210.679735 
L 227.973024 -214.62298 
L 225.359661 -218.566226 
L 222.359184 -222.509471 
L 218.961567 -226.452716 
L 215.195831 -230.395961 
L 211.149334 -234.339207 
L 206.978253 -238.282452 
L 202.896613 -242.225697 
L 199.137982 -246.168942 
L 195.89729 -250.112188 
L 193.271814 -254.055433 
L 191.222683 -257.998678 
L 189.570592 -261.941923 
L 188.028734 -265.885168 
L 186.268768 -269.828414 
L 184.010484 -273.771659 
L 181.117003 -277.714904 
L 177.664814 -281.658149 
L 173.953262 -285.601395 
L 170.434432 -289.54464 
L 167.580717 -293.487885 
L 165.742834 -297.43113 
L 165.06 -301.374376 
L 165.456879 -305.317621 
L 166.715398 -309.260866 
L 168.57312 -313.204111 
L 170.794088 -317.147356 
L 173.182248 -321.090602 
L 175.54468 -325.033847 
L 177.642493 -328.977092 
L 179.177703 -332.920337 
L 179.849277 -336.863583 
L 179.474266 -340.806828 
L 178.125404 -344.750073 
L 176.209294 -348.693318 
L 174.421099 -352.636564 
L 173.565309 -356.579809 
L 174.302873 -360.523054 
L 176.931613 -364.466299 
L 181.297364 -368.409544 
L 186.86949 -372.35279 
L 192.934271 -376.296035 
L 198.812137 -380.23928 
L 204.014111 -384.182525 
L 208.302536 -388.125771 
L 211.671201 -392.069016 
L 214.280725 -396.012261 
L 216.377305 -399.955506 
L 218.208574 -403.898752 
L 219.947703 -407.841997 
L 221.644978 -411.785242 
L 223.22929 -415.728487 
L 224.567465 -419.671732 
L 225.56025 -423.614978 
L 226.228363 -427.558223 
L 226.740229 -431.501468 
L 227.361012 -435.444713 
L 228.345851 -439.387959 
L 229.832054 -443.331204 
L 231.784617 -447.274449 
L 234.017616 -451.217694 
L 236.272598 -455.160939 
L 238.310194 -459.104185 
L 239.974427 -463.04743 
L 241.212145 -466.990675 
L 242.054627 -470.93392 
L 242.581208 -474.877166 
L 242.884 -478.820411 
L 243.476 -478.820411 
L 243.476 -478.820411 
L 243.778792 -474.877166 
L 244.305373 -470.93392 
L 245.147855 -466.990675 
L 246.385573 -463.04743 
L 248.049806 -459.104185 
L 250.087402 -455.160939 
L 252.342384 -451.217694 
L 254.575383 -447.274449 
L 256.527946 -443.331204 
L 258.014149 -439.387959 
L 258.998988 -435.444713 
L 259.619771 -431.501468 
L 260.131637 -427.558223 
L 260.79975 -423.614978 
L 261.792535 -419.671732 
L 263.13071 -415.728487 
L 264.715022 -411.785242 
L 266.412297 -407.841997 
L 268.151426 -403.898752 
L 269.982695 -399.955506 
L 272.079275 -396.012261 
L 274.688799 -392.069016 
L 278.057464 -388.125771 
L 282.345889 -384.182525 
L 287.547863 -380.23928 
L 293.425729 -376.296035 
L 299.49051 -372.35279 
L 305.062636 -368.409544 
L 309.428387 -364.466299 
L 312.057127 -360.523054 
L 312.794691 -356.579809 
L 311.938901 -352.636564 
L 310.150706 -348.693318 
L 308.234596 -344.750073 
L 306.885734 -340.806828 
L 306.510723 -336.863583 
L 307.182297 -332.920337 
L 308.717507 -328.977092 
L 310.81532 -325.033847 
L 313.177752 -321.090602 
L 315.565912 -317.147356 
L 317.78688 -313.204111 
L 319.644602 -309.260866 
L 320.903121 -305.317621 
L 321.3 -301.374376 
L 320.617166 -297.43113 
L 318.779283 -293.487885 
L 315.925568 -289.54464 
L 312.406738 -285.601395 
L 308.695186 -281.658149 
L 305.242997 -277.714904 
L 302.349516 -273.771659 
L 300.091232 -269.828414 
L 298.331266 -265.885168 
L 296.789408 -261.941923 
L 295.137317 -257.998678 
L 293.088186 -254.055433 
L 290.46271 -250.112188 
L 287.222018 -246.168942 
L 283.463387 -242.225697 
L 279.381747 -238.282452 
L 275.210666 -234.339207 
L 271.164169 -230.395961 
L 267.398433 -226.452716 
L 264.000816 -222.509471 
L 261.000339 -218.566226 
L 258.386976 -214.62298 
L 256.128967 -210.679735 
L 254.183972 -206.73649 
L 252.505438 -202.793245 
L 251.046993 -198.85 
L 249.766303 -194.906754 
L 248.628347 -190.963509 
L 247.607866 -187.020264 
L 246.690902 -183.077019 
L 245.874847 -179.133773 
L 245.165964 -175.190528 
L 244.57398 -171.247283 
L 244.105291 -167.304038 
L 243.757702 -163.360792 
L 243.519229 -159.417547 
L 243.371352 -155.474302 
L 243.295003 -151.531057 
L 243.276515 -147.587812 
L 243.311064 -143.644566 
L 243.401933 -139.701321 
L 243.554966 -135.758076 
L 243.769282 -131.814831 
L 244.027713 -127.871585 
L 244.292467 -123.92834 
L 244.510844 -119.985095 
L 244.63112 -116.04185 
L 244.622122 -112.098604 
L 244.486231 -108.155359 
L 244.258342 -104.212114 
L 243.991357 -100.268869 
L 243.736398 -96.325624 
L 243.527759 -92.382378 
L 243.378102 -88.439133 
z
" style="stroke: #4c4c4c; stroke-width: 1.5"/>
    </defs>
    <g clip-path="url(#p3c8a70f606)">
     <use xlink:href="#m082d9ed566" x="0" y="576" style="fill: #5875a4; stroke: #4c4c4c; stroke-width: 1.5"/>
    </g>
   </g>
   <g id="patch_4">
    <path d="M 321.3 461.665427 
L 321.3 461.665427 
L 321.3 461.665427 
L 321.3 461.665427 
z
" clip-path="url(#p3c8a70f606)" style="fill: #cc8963; stroke: #4c4c4c; stroke-width: 0.75; stroke-linejoin: miter"/>
   </g>
   <g id="PolyCollection_2">
    <defs>
     <path id="m6f137d4813" d="M 400.011032 -87.055767 
L 398.828968 -87.055767 
L 398.402402 -91.054142 
L 397.812246 -95.052517 
L 397.089004 -99.050892 
L 396.318716 -103.049267 
L 395.633656 -107.047642 
L 395.177938 -111.046017 
L 395.058732 -115.044392 
L 395.305394 -119.042767 
L 395.857717 -123.041142 
L 396.589694 -127.039517 
L 397.355906 -131.037892 
L 398.037107 -135.036267 
L 398.565681 -139.034642 
L 398.925546 -143.033017 
L 399.134269 -147.031392 
L 399.220358 -151.029767 
L 399.205791 -155.028142 
L 399.097657 -159.026517 
L 398.887719 -163.024892 
L 398.55659 -167.023267 
L 398.079297 -171.021642 
L 397.430206 -175.020017 
L 396.586744 -179.018392 
L 395.532482 -183.016767 
L 394.260128 -187.015142 
L 392.773721 -191.013517 
L 391.087713 -195.011892 
L 389.220586 -199.010267 
L 387.183341 -203.008642 
L 384.96741 -207.007017 
L 382.539215 -211.005392 
L 379.847221 -215.003767 
L 376.842057 -219.002142 
L 373.5042 -223.000516 
L 369.870017 -226.998891 
L 366.046828 -230.997266 
L 362.209719 -234.995641 
L 358.576098 -238.994016 
L 355.359003 -242.992391 
L 352.708011 -246.990766 
L 350.655434 -250.989141 
L 349.089614 -254.987516 
L 347.771289 -258.985891 
L 346.393641 -262.984266 
L 344.669128 -266.982641 
L 342.415709 -270.981016 
L 339.615681 -274.979391 
L 336.42956 -278.977766 
L 333.159881 -282.976141 
L 330.172717 -286.974516 
L 327.797923 -290.972891 
L 326.240249 -294.971266 
L 325.535159 -298.969641 
L 325.568188 -302.968016 
L 326.147255 -306.966391 
L 327.089104 -310.964766 
L 328.273017 -314.963141 
L 329.634739 -318.961516 
L 331.110118 -322.959891 
L 332.569296 -326.958266 
L 333.790563 -330.956641 
L 334.504254 -334.955016 
L 334.50105 -338.953391 
L 333.762559 -342.951766 
L 332.551372 -346.950141 
L 331.404223 -350.948516 
L 331.007324 -354.946891 
L 331.986097 -358.945266 
L 334.688517 -362.943641 
L 339.054755 -366.942016 
L 344.632433 -370.940391 
L 350.730501 -374.938766 
L 356.641803 -378.937141 
L 361.840355 -382.935516 
L 366.083886 -386.933891 
L 369.404367 -390.932266 
L 372.015906 -394.930641 
L 374.189958 -398.929016 
L 376.143845 -402.927391 
L 377.973687 -406.925766 
L 379.646885 -410.924141 
L 381.052597 -414.922516 
L 382.089247 -418.92089 
L 382.750799 -422.919265 
L 383.169578 -426.91764 
L 383.590713 -430.916015 
L 384.286674 -434.91439 
L 385.451929 -438.912765 
L 387.128353 -442.91114 
L 389.194891 -446.909515 
L 391.420886 -450.90789 
L 393.552158 -454.906265 
L 395.388956 -458.90464 
L 396.827204 -462.903015 
L 397.857752 -466.90139 
L 398.537391 -470.899765 
L 398.95194 -474.89814 
L 399.186767 -478.896515 
L 399.310723 -482.89489 
L 399.529277 -482.89489 
L 399.529277 -482.89489 
L 399.653233 -478.896515 
L 399.88806 -474.89814 
L 400.302609 -470.899765 
L 400.982248 -466.90139 
L 402.012796 -462.903015 
L 403.451044 -458.90464 
L 405.287842 -454.906265 
L 407.419114 -450.90789 
L 409.645109 -446.909515 
L 411.711647 -442.91114 
L 413.388071 -438.912765 
L 414.553326 -434.91439 
L 415.249287 -430.916015 
L 415.670422 -426.91764 
L 416.089201 -422.919265 
L 416.750753 -418.92089 
L 417.787403 -414.922516 
L 419.193115 -410.924141 
L 420.866313 -406.925766 
L 422.696155 -402.927391 
L 424.650042 -398.929016 
L 426.824094 -394.930641 
L 429.435633 -390.932266 
L 432.756114 -386.933891 
L 436.999645 -382.935516 
L 442.198197 -378.937141 
L 448.109499 -374.938766 
L 454.207567 -370.940391 
L 459.785245 -366.942016 
L 464.151483 -362.943641 
L 466.853903 -358.945266 
L 467.832676 -354.946891 
L 467.435777 -350.948516 
L 466.288628 -346.950141 
L 465.077441 -342.951766 
L 464.33895 -338.953391 
L 464.335746 -334.955016 
L 465.049437 -330.956641 
L 466.270704 -326.958266 
L 467.729882 -322.959891 
L 469.205261 -318.961516 
L 470.566983 -314.963141 
L 471.750896 -310.964766 
L 472.692745 -306.966391 
L 473.271812 -302.968016 
L 473.304841 -298.969641 
L 472.599751 -294.971266 
L 471.042077 -290.972891 
L 468.667283 -286.974516 
L 465.680119 -282.976141 
L 462.41044 -278.977766 
L 459.224319 -274.979391 
L 456.424291 -270.981016 
L 454.170872 -266.982641 
L 452.446359 -262.984266 
L 451.068711 -258.985891 
L 449.750386 -254.987516 
L 448.184566 -250.989141 
L 446.131989 -246.990766 
L 443.480997 -242.992391 
L 440.263902 -238.994016 
L 436.630281 -234.995641 
L 432.793172 -230.997266 
L 428.969983 -226.998891 
L 425.3358 -223.000516 
L 421.997943 -219.002142 
L 418.992779 -215.003767 
L 416.300785 -211.005392 
L 413.87259 -207.007017 
L 411.656659 -203.008642 
L 409.619414 -199.010267 
L 407.752287 -195.011892 
L 406.066279 -191.013517 
L 404.579872 -187.015142 
L 403.307518 -183.016767 
L 402.253256 -179.018392 
L 401.409794 -175.020017 
L 400.760703 -171.021642 
L 400.28341 -167.023267 
L 399.952281 -163.024892 
L 399.742343 -159.026517 
L 399.634209 -155.028142 
L 399.619642 -151.029767 
L 399.705731 -147.031392 
L 399.914454 -143.033017 
L 400.274319 -139.034642 
L 400.802893 -135.036267 
L 401.484094 -131.037892 
L 402.250306 -127.039517 
L 402.982283 -123.041142 
L 403.534606 -119.042767 
L 403.781268 -115.044392 
L 403.662062 -111.046017 
L 403.206344 -107.047642 
L 402.521284 -103.049267 
L 401.750996 -99.050892 
L 401.027754 -95.052517 
L 400.437598 -91.054142 
L 400.011032 -87.055767 
z
" style="stroke: #4c4c4c; stroke-width: 1.5"/>
    </defs>
    <g clip-path="url(#p3c8a70f606)">
     <use xlink:href="#m6f137d4813" x="0" y="576" style="fill: #cc8963; stroke: #4c4c4c; stroke-width: 1.5"/>
    </g>
   </g>
   <g id="PolyCollection_3">
    <defs>
     <path id="me394201f97" d="M 634.035785 -85.207459 
L 633.524215 -85.207459 
L 633.350542 -89.263141 
L 633.112753 -93.318823 
L 632.820662 -97.374505 
L 632.503631 -101.430188 
L 632.208551 -105.48587 
L 631.989624 -109.541552 
L 631.89241 -113.597234 
L 631.938419 -117.652916 
L 632.117375 -121.708599 
L 632.390942 -125.764281 
L 632.706062 -129.819963 
L 633.011544 -133.875645 
L 633.270833 -137.931328 
L 633.466871 -141.98701 
L 633.599314 -146.042692 
L 633.677366 -150.098374 
L 633.711988 -154.154057 
L 633.709891 -158.209739 
L 633.67 -162.265421 
L 633.582023 -166.321103 
L 633.4266 -170.376786 
L 633.176799 -174.432468 
L 632.800855 -178.48815 
L 632.265877 -182.543832 
L 631.541789 -186.599514 
L 630.604661 -190.655197 
L 629.438998 -194.710879 
L 628.039399 -198.766561 
L 626.412233 -202.822243 
L 624.576905 -206.877926 
L 622.564175 -210.933608 
L 620.407982 -214.98929 
L 618.129585 -219.044972 
L 615.718635 -223.100655 
L 613.12144 -227.156337 
L 610.246827 -231.212019 
L 606.992517 -235.267701 
L 603.28354 -239.323384 
L 599.106725 -243.379066 
L 594.527057 -247.434748 
L 589.681196 -251.49043 
L 584.753393 -255.546113 
L 579.943093 -259.601795 
L 575.431406 -263.657477 
L 571.350848 -267.713159 
L 567.764102 -271.768841 
L 564.661582 -275.824524 
L 561.987081 -279.880206 
L 559.689848 -283.935888 
L 557.783352 -287.99157 
L 556.378011 -292.047253 
L 555.66 -296.102935 
L 555.813168 -300.158617 
L 556.913621 -304.214299 
L 558.84717 -308.269982 
L 561.294516 -312.325664 
L 563.79904 -316.381346 
L 565.893129 -320.437028 
L 567.231944 -324.492711 
L 567.682077 -328.548393 
L 567.335823 -332.604075 
L 566.456128 -336.659757 
L 565.384564 -340.715439 
L 564.452704 -344.771122 
L 563.925356 -348.826804 
L 563.981932 -352.882486 
L 564.723255 -356.938168 
L 566.185052 -360.993851 
L 568.346807 -365.049533 
L 571.137633 -369.105215 
L 574.448295 -373.160897 
L 578.154489 -377.21658 
L 582.144711 -381.272262 
L 586.337114 -385.327944 
L 590.672616 -389.383626 
L 595.085915 -393.439309 
L 599.472115 -397.494991 
L 603.672546 -401.550673 
L 607.494114 -405.606355 
L 610.757537 -409.662038 
L 613.3531 -413.71772 
L 615.278032 -417.773402 
L 616.639221 -421.829084 
L 617.622027 -425.884766 
L 618.440138 -429.940449 
L 619.2859 -433.996131 
L 620.295292 -438.051813 
L 621.532465 -442.107495 
L 622.991432 -446.163178 
L 624.60977 -450.21886 
L 626.289464 -454.274542 
L 627.920709 -458.330224 
L 629.404437 -462.385907 
L 630.669345 -466.441589 
L 631.680344 -470.497271 
L 632.43778 -474.552953 
L 632.969377 -478.608636 
L 633.318563 -482.664318 
L 633.532983 -486.72 
L 634.027017 -486.72 
L 634.027017 -486.72 
L 634.241437 -482.664318 
L 634.590623 -478.608636 
L 635.12222 -474.552953 
L 635.879656 -470.497271 
L 636.890655 -466.441589 
L 638.155563 -462.385907 
L 639.639291 -458.330224 
L 641.270536 -454.274542 
L 642.95023 -450.21886 
L 644.568568 -446.163178 
L 646.027535 -442.107495 
L 647.264708 -438.051813 
L 648.2741 -433.996131 
L 649.119862 -429.940449 
L 649.937973 -425.884766 
L 650.920779 -421.829084 
L 652.281968 -417.773402 
L 654.2069 -413.71772 
L 656.802463 -409.662038 
L 660.065886 -405.606355 
L 663.887454 -401.550673 
L 668.087885 -397.494991 
L 672.474085 -393.439309 
L 676.887384 -389.383626 
L 681.222886 -385.327944 
L 685.415289 -381.272262 
L 689.405511 -377.21658 
L 693.111705 -373.160897 
L 696.422367 -369.105215 
L 699.213193 -365.049533 
L 701.374948 -360.993851 
L 702.836745 -356.938168 
L 703.578068 -352.882486 
L 703.634644 -348.826804 
L 703.107296 -344.771122 
L 702.175436 -340.715439 
L 701.103872 -336.659757 
L 700.224177 -332.604075 
L 699.877923 -328.548393 
L 700.328056 -324.492711 
L 701.666871 -320.437028 
L 703.76096 -316.381346 
L 706.265484 -312.325664 
L 708.71283 -308.269982 
L 710.646379 -304.214299 
L 711.746832 -300.158617 
L 711.9 -296.102935 
L 711.181989 -292.047253 
L 709.776648 -287.99157 
L 707.870152 -283.935888 
L 705.572919 -279.880206 
L 702.898418 -275.824524 
L 699.795898 -271.768841 
L 696.209152 -267.713159 
L 692.128594 -263.657477 
L 687.616907 -259.601795 
L 682.806607 -255.546113 
L 677.878804 -251.49043 
L 673.032943 -247.434748 
L 668.453275 -243.379066 
L 664.27646 -239.323384 
L 660.567483 -235.267701 
L 657.313173 -231.212019 
L 654.43856 -227.156337 
L 651.841365 -223.100655 
L 649.430415 -219.044972 
L 647.152018 -214.98929 
L 644.995825 -210.933608 
L 642.983095 -206.877926 
L 641.147767 -202.822243 
L 639.520601 -198.766561 
L 638.121002 -194.710879 
L 636.955339 -190.655197 
L 636.018211 -186.599514 
L 635.294123 -182.543832 
L 634.759145 -178.48815 
L 634.383201 -174.432468 
L 634.1334 -170.376786 
L 633.977977 -166.321103 
L 633.89 -162.265421 
L 633.850109 -158.209739 
L 633.848012 -154.154057 
L 633.882634 -150.098374 
L 633.960686 -146.042692 
L 634.093129 -141.98701 
L 634.289167 -137.931328 
L 634.548456 -133.875645 
L 634.853938 -129.819963 
L 635.169058 -125.764281 
L 635.442625 -121.708599 
L 635.621581 -117.652916 
L 635.66759 -113.597234 
L 635.570376 -109.541552 
L 635.351449 -105.48587 
L 635.056369 -101.430188 
L 634.739338 -97.374505 
L 634.447247 -93.318823 
L 634.209458 -89.263141 
L 634.035785 -85.207459 
z
" style="stroke: #4c4c4c; stroke-width: 1.5"/>
    </defs>
    <g clip-path="url(#p3c8a70f606)">
     <use xlink:href="#me394201f97" x="0" y="576" style="fill: #5875a4; stroke: #4c4c4c; stroke-width: 1.5"/>
    </g>
   </g>
   <g id="PolyCollection_4">
    <defs>
     <path id="mc1ee8f47b9" d="M 790.4552 -83.52 
L 789.5848 -83.52 
L 789.310111 -87.553379 
L 788.938741 -91.586758 
L 788.482176 -95.620137 
L 787.977688 -99.653516 
L 787.487334 -103.686896 
L 787.08722 -107.720275 
L 786.848679 -111.753654 
L 786.817441 -115.787033 
L 786.998998 -119.820412 
L 787.356353 -123.853791 
L 787.820978 -127.88717 
L 788.312023 -131.920549 
L 788.755752 -135.953928 
L 789.09837 -139.987307 
L 789.309553 -144.020687 
L 789.378481 -148.054066 
L 789.306602 -152.087445 
L 789.101108 -156.120824 
L 788.771135 -160.154203 
L 788.326602 -164.187582 
L 787.778459 -168.220961 
L 787.139176 -172.25434 
L 786.422878 -176.287719 
L 785.645032 -180.321099 
L 784.821482 -184.354478 
L 783.966301 -188.387857 
L 783.087702 -192.421236 
L 782.181729 -196.454615 
L 781.224487 -200.487994 
L 780.165008 -204.521373 
L 778.921945 -208.554752 
L 777.387673 -212.588131 
L 775.442522 -216.62151 
L 772.979393 -220.65489 
L 769.934799 -224.688269 
L 766.317723 -228.721648 
L 762.224661 -232.755027 
L 757.830837 -236.788406 
L 753.354869 -240.821785 
L 749.005383 -244.855164 
L 744.928173 -248.888543 
L 741.175435 -252.921922 
L 737.71114 -256.955302 
L 734.450941 -260.988681 
L 731.318645 -265.02206 
L 728.293074 -269.055439 
L 725.424362 -273.088818 
L 722.814834 -277.122197 
L 720.577839 -281.155576 
L 718.797668 -285.188955 
L 717.509922 -289.222334 
L 716.707295 -293.255714 
L 716.360403 -297.289093 
L 716.436386 -301.322472 
L 716.902799 -305.355851 
L 717.716266 -309.38923 
L 718.805687 -313.422609 
L 720.062414 -317.455988 
L 721.344532 -321.489367 
L 722.494761 -325.522746 
L 723.36689 -329.556125 
L 723.855533 -333.589505 
L 723.925096 -337.622884 
L 723.632758 -341.656263 
L 723.137187 -345.689642 
L 722.683914 -349.723021 
L 722.563869 -353.7564 
L 723.052611 -357.789779 
L 724.348316 -361.823158 
L 726.529372 -365.856537 
L 729.545193 -369.889917 
L 733.240424 -373.923296 
L 737.400492 -377.956675 
L 741.801066 -381.990054 
L 746.246328 -386.023433 
L 750.588061 -390.056812 
L 754.725296 -394.090191 
L 758.590278 -398.12357 
L 762.129718 -402.156949 
L 765.290905 -406.190328 
L 768.019817 -410.223708 
L 770.27324 -414.257087 
L 772.040228 -418.290466 
L 773.362771 -422.323845 
L 774.344226 -426.357224 
L 775.138195 -430.390603 
L 775.918492 -434.423982 
L 776.839082 -438.457361 
L 777.997396 -442.49074 
L 779.41336 -446.52412 
L 781.030546 -450.557499 
L 782.737761 -454.590878 
L 784.402646 -458.624257 
L 785.905789 -462.657636 
L 787.165346 -466.691015 
L 788.146966 -470.724394 
L 788.859589 -474.757773 
L 789.34204 -478.791152 
L 789.646875 -482.824531 
L 790.393125 -482.824531 
L 790.393125 -482.824531 
L 790.69796 -478.791152 
L 791.180411 -474.757773 
L 791.893034 -470.724394 
L 792.874654 -466.691015 
L 794.134211 -462.657636 
L 795.637354 -458.624257 
L 797.302239 -454.590878 
L 799.009454 -450.557499 
L 800.62664 -446.52412 
L 802.042604 -442.49074 
L 803.200918 -438.457361 
L 804.121508 -434.423982 
L 804.901805 -430.390603 
L 805.695774 -426.357224 
L 806.677229 -422.323845 
L 807.999772 -418.290466 
L 809.76676 -414.257087 
L 812.020183 -410.223708 
L 814.749095 -406.190328 
L 817.910282 -402.156949 
L 821.449722 -398.12357 
L 825.314704 -394.090191 
L 829.451939 -390.056812 
L 833.793672 -386.023433 
L 838.238934 -381.990054 
L 842.639508 -377.956675 
L 846.799576 -373.923296 
L 850.494807 -369.889917 
L 853.510628 -365.856537 
L 855.691684 -361.823158 
L 856.987389 -357.789779 
L 857.476131 -353.7564 
L 857.356086 -349.723021 
L 856.902813 -345.689642 
L 856.407242 -341.656263 
L 856.114904 -337.622884 
L 856.184467 -333.589505 
L 856.67311 -329.556125 
L 857.545239 -325.522746 
L 858.695468 -321.489367 
L 859.977586 -317.455988 
L 861.234313 -313.422609 
L 862.323734 -309.38923 
L 863.137201 -305.355851 
L 863.603614 -301.322472 
L 863.679597 -297.289093 
L 863.332705 -293.255714 
L 862.530078 -289.222334 
L 861.242332 -285.188955 
L 859.462161 -281.155576 
L 857.225166 -277.122197 
L 854.615638 -273.088818 
L 851.746926 -269.055439 
L 848.721355 -265.02206 
L 845.589059 -260.988681 
L 842.32886 -256.955302 
L 838.864565 -252.921922 
L 835.111827 -248.888543 
L 831.034617 -244.855164 
L 826.685131 -240.821785 
L 822.209163 -236.788406 
L 817.815339 -232.755027 
L 813.722277 -228.721648 
L 810.105201 -224.688269 
L 807.060607 -220.65489 
L 804.597478 -216.62151 
L 802.652327 -212.588131 
L 801.118055 -208.554752 
L 799.874992 -204.521373 
L 798.815513 -200.487994 
L 797.858271 -196.454615 
L 796.952298 -192.421236 
L 796.073699 -188.387857 
L 795.218518 -184.354478 
L 794.394968 -180.321099 
L 793.617122 -176.287719 
L 792.900824 -172.25434 
L 792.261541 -168.220961 
L 791.713398 -164.187582 
L 791.268865 -160.154203 
L 790.938892 -156.120824 
L 790.733398 -152.087445 
L 790.661519 -148.054066 
L 790.730447 -144.020687 
L 790.94163 -139.987307 
L 791.284248 -135.953928 
L 791.727977 -131.920549 
L 792.219022 -127.88717 
L 792.683647 -123.853791 
L 793.041002 -119.820412 
L 793.222559 -115.787033 
L 793.191321 -111.753654 
L 792.95278 -107.720275 
L 792.552666 -103.686896 
L 792.062312 -99.653516 
L 791.557824 -95.620137 
L 791.101259 -91.586758 
L 790.729889 -87.553379 
L 790.4552 -83.52 
z
" style="stroke: #4c4c4c; stroke-width: 1.5"/>
    </defs>
    <g clip-path="url(#p3c8a70f606)">
     <use xlink:href="#mc1ee8f47b9" x="0" y="576" style="fill: #cc8963; stroke: #4c4c4c; stroke-width: 1.5"/>
    </g>
   </g>
   <g id="line2d_7">
    <path d="M 243.18 397.301851 
L 243.18 123.075029 
" clip-path="url(#p3c8a70f606)" style="fill: none; stroke: #4c4c4c; stroke-width: 1.5; stroke-linecap: round"/>
   </g>
   <g id="line2d_8">
    <path d="M 243.18 297.878775 
L 243.18 216.019721 
" clip-path="url(#p3c8a70f606)" style="fill: none; stroke: #4c4c4c; stroke-width: 4.5; stroke-linecap: round"/>
   </g>
   <g id="line2d_9">
    <path d="M 399.42 397.26178 
L 399.42 120.383916 
" clip-path="url(#p3c8a70f606)" style="fill: none; stroke: #4c4c4c; stroke-width: 1.5; stroke-linecap: round"/>
   </g>
   <g id="line2d_10">
    <path d="M 399.42 302.269468 
L 399.42 218.506559 
" clip-path="url(#p3c8a70f606)" style="fill: none; stroke: #4c4c4c; stroke-width: 4.5; stroke-linecap: round"/>
   </g>
   <g id="line2d_11">
    <path d="M 633.78 384.23424 
L 633.78 118.407114 
" clip-path="url(#p3c8a70f606)" style="fill: none; stroke: #4c4c4c; stroke-width: 1.5; stroke-linecap: round"/>
   </g>
   <g id="line2d_12">
    <path d="M 633.78 296.71796 
L 633.78 214.162925 
" clip-path="url(#p3c8a70f606)" style="fill: none; stroke: #4c4c4c; stroke-width: 4.5; stroke-linecap: round"/>
   </g>
   <g id="line2d_13">
    <path d="M 790.02 405.77213 
L 790.02 123.990042 
" clip-path="url(#p3c8a70f606)" style="fill: none; stroke: #4c4c4c; stroke-width: 1.5; stroke-linecap: round"/>
   </g>
   <g id="line2d_14">
    <path d="M 790.02 298.592125 
L 790.02 216.647784 
" clip-path="url(#p3c8a70f606)" style="fill: none; stroke: #4c4c4c; stroke-width: 4.5; stroke-linecap: round"/>
   </g>
   <g id="patch_5">
    <path d="M 126 512.64 
L 126 69.12 
" style="fill: none; stroke: #cccccc; stroke-width: 1.25; stroke-linejoin: miter; stroke-linecap: square"/>
   </g>
   <g id="patch_6">
    <path d="M 907.2 512.64 
L 907.2 69.12 
" style="fill: none; stroke: #cccccc; stroke-width: 1.25; stroke-linejoin: miter; stroke-linecap: square"/>
   </g>
   <g id="patch_7">
    <path d="M 126 512.64 
L 907.2 512.64 
" style="fill: none; stroke: #cccccc; stroke-width: 1.25; stroke-linejoin: miter; stroke-linecap: square"/>
   </g>
   <g id="patch_8">
    <path d="M 126 69.12 
L 907.2 69.12 
" style="fill: none; stroke: #cccccc; stroke-width: 1.25; stroke-linejoin: miter; stroke-linecap: square"/>
   </g>
   <g id="PathCollection_1">
    <defs>
     <path id="mde3595876e" d="M 0 1.5 
C 0.397805 1.5 0.77937 1.341951 1.06066 1.06066 
C 1.341951 0.77937 1.5 0.397805 1.5 0 
C 1.5 -0.397805 1.341951 -0.77937 1.06066 -1.06066 
C 0.77937 -1.341951 0.397805 -1.5 0 -1.5 
C -0.397805 -1.5 -0.77937 -1.341951 -1.06066 -1.06066 
C -1.341951 -0.77937 -1.5 -0.397805 -1.5 0 
C -1.5 0.397805 -1.341951 0.77937 -1.06066 1.06066 
C -0.77937 1.341951 -0.397805 1.5 0 1.5 
z
" style="stroke: #4c4c4c"/>
    </defs>
    <g clip-path="url(#p3c8a70f606)">
     <use xlink:href="#mde3595876e" x="243.18" y="260.221927" style="fill: #ffffff; stroke: #4c4c4c"/>
    </g>
   </g>
   <g id="PathCollection_2">
    <g clip-path="url(#p3c8a70f606)">
     <use xlink:href="#mde3595876e" x="399.42" y="262.349177" style="fill: #ffffff; stroke: #4c4c4c"/>
    </g>
   </g>
   <g id="PathCollection_3">
    <g clip-path="url(#p3c8a70f606)">
     <use xlink:href="#mde3595876e" x="633.78" y="260.280708" style="fill: #ffffff; stroke: #4c4c4c"/>
    </g>
   </g>
   <g id="PathCollection_4">
    <g clip-path="url(#p3c8a70f606)">
     <use xlink:href="#mde3595876e" x="790.02" y="260.693215" style="fill: #ffffff; stroke: #4c4c4c"/>
    </g>
   </g>
   <g id="legend_1">
    <g id="patch_9">
     <path d="M 803.7725 125.514063 
L 899.5 125.514063 
Q 901.7 125.514063 901.7 123.314063 
L 901.7 76.82 
Q 901.7 74.62 899.5 74.62 
L 803.7725 74.62 
Q 801.5725 74.62 801.5725 76.82 
L 801.5725 123.314063 
Q 801.5725 125.514063 803.7725 125.514063 
z
" style="fill: #ffffff; opacity: 0.8; stroke: #cccccc; stroke-linejoin: miter"/>
    </g>
    <g id="text_11">
     <!-- Treatment -->
     <g style="fill: #262626" transform="translate(824.520937 87.609375)scale(0.12 -0.12)">
      <defs>
       <path id="ArialMT-6e" d="M 422 0 
L 422 3319 
L 928 3319 
L 928 2847 
Q 1294 3394 1984 3394 
Q 2284 3394 2536 3286 
Q 2788 3178 2913 3003 
Q 3038 2828 3088 2588 
Q 3119 2431 3119 2041 
L 3119 0 
L 2556 0 
L 2556 2019 
Q 2556 2363 2490 2533 
Q 2425 2703 2258 2804 
Q 2091 2906 1866 2906 
Q 1506 2906 1245 2678 
Q 984 2450 984 1813 
L 984 0 
L 422 0 
z
" transform="scale(0.015625)"/>
      </defs>
      <use xlink:href="#ArialMT-54"/>
      <use xlink:href="#ArialMT-72" x="57.333984"/>
      <use xlink:href="#ArialMT-65" x="90.634766"/>
      <use xlink:href="#ArialMT-61" x="146.25"/>
      <use xlink:href="#ArialMT-74" x="201.865234"/>
      <use xlink:href="#ArialMT-6d" x="229.648438"/>
      <use xlink:href="#ArialMT-65" x="312.949219"/>
      <use xlink:href="#ArialMT-6e" x="368.564453"/>
      <use xlink:href="#ArialMT-74" x="424.179688"/>
     </g>
    </g>
    <g id="patch_10">
     <path d="M 805.9725 103.367969 
L 827.9725 103.367969 
L 827.9725 95.667969 
L 805.9725 95.667969 
z
" style="fill: #5875a4; stroke: #4c4c4c; stroke-width: 0.75; stroke-linejoin: miter"/>
    </g>
    <g id="text_12">
     <!-- control -->
     <g style="fill: #262626" transform="translate(836.7725 103.367969)scale(0.11 -0.11)">
      <use xlink:href="#ArialMT-63"/>
      <use xlink:href="#ArialMT-6f" x="50"/>
      <use xlink:href="#ArialMT-6e" x="105.615234"/>
      <use xlink:href="#ArialMT-74" x="161.230469"/>
      <use xlink:href="#ArialMT-72" x="189.013672"/>
      <use xlink:href="#ArialMT-6f" x="222.314453"/>
      <use xlink:href="#ArialMT-6c" x="277.929688"/>
     </g>
    </g>
    <g id="patch_11">
     <path d="M 805.9725 118.927813 
L 827.9725 118.927813 
L 827.9725 111.227813 
L 805.9725 111.227813 
z
" style="fill: #cc8963; stroke: #4c4c4c; stroke-width: 0.75; stroke-linejoin: miter"/>
    </g>
    <g id="text_13">
     <!-- deltamethrin -->
     <g style="fill: #262626" transform="translate(836.7725 118.927813)scale(0.11 -0.11)">
      <defs>
       <path id="ArialMT-68" d="M 422 0 
L 422 4581 
L 984 4581 
L 984 2938 
Q 1378 3394 1978 3394 
Q 2347 3394 2619 3248 
Q 2891 3103 3008 2847 
Q 3125 2591 3125 2103 
L 3125 0 
L 2563 0 
L 2563 2103 
Q 2563 2525 2380 2717 
Q 2197 2909 1863 2909 
Q 1613 2909 1392 2779 
Q 1172 2650 1078 2428 
Q 984 2206 984 1816 
L 984 0 
L 422 0 
z
" transform="scale(0.015625)"/>
      </defs>
      <use xlink:href="#ArialMT-64"/>
      <use xlink:href="#ArialMT-65" x="55.615234"/>
      <use xlink:href="#ArialMT-6c" x="111.230469"/>
      <use xlink:href="#ArialMT-74" x="133.447266"/>
      <use xlink:href="#ArialMT-61" x="161.230469"/>
      <use xlink:href="#ArialMT-6d" x="216.845703"/>
      <use xlink:href="#ArialMT-65" x="300.146484"/>
      <use xlink:href="#ArialMT-74" x="355.761719"/>
      <use xlink:href="#ArialMT-68" x="383.544922"/>
      <use xlink:href="#ArialMT-72" x="439.160156"/>
      <use xlink:href="#ArialMT-69" x="472.460938"/>
      <use xlink:href="#ArialMT-6e" x="494.677734"/>
     </g>
    </g>
   </g>
  </g>
 </g>
 <defs>
  <clipPath id="p3c8a70f606">
   <rect x="126" y="69.12" width="781.2" height="443.52"/>
  </clipPath>
 </defs>
</svg>
