<?xml version="1.0" encoding="utf-8" standalone="no"?>
<!DOCTYPE svg PUBLIC "-//W3C//DTD SVG 1.1//EN"
  "http://www.w3.org/Graphics/SVG/1.1/DTD/svg11.dtd">
<svg xmlns:xlink="http://www.w3.org/1999/xlink" width="864pt" height="576pt" viewBox="0 0 864 576" xmlns="http://www.w3.org/2000/svg" version="1.1">
 <metadata>
  <rdf:RDF xmlns:dc="http://purl.org/dc/elements/1.1/" xmlns:cc="http://creativecommons.org/ns#" xmlns:rdf="http://www.w3.org/1999/02/22-rdf-syntax-ns#">
   <cc:Work>
    <dc:type rdf:resource="http://purl.org/dc/dcmitype/StillImage"/>
    <dc:date>2023-02-03T16:20:29.151350</dc:date>
    <dc:format>image/svg+xml</dc:format>
    <dc:creator>
     <cc:Agent>
      <dc:title>Matplotlib v3.5.1, https://matplotlib.org/</dc:title>
     </cc:Agent>
    </dc:creator>
   </cc:Work>
  </rdf:RDF>
 </metadata>
 <defs>
  <style type="text/css">*{stroke-linejoin: round; stroke-linecap: butt}</style>
 </defs>
 <g id="figure_1">
  <g id="patch_1">
   <path d="M 0 576 
L 864 576 
L 864 0 
L 0 0 
z
" style="fill: #ffffff"/>
  </g>
  <g id="axes_1">
   <g id="patch_2">
    <path d="M 108 504 
L 777.6 504 
L 777.6 69.12 
L 108 69.12 
z
" style="fill: #ffffff"/>
   </g>
   <g id="matplotlib.axis_1">
    <g id="xtick_1">
     <g id="text_1">
      <!-- striatum -->
      <g style="fill: #262626" transform="translate(255.842344 521.373594)scale(0.11 -0.11)">
       <defs>
        <path id="ArialMT-73" d="M 197 991 
L 753 1078 
Q 800 744 1014 566 
Q 1228 388 1613 388 
Q 2000 388 2187 545 
Q 2375 703 2375 916 
Q 2375 1106 2209 1216 
Q 2094 1291 1634 1406 
Q 1016 1563 777 1677 
Q 538 1791 414 1992 
Q 291 2194 291 2438 
Q 291 2659 392 2848 
Q 494 3038 669 3163 
Q 800 3259 1026 3326 
Q 1253 3394 1513 3394 
Q 1903 3394 2198 3281 
Q 2494 3169 2634 2976 
Q 2775 2784 2828 2463 
L 2278 2388 
Q 2241 2644 2061 2787 
Q 1881 2931 1553 2931 
Q 1166 2931 1000 2803 
Q 834 2675 834 2503 
Q 834 2394 903 2306 
Q 972 2216 1119 2156 
Q 1203 2125 1616 2013 
Q 2213 1853 2448 1751 
Q 2684 1650 2818 1456 
Q 2953 1263 2953 975 
Q 2953 694 2789 445 
Q 2625 197 2315 61 
Q 2006 -75 1616 -75 
Q 969 -75 630 194 
Q 291 463 197 991 
z
" transform="scale(0.015625)"/>
        <path id="ArialMT-74" d="M 1650 503 
L 1731 6 
Q 1494 -44 1306 -44 
Q 1000 -44 831 53 
Q 663 150 594 308 
Q 525 466 525 972 
L 525 2881 
L 113 2881 
L 113 3319 
L 525 3319 
L 525 4141 
L 1084 4478 
L 1084 3319 
L 1650 3319 
L 1650 2881 
L 1084 2881 
L 1084 941 
Q 1084 700 1114 631 
Q 1144 563 1211 522 
Q 1278 481 1403 481 
Q 1497 481 1650 503 
z
" transform="scale(0.015625)"/>
        <path id="ArialMT-72" d="M 416 0 
L 416 3319 
L 922 3319 
L 922 2816 
Q 1116 3169 1280 3281 
Q 1444 3394 1641 3394 
Q 1925 3394 2219 3213 
L 2025 2691 
Q 1819 2813 1613 2813 
Q 1428 2813 1281 2702 
Q 1134 2591 1072 2394 
Q 978 2094 978 1738 
L 978 0 
L 416 0 
z
" transform="scale(0.015625)"/>
        <path id="ArialMT-69" d="M 425 3934 
L 425 4581 
L 988 4581 
L 988 3934 
L 425 3934 
z
M 425 0 
L 425 3319 
L 988 3319 
L 988 0 
L 425 0 
z
" transform="scale(0.015625)"/>
        <path id="ArialMT-61" d="M 2588 409 
Q 2275 144 1986 34 
Q 1697 -75 1366 -75 
Q 819 -75 525 192 
Q 231 459 231 875 
Q 231 1119 342 1320 
Q 453 1522 633 1644 
Q 813 1766 1038 1828 
Q 1203 1872 1538 1913 
Q 2219 1994 2541 2106 
Q 2544 2222 2544 2253 
Q 2544 2597 2384 2738 
Q 2169 2928 1744 2928 
Q 1347 2928 1158 2789 
Q 969 2650 878 2297 
L 328 2372 
Q 403 2725 575 2942 
Q 747 3159 1072 3276 
Q 1397 3394 1825 3394 
Q 2250 3394 2515 3294 
Q 2781 3194 2906 3042 
Q 3031 2891 3081 2659 
Q 3109 2516 3109 2141 
L 3109 1391 
Q 3109 606 3145 398 
Q 3181 191 3288 0 
L 2700 0 
Q 2613 175 2588 409 
z
M 2541 1666 
Q 2234 1541 1622 1453 
Q 1275 1403 1131 1340 
Q 988 1278 909 1158 
Q 831 1038 831 891 
Q 831 666 1001 516 
Q 1172 366 1500 366 
Q 1825 366 2078 508 
Q 2331 650 2450 897 
Q 2541 1088 2541 1459 
L 2541 1666 
z
" transform="scale(0.015625)"/>
        <path id="ArialMT-75" d="M 2597 0 
L 2597 488 
Q 2209 -75 1544 -75 
Q 1250 -75 995 37 
Q 741 150 617 320 
Q 494 491 444 738 
Q 409 903 409 1263 
L 409 3319 
L 972 3319 
L 972 1478 
Q 972 1038 1006 884 
Q 1059 663 1231 536 
Q 1403 409 1656 409 
Q 1909 409 2131 539 
Q 2353 669 2445 892 
Q 2538 1116 2538 1541 
L 2538 3319 
L 3100 3319 
L 3100 0 
L 2597 0 
z
" transform="scale(0.015625)"/>
        <path id="ArialMT-6d" d="M 422 0 
L 422 3319 
L 925 3319 
L 925 2853 
Q 1081 3097 1340 3245 
Q 1600 3394 1931 3394 
Q 2300 3394 2536 3241 
Q 2772 3088 2869 2813 
Q 3263 3394 3894 3394 
Q 4388 3394 4653 3120 
Q 4919 2847 4919 2278 
L 4919 0 
L 4359 0 
L 4359 2091 
Q 4359 2428 4304 2576 
Q 4250 2725 4106 2815 
Q 3963 2906 3769 2906 
Q 3419 2906 3187 2673 
Q 2956 2441 2956 1928 
L 2956 0 
L 2394 0 
L 2394 2156 
Q 2394 2531 2256 2718 
Q 2119 2906 1806 2906 
Q 1569 2906 1367 2781 
Q 1166 2656 1075 2415 
Q 984 2175 984 1722 
L 984 0 
L 422 0 
z
" transform="scale(0.015625)"/>
       </defs>
       <use xlink:href="#ArialMT-73"/>
       <use xlink:href="#ArialMT-74" x="50"/>
       <use xlink:href="#ArialMT-72" x="77.783203"/>
       <use xlink:href="#ArialMT-69" x="111.083984"/>
       <use xlink:href="#ArialMT-61" x="133.300781"/>
       <use xlink:href="#ArialMT-74" x="188.916016"/>
       <use xlink:href="#ArialMT-75" x="216.699219"/>
       <use xlink:href="#ArialMT-6d" x="272.314453"/>
      </g>
     </g>
    </g>
    <g id="xtick_2">
     <g id="text_2">
      <!-- cortex -->
      <g style="fill: #262626" transform="translate(595.223672 521.373594)scale(0.11 -0.11)">
       <defs>
        <path id="ArialMT-63" d="M 2588 1216 
L 3141 1144 
Q 3050 572 2676 248 
Q 2303 -75 1759 -75 
Q 1078 -75 664 370 
Q 250 816 250 1647 
Q 250 2184 428 2587 
Q 606 2991 970 3192 
Q 1334 3394 1763 3394 
Q 2303 3394 2647 3120 
Q 2991 2847 3088 2344 
L 2541 2259 
Q 2463 2594 2264 2762 
Q 2066 2931 1784 2931 
Q 1359 2931 1093 2626 
Q 828 2322 828 1663 
Q 828 994 1084 691 
Q 1341 388 1753 388 
Q 2084 388 2306 591 
Q 2528 794 2588 1216 
z
" transform="scale(0.015625)"/>
        <path id="ArialMT-6f" d="M 213 1659 
Q 213 2581 725 3025 
Q 1153 3394 1769 3394 
Q 2453 3394 2887 2945 
Q 3322 2497 3322 1706 
Q 3322 1066 3130 698 
Q 2938 331 2570 128 
Q 2203 -75 1769 -75 
Q 1072 -75 642 372 
Q 213 819 213 1659 
z
M 791 1659 
Q 791 1022 1069 705 
Q 1347 388 1769 388 
Q 2188 388 2466 706 
Q 2744 1025 2744 1678 
Q 2744 2294 2464 2611 
Q 2184 2928 1769 2928 
Q 1347 2928 1069 2612 
Q 791 2297 791 1659 
z
" transform="scale(0.015625)"/>
        <path id="ArialMT-65" d="M 2694 1069 
L 3275 997 
Q 3138 488 2766 206 
Q 2394 -75 1816 -75 
Q 1088 -75 661 373 
Q 234 822 234 1631 
Q 234 2469 665 2931 
Q 1097 3394 1784 3394 
Q 2450 3394 2872 2941 
Q 3294 2488 3294 1666 
Q 3294 1616 3291 1516 
L 816 1516 
Q 847 969 1125 678 
Q 1403 388 1819 388 
Q 2128 388 2347 550 
Q 2566 713 2694 1069 
z
M 847 1978 
L 2700 1978 
Q 2663 2397 2488 2606 
Q 2219 2931 1791 2931 
Q 1403 2931 1139 2672 
Q 875 2413 847 1978 
z
" transform="scale(0.015625)"/>
        <path id="ArialMT-78" d="M 47 0 
L 1259 1725 
L 138 3319 
L 841 3319 
L 1350 2541 
Q 1494 2319 1581 2169 
Q 1719 2375 1834 2534 
L 2394 3319 
L 3066 3319 
L 1919 1756 
L 3153 0 
L 2463 0 
L 1781 1031 
L 1600 1309 
L 728 0 
L 47 0 
z
" transform="scale(0.015625)"/>
       </defs>
       <use xlink:href="#ArialMT-63"/>
       <use xlink:href="#ArialMT-6f" x="50"/>
       <use xlink:href="#ArialMT-72" x="105.615234"/>
       <use xlink:href="#ArialMT-74" x="138.916016"/>
       <use xlink:href="#ArialMT-65" x="166.699219"/>
       <use xlink:href="#ArialMT-78" x="222.314453"/>
      </g>
     </g>
    </g>
    <g id="text_3">
     <!-- Tissue Type -->
     <g style="fill: #262626" transform="translate(410.784375 536.149219)scale(0.12 -0.12)">
      <defs>
       <path id="ArialMT-54" d="M 1659 0 
L 1659 4041 
L 150 4041 
L 150 4581 
L 3781 4581 
L 3781 4041 
L 2266 4041 
L 2266 0 
L 1659 0 
z
" transform="scale(0.015625)"/>
       <path id="ArialMT-20" transform="scale(0.015625)"/>
       <path id="ArialMT-79" d="M 397 -1278 
L 334 -750 
Q 519 -800 656 -800 
Q 844 -800 956 -737 
Q 1069 -675 1141 -563 
Q 1194 -478 1313 -144 
Q 1328 -97 1363 -6 
L 103 3319 
L 709 3319 
L 1400 1397 
Q 1534 1031 1641 628 
Q 1738 1016 1872 1384 
L 2581 3319 
L 3144 3319 
L 1881 -56 
Q 1678 -603 1566 -809 
Q 1416 -1088 1222 -1217 
Q 1028 -1347 759 -1347 
Q 597 -1347 397 -1278 
z
" transform="scale(0.015625)"/>
       <path id="ArialMT-70" d="M 422 -1272 
L 422 3319 
L 934 3319 
L 934 2888 
Q 1116 3141 1344 3267 
Q 1572 3394 1897 3394 
Q 2322 3394 2647 3175 
Q 2972 2956 3137 2557 
Q 3303 2159 3303 1684 
Q 3303 1175 3120 767 
Q 2938 359 2589 142 
Q 2241 -75 1856 -75 
Q 1575 -75 1351 44 
Q 1128 163 984 344 
L 984 -1272 
L 422 -1272 
z
M 931 1641 
Q 931 1000 1190 694 
Q 1450 388 1819 388 
Q 2194 388 2461 705 
Q 2728 1022 2728 1688 
Q 2728 2322 2467 2637 
Q 2206 2953 1844 2953 
Q 1484 2953 1207 2617 
Q 931 2281 931 1641 
z
" transform="scale(0.015625)"/>
      </defs>
      <use xlink:href="#ArialMT-54"/>
      <use xlink:href="#ArialMT-69" x="57.333984"/>
      <use xlink:href="#ArialMT-73" x="79.550781"/>
      <use xlink:href="#ArialMT-73" x="129.550781"/>
      <use xlink:href="#ArialMT-75" x="179.550781"/>
      <use xlink:href="#ArialMT-65" x="235.166016"/>
      <use xlink:href="#ArialMT-20" x="290.78125"/>
      <use xlink:href="#ArialMT-54" x="316.814453"/>
      <use xlink:href="#ArialMT-79" x="372.398438"/>
      <use xlink:href="#ArialMT-70" x="422.398438"/>
      <use xlink:href="#ArialMT-65" x="478.013672"/>
     </g>
    </g>
   </g>
   <g id="matplotlib.axis_2">
    <g id="ytick_1">
     <g id="text_4">
      <!-- −6 -->
      <g style="fill: #262626" transform="translate(85.958281 425.818985)scale(0.11 -0.11)">
       <defs>
        <path id="ArialMT-2212" d="M 3381 1997 
L 356 1997 
L 356 2522 
L 3381 2522 
L 3381 1997 
z
" transform="scale(0.015625)"/>
        <path id="ArialMT-36" d="M 3184 3459 
L 2625 3416 
Q 2550 3747 2413 3897 
Q 2184 4138 1850 4138 
Q 1581 4138 1378 3988 
Q 1113 3794 959 3422 
Q 806 3050 800 2363 
Q 1003 2672 1297 2822 
Q 1591 2972 1913 2972 
Q 2475 2972 2870 2558 
Q 3266 2144 3266 1488 
Q 3266 1056 3080 686 
Q 2894 316 2569 119 
Q 2244 -78 1831 -78 
Q 1128 -78 684 439 
Q 241 956 241 2144 
Q 241 3472 731 4075 
Q 1159 4600 1884 4600 
Q 2425 4600 2770 4297 
Q 3116 3994 3184 3459 
z
M 888 1484 
Q 888 1194 1011 928 
Q 1134 663 1356 523 
Q 1578 384 1822 384 
Q 2178 384 2434 671 
Q 2691 959 2691 1453 
Q 2691 1928 2437 2201 
Q 2184 2475 1800 2475 
Q 1419 2475 1153 2201 
Q 888 1928 888 1484 
z
" transform="scale(0.015625)"/>
       </defs>
       <use xlink:href="#ArialMT-2212"/>
       <use xlink:href="#ArialMT-36" x="58.398438"/>
      </g>
     </g>
    </g>
    <g id="ytick_2">
     <g id="text_5">
      <!-- −4 -->
      <g style="fill: #262626" transform="translate(85.958281 331.407362)scale(0.11 -0.11)">
       <defs>
        <path id="ArialMT-34" d="M 2069 0 
L 2069 1097 
L 81 1097 
L 81 1613 
L 2172 4581 
L 2631 4581 
L 2631 1613 
L 3250 1613 
L 3250 1097 
L 2631 1097 
L 2631 0 
L 2069 0 
z
M 2069 1613 
L 2069 3678 
L 634 1613 
L 2069 1613 
z
" transform="scale(0.015625)"/>
       </defs>
       <use xlink:href="#ArialMT-2212"/>
       <use xlink:href="#ArialMT-34" x="58.398438"/>
      </g>
     </g>
    </g>
    <g id="ytick_3">
     <g id="text_6">
      <!-- −2 -->
      <g style="fill: #262626" transform="translate(85.958281 236.995738)scale(0.11 -0.11)">
       <defs>
        <path id="ArialMT-32" d="M 3222 541 
L 3222 0 
L 194 0 
Q 188 203 259 391 
Q 375 700 629 1000 
Q 884 1300 1366 1694 
Q 2113 2306 2375 2664 
Q 2638 3022 2638 3341 
Q 2638 3675 2398 3904 
Q 2159 4134 1775 4134 
Q 1369 4134 1125 3890 
Q 881 3647 878 3216 
L 300 3275 
Q 359 3922 746 4261 
Q 1134 4600 1788 4600 
Q 2447 4600 2831 4234 
Q 3216 3869 3216 3328 
Q 3216 3053 3103 2787 
Q 2991 2522 2730 2228 
Q 2469 1934 1863 1422 
Q 1356 997 1212 845 
Q 1069 694 975 541 
L 3222 541 
z
" transform="scale(0.015625)"/>
       </defs>
       <use xlink:href="#ArialMT-2212"/>
       <use xlink:href="#ArialMT-32" x="58.398438"/>
      </g>
     </g>
    </g>
    <g id="ytick_4">
     <g id="text_7">
      <!-- 0 -->
      <g style="fill: #262626" transform="translate(92.382969 142.584114)scale(0.11 -0.11)">
       <defs>
        <path id="ArialMT-30" d="M 266 2259 
Q 266 3072 433 3567 
Q 600 4063 929 4331 
Q 1259 4600 1759 4600 
Q 2128 4600 2406 4451 
Q 2684 4303 2865 4023 
Q 3047 3744 3150 3342 
Q 3253 2941 3253 2259 
Q 3253 1453 3087 958 
Q 2922 463 2592 192 
Q 2263 -78 1759 -78 
Q 1097 -78 719 397 
Q 266 969 266 2259 
z
M 844 2259 
Q 844 1131 1108 757 
Q 1372 384 1759 384 
Q 2147 384 2411 759 
Q 2675 1134 2675 2259 
Q 2675 3391 2411 3762 
Q 2147 4134 1753 4134 
Q 1366 4134 1134 3806 
Q 844 3388 844 2259 
z
" transform="scale(0.015625)"/>
       </defs>
       <use xlink:href="#ArialMT-30"/>
      </g>
     </g>
    </g>
    <g id="text_8">
     <!-- logNormalizedArea -->
     <g style="fill: #262626" transform="translate(79.432656 337.580625)rotate(-90)scale(0.12 -0.12)">
      <defs>
       <path id="ArialMT-6c" d="M 409 0 
L 409 4581 
L 972 4581 
L 972 0 
L 409 0 
z
" transform="scale(0.015625)"/>
       <path id="ArialMT-67" d="M 319 -275 
L 866 -356 
Q 900 -609 1056 -725 
Q 1266 -881 1628 -881 
Q 2019 -881 2231 -725 
Q 2444 -569 2519 -288 
Q 2563 -116 2559 434 
Q 2191 0 1641 0 
Q 956 0 581 494 
Q 206 988 206 1678 
Q 206 2153 378 2554 
Q 550 2956 876 3175 
Q 1203 3394 1644 3394 
Q 2231 3394 2613 2919 
L 2613 3319 
L 3131 3319 
L 3131 450 
Q 3131 -325 2973 -648 
Q 2816 -972 2473 -1159 
Q 2131 -1347 1631 -1347 
Q 1038 -1347 672 -1080 
Q 306 -813 319 -275 
z
M 784 1719 
Q 784 1066 1043 766 
Q 1303 466 1694 466 
Q 2081 466 2343 764 
Q 2606 1063 2606 1700 
Q 2606 2309 2336 2618 
Q 2066 2928 1684 2928 
Q 1309 2928 1046 2623 
Q 784 2319 784 1719 
z
" transform="scale(0.015625)"/>
       <path id="ArialMT-4e" d="M 488 0 
L 488 4581 
L 1109 4581 
L 3516 984 
L 3516 4581 
L 4097 4581 
L 4097 0 
L 3475 0 
L 1069 3600 
L 1069 0 
L 488 0 
z
" transform="scale(0.015625)"/>
       <path id="ArialMT-7a" d="M 125 0 
L 125 456 
L 2238 2881 
Q 1878 2863 1603 2863 
L 250 2863 
L 250 3319 
L 2963 3319 
L 2963 2947 
L 1166 841 
L 819 456 
Q 1197 484 1528 484 
L 3063 484 
L 3063 0 
L 125 0 
z
" transform="scale(0.015625)"/>
       <path id="ArialMT-64" d="M 2575 0 
L 2575 419 
Q 2259 -75 1647 -75 
Q 1250 -75 917 144 
Q 584 363 401 755 
Q 219 1147 219 1656 
Q 219 2153 384 2558 
Q 550 2963 881 3178 
Q 1213 3394 1622 3394 
Q 1922 3394 2156 3267 
Q 2391 3141 2538 2938 
L 2538 4581 
L 3097 4581 
L 3097 0 
L 2575 0 
z
M 797 1656 
Q 797 1019 1065 703 
Q 1334 388 1700 388 
Q 2069 388 2326 689 
Q 2584 991 2584 1609 
Q 2584 2291 2321 2609 
Q 2059 2928 1675 2928 
Q 1300 2928 1048 2622 
Q 797 2316 797 1656 
z
" transform="scale(0.015625)"/>
       <path id="ArialMT-41" d="M -9 0 
L 1750 4581 
L 2403 4581 
L 4278 0 
L 3588 0 
L 3053 1388 
L 1138 1388 
L 634 0 
L -9 0 
z
M 1313 1881 
L 2866 1881 
L 2388 3150 
Q 2169 3728 2063 4100 
Q 1975 3659 1816 3225 
L 1313 1881 
z
" transform="scale(0.015625)"/>
      </defs>
      <use xlink:href="#ArialMT-6c"/>
      <use xlink:href="#ArialMT-6f" x="22.216797"/>
      <use xlink:href="#ArialMT-67" x="77.832031"/>
      <use xlink:href="#ArialMT-4e" x="133.447266"/>
      <use xlink:href="#ArialMT-6f" x="205.664062"/>
      <use xlink:href="#ArialMT-72" x="261.279297"/>
      <use xlink:href="#ArialMT-6d" x="294.580078"/>
      <use xlink:href="#ArialMT-61" x="377.880859"/>
      <use xlink:href="#ArialMT-6c" x="433.496094"/>
      <use xlink:href="#ArialMT-69" x="455.712891"/>
      <use xlink:href="#ArialMT-7a" x="477.929688"/>
      <use xlink:href="#ArialMT-65" x="527.929688"/>
      <use xlink:href="#ArialMT-64" x="583.544922"/>
      <use xlink:href="#ArialMT-41" x="639.160156"/>
      <use xlink:href="#ArialMT-72" x="705.859375"/>
      <use xlink:href="#ArialMT-65" x="739.160156"/>
      <use xlink:href="#ArialMT-61" x="794.775391"/>
     </g>
    </g>
   </g>
   <g id="patch_3">
    <path d="M 275.4 138.647317 
L 275.4 138.647317 
L 275.4 138.647317 
L 275.4 138.647317 
z
" clip-path="url(#pb395a7577e)" style="fill: #5875a4; stroke: #4c4c4c; stroke-width: 0.75; stroke-linejoin: miter"/>
   </g>
   <g id="PolyCollection_1">
    <defs>
     <path id="m0aaab550ea" d="M 208.460807 -124.867003 
L 208.419193 -124.867003 
L 208.40315 -128.328038 
L 208.380663 -131.789073 
L 208.353052 -135.250108 
L 208.323824 -138.711143 
L 208.297767 -142.172178 
L 208.27865 -145.633213 
L 208.266185 -149.094248 
L 208.25364 -152.555283 
L 208.227447 -156.016318 
L 208.169436 -159.477353 
L 208.061178 -162.938388 
L 207.888977 -166.399423 
L 207.647575 -169.860458 
L 207.340852 -173.321492 
L 206.978839 -176.782527 
L 206.571897 -180.243562 
L 206.124535 -183.704597 
L 205.632183 -187.165632 
L 205.083597 -190.626667 
L 204.46906 -194.087702 
L 203.790633 -197.548737 
L 203.067624 -201.009772 
L 202.330956 -204.470807 
L 201.605448 -207.931842 
L 200.886528 -211.392877 
L 200.122562 -214.853912 
L 199.212607 -218.314947 
L 198.023205 -221.775982 
L 196.421032 -225.237017 
L 194.313554 -228.698052 
L 191.687461 -232.159087 
L 188.63352 -235.620122 
L 185.346934 -239.081157 
L 182.09637 -242.542192 
L 179.163803 -246.003227 
L 176.769738 -249.464262 
L 175.008885 -252.925297 
L 173.822524 -256.386332 
L 173.021355 -259.847366 
L 172.350442 -263.308401 
L 171.568185 -266.769436 
L 170.506745 -270.230471 
L 169.094779 -273.691506 
L 167.34509 -277.152541 
L 165.324791 -280.613576 
L 163.125982 -284.074611 
L 160.844913 -287.535646 
L 158.568365 -290.996681 
L 156.364606 -294.457716 
L 154.280065 -297.918751 
L 152.343769 -301.379786 
L 150.575974 -304.840821 
L 148.991546 -308.301856 
L 147.591976 -311.762891 
L 146.353294 -315.223926 
L 145.227847 -318.684961 
L 144.171203 -322.145996 
L 143.182441 -325.607031 
L 142.327548 -329.068066 
L 141.722246 -332.529101 
L 141.48 -335.990136 
L 141.658166 -339.451171 
L 142.237034 -342.912205 
L 143.143323 -346.37324 
L 144.301449 -349.834275 
L 145.681782 -353.29531 
L 147.319869 -356.756345 
L 149.29753 -360.21738 
L 151.696024 -363.678415 
L 154.544672 -367.13945 
L 157.789344 -370.600485 
L 161.293701 -374.06152 
L 164.869283 -377.522555 
L 168.319526 -380.98359 
L 171.482525 -384.444625 
L 174.26307 -387.90566 
L 176.648287 -391.366695 
L 178.702268 -394.82773 
L 180.539058 -398.288765 
L 182.2829 -401.7498 
L 184.032617 -405.210835 
L 185.844439 -408.67187 
L 187.735262 -412.132905 
L 189.696755 -415.59394 
L 191.708893 -419.054975 
L 193.747516 -422.51601 
L 195.78632 -425.977045 
L 197.795245 -429.438079 
L 199.736974 -432.899114 
L 201.56442 -436.360149 
L 203.223155 -439.821184 
L 204.660678 -443.282219 
L 205.839586 -446.743254 
L 206.748176 -450.204289 
L 207.403077 -453.665324 
L 207.843143 -457.126359 
L 208.118228 -460.587394 
L 208.277936 -464.048429 
L 208.363928 -467.509464 
L 208.516072 -467.509464 
L 208.516072 -467.509464 
L 208.602064 -464.048429 
L 208.761772 -460.587394 
L 209.036857 -457.126359 
L 209.476923 -453.665324 
L 210.131824 -450.204289 
L 211.040414 -446.743254 
L 212.219322 -443.282219 
L 213.656845 -439.821184 
L 215.31558 -436.360149 
L 217.143026 -432.899114 
L 219.084755 -429.438079 
L 221.09368 -425.977045 
L 223.132484 -422.51601 
L 225.171107 -419.054975 
L 227.183245 -415.59394 
L 229.144738 -412.132905 
L 231.035561 -408.67187 
L 232.847383 -405.210835 
L 234.5971 -401.7498 
L 236.340942 -398.288765 
L 238.177732 -394.82773 
L 240.231713 -391.366695 
L 242.61693 -387.90566 
L 245.397475 -384.444625 
L 248.560474 -380.98359 
L 252.010717 -377.522555 
L 255.586299 -374.06152 
L 259.090656 -370.600485 
L 262.335328 -367.13945 
L 265.183976 -363.678415 
L 267.58247 -360.21738 
L 269.560131 -356.756345 
L 271.198218 -353.29531 
L 272.578551 -349.834275 
L 273.736677 -346.37324 
L 274.642966 -342.912205 
L 275.221834 -339.451171 
L 275.4 -335.990136 
L 275.157754 -332.529101 
L 274.552452 -329.068066 
L 273.697559 -325.607031 
L 272.708797 -322.145996 
L 271.652153 -318.684961 
L 270.526706 -315.223926 
L 269.288024 -311.762891 
L 267.888454 -308.301856 
L 266.304026 -304.840821 
L 264.536231 -301.379786 
L 262.599935 -297.918751 
L 260.515394 -294.457716 
L 258.311635 -290.996681 
L 256.035087 -287.535646 
L 253.754018 -284.074611 
L 251.555209 -280.613576 
L 249.53491 -277.152541 
L 247.785221 -273.691506 
L 246.373255 -270.230471 
L 245.311815 -266.769436 
L 244.529558 -263.308401 
L 243.858645 -259.847366 
L 243.057476 -256.386332 
L 241.871115 -252.925297 
L 240.110262 -249.464262 
L 237.716197 -246.003227 
L 234.78363 -242.542192 
L 231.533066 -239.081157 
L 228.24648 -235.620122 
L 225.192539 -232.159087 
L 222.566446 -228.698052 
L 220.458968 -225.237017 
L 218.856795 -221.775982 
L 217.667393 -218.314947 
L 216.757438 -214.853912 
L 215.993472 -211.392877 
L 215.274552 -207.931842 
L 214.549044 -204.470807 
L 213.812376 -201.009772 
L 213.089367 -197.548737 
L 212.41094 -194.087702 
L 211.796403 -190.626667 
L 211.247817 -187.165632 
L 210.755465 -183.704597 
L 210.308103 -180.243562 
L 209.901161 -176.782527 
L 209.539148 -173.321492 
L 209.232425 -169.860458 
L 208.991023 -166.399423 
L 208.818822 -162.938388 
L 208.710564 -159.477353 
L 208.652553 -156.016318 
L 208.62636 -152.555283 
L 208.613815 -149.094248 
L 208.60135 -145.633213 
L 208.582233 -142.172178 
L 208.556176 -138.711143 
L 208.526948 -135.250108 
L 208.499337 -131.789073 
L 208.47685 -128.328038 
L 208.460807 -124.867003 
z
" style="stroke: #4c4c4c; stroke-width: 1.5"/>
    </defs>
    <g clip-path="url(#pb395a7577e)">
     <use xlink:href="#m0aaab550ea" x="0" y="576" style="fill: #5875a4; stroke: #4c4c4c; stroke-width: 1.5"/>
    </g>
   </g>
   <g id="patch_4">
    <path d="M 275.4 138.647317 
L 275.4 138.647317 
L 275.4 138.647317 
L 275.4 138.647317 
z
" clip-path="url(#pb395a7577e)" style="fill: #cc8963; stroke: #4c4c4c; stroke-width: 0.75; stroke-linejoin: miter"/>
   </g>
   <g id="PolyCollection_2">
    <defs>
     <path id="mecd57382ec" d="M 342.379982 -91.767273 
L 342.340018 -91.767273 
L 342.322634 -95.760661 
L 342.297851 -99.75405 
L 342.268054 -103.747438 
L 342.239006 -107.740826 
L 342.218377 -111.734215 
L 342.212542 -115.727603 
L 342.223389 -119.720992 
L 342.247257 -123.71438 
L 342.276675 -127.707769 
L 342.303555 -131.701157 
L 342.321564 -135.694545 
L 342.326408 -139.687934 
L 342.314488 -143.681322 
L 342.281431 -147.674711 
L 342.221771 -151.668099 
L 342.129951 -155.661488 
L 342.001679 -159.654876 
L 341.834171 -163.648264 
L 341.624286 -167.641653 
L 341.364924 -171.635041 
L 341.041706 -175.62843 
L 340.63271 -179.621818 
L 340.113116 -183.615207 
L 339.464447 -187.608595 
L 338.685918 -191.601983 
L 337.803886 -195.595372 
L 336.873808 -199.58876 
L 335.967691 -203.582149 
L 335.142335 -207.575537 
L 334.393966 -211.568926 
L 333.621 -215.562314 
L 332.626119 -219.555702 
L 331.176273 -223.549091 
L 329.103394 -227.542479 
L 326.39232 -231.535868 
L 323.199236 -235.529256 
L 319.786413 -239.522645 
L 316.418224 -243.516033 
L 313.288363 -247.509421 
L 310.513922 -251.50281 
L 308.16949 -255.496198 
L 306.303757 -259.489587 
L 304.910555 -263.482975 
L 303.882668 -267.476364 
L 303.001637 -271.469752 
L 301.989218 -275.46314 
L 300.598005 -279.456529 
L 298.693318 -283.449917 
L 296.28848 -287.443306 
L 293.525775 -291.436694 
L 290.624611 -295.430083 
L 287.829958 -299.423471 
L 285.379264 -303.41686 
L 283.477068 -307.410248 
L 282.255592 -311.403636 
L 281.724575 -315.397025 
L 281.748715 -319.390413 
L 282.090105 -323.383802 
L 282.505742 -327.37719 
L 282.840355 -331.370579 
L 283.054546 -335.363967 
L 283.18172 -339.357355 
L 283.266685 -343.350744 
L 283.34996 -347.344132 
L 283.512957 -351.337521 
L 283.931855 -355.330909 
L 284.864356 -359.324298 
L 286.542946 -363.317686 
L 289.033296 -367.311074 
L 292.160624 -371.304463 
L 295.565879 -375.297851 
L 298.860811 -379.29124 
L 301.78435 -383.284628 
L 304.271533 -387.278017 
L 306.414008 -391.271405 
L 308.361361 -395.264793 
L 310.238013 -399.258182 
L 312.121398 -403.25157 
L 314.07159 -407.244959 
L 316.164468 -411.238347 
L 318.487602 -415.231736 
L 321.098569 -419.225124 
L 323.979813 -423.218512 
L 327.024313 -427.211901 
L 330.060026 -431.205289 
L 332.896795 -435.198678 
L 335.373584 -439.192066 
L 337.39137 -443.185455 
L 338.925817 -447.178843 
L 340.019801 -451.172231 
L 340.760581 -455.16562 
L 341.250354 -459.159008 
L 341.580181 -463.152397 
L 341.814827 -467.145785 
L 341.990721 -471.139174 
L 342.123687 -475.132562 
L 342.219881 -479.12595 
L 342.284032 -483.119339 
L 342.322661 -487.112727 
L 342.397339 -487.112727 
L 342.397339 -487.112727 
L 342.435968 -483.119339 
L 342.500119 -479.12595 
L 342.596313 -475.132562 
L 342.729279 -471.139174 
L 342.905173 -467.145785 
L 343.139819 -463.152397 
L 343.469646 -459.159008 
L 343.959419 -455.16562 
L 344.700199 -451.172231 
L 345.794183 -447.178843 
L 347.32863 -443.185455 
L 349.346416 -439.192066 
L 351.823205 -435.198678 
L 354.659974 -431.205289 
L 357.695687 -427.211901 
L 360.740187 -423.218512 
L 363.621431 -419.225124 
L 366.232398 -415.231736 
L 368.555532 -411.238347 
L 370.64841 -407.244959 
L 372.598602 -403.25157 
L 374.481987 -399.258182 
L 376.358639 -395.264793 
L 378.305992 -391.271405 
L 380.448467 -387.278017 
L 382.93565 -383.284628 
L 385.859189 -379.29124 
L 389.154121 -375.297851 
L 392.559376 -371.304463 
L 395.686704 -367.311074 
L 398.177054 -363.317686 
L 399.855644 -359.324298 
L 400.788145 -355.330909 
L 401.207043 -351.337521 
L 401.37004 -347.344132 
L 401.453315 -343.350744 
L 401.53828 -339.357355 
L 401.665454 -335.363967 
L 401.879645 -331.370579 
L 402.214258 -327.37719 
L 402.629895 -323.383802 
L 402.971285 -319.390413 
L 402.995425 -315.397025 
L 402.464408 -311.403636 
L 401.242932 -307.410248 
L 399.340736 -303.41686 
L 396.890042 -299.423471 
L 394.095389 -295.430083 
L 391.194225 -291.436694 
L 388.43152 -287.443306 
L 386.026682 -283.449917 
L 384.121995 -279.456529 
L 382.730782 -275.46314 
L 381.718363 -271.469752 
L 380.837332 -267.476364 
L 379.809445 -263.482975 
L 378.416243 -259.489587 
L 376.55051 -255.496198 
L 374.206078 -251.50281 
L 371.431637 -247.509421 
L 368.301776 -243.516033 
L 364.933587 -239.522645 
L 361.520764 -235.529256 
L 358.32768 -231.535868 
L 355.616606 -227.542479 
L 353.543727 -223.549091 
L 352.093881 -219.555702 
L 351.099 -215.562314 
L 350.326034 -211.568926 
L 349.577665 -207.575537 
L 348.752309 -203.582149 
L 347.846192 -199.58876 
L 346.916114 -195.595372 
L 346.034082 -191.601983 
L 345.255553 -187.608595 
L 344.606884 -183.615207 
L 344.08729 -179.621818 
L 343.678294 -175.62843 
L 343.355076 -171.635041 
L 343.095714 -167.641653 
L 342.885829 -163.648264 
L 342.718321 -159.654876 
L 342.590049 -155.661488 
L 342.498229 -151.668099 
L 342.438569 -147.674711 
L 342.405512 -143.681322 
L 342.393592 -139.687934 
L 342.398436 -135.694545 
L 342.416445 -131.701157 
L 342.443325 -127.707769 
L 342.472743 -123.71438 
L 342.496611 -119.720992 
L 342.507458 -115.727603 
L 342.501623 -111.734215 
L 342.480994 -107.740826 
L 342.451946 -103.747438 
L 342.422149 -99.75405 
L 342.397366 -95.760661 
L 342.379982 -91.767273 
z
" style="stroke: #4c4c4c; stroke-width: 1.5"/>
    </defs>
    <g clip-path="url(#pb395a7577e)">
     <use xlink:href="#mecd57382ec" x="0" y="576" style="fill: #cc8963; stroke: #4c4c4c; stroke-width: 1.5"/>
    </g>
   </g>
   <g id="PolyCollection_3">
    <defs>
     <path id="m7fc179e22e" d="M 543.287508 -149.87082 
L 543.192492 -149.87082 
L 543.158338 -153.199799 
L 543.106816 -156.528778 
L 543.033039 -159.857757 
L 542.932028 -163.186736 
L 542.798675 -166.515715 
L 542.627487 -169.844693 
L 542.41245 -173.173672 
L 542.147533 -176.502651 
L 541.828184 -179.83163 
L 541.453552 -183.160609 
L 541.02843 -186.489588 
L 540.563484 -189.818567 
L 540.072884 -193.147545 
L 539.569653 -196.476524 
L 539.060366 -199.805503 
L 538.541205 -203.134482 
L 537.996422 -206.463461 
L 537.398718 -209.79244 
L 536.71013 -213.121418 
L 535.882618 -216.450397 
L 534.859381 -219.779376 
L 533.579468 -223.108355 
L 531.987842 -226.437334 
L 530.050467 -229.766313 
L 527.770333 -233.095292 
L 525.197972 -236.42427 
L 522.430661 -239.753249 
L 519.598573 -243.082228 
L 516.841698 -246.411207 
L 514.285664 -249.740186 
L 512.024756 -253.069165 
L 510.115935 -256.398143 
L 508.58091 -259.727122 
L 507.408717 -263.056101 
L 506.552378 -266.38508 
L 505.920048 -269.714059 
L 505.369236 -273.043038 
L 504.716013 -276.372017 
L 503.766039 -279.700995 
L 502.362361 -283.029974 
L 500.433187 -286.358953 
L 498.018643 -289.687932 
L 495.262583 -293.016911 
L 492.370543 -296.34589 
L 489.550111 -299.674868 
L 486.957166 -303.003847 
L 484.667576 -306.332826 
L 482.681976 -309.661805 
L 480.957691 -312.990784 
L 479.452557 -316.319763 
L 478.162634 -319.648742 
L 477.139089 -322.97772 
L 476.477134 -326.306699 
L 476.28 -329.635678 
L 476.610977 -332.964657 
L 477.452879 -336.293636 
L 478.693294 -339.622615 
L 480.144798 -342.951593 
L 481.595262 -346.280572 
L 482.870583 -349.609551 
L 483.886623 -352.93853 
L 484.671182 -356.267509 
L 485.348736 -359.596488 
L 486.09519 -362.925467 
L 487.080751 -366.254445 
L 488.421684 -369.583424 
L 490.155505 -372.912403 
L 492.242953 -376.241382 
L 494.590009 -379.570361 
L 497.078847 -382.89934 
L 499.598156 -386.228318 
L 502.067293 -389.557297 
L 504.451401 -392.886276 
L 506.765054 -396.215255 
L 509.062384 -399.544234 
L 511.414459 -402.873213 
L 513.879989 -406.202192 
L 516.479832 -409.53117 
L 519.185815 -412.860149 
L 521.928551 -416.189128 
L 524.620159 -419.518107 
L 527.180895 -422.847086 
L 529.557772 -426.176065 
L 531.728557 -429.505043 
L 533.692743 -432.834022 
L 535.457197 -436.163001 
L 537.025135 -439.49198 
L 538.393197 -442.820959 
L 539.555826 -446.149938 
L 540.51239 -449.478917 
L 541.272248 -452.807895 
L 541.855338 -456.136874 
L 542.288865 -459.465853 
L 542.602393 -462.794832 
L 542.82362 -466.123811 
L 542.976022 -469.45279 
L 543.078271 -472.781768 
L 543.144739 -476.110747 
L 543.186329 -479.439726 
L 543.293671 -479.439726 
L 543.293671 -479.439726 
L 543.335261 -476.110747 
L 543.401729 -472.781768 
L 543.503978 -469.45279 
L 543.65638 -466.123811 
L 543.877607 -462.794832 
L 544.191135 -459.465853 
L 544.624662 -456.136874 
L 545.207752 -452.807895 
L 545.96761 -449.478917 
L 546.924174 -446.149938 
L 548.086803 -442.820959 
L 549.454865 -439.49198 
L 551.022803 -436.163001 
L 552.787257 -432.834022 
L 554.751443 -429.505043 
L 556.922228 -426.176065 
L 559.299105 -422.847086 
L 561.859841 -419.518107 
L 564.551449 -416.189128 
L 567.294185 -412.860149 
L 570.000168 -409.53117 
L 572.600011 -406.202192 
L 575.065541 -402.873213 
L 577.417616 -399.544234 
L 579.714946 -396.215255 
L 582.028599 -392.886276 
L 584.412707 -389.557297 
L 586.881844 -386.228318 
L 589.401153 -382.89934 
L 591.889991 -379.570361 
L 594.237047 -376.241382 
L 596.324495 -372.912403 
L 598.058316 -369.583424 
L 599.399249 -366.254445 
L 600.38481 -362.925467 
L 601.131264 -359.596488 
L 601.808818 -356.267509 
L 602.593377 -352.93853 
L 603.609417 -349.609551 
L 604.884738 -346.280572 
L 606.335202 -342.951593 
L 607.786706 -339.622615 
L 609.027121 -336.293636 
L 609.869023 -332.964657 
L 610.2 -329.635678 
L 610.002866 -326.306699 
L 609.340911 -322.97772 
L 608.317366 -319.648742 
L 607.027443 -316.319763 
L 605.522309 -312.990784 
L 603.798024 -309.661805 
L 601.812424 -306.332826 
L 599.522834 -303.003847 
L 596.929889 -299.674868 
L 594.109457 -296.34589 
L 591.217417 -293.016911 
L 588.461357 -289.687932 
L 586.046813 -286.358953 
L 584.117639 -283.029974 
L 582.713961 -279.700995 
L 581.763987 -276.372017 
L 581.110764 -273.043038 
L 580.559952 -269.714059 
L 579.927622 -266.38508 
L 579.071283 -263.056101 
L 577.89909 -259.727122 
L 576.364065 -256.398143 
L 574.455244 -253.069165 
L 572.194336 -249.740186 
L 569.638302 -246.411207 
L 566.881427 -243.082228 
L 564.049339 -239.753249 
L 561.282028 -236.42427 
L 558.709667 -233.095292 
L 556.429533 -229.766313 
L 554.492158 -226.437334 
L 552.900532 -223.108355 
L 551.620619 -219.779376 
L 550.597382 -216.450397 
L 549.76987 -213.121418 
L 549.081282 -209.79244 
L 548.483578 -206.463461 
L 547.938795 -203.134482 
L 547.419634 -199.805503 
L 546.910347 -196.476524 
L 546.407116 -193.147545 
L 545.916516 -189.818567 
L 545.45157 -186.489588 
L 545.026448 -183.160609 
L 544.651816 -179.83163 
L 544.332467 -176.502651 
L 544.06755 -173.173672 
L 543.852513 -169.844693 
L 543.681325 -166.515715 
L 543.547972 -163.186736 
L 543.446961 -159.857757 
L 543.373184 -156.528778 
L 543.321662 -153.199799 
L 543.287508 -149.87082 
z
" style="stroke: #4c4c4c; stroke-width: 1.5"/>
    </defs>
    <g clip-path="url(#pb395a7577e)">
     <use xlink:href="#m7fc179e22e" x="0" y="576" style="fill: #5875a4; stroke: #4c4c4c; stroke-width: 1.5"/>
    </g>
   </g>
   <g id="PolyCollection_4">
    <defs>
     <path id="m2b8091ef07" d="M 677.231649 -147.934123 
L 677.088351 -147.934123 
L 677.037113 -151.20684 
L 676.960989 -154.479558 
L 676.855239 -157.752275 
L 676.717775 -161.024993 
L 676.550201 -164.29771 
L 676.357641 -167.570428 
L 676.146875 -170.843145 
L 675.922955 -174.115863 
L 675.685321 -177.38858 
L 675.425036 -180.661297 
L 675.124712 -183.934015 
L 674.761885 -187.206732 
L 674.315263 -190.47945 
L 673.771939 -193.752167 
L 673.132942 -197.024885 
L 672.414698 -200.297602 
L 671.645189 -203.570319 
L 670.855359 -206.843037 
L 670.068161 -210.115754 
L 669.288721 -213.388472 
L 668.498923 -216.661189 
L 667.658253 -219.933907 
L 666.710517 -223.206624 
L 665.594173 -226.479342 
L 664.253376 -229.752059 
L 662.647529 -233.024776 
L 660.758439 -236.297494 
L 658.595106 -239.570211 
L 656.19601 -242.842929 
L 653.628036 -246.115646 
L 650.98075 -249.388364 
L 648.355537 -252.661081 
L 645.85094 -255.933799 
L 643.547467 -259.206516 
L 641.495928 -262.479233 
L 639.712387 -265.751951 
L 638.18048 -269.024668 
L 636.859275 -272.297386 
L 635.693134 -275.570103 
L 634.620002 -278.842821 
L 633.576114 -282.115538 
L 632.497555 -285.388255 
L 631.321316 -288.660973 
L 629.989148 -291.93369 
L 628.456171 -295.206408 
L 626.703151 -298.479125 
L 624.748228 -301.751843 
L 622.652426 -305.02456 
L 620.51473 -308.297278 
L 618.456451 -311.569995 
L 616.599124 -314.842712 
L 615.042712 -318.11543 
L 613.850099 -321.388147 
L 613.040339 -324.660865 
L 612.589478 -327.933582 
L 612.436364 -331.2063 
L 612.492255 -334.479017 
L 612.6552 -337.751735 
L 612.830422 -341.024452 
L 612.955087 -344.297169 
L 613.021444 -347.569887 
L 613.089578 -350.842604 
L 613.28227 -354.115322 
L 613.75982 -357.388039 
L 614.679938 -360.660757 
L 616.153881 -363.933474 
L 618.212446 -367.206191 
L 620.793126 -370.478909 
L 623.753172 -373.751626 
L 626.904534 -377.024344 
L 630.058924 -380.297061 
L 633.068013 -383.569779 
L 635.846632 -386.842496 
L 638.374694 -390.115214 
L 640.682364 -393.387931 
L 642.828363 -396.660648 
L 644.880847 -399.933366 
L 646.90538 -403.206083 
L 648.958836 -406.478801 
L 651.085277 -409.751518 
L 653.310946 -413.024236 
L 655.638815 -416.296953 
L 658.04558 -419.56967 
L 660.48392 -422.842388 
L 662.890475 -426.115105 
L 665.197265 -429.387823 
L 667.342873 -432.66054 
L 669.280331 -435.933258 
L 670.980474 -439.205975 
L 672.431412 -442.478693 
L 673.635763 -445.75141 
L 674.607203 -449.024127 
L 675.36728 -452.296845 
L 675.942702 -455.569562 
L 676.36297 -458.84228 
L 676.658171 -462.114997 
L 676.856972 -465.387715 
L 676.984954 -468.660432 
L 677.063499 -471.93315 
L 677.256501 -471.93315 
L 677.256501 -471.93315 
L 677.335046 -468.660432 
L 677.463028 -465.387715 
L 677.661829 -462.114997 
L 677.95703 -458.84228 
L 678.377298 -455.569562 
L 678.95272 -452.296845 
L 679.712797 -449.024127 
L 680.684237 -445.75141 
L 681.888588 -442.478693 
L 683.339526 -439.205975 
L 685.039669 -435.933258 
L 686.977127 -432.66054 
L 689.122735 -429.387823 
L 691.429525 -426.115105 
L 693.83608 -422.842388 
L 696.27442 -419.56967 
L 698.681185 -416.296953 
L 701.009054 -413.024236 
L 703.234723 -409.751518 
L 705.361164 -406.478801 
L 707.41462 -403.206083 
L 709.439153 -399.933366 
L 711.491637 -396.660648 
L 713.637636 -393.387931 
L 715.945306 -390.115214 
L 718.473368 -386.842496 
L 721.251987 -383.569779 
L 724.261076 -380.297061 
L 727.415466 -377.024344 
L 730.566828 -373.751626 
L 733.526874 -370.478909 
L 736.107554 -367.206191 
L 738.166119 -363.933474 
L 739.640062 -360.660757 
L 740.56018 -357.388039 
L 741.03773 -354.115322 
L 741.230422 -350.842604 
L 741.298556 -347.569887 
L 741.364913 -344.297169 
L 741.489578 -341.024452 
L 741.6648 -337.751735 
L 741.827745 -334.479017 
L 741.883636 -331.2063 
L 741.730522 -327.933582 
L 741.279661 -324.660865 
L 740.469901 -321.388147 
L 739.277288 -318.11543 
L 737.720876 -314.842712 
L 735.863549 -311.569995 
L 733.80527 -308.297278 
L 731.667574 -305.02456 
L 729.571772 -301.751843 
L 727.616849 -298.479125 
L 725.863829 -295.206408 
L 724.330852 -291.93369 
L 722.998684 -288.660973 
L 721.822445 -285.388255 
L 720.743886 -282.115538 
L 719.699998 -278.842821 
L 718.626866 -275.570103 
L 717.460725 -272.297386 
L 716.13952 -269.024668 
L 714.607613 -265.751951 
L 712.824072 -262.479233 
L 710.772533 -259.206516 
L 708.46906 -255.933799 
L 705.964463 -252.661081 
L 703.33925 -249.388364 
L 700.691964 -246.115646 
L 698.12399 -242.842929 
L 695.724894 -239.570211 
L 693.561561 -236.297494 
L 691.672471 -233.024776 
L 690.066624 -229.752059 
L 688.725827 -226.479342 
L 687.609483 -223.206624 
L 686.661747 -219.933907 
L 685.821077 -216.661189 
L 685.031279 -213.388472 
L 684.251839 -210.115754 
L 683.464641 -206.843037 
L 682.674811 -203.570319 
L 681.905302 -200.297602 
L 681.187058 -197.024885 
L 680.548061 -193.752167 
L 680.004737 -190.47945 
L 679.558115 -187.206732 
L 679.195288 -183.934015 
L 678.894964 -180.661297 
L 678.634679 -177.38858 
L 678.397045 -174.115863 
L 678.173125 -170.843145 
L 677.962359 -167.570428 
L 677.769799 -164.29771 
L 677.602225 -161.024993 
L 677.464761 -157.752275 
L 677.359011 -154.479558 
L 677.282887 -151.20684 
L 677.231649 -147.934123 
z
" style="stroke: #4c4c4c; stroke-width: 1.5"/>
    </defs>
    <g clip-path="url(#pb395a7577e)">
     <use xlink:href="#m2b8091ef07" x="0" y="576" style="fill: #cc8963; stroke: #4c4c4c; stroke-width: 1.5"/>
    </g>
   </g>
   <g id="line2d_1">
    <path d="M 208.44 389.124833 
L 208.44 130.856256 
" clip-path="url(#pb395a7577e)" style="fill: none; stroke: #4c4c4c; stroke-width: 1.5; stroke-linecap: round"/>
   </g>
   <g id="line2d_2">
    <path d="M 208.44 287.262949 
L 208.44 215.243717 
" clip-path="url(#pb395a7577e)" style="fill: none; stroke: #4c4c4c; stroke-width: 4.5; stroke-linecap: round"/>
   </g>
   <g id="line2d_3">
    <path d="M 342.36 400.597273 
L 342.36 112.224203 
" clip-path="url(#pb395a7577e)" style="fill: none; stroke: #4c4c4c; stroke-width: 1.5; stroke-linecap: round"/>
   </g>
   <g id="line2d_4">
    <path d="M 342.36 286.900966 
L 342.36 210.999067 
" clip-path="url(#pb395a7577e)" style="fill: none; stroke: #4c4c4c; stroke-width: 4.5; stroke-linecap: round"/>
   </g>
   <g id="line2d_5">
    <path d="M 543.24 381.683659 
L 543.24 122.201622 
" clip-path="url(#pb395a7577e)" style="fill: none; stroke: #4c4c4c; stroke-width: 1.5; stroke-linecap: round"/>
   </g>
   <g id="line2d_6">
    <path d="M 543.24 281.2952 
L 543.24 209.092668 
" clip-path="url(#pb395a7577e)" style="fill: none; stroke: #4c4c4c; stroke-width: 4.5; stroke-linecap: round"/>
   </g>
   <g id="line2d_7">
    <path d="M 677.16 395.793228 
L 677.16 129.829226 
" clip-path="url(#pb395a7577e)" style="fill: none; stroke: #4c4c4c; stroke-width: 1.5; stroke-linecap: round"/>
   </g>
   <g id="line2d_8">
    <path d="M 677.16 284.720698 
L 677.16 209.888776 
" clip-path="url(#pb395a7577e)" style="fill: none; stroke: #4c4c4c; stroke-width: 4.5; stroke-linecap: round"/>
   </g>
   <g id="patch_5">
    <path d="M 108 504 
L 108 69.12 
" style="fill: none; stroke: #262626; stroke-width: 1.25; stroke-linejoin: miter; stroke-linecap: square"/>
   </g>
   <g id="patch_6">
    <path d="M 777.6 504 
L 777.6 69.12 
" style="fill: none; stroke: #262626; stroke-width: 1.25; stroke-linejoin: miter; stroke-linecap: square"/>
   </g>
   <g id="patch_7">
    <path d="M 108 504 
L 777.6 504 
" style="fill: none; stroke: #262626; stroke-width: 1.25; stroke-linejoin: miter; stroke-linecap: square"/>
   </g>
   <g id="patch_8">
    <path d="M 108 69.12 
L 777.6 69.12 
" style="fill: none; stroke: #262626; stroke-width: 1.25; stroke-linejoin: miter; stroke-linecap: square"/>
   </g>
   <g id="PathCollection_1">
    <defs>
     <path id="m9f3e014c9b" d="M 0 1.5 
C 0.397805 1.5 0.77937 1.341951 1.06066 1.06066 
C 1.341951 0.77937 1.5 0.397805 1.5 0 
C 1.5 -0.397805 1.341951 -0.77937 1.06066 -1.06066 
C 0.77937 -1.341951 0.397805 -1.5 0 -1.5 
C -0.397805 -1.5 -0.77937 -1.341951 -1.06066 -1.06066 
C -1.341951 -0.77937 -1.5 -0.397805 -1.5 0 
C -1.5 0.397805 -1.341951 0.77937 -1.06066 1.06066 
C -0.77937 1.341951 -0.397805 1.5 0 1.5 
z
" style="stroke: #4c4c4c"/>
    </defs>
    <g clip-path="url(#pb395a7577e)">
     <use xlink:href="#m9f3e014c9b" x="208.44" y="248.170205" style="fill: #ffffff; stroke: #4c4c4c"/>
    </g>
   </g>
   <g id="PathCollection_2">
    <g clip-path="url(#pb395a7577e)">
     <use xlink:href="#m9f3e014c9b" x="342.36" y="248.418684" style="fill: #ffffff; stroke: #4c4c4c"/>
    </g>
   </g>
   <g id="PathCollection_3">
    <g clip-path="url(#pb395a7577e)">
     <use xlink:href="#m9f3e014c9b" x="543.24" y="245.273771" style="fill: #ffffff; stroke: #4c4c4c"/>
    </g>
   </g>
   <g id="PathCollection_4">
    <g clip-path="url(#pb395a7577e)">
     <use xlink:href="#m9f3e014c9b" x="677.16" y="244.388999" style="fill: #ffffff; stroke: #4c4c4c"/>
    </g>
   </g>
   <g id="legend_1">
    <g id="patch_9">
     <path d="M 674.1725 125.514063 
L 769.9 125.514063 
Q 772.1 125.514063 772.1 123.314063 
L 772.1 76.82 
Q 772.1 74.62 769.9 74.62 
L 674.1725 74.62 
Q 671.9725 74.62 671.9725 76.82 
L 671.9725 123.314063 
Q 671.9725 125.514063 674.1725 125.514063 
z
" style="fill: #ffffff; opacity: 0.8; stroke: #cccccc; stroke-linejoin: miter"/>
    </g>
    <g id="text_9">
     <!-- Treatment -->
     <g style="fill: #262626" transform="translate(694.920938 87.609375)scale(0.12 -0.12)">
      <defs>
       <path id="ArialMT-6e" d="M 422 0 
L 422 3319 
L 928 3319 
L 928 2847 
Q 1294 3394 1984 3394 
Q 2284 3394 2536 3286 
Q 2788 3178 2913 3003 
Q 3038 2828 3088 2588 
Q 3119 2431 3119 2041 
L 3119 0 
L 2556 0 
L 2556 2019 
Q 2556 2363 2490 2533 
Q 2425 2703 2258 2804 
Q 2091 2906 1866 2906 
Q 1506 2906 1245 2678 
Q 984 2450 984 1813 
L 984 0 
L 422 0 
z
" transform="scale(0.015625)"/>
      </defs>
      <use xlink:href="#ArialMT-54"/>
      <use xlink:href="#ArialMT-72" x="57.333984"/>
      <use xlink:href="#ArialMT-65" x="90.634766"/>
      <use xlink:href="#ArialMT-61" x="146.25"/>
      <use xlink:href="#ArialMT-74" x="201.865234"/>
      <use xlink:href="#ArialMT-6d" x="229.648438"/>
      <use xlink:href="#ArialMT-65" x="312.949219"/>
      <use xlink:href="#ArialMT-6e" x="368.564453"/>
      <use xlink:href="#ArialMT-74" x="424.179688"/>
     </g>
    </g>
    <g id="patch_10">
     <path d="M 676.3725 103.367969 
L 698.3725 103.367969 
L 698.3725 95.667969 
L 676.3725 95.667969 
z
" style="fill: #5875a4; stroke: #4c4c4c; stroke-width: 0.75; stroke-linejoin: miter"/>
    </g>
    <g id="text_10">
     <!-- control -->
     <g style="fill: #262626" transform="translate(707.1725 103.367969)scale(0.11 -0.11)">
      <use xlink:href="#ArialMT-63"/>
      <use xlink:href="#ArialMT-6f" x="50"/>
      <use xlink:href="#ArialMT-6e" x="105.615234"/>
      <use xlink:href="#ArialMT-74" x="161.230469"/>
      <use xlink:href="#ArialMT-72" x="189.013672"/>
      <use xlink:href="#ArialMT-6f" x="222.314453"/>
      <use xlink:href="#ArialMT-6c" x="277.929688"/>
     </g>
    </g>
    <g id="patch_11">
     <path d="M 676.3725 118.927813 
L 698.3725 118.927813 
L 698.3725 111.227813 
L 676.3725 111.227813 
z
" style="fill: #cc8963; stroke: #4c4c4c; stroke-width: 0.75; stroke-linejoin: miter"/>
    </g>
    <g id="text_11">
     <!-- deltamethrin -->
     <g style="fill: #262626" transform="translate(707.1725 118.927813)scale(0.11 -0.11)">
      <defs>
       <path id="ArialMT-68" d="M 422 0 
L 422 4581 
L 984 4581 
L 984 2938 
Q 1378 3394 1978 3394 
Q 2347 3394 2619 3248 
Q 2891 3103 3008 2847 
Q 3125 2591 3125 2103 
L 3125 0 
L 2563 0 
L 2563 2103 
Q 2563 2525 2380 2717 
Q 2197 2909 1863 2909 
Q 1613 2909 1392 2779 
Q 1172 2650 1078 2428 
Q 984 2206 984 1816 
L 984 0 
L 422 0 
z
" transform="scale(0.015625)"/>
      </defs>
      <use xlink:href="#ArialMT-64"/>
      <use xlink:href="#ArialMT-65" x="55.615234"/>
      <use xlink:href="#ArialMT-6c" x="111.230469"/>
      <use xlink:href="#ArialMT-74" x="133.447266"/>
      <use xlink:href="#ArialMT-61" x="161.230469"/>
      <use xlink:href="#ArialMT-6d" x="216.845703"/>
      <use xlink:href="#ArialMT-65" x="300.146484"/>
      <use xlink:href="#ArialMT-74" x="355.761719"/>
      <use xlink:href="#ArialMT-68" x="383.544922"/>
      <use xlink:href="#ArialMT-72" x="439.160156"/>
      <use xlink:href="#ArialMT-69" x="472.460938"/>
      <use xlink:href="#ArialMT-6e" x="494.677734"/>
     </g>
    </g>
   </g>
  </g>
 </g>
 <defs>
  <clipPath id="pb395a7577e">
   <rect x="108" y="69.12" width="669.6" height="434.88"/>
  </clipPath>
 </defs>
</svg>
