<?xml version="1.0" encoding="utf-8" standalone="no"?>
<!DOCTYPE svg PUBLIC "-//W3C//DTD SVG 1.1//EN"
  "http://www.w3.org/Graphics/SVG/1.1/DTD/svg11.dtd">
<svg xmlns:xlink="http://www.w3.org/1999/xlink" width="1008pt" height="576pt" viewBox="0 0 1008 576" xmlns="http://www.w3.org/2000/svg" version="1.1">
 <metadata>
  <rdf:RDF xmlns:dc="http://purl.org/dc/elements/1.1/" xmlns:cc="http://creativecommons.org/ns#" xmlns:rdf="http://www.w3.org/1999/02/22-rdf-syntax-ns#">
   <cc:Work>
    <dc:type rdf:resource="http://purl.org/dc/dcmitype/StillImage"/>
    <dc:date>2023-02-13T17:12:59.709428</dc:date>
    <dc:format>image/svg+xml</dc:format>
    <dc:creator>
     <cc:Agent>
      <dc:title>Matplotlib v3.5.0, https://matplotlib.org/</dc:title>
     </cc:Agent>
    </dc:creator>
   </cc:Work>
  </rdf:RDF>
 </metadata>
 <defs>
  <style type="text/css">*{stroke-linejoin: round; stroke-linecap: butt}</style>
 </defs>
 <g id="figure_1">
  <g id="patch_1">
   <path d="M 0 576 
L 1008 576 
L 1008 0 
L 0 0 
z
" style="fill: #ffffff"/>
  </g>
  <g id="axes_1">
   <g id="patch_2">
    <path d="M 126 512.64 
L 907.2 512.64 
L 907.2 69.12 
L 126 69.12 
z
" style="fill: #ffffff"/>
   </g>
   <g id="matplotlib.axis_1">
    <g id="xtick_1">
     <g id="text_1">
      <!-- 30 -->
      <g style="fill: #262626" transform="translate(315.182969 530.013594)scale(0.11 -0.11)">
       <defs>
        <path id="ArialMT-33" d="M 269 1209 
L 831 1284 
Q 928 806 1161 595 
Q 1394 384 1728 384 
Q 2125 384 2398 659 
Q 2672 934 2672 1341 
Q 2672 1728 2419 1979 
Q 2166 2231 1775 2231 
Q 1616 2231 1378 2169 
L 1441 2663 
Q 1497 2656 1531 2656 
Q 1891 2656 2178 2843 
Q 2466 3031 2466 3422 
Q 2466 3731 2256 3934 
Q 2047 4138 1716 4138 
Q 1388 4138 1169 3931 
Q 950 3725 888 3313 
L 325 3413 
Q 428 3978 793 4289 
Q 1159 4600 1703 4600 
Q 2078 4600 2393 4439 
Q 2709 4278 2876 4000 
Q 3044 3722 3044 3409 
Q 3044 3113 2884 2869 
Q 2725 2625 2413 2481 
Q 2819 2388 3044 2092 
Q 3269 1797 3269 1353 
Q 3269 753 2831 336 
Q 2394 -81 1725 -81 
Q 1122 -81 723 278 
Q 325 638 269 1209 
z
" transform="scale(0.015625)"/>
        <path id="ArialMT-30" d="M 266 2259 
Q 266 3072 433 3567 
Q 600 4063 929 4331 
Q 1259 4600 1759 4600 
Q 2128 4600 2406 4451 
Q 2684 4303 2865 4023 
Q 3047 3744 3150 3342 
Q 3253 2941 3253 2259 
Q 3253 1453 3087 958 
Q 2922 463 2592 192 
Q 2263 -78 1759 -78 
Q 1097 -78 719 397 
Q 266 969 266 2259 
z
M 844 2259 
Q 844 1131 1108 757 
Q 1372 384 1759 384 
Q 2147 384 2411 759 
Q 2675 1134 2675 2259 
Q 2675 3391 2411 3762 
Q 2147 4134 1753 4134 
Q 1366 4134 1134 3806 
Q 844 3388 844 2259 
z
" transform="scale(0.015625)"/>
       </defs>
       <use xlink:href="#ArialMT-33"/>
       <use xlink:href="#ArialMT-30" x="55.615234"/>
      </g>
     </g>
    </g>
    <g id="xtick_2">
     <g id="text_2">
      <!-- 60 -->
      <g style="fill: #262626" transform="translate(705.782969 530.013594)scale(0.11 -0.11)">
       <defs>
        <path id="ArialMT-36" d="M 3184 3459 
L 2625 3416 
Q 2550 3747 2413 3897 
Q 2184 4138 1850 4138 
Q 1581 4138 1378 3988 
Q 1113 3794 959 3422 
Q 806 3050 800 2363 
Q 1003 2672 1297 2822 
Q 1591 2972 1913 2972 
Q 2475 2972 2870 2558 
Q 3266 2144 3266 1488 
Q 3266 1056 3080 686 
Q 2894 316 2569 119 
Q 2244 -78 1831 -78 
Q 1128 -78 684 439 
Q 241 956 241 2144 
Q 241 3472 731 4075 
Q 1159 4600 1884 4600 
Q 2425 4600 2770 4297 
Q 3116 3994 3184 3459 
z
M 888 1484 
Q 888 1194 1011 928 
Q 1134 663 1356 523 
Q 1578 384 1822 384 
Q 2178 384 2434 671 
Q 2691 959 2691 1453 
Q 2691 1928 2437 2201 
Q 2184 2475 1800 2475 
Q 1419 2475 1153 2201 
Q 888 1928 888 1484 
z
" transform="scale(0.015625)"/>
       </defs>
       <use xlink:href="#ArialMT-36"/>
       <use xlink:href="#ArialMT-30" x="55.615234"/>
      </g>
     </g>
    </g>
    <g id="text_3">
     <!-- PND -->
     <g style="fill: #262626" transform="translate(503.931563 544.789219)scale(0.12 -0.12)">
      <defs>
       <path id="ArialMT-50" d="M 494 0 
L 494 4581 
L 2222 4581 
Q 2678 4581 2919 4538 
Q 3256 4481 3484 4323 
Q 3713 4166 3852 3881 
Q 3991 3597 3991 3256 
Q 3991 2672 3619 2267 
Q 3247 1863 2275 1863 
L 1100 1863 
L 1100 0 
L 494 0 
z
M 1100 2403 
L 2284 2403 
Q 2872 2403 3119 2622 
Q 3366 2841 3366 3238 
Q 3366 3525 3220 3729 
Q 3075 3934 2838 4000 
Q 2684 4041 2272 4041 
L 1100 4041 
L 1100 2403 
z
" transform="scale(0.015625)"/>
       <path id="ArialMT-4e" d="M 488 0 
L 488 4581 
L 1109 4581 
L 3516 984 
L 3516 4581 
L 4097 4581 
L 4097 0 
L 3475 0 
L 1069 3600 
L 1069 0 
L 488 0 
z
" transform="scale(0.015625)"/>
       <path id="ArialMT-44" d="M 494 0 
L 494 4581 
L 2072 4581 
Q 2606 4581 2888 4516 
Q 3281 4425 3559 4188 
Q 3922 3881 4101 3404 
Q 4281 2928 4281 2316 
Q 4281 1794 4159 1391 
Q 4038 988 3847 723 
Q 3656 459 3429 307 
Q 3203 156 2883 78 
Q 2563 0 2147 0 
L 494 0 
z
M 1100 541 
L 2078 541 
Q 2531 541 2789 625 
Q 3047 709 3200 863 
Q 3416 1078 3536 1442 
Q 3656 1806 3656 2325 
Q 3656 3044 3420 3430 
Q 3184 3816 2847 3947 
Q 2603 4041 2063 4041 
L 1100 4041 
L 1100 541 
z
" transform="scale(0.015625)"/>
      </defs>
      <use xlink:href="#ArialMT-50"/>
      <use xlink:href="#ArialMT-4e" x="66.699219"/>
      <use xlink:href="#ArialMT-44" x="138.916016"/>
     </g>
    </g>
   </g>
   <g id="matplotlib.axis_2">
    <g id="ytick_1">
     <g id="line2d_1">
      <path d="M 126 477.692506 
L 907.2 477.692506 
" clip-path="url(#pe7e1b7495f)" style="fill: none; stroke: #cccccc; stroke-linecap: round"/>
     </g>
     <g id="text_4">
      <!-- 0.0 -->
      <g style="fill: #262626" transform="translate(101.21 481.629303)scale(0.11 -0.11)">
       <defs>
        <path id="ArialMT-2e" d="M 581 0 
L 581 641 
L 1222 641 
L 1222 0 
L 581 0 
z
" transform="scale(0.015625)"/>
       </defs>
       <use xlink:href="#ArialMT-30"/>
       <use xlink:href="#ArialMT-2e" x="55.615234"/>
       <use xlink:href="#ArialMT-30" x="83.398438"/>
      </g>
     </g>
    </g>
    <g id="ytick_2">
     <g id="line2d_2">
      <path d="M 126 402.967504 
L 907.2 402.967504 
" clip-path="url(#pe7e1b7495f)" style="fill: none; stroke: #cccccc; stroke-linecap: round"/>
     </g>
     <g id="text_5">
      <!-- 0.2 -->
      <g style="fill: #262626" transform="translate(101.21 406.9043)scale(0.11 -0.11)">
       <defs>
        <path id="ArialMT-32" d="M 3222 541 
L 3222 0 
L 194 0 
Q 188 203 259 391 
Q 375 700 629 1000 
Q 884 1300 1366 1694 
Q 2113 2306 2375 2664 
Q 2638 3022 2638 3341 
Q 2638 3675 2398 3904 
Q 2159 4134 1775 4134 
Q 1369 4134 1125 3890 
Q 881 3647 878 3216 
L 300 3275 
Q 359 3922 746 4261 
Q 1134 4600 1788 4600 
Q 2447 4600 2831 4234 
Q 3216 3869 3216 3328 
Q 3216 3053 3103 2787 
Q 2991 2522 2730 2228 
Q 2469 1934 1863 1422 
Q 1356 997 1212 845 
Q 1069 694 975 541 
L 3222 541 
z
" transform="scale(0.015625)"/>
       </defs>
       <use xlink:href="#ArialMT-30"/>
       <use xlink:href="#ArialMT-2e" x="55.615234"/>
       <use xlink:href="#ArialMT-32" x="83.398438"/>
      </g>
     </g>
    </g>
    <g id="ytick_3">
     <g id="line2d_3">
      <path d="M 126 328.242501 
L 907.2 328.242501 
" clip-path="url(#pe7e1b7495f)" style="fill: none; stroke: #cccccc; stroke-linecap: round"/>
     </g>
     <g id="text_6">
      <!-- 0.4 -->
      <g style="fill: #262626" transform="translate(101.21 332.179298)scale(0.11 -0.11)">
       <defs>
        <path id="ArialMT-34" d="M 2069 0 
L 2069 1097 
L 81 1097 
L 81 1613 
L 2172 4581 
L 2631 4581 
L 2631 1613 
L 3250 1613 
L 3250 1097 
L 2631 1097 
L 2631 0 
L 2069 0 
z
M 2069 1613 
L 2069 3678 
L 634 1613 
L 2069 1613 
z
" transform="scale(0.015625)"/>
       </defs>
       <use xlink:href="#ArialMT-30"/>
       <use xlink:href="#ArialMT-2e" x="55.615234"/>
       <use xlink:href="#ArialMT-34" x="83.398438"/>
      </g>
     </g>
    </g>
    <g id="ytick_4">
     <g id="line2d_4">
      <path d="M 126 253.517499 
L 907.2 253.517499 
" clip-path="url(#pe7e1b7495f)" style="fill: none; stroke: #cccccc; stroke-linecap: round"/>
     </g>
     <g id="text_7">
      <!-- 0.6 -->
      <g style="fill: #262626" transform="translate(101.21 257.454296)scale(0.11 -0.11)">
       <use xlink:href="#ArialMT-30"/>
       <use xlink:href="#ArialMT-2e" x="55.615234"/>
       <use xlink:href="#ArialMT-36" x="83.398438"/>
      </g>
     </g>
    </g>
    <g id="ytick_5">
     <g id="line2d_5">
      <path d="M 126 178.792496 
L 907.2 178.792496 
" clip-path="url(#pe7e1b7495f)" style="fill: none; stroke: #cccccc; stroke-linecap: round"/>
     </g>
     <g id="text_8">
      <!-- 0.8 -->
      <g style="fill: #262626" transform="translate(101.21 182.729293)scale(0.11 -0.11)">
       <defs>
        <path id="ArialMT-38" d="M 1131 2484 
Q 781 2613 612 2850 
Q 444 3088 444 3419 
Q 444 3919 803 4259 
Q 1163 4600 1759 4600 
Q 2359 4600 2725 4251 
Q 3091 3903 3091 3403 
Q 3091 3084 2923 2848 
Q 2756 2613 2416 2484 
Q 2838 2347 3058 2040 
Q 3278 1734 3278 1309 
Q 3278 722 2862 322 
Q 2447 -78 1769 -78 
Q 1091 -78 675 323 
Q 259 725 259 1325 
Q 259 1772 486 2073 
Q 713 2375 1131 2484 
z
M 1019 3438 
Q 1019 3113 1228 2906 
Q 1438 2700 1772 2700 
Q 2097 2700 2305 2904 
Q 2513 3109 2513 3406 
Q 2513 3716 2298 3927 
Q 2084 4138 1766 4138 
Q 1444 4138 1231 3931 
Q 1019 3725 1019 3438 
z
M 838 1322 
Q 838 1081 952 856 
Q 1066 631 1291 507 
Q 1516 384 1775 384 
Q 2178 384 2440 643 
Q 2703 903 2703 1303 
Q 2703 1709 2433 1975 
Q 2163 2241 1756 2241 
Q 1359 2241 1098 1978 
Q 838 1716 838 1322 
z
" transform="scale(0.015625)"/>
       </defs>
       <use xlink:href="#ArialMT-30"/>
       <use xlink:href="#ArialMT-2e" x="55.615234"/>
       <use xlink:href="#ArialMT-38" x="83.398438"/>
      </g>
     </g>
    </g>
    <g id="ytick_6">
     <g id="line2d_6">
      <path d="M 126 104.067494 
L 907.2 104.067494 
" clip-path="url(#pe7e1b7495f)" style="fill: none; stroke: #cccccc; stroke-linecap: round"/>
     </g>
     <g id="text_9">
      <!-- 1.0 -->
      <g style="fill: #262626" transform="translate(101.21 108.004291)scale(0.11 -0.11)">
       <defs>
        <path id="ArialMT-31" d="M 2384 0 
L 1822 0 
L 1822 3584 
Q 1619 3391 1289 3197 
Q 959 3003 697 2906 
L 697 3450 
Q 1169 3672 1522 3987 
Q 1875 4303 2022 4600 
L 2384 4600 
L 2384 0 
z
" transform="scale(0.015625)"/>
       </defs>
       <use xlink:href="#ArialMT-31"/>
       <use xlink:href="#ArialMT-2e" x="55.615234"/>
       <use xlink:href="#ArialMT-30" x="83.398438"/>
      </g>
     </g>
    </g>
    <g id="text_10">
     <!-- log_scaled_area -->
     <g style="fill: #262626" transform="translate(94.684375 334.909688)rotate(-90)scale(0.12 -0.12)">
      <defs>
       <path id="ArialMT-6c" d="M 409 0 
L 409 4581 
L 972 4581 
L 972 0 
L 409 0 
z
" transform="scale(0.015625)"/>
       <path id="ArialMT-6f" d="M 213 1659 
Q 213 2581 725 3025 
Q 1153 3394 1769 3394 
Q 2453 3394 2887 2945 
Q 3322 2497 3322 1706 
Q 3322 1066 3130 698 
Q 2938 331 2570 128 
Q 2203 -75 1769 -75 
Q 1072 -75 642 372 
Q 213 819 213 1659 
z
M 791 1659 
Q 791 1022 1069 705 
Q 1347 388 1769 388 
Q 2188 388 2466 706 
Q 2744 1025 2744 1678 
Q 2744 2294 2464 2611 
Q 2184 2928 1769 2928 
Q 1347 2928 1069 2612 
Q 791 2297 791 1659 
z
" transform="scale(0.015625)"/>
       <path id="ArialMT-67" d="M 319 -275 
L 866 -356 
Q 900 -609 1056 -725 
Q 1266 -881 1628 -881 
Q 2019 -881 2231 -725 
Q 2444 -569 2519 -288 
Q 2563 -116 2559 434 
Q 2191 0 1641 0 
Q 956 0 581 494 
Q 206 988 206 1678 
Q 206 2153 378 2554 
Q 550 2956 876 3175 
Q 1203 3394 1644 3394 
Q 2231 3394 2613 2919 
L 2613 3319 
L 3131 3319 
L 3131 450 
Q 3131 -325 2973 -648 
Q 2816 -972 2473 -1159 
Q 2131 -1347 1631 -1347 
Q 1038 -1347 672 -1080 
Q 306 -813 319 -275 
z
M 784 1719 
Q 784 1066 1043 766 
Q 1303 466 1694 466 
Q 2081 466 2343 764 
Q 2606 1063 2606 1700 
Q 2606 2309 2336 2618 
Q 2066 2928 1684 2928 
Q 1309 2928 1046 2623 
Q 784 2319 784 1719 
z
" transform="scale(0.015625)"/>
       <path id="ArialMT-5f" d="M -97 -1272 
L -97 -866 
L 3631 -866 
L 3631 -1272 
L -97 -1272 
z
" transform="scale(0.015625)"/>
       <path id="ArialMT-73" d="M 197 991 
L 753 1078 
Q 800 744 1014 566 
Q 1228 388 1613 388 
Q 2000 388 2187 545 
Q 2375 703 2375 916 
Q 2375 1106 2209 1216 
Q 2094 1291 1634 1406 
Q 1016 1563 777 1677 
Q 538 1791 414 1992 
Q 291 2194 291 2438 
Q 291 2659 392 2848 
Q 494 3038 669 3163 
Q 800 3259 1026 3326 
Q 1253 3394 1513 3394 
Q 1903 3394 2198 3281 
Q 2494 3169 2634 2976 
Q 2775 2784 2828 2463 
L 2278 2388 
Q 2241 2644 2061 2787 
Q 1881 2931 1553 2931 
Q 1166 2931 1000 2803 
Q 834 2675 834 2503 
Q 834 2394 903 2306 
Q 972 2216 1119 2156 
Q 1203 2125 1616 2013 
Q 2213 1853 2448 1751 
Q 2684 1650 2818 1456 
Q 2953 1263 2953 975 
Q 2953 694 2789 445 
Q 2625 197 2315 61 
Q 2006 -75 1616 -75 
Q 969 -75 630 194 
Q 291 463 197 991 
z
" transform="scale(0.015625)"/>
       <path id="ArialMT-63" d="M 2588 1216 
L 3141 1144 
Q 3050 572 2676 248 
Q 2303 -75 1759 -75 
Q 1078 -75 664 370 
Q 250 816 250 1647 
Q 250 2184 428 2587 
Q 606 2991 970 3192 
Q 1334 3394 1763 3394 
Q 2303 3394 2647 3120 
Q 2991 2847 3088 2344 
L 2541 2259 
Q 2463 2594 2264 2762 
Q 2066 2931 1784 2931 
Q 1359 2931 1093 2626 
Q 828 2322 828 1663 
Q 828 994 1084 691 
Q 1341 388 1753 388 
Q 2084 388 2306 591 
Q 2528 794 2588 1216 
z
" transform="scale(0.015625)"/>
       <path id="ArialMT-61" d="M 2588 409 
Q 2275 144 1986 34 
Q 1697 -75 1366 -75 
Q 819 -75 525 192 
Q 231 459 231 875 
Q 231 1119 342 1320 
Q 453 1522 633 1644 
Q 813 1766 1038 1828 
Q 1203 1872 1538 1913 
Q 2219 1994 2541 2106 
Q 2544 2222 2544 2253 
Q 2544 2597 2384 2738 
Q 2169 2928 1744 2928 
Q 1347 2928 1158 2789 
Q 969 2650 878 2297 
L 328 2372 
Q 403 2725 575 2942 
Q 747 3159 1072 3276 
Q 1397 3394 1825 3394 
Q 2250 3394 2515 3294 
Q 2781 3194 2906 3042 
Q 3031 2891 3081 2659 
Q 3109 2516 3109 2141 
L 3109 1391 
Q 3109 606 3145 398 
Q 3181 191 3288 0 
L 2700 0 
Q 2613 175 2588 409 
z
M 2541 1666 
Q 2234 1541 1622 1453 
Q 1275 1403 1131 1340 
Q 988 1278 909 1158 
Q 831 1038 831 891 
Q 831 666 1001 516 
Q 1172 366 1500 366 
Q 1825 366 2078 508 
Q 2331 650 2450 897 
Q 2541 1088 2541 1459 
L 2541 1666 
z
" transform="scale(0.015625)"/>
       <path id="ArialMT-65" d="M 2694 1069 
L 3275 997 
Q 3138 488 2766 206 
Q 2394 -75 1816 -75 
Q 1088 -75 661 373 
Q 234 822 234 1631 
Q 234 2469 665 2931 
Q 1097 3394 1784 3394 
Q 2450 3394 2872 2941 
Q 3294 2488 3294 1666 
Q 3294 1616 3291 1516 
L 816 1516 
Q 847 969 1125 678 
Q 1403 388 1819 388 
Q 2128 388 2347 550 
Q 2566 713 2694 1069 
z
M 847 1978 
L 2700 1978 
Q 2663 2397 2488 2606 
Q 2219 2931 1791 2931 
Q 1403 2931 1139 2672 
Q 875 2413 847 1978 
z
" transform="scale(0.015625)"/>
       <path id="ArialMT-64" d="M 2575 0 
L 2575 419 
Q 2259 -75 1647 -75 
Q 1250 -75 917 144 
Q 584 363 401 755 
Q 219 1147 219 1656 
Q 219 2153 384 2558 
Q 550 2963 881 3178 
Q 1213 3394 1622 3394 
Q 1922 3394 2156 3267 
Q 2391 3141 2538 2938 
L 2538 4581 
L 3097 4581 
L 3097 0 
L 2575 0 
z
M 797 1656 
Q 797 1019 1065 703 
Q 1334 388 1700 388 
Q 2069 388 2326 689 
Q 2584 991 2584 1609 
Q 2584 2291 2321 2609 
Q 2059 2928 1675 2928 
Q 1300 2928 1048 2622 
Q 797 2316 797 1656 
z
" transform="scale(0.015625)"/>
       <path id="ArialMT-72" d="M 416 0 
L 416 3319 
L 922 3319 
L 922 2816 
Q 1116 3169 1280 3281 
Q 1444 3394 1641 3394 
Q 1925 3394 2219 3213 
L 2025 2691 
Q 1819 2813 1613 2813 
Q 1428 2813 1281 2702 
Q 1134 2591 1072 2394 
Q 978 2094 978 1738 
L 978 0 
L 416 0 
z
" transform="scale(0.015625)"/>
      </defs>
      <use xlink:href="#ArialMT-6c"/>
      <use xlink:href="#ArialMT-6f" x="22.216797"/>
      <use xlink:href="#ArialMT-67" x="77.832031"/>
      <use xlink:href="#ArialMT-5f" x="133.447266"/>
      <use xlink:href="#ArialMT-73" x="189.0625"/>
      <use xlink:href="#ArialMT-63" x="239.0625"/>
      <use xlink:href="#ArialMT-61" x="289.0625"/>
      <use xlink:href="#ArialMT-6c" x="344.677734"/>
      <use xlink:href="#ArialMT-65" x="366.894531"/>
      <use xlink:href="#ArialMT-64" x="422.509766"/>
      <use xlink:href="#ArialMT-5f" x="478.125"/>
      <use xlink:href="#ArialMT-61" x="533.740234"/>
      <use xlink:href="#ArialMT-72" x="589.355469"/>
      <use xlink:href="#ArialMT-65" x="622.65625"/>
      <use xlink:href="#ArialMT-61" x="678.271484"/>
     </g>
    </g>
   </g>
   <g id="patch_3">
    <path d="M 321.3 477.692506 
L 321.3 477.692506 
L 321.3 477.692506 
L 321.3 477.692506 
z
" clip-path="url(#pe7e1b7495f)" style="fill: #5875a4; stroke: #4c4c4c; stroke-width: 0.75; stroke-linejoin: miter"/>
   </g>
   <g id="PolyCollection_1">
    <defs>
     <path id="m5d797592ab" d="M 243.189005 -93.187429 
L 243.170995 -93.187429 
L 243.154223 -96.926953 
L 243.122198 -100.666477 
L 243.076774 -104.406002 
L 243.029309 -108.145526 
L 242.992605 -111.88505 
L 242.9697 -115.624574 
L 242.955215 -119.364098 
L 242.947913 -123.103622 
L 242.954309 -126.843146 
L 242.978143 -130.58267 
L 243.014874 -134.322195 
L 243.057058 -138.061719 
L 243.096641 -141.801243 
L 243.124347 -145.540767 
L 243.134649 -149.280291 
L 243.128608 -153.019815 
L 243.106464 -156.759339 
L 243.059642 -160.498863 
L 242.974212 -164.238388 
L 242.842991 -167.977912 
L 242.67469 -171.717436 
L 242.493797 -175.45696 
L 242.331196 -179.196484 
L 242.202993 -182.936008 
L 242.084952 -186.675532 
L 241.918393 -190.415056 
L 241.664292 -194.15458 
L 241.349699 -197.894105 
L 241.042443 -201.633629 
L 240.775547 -205.373153 
L 240.509413 -209.112677 
L 240.183754 -212.852201 
L 239.801243 -216.591725 
L 239.430925 -220.331249 
L 239.113913 -224.070773 
L 238.793114 -227.810298 
L 238.367671 -231.549822 
L 237.795826 -235.289346 
L 237.105729 -239.02887 
L 236.319066 -242.768394 
L 235.413011 -246.507918 
L 234.388369 -250.247442 
L 233.360412 -253.986966 
L 232.518594 -257.726491 
L 231.945435 -261.466015 
L 231.490589 -265.205539 
L 230.853993 -268.945063 
L 229.801357 -272.684587 
L 228.328148 -276.424111 
L 226.657154 -280.163635 
L 225.069241 -283.903159 
L 223.685149 -287.642684 
L 222.379698 -291.382208 
L 220.876935 -295.121732 
L 218.802438 -298.861256 
L 215.384244 -302.60078 
L 208.955876 -306.340304 
L 197.529795 -310.079828 
L 181.801796 -313.819352 
L 168.083835 -317.558876 
L 165.06 -321.298401 
L 175.193824 -325.037925 
L 191.788405 -328.777449 
L 206.100556 -332.516973 
L 214.58343 -336.256497 
L 218.628754 -339.996021 
L 220.684848 -343.735545 
L 222.202893 -347.475069 
L 223.727096 -351.214594 
L 225.406527 -354.954118 
L 227.207595 -358.693642 
L 228.965357 -362.433166 
L 230.476834 -366.17269 
L 231.623948 -369.912214 
L 232.405049 -373.651738 
L 232.88013 -377.391262 
L 233.149955 -381.130787 
L 233.374259 -384.870311 
L 233.740026 -388.609835 
L 234.384695 -392.349359 
L 235.331924 -396.088883 
L 236.468859 -399.828407 
L 237.608829 -403.567931 
L 238.625853 -407.307455 
L 239.520929 -411.04698 
L 240.340605 -414.786504 
L 241.071241 -418.526028 
L 241.648303 -422.265552 
L 242.035707 -426.005076 
L 242.258192 -429.7446 
L 242.3744 -433.484124 
L 242.444761 -437.223648 
L 242.517971 -440.963172 
L 242.62501 -444.702697 
L 242.769091 -448.442221 
L 242.922689 -452.181745 
L 243.048007 -455.921269 
L 243.125742 -459.660793 
L 243.162391 -463.400317 
L 243.197609 -463.400317 
L 243.197609 -463.400317 
L 243.234258 -459.660793 
L 243.311993 -455.921269 
L 243.437311 -452.181745 
L 243.590909 -448.442221 
L 243.73499 -444.702697 
L 243.842029 -440.963172 
L 243.915239 -437.223648 
L 243.9856 -433.484124 
L 244.101808 -429.7446 
L 244.324293 -426.005076 
L 244.711697 -422.265552 
L 245.288759 -418.526028 
L 246.019395 -414.786504 
L 246.839071 -411.04698 
L 247.734147 -407.307455 
L 248.751171 -403.567931 
L 249.891141 -399.828407 
L 251.028076 -396.088883 
L 251.975305 -392.349359 
L 252.619974 -388.609835 
L 252.985741 -384.870311 
L 253.210045 -381.130787 
L 253.47987 -377.391262 
L 253.954951 -373.651738 
L 254.736052 -369.912214 
L 255.883166 -366.17269 
L 257.394643 -362.433166 
L 259.152405 -358.693642 
L 260.953473 -354.954118 
L 262.632904 -351.214594 
L 264.157107 -347.475069 
L 265.675152 -343.735545 
L 267.731246 -339.996021 
L 271.77657 -336.256497 
L 280.259444 -332.516973 
L 294.571595 -328.777449 
L 311.166176 -325.037925 
L 321.3 -321.298401 
L 318.276165 -317.558876 
L 304.558204 -313.819352 
L 288.830205 -310.079828 
L 277.404124 -306.340304 
L 270.975756 -302.60078 
L 267.557562 -298.861256 
L 265.483065 -295.121732 
L 263.980302 -291.382208 
L 262.674851 -287.642684 
L 261.290759 -283.903159 
L 259.702846 -280.163635 
L 258.031852 -276.424111 
L 256.558643 -272.684587 
L 255.506007 -268.945063 
L 254.869411 -265.205539 
L 254.414565 -261.466015 
L 253.841406 -257.726491 
L 252.999588 -253.986966 
L 251.971631 -250.247442 
L 250.946989 -246.507918 
L 250.040934 -242.768394 
L 249.254271 -239.02887 
L 248.564174 -235.289346 
L 247.992329 -231.549822 
L 247.566886 -227.810298 
L 247.246087 -224.070773 
L 246.929075 -220.331249 
L 246.558757 -216.591725 
L 246.176246 -212.852201 
L 245.850587 -209.112677 
L 245.584453 -205.373153 
L 245.317557 -201.633629 
L 245.010301 -197.894105 
L 244.695708 -194.15458 
L 244.441607 -190.415056 
L 244.275048 -186.675532 
L 244.157007 -182.936008 
L 244.028804 -179.196484 
L 243.866203 -175.45696 
L 243.68531 -171.717436 
L 243.517009 -167.977912 
L 243.385788 -164.238388 
L 243.300358 -160.498863 
L 243.253536 -156.759339 
L 243.231392 -153.019815 
L 243.225351 -149.280291 
L 243.235653 -145.540767 
L 243.263359 -141.801243 
L 243.302942 -138.061719 
L 243.345126 -134.322195 
L 243.381857 -130.58267 
L 243.405691 -126.843146 
L 243.412087 -123.103622 
L 243.404785 -119.364098 
L 243.3903 -115.624574 
L 243.367395 -111.88505 
L 243.330691 -108.145526 
L 243.283226 -104.406002 
L 243.237802 -100.666477 
L 243.205777 -96.926953 
L 243.189005 -93.187429 
z
" style="stroke: #4c4c4c; stroke-width: 1.5"/>
    </defs>
    <g clip-path="url(#pe7e1b7495f)">
     <use xlink:href="#m5d797592ab" x="0" y="576" style="fill: #5875a4; stroke: #4c4c4c; stroke-width: 1.5"/>
    </g>
   </g>
   <g id="patch_4">
    <path d="M 321.3 477.692506 
L 321.3 477.692506 
L 321.3 477.692506 
L 321.3 477.692506 
z
" clip-path="url(#pe7e1b7495f)" style="fill: #cc8963; stroke: #4c4c4c; stroke-width: 0.75; stroke-linejoin: miter"/>
   </g>
   <g id="PolyCollection_2">
    <defs>
     <path id="m87e9a595b9" d="M 399.42593 -83.52 
L 399.41407 -83.52 
L 399.403308 -87.592727 
L 399.383954 -91.665455 
L 399.358074 -95.738182 
L 399.329731 -99.810909 
L 399.298331 -103.883636 
L 399.258266 -107.956364 
L 399.207401 -112.029091 
L 399.154522 -116.101818 
L 399.117548 -120.174545 
L 399.111189 -124.247273 
L 399.135562 -128.32 
L 399.180765 -132.392727 
L 399.237732 -136.465455 
L 399.297043 -140.538182 
L 399.343494 -144.610909 
L 399.360882 -148.683636 
L 399.340446 -152.756364 
L 399.282174 -156.829091 
L 399.191432 -160.901818 
L 399.077351 -164.974545 
L 398.952572 -169.047273 
L 398.830504 -173.12 
L 398.722235 -177.192727 
L 398.637713 -181.265455 
L 398.58476 -185.338182 
L 398.55505 -189.410909 
L 398.505567 -193.483636 
L 398.36598 -197.556364 
L 398.080913 -201.629091 
L 397.645861 -205.701818 
L 397.09762 -209.774545 
L 396.476345 -213.847273 
L 395.811913 -217.92 
L 395.159142 -221.992727 
L 394.624985 -226.065455 
L 394.299327 -230.138182 
L 394.128487 -234.210909 
L 393.904835 -238.283636 
L 393.426563 -242.356364 
L 392.663261 -246.429091 
L 391.769603 -250.501818 
L 390.958645 -254.574545 
L 390.361717 -258.647273 
L 389.982223 -262.72 
L 389.722093 -266.792727 
L 389.408139 -270.865455 
L 388.853625 -274.938182 
L 387.971133 -279.010909 
L 386.79662 -283.083636 
L 385.386583 -287.156364 
L 383.760268 -291.229091 
L 381.900012 -295.301818 
L 379.479738 -299.374545 
L 375.123603 -303.447273 
L 366.080726 -307.52 
L 350.517075 -311.592727 
L 332.345804 -315.665455 
L 321.762159 -319.738182 
L 326.216417 -323.810909 
L 341.85722 -327.883636 
L 358.098318 -331.956364 
L 368.33636 -336.029091 
L 372.874733 -340.101818 
L 374.731854 -344.174545 
L 376.160604 -348.247273 
L 377.968444 -352.32 
L 380.014637 -356.392727 
L 381.895299 -360.465455 
L 383.40278 -364.538182 
L 384.562173 -368.610909 
L 385.453512 -372.683636 
L 386.121144 -376.756364 
L 386.625313 -380.829091 
L 387.107598 -384.901818 
L 387.757242 -388.974545 
L 388.683725 -393.047273 
L 389.822663 -397.12 
L 391.000977 -401.192727 
L 392.100865 -405.265455 
L 393.134235 -409.338182 
L 394.162332 -413.410909 
L 395.184533 -417.483636 
L 396.133486 -421.556364 
L 396.942186 -425.629091 
L 397.568526 -429.701818 
L 397.993467 -433.774545 
L 398.248176 -437.847273 
L 398.416693 -441.92 
L 398.580365 -445.992727 
L 398.768469 -450.065455 
L 398.959251 -454.138182 
L 399.114213 -458.210909 
L 399.215242 -462.283636 
L 399.275483 -466.356364 
L 399.318484 -470.429091 
L 399.355785 -474.501818 
L 399.38592 -478.574545 
L 399.405413 -482.647273 
L 399.415088 -486.72 
L 399.424912 -486.72 
L 399.424912 -486.72 
L 399.434587 -482.647273 
L 399.45408 -478.574545 
L 399.484215 -474.501818 
L 399.521516 -470.429091 
L 399.564517 -466.356364 
L 399.624758 -462.283636 
L 399.725787 -458.210909 
L 399.880749 -454.138182 
L 400.071531 -450.065455 
L 400.259635 -445.992727 
L 400.423307 -441.92 
L 400.591824 -437.847273 
L 400.846533 -433.774545 
L 401.271474 -429.701818 
L 401.897814 -425.629091 
L 402.706514 -421.556364 
L 403.655467 -417.483636 
L 404.677668 -413.410909 
L 405.705765 -409.338182 
L 406.739135 -405.265455 
L 407.839023 -401.192727 
L 409.017337 -397.12 
L 410.156275 -393.047273 
L 411.082758 -388.974545 
L 411.732402 -384.901818 
L 412.214687 -380.829091 
L 412.718856 -376.756364 
L 413.386488 -372.683636 
L 414.277827 -368.610909 
L 415.43722 -364.538182 
L 416.944701 -360.465455 
L 418.825363 -356.392727 
L 420.871556 -352.32 
L 422.679396 -348.247273 
L 424.108146 -344.174545 
L 425.965267 -340.101818 
L 430.50364 -336.029091 
L 440.741682 -331.956364 
L 456.98278 -327.883636 
L 472.623583 -323.810909 
L 477.077841 -319.738182 
L 466.494196 -315.665455 
L 448.322925 -311.592727 
L 432.759274 -307.52 
L 423.716397 -303.447273 
L 419.360262 -299.374545 
L 416.939988 -295.301818 
L 415.079732 -291.229091 
L 413.453417 -287.156364 
L 412.04338 -283.083636 
L 410.868867 -279.010909 
L 409.986375 -274.938182 
L 409.431861 -270.865455 
L 409.117907 -266.792727 
L 408.857777 -262.72 
L 408.478283 -258.647273 
L 407.881355 -254.574545 
L 407.070397 -250.501818 
L 406.176739 -246.429091 
L 405.413437 -242.356364 
L 404.935165 -238.283636 
L 404.711513 -234.210909 
L 404.540673 -230.138182 
L 404.215015 -226.065455 
L 403.680858 -221.992727 
L 403.028087 -217.92 
L 402.363655 -213.847273 
L 401.74238 -209.774545 
L 401.194139 -205.701818 
L 400.759087 -201.629091 
L 400.47402 -197.556364 
L 400.334433 -193.483636 
L 400.28495 -189.410909 
L 400.25524 -185.338182 
L 400.202287 -181.265455 
L 400.117765 -177.192727 
L 400.009496 -173.12 
L 399.887428 -169.047273 
L 399.762649 -164.974545 
L 399.648568 -160.901818 
L 399.557826 -156.829091 
L 399.499554 -152.756364 
L 399.479118 -148.683636 
L 399.496506 -144.610909 
L 399.542957 -140.538182 
L 399.602268 -136.465455 
L 399.659235 -132.392727 
L 399.704438 -128.32 
L 399.728811 -124.247273 
L 399.722452 -120.174545 
L 399.685478 -116.101818 
L 399.632599 -112.029091 
L 399.581734 -107.956364 
L 399.541669 -103.883636 
L 399.510269 -99.810909 
L 399.481926 -95.738182 
L 399.456046 -91.665455 
L 399.436692 -87.592727 
L 399.42593 -83.52 
z
" style="stroke: #4c4c4c; stroke-width: 1.5"/>
    </defs>
    <g clip-path="url(#pe7e1b7495f)">
     <use xlink:href="#m87e9a595b9" x="0" y="576" style="fill: #cc8963; stroke: #4c4c4c; stroke-width: 1.5"/>
    </g>
   </g>
   <g id="PolyCollection_3">
    <defs>
     <path id="m9f280f21d9" d="M 633.787521 -94.354079 
L 633.772479 -94.354079 
L 633.757599 -98.190365 
L 633.727454 -102.026651 
L 633.681899 -105.862937 
L 633.631562 -109.699223 
L 633.592413 -113.535508 
L 633.573386 -117.371794 
L 633.572418 -121.20808 
L 633.583631 -125.044366 
L 633.603081 -128.880651 
L 633.628669 -132.716937 
L 633.659098 -136.553223 
L 633.692454 -140.389509 
L 633.724433 -144.225795 
L 633.749119 -148.06208 
L 633.761357 -151.898366 
L 633.756486 -155.734652 
L 633.727033 -159.570938 
L 633.660664 -163.407224 
L 633.543808 -167.243509 
L 633.373754 -171.079795 
L 633.176729 -174.916081 
L 633.012901 -178.752367 
L 632.942898 -182.588653 
L 632.970643 -186.424938 
L 633.023768 -190.261224 
L 633.001017 -194.09751 
L 632.838828 -197.933796 
L 632.53535 -201.770081 
L 632.123586 -205.606367 
L 631.633315 -209.442653 
L 631.082149 -213.278939 
L 630.494126 -217.115225 
L 629.912135 -220.95151 
L 629.386117 -224.787796 
L 628.948757 -228.624082 
L 628.591424 -232.460368 
L 628.246384 -236.296654 
L 627.802999 -240.132939 
L 627.176052 -243.969225 
L 626.36851 -247.805511 
L 625.455631 -251.641797 
L 624.51933 -255.478083 
L 623.624103 -259.314368 
L 622.844354 -263.150654 
L 622.25484 -266.98694 
L 621.842981 -270.823226 
L 621.44128 -274.659511 
L 620.799125 -278.495797 
L 619.759707 -282.332083 
L 618.37582 -286.168369 
L 616.848703 -290.004655 
L 615.327222 -293.84094 
L 613.66263 -297.677226 
L 611.088989 -301.513512 
L 605.861328 -305.349798 
L 595.72956 -309.186084 
L 580.56997 -313.022369 
L 565.517943 -316.858655 
L 559.065609 -320.694941 
L 565.285271 -324.531227 
L 579.396505 -328.367513 
L 592.929697 -332.203798 
L 601.266747 -336.040084 
L 605.004118 -339.87637 
L 606.684043 -343.712656 
L 608.168713 -347.548941 
L 610.129343 -351.385227 
L 612.487407 -355.221513 
L 614.87126 -359.057799 
L 616.896715 -362.894085 
L 618.347123 -366.73037 
L 619.260431 -370.566656 
L 619.85288 -374.402942 
L 620.324041 -378.239228 
L 620.764669 -382.075514 
L 621.254264 -385.911799 
L 621.928482 -389.748085 
L 622.875493 -393.584371 
L 624.034916 -397.420657 
L 625.245552 -401.256942 
L 626.356722 -405.093228 
L 627.309944 -408.929514 
L 628.173117 -412.7658 
L 629.076473 -416.602086 
L 630.061895 -420.438371 
L 631.01131 -424.274657 
L 631.756953 -428.110943 
L 632.241917 -431.947229 
L 632.547283 -435.783515 
L 632.785401 -439.6198 
L 633.004987 -443.456086 
L 633.197011 -447.292372 
L 633.349797 -451.128658 
L 633.471151 -454.964944 
L 633.572787 -458.801229 
L 633.656444 -462.637515 
L 633.717325 -466.473801 
L 633.753844 -470.310087 
L 633.771236 -474.146372 
L 633.788764 -474.146372 
L 633.788764 -474.146372 
L 633.806156 -470.310087 
L 633.842675 -466.473801 
L 633.903556 -462.637515 
L 633.987213 -458.801229 
L 634.088849 -454.964944 
L 634.210203 -451.128658 
L 634.362989 -447.292372 
L 634.555013 -443.456086 
L 634.774599 -439.6198 
L 635.012717 -435.783515 
L 635.318083 -431.947229 
L 635.803047 -428.110943 
L 636.54869 -424.274657 
L 637.498105 -420.438371 
L 638.483527 -416.602086 
L 639.386883 -412.7658 
L 640.250056 -408.929514 
L 641.203278 -405.093228 
L 642.314448 -401.256942 
L 643.525084 -397.420657 
L 644.684507 -393.584371 
L 645.631518 -389.748085 
L 646.305736 -385.911799 
L 646.795331 -382.075514 
L 647.235959 -378.239228 
L 647.70712 -374.402942 
L 648.299569 -370.566656 
L 649.212877 -366.73037 
L 650.663285 -362.894085 
L 652.68874 -359.057799 
L 655.072593 -355.221513 
L 657.430657 -351.385227 
L 659.391287 -347.548941 
L 660.875957 -343.712656 
L 662.555882 -339.87637 
L 666.293253 -336.040084 
L 674.630303 -332.203798 
L 688.163495 -328.367513 
L 702.274729 -324.531227 
L 708.494391 -320.694941 
L 702.042057 -316.858655 
L 686.99003 -313.022369 
L 671.83044 -309.186084 
L 661.698672 -305.349798 
L 656.471011 -301.513512 
L 653.89737 -297.677226 
L 652.232778 -293.84094 
L 650.711297 -290.004655 
L 649.18418 -286.168369 
L 647.800293 -282.332083 
L 646.760875 -278.495797 
L 646.11872 -274.659511 
L 645.717019 -270.823226 
L 645.30516 -266.98694 
L 644.715646 -263.150654 
L 643.935897 -259.314368 
L 643.04067 -255.478083 
L 642.104369 -251.641797 
L 641.19149 -247.805511 
L 640.383948 -243.969225 
L 639.757001 -240.132939 
L 639.313616 -236.296654 
L 638.968576 -232.460368 
L 638.611243 -228.624082 
L 638.173883 -224.787796 
L 637.647865 -220.95151 
L 637.065874 -217.115225 
L 636.477851 -213.278939 
L 635.926685 -209.442653 
L 635.436414 -205.606367 
L 635.02465 -201.770081 
L 634.721172 -197.933796 
L 634.558983 -194.09751 
L 634.536232 -190.261224 
L 634.589357 -186.424938 
L 634.617102 -182.588653 
L 634.547099 -178.752367 
L 634.383271 -174.916081 
L 634.186246 -171.079795 
L 634.016192 -167.243509 
L 633.899336 -163.407224 
L 633.832967 -159.570938 
L 633.803514 -155.734652 
L 633.798643 -151.898366 
L 633.810881 -148.06208 
L 633.835567 -144.225795 
L 633.867546 -140.389509 
L 633.900902 -136.553223 
L 633.931331 -132.716937 
L 633.956919 -128.880651 
L 633.976369 -125.044366 
L 633.987582 -121.20808 
L 633.986614 -117.371794 
L 633.967587 -113.535508 
L 633.928438 -109.699223 
L 633.878101 -105.862937 
L 633.832546 -102.026651 
L 633.802401 -98.190365 
L 633.787521 -94.354079 
z
" style="stroke: #4c4c4c; stroke-width: 1.5"/>
    </defs>
    <g clip-path="url(#pe7e1b7495f)">
     <use xlink:href="#m9f280f21d9" x="0" y="576" style="fill: #5875a4; stroke: #4c4c4c; stroke-width: 1.5"/>
    </g>
   </g>
   <g id="PolyCollection_4">
    <defs>
     <path id="mc5711721b9" d="M 790.032418 -93.13611 
L 790.007582 -93.13611 
L 789.984493 -96.966282 
L 789.940907 -100.796454 
L 789.880471 -104.626626 
L 789.821598 -108.456798 
L 789.788377 -112.28697 
L 789.792412 -116.117143 
L 789.823208 -119.947315 
L 789.85974 -123.777487 
L 789.891281 -127.607659 
L 789.9215 -131.437831 
L 789.954009 -135.268003 
L 789.983623 -139.098175 
L 790.002841 -142.928348 
L 790.009094 -146.75852 
L 790.003665 -150.588692 
L 789.987567 -154.418864 
L 789.958017 -158.249036 
L 789.905434 -162.079208 
L 789.817172 -165.90938 
L 789.691594 -169.739553 
L 789.549512 -173.569725 
L 789.427785 -177.399897 
L 789.355514 -181.230069 
L 789.329039 -185.060241 
L 789.313337 -188.890413 
L 789.273816 -192.720585 
L 789.194663 -196.550758 
L 789.061089 -200.38093 
L 788.842515 -204.211102 
L 788.497629 -208.041274 
L 787.991648 -211.871446 
L 787.327314 -215.701618 
L 786.565771 -219.53179 
L 785.80629 -223.361963 
L 785.151906 -227.192135 
L 784.676101 -231.022307 
L 784.368011 -234.852479 
L 784.101029 -238.682651 
L 783.696655 -242.512823 
L 783.051978 -246.342995 
L 782.214365 -250.173168 
L 781.329078 -254.00334 
L 780.518841 -257.833512 
L 779.812572 -261.663684 
L 779.160593 -265.493856 
L 778.496783 -269.324028 
L 777.78052 -273.1542 
L 776.978182 -276.984373 
L 776.044077 -280.814545 
L 774.956296 -284.644717 
L 773.746593 -288.474889 
L 772.464824 -292.305061 
L 771.06518 -296.135233 
L 769.122095 -299.965405 
L 765.292597 -303.795578 
L 757.076887 -307.62575 
L 742.552927 -311.455922 
L 724.511727 -315.286094 
L 711.9 -319.116266 
L 712.884781 -322.946438 
L 726.031897 -326.77661 
L 742.047943 -330.606783 
L 753.480012 -334.436955 
L 759.329339 -338.267127 
L 762.045625 -342.097299 
L 763.823334 -345.927471 
L 765.653519 -349.757643 
L 767.765414 -353.587815 
L 770.05609 -357.417988 
L 772.320174 -361.24816 
L 774.370266 -365.078332 
L 776.063616 -368.908504 
L 777.294027 -372.738676 
L 778.03243 -376.568848 
L 778.385578 -380.39902 
L 778.589446 -384.229193 
L 778.920731 -388.059365 
L 779.549563 -391.889537 
L 780.444623 -395.719709 
L 781.463137 -399.549881 
L 782.514777 -403.380053 
L 783.576762 -407.210225 
L 784.606802 -411.040398 
L 785.550187 -414.87057 
L 786.411177 -418.700742 
L 787.22735 -422.530914 
L 787.982197 -426.361086 
L 788.602534 -430.191258 
L 789.033086 -434.02143 
L 789.284288 -437.851603 
L 789.419954 -441.681775 
L 789.512057 -445.511947 
L 789.601401 -449.342119 
L 789.694767 -453.172291 
L 789.786946 -457.002463 
L 789.871889 -460.832635 
L 789.940669 -464.662808 
L 789.98574 -468.49298 
L 790.008423 -472.323152 
L 790.031577 -472.323152 
L 790.031577 -472.323152 
L 790.05426 -468.49298 
L 790.099331 -464.662808 
L 790.168111 -460.832635 
L 790.253054 -457.002463 
L 790.345233 -453.172291 
L 790.438599 -449.342119 
L 790.527943 -445.511947 
L 790.620046 -441.681775 
L 790.755712 -437.851603 
L 791.006914 -434.02143 
L 791.437466 -430.191258 
L 792.057803 -426.361086 
L 792.81265 -422.530914 
L 793.628823 -418.700742 
L 794.489813 -414.87057 
L 795.433198 -411.040398 
L 796.463238 -407.210225 
L 797.525223 -403.380053 
L 798.576863 -399.549881 
L 799.595377 -395.719709 
L 800.490437 -391.889537 
L 801.119269 -388.059365 
L 801.450554 -384.229193 
L 801.654422 -380.39902 
L 802.00757 -376.568848 
L 802.745973 -372.738676 
L 803.976384 -368.908504 
L 805.669734 -365.078332 
L 807.719826 -361.24816 
L 809.98391 -357.417988 
L 812.274586 -353.587815 
L 814.386481 -349.757643 
L 816.216666 -345.927471 
L 817.994375 -342.097299 
L 820.710661 -338.267127 
L 826.559988 -334.436955 
L 837.992057 -330.606783 
L 854.008103 -326.77661 
L 867.155219 -322.946438 
L 868.14 -319.116266 
L 855.528273 -315.286094 
L 837.487073 -311.455922 
L 822.963113 -307.62575 
L 814.747403 -303.795578 
L 810.917905 -299.965405 
L 808.97482 -296.135233 
L 807.575176 -292.305061 
L 806.293407 -288.474889 
L 805.083704 -284.644717 
L 803.995923 -280.814545 
L 803.061818 -276.984373 
L 802.25948 -273.1542 
L 801.543217 -269.324028 
L 800.879407 -265.493856 
L 800.227428 -261.663684 
L 799.521159 -257.833512 
L 798.710922 -254.00334 
L 797.825635 -250.173168 
L 796.988022 -246.342995 
L 796.343345 -242.512823 
L 795.938971 -238.682651 
L 795.671989 -234.852479 
L 795.363899 -231.022307 
L 794.888094 -227.192135 
L 794.23371 -223.361963 
L 793.474229 -219.53179 
L 792.712686 -215.701618 
L 792.048352 -211.871446 
L 791.542371 -208.041274 
L 791.197485 -204.211102 
L 790.978911 -200.38093 
L 790.845337 -196.550758 
L 790.766184 -192.720585 
L 790.726663 -188.890413 
L 790.710961 -185.060241 
L 790.684486 -181.230069 
L 790.612215 -177.399897 
L 790.490488 -173.569725 
L 790.348406 -169.739553 
L 790.222828 -165.90938 
L 790.134566 -162.079208 
L 790.081983 -158.249036 
L 790.052433 -154.418864 
L 790.036335 -150.588692 
L 790.030906 -146.75852 
L 790.037159 -142.928348 
L 790.056377 -139.098175 
L 790.085991 -135.268003 
L 790.1185 -131.437831 
L 790.148719 -127.607659 
L 790.18026 -123.777487 
L 790.216792 -119.947315 
L 790.247588 -116.117143 
L 790.251623 -112.28697 
L 790.218402 -108.456798 
L 790.159529 -104.626626 
L 790.099093 -100.796454 
L 790.055507 -96.966282 
L 790.032418 -93.13611 
z
" style="stroke: #4c4c4c; stroke-width: 1.5"/>
    </defs>
    <g clip-path="url(#pe7e1b7495f)">
     <use xlink:href="#mc5711721b9" x="0" y="576" style="fill: #cc8963; stroke: #4c4c4c; stroke-width: 1.5"/>
    </g>
   </g>
   <g id="line2d_7">
    <path d="M 243.18 336.593767 
L 243.18 179.980333 
" clip-path="url(#pe7e1b7495f)" style="fill: none; stroke: #4c4c4c; stroke-width: 1.5; stroke-linecap: round"/>
   </g>
   <g id="line2d_8">
    <path d="M 243.18 277.873701 
L 243.18 238.699943 
" clip-path="url(#pe7e1b7495f)" style="fill: none; stroke: #4c4c4c; stroke-width: 4.5; stroke-linecap: round"/>
   </g>
   <g id="line2d_9">
    <path d="M 399.42 328.109999 
L 399.42 170.479494 
" clip-path="url(#pe7e1b7495f)" style="fill: none; stroke: #4c4c4c; stroke-width: 1.5; stroke-linecap: round"/>
   </g>
   <g id="line2d_10">
    <path d="M 399.42 269.111418 
L 399.42 229.652264 
" clip-path="url(#pe7e1b7495f)" style="fill: none; stroke: #4c4c4c; stroke-width: 4.5; stroke-linecap: round"/>
   </g>
   <g id="line2d_11">
    <path d="M 633.78 334.099229 
L 633.78 166.64783 
" clip-path="url(#pe7e1b7495f)" style="fill: none; stroke: #4c4c4c; stroke-width: 1.5; stroke-linecap: round"/>
   </g>
   <g id="line2d_12">
    <path d="M 633.78 271.412038 
L 633.78 229.462845 
" clip-path="url(#pe7e1b7495f)" style="fill: none; stroke: #4c4c4c; stroke-width: 4.5; stroke-linecap: round"/>
   </g>
   <g id="line2d_13">
    <path d="M 790.02 328.794341 
L 790.02 173.276069 
" clip-path="url(#pe7e1b7495f)" style="fill: none; stroke: #4c4c4c; stroke-width: 1.5; stroke-linecap: round"/>
   </g>
   <g id="line2d_14">
    <path d="M 790.02 270.490521 
L 790.02 231.584686 
" clip-path="url(#pe7e1b7495f)" style="fill: none; stroke: #4c4c4c; stroke-width: 4.5; stroke-linecap: round"/>
   </g>
   <g id="patch_5">
    <path d="M 126 512.64 
L 126 69.12 
" style="fill: none; stroke: #cccccc; stroke-width: 1.25; stroke-linejoin: miter; stroke-linecap: square"/>
   </g>
   <g id="patch_6">
    <path d="M 907.2 512.64 
L 907.2 69.12 
" style="fill: none; stroke: #cccccc; stroke-width: 1.25; stroke-linejoin: miter; stroke-linecap: square"/>
   </g>
   <g id="patch_7">
    <path d="M 126 512.64 
L 907.2 512.64 
" style="fill: none; stroke: #cccccc; stroke-width: 1.25; stroke-linejoin: miter; stroke-linecap: square"/>
   </g>
   <g id="patch_8">
    <path d="M 126 69.12 
L 907.2 69.12 
" style="fill: none; stroke: #cccccc; stroke-width: 1.25; stroke-linejoin: miter; stroke-linecap: square"/>
   </g>
   <g id="PathCollection_1">
    <defs>
     <path id="m6700304847" d="M 0 1.5 
C 0.397805 1.5 0.77937 1.341951 1.06066 1.06066 
C 1.341951 0.77937 1.5 0.397805 1.5 0 
C 1.5 -0.397805 1.341951 -0.77937 1.06066 -1.06066 
C 0.77937 -1.341951 0.397805 -1.5 0 -1.5 
C -0.397805 -1.5 -0.77937 -1.341951 -1.06066 -1.06066 
C -1.341951 -0.77937 -1.5 -0.397805 -1.5 0 
C -1.5 0.397805 -1.341951 0.77937 -1.06066 1.06066 
C -0.77937 1.341951 -0.397805 1.5 0 1.5 
z
" style="stroke: #4c4c4c"/>
    </defs>
    <g clip-path="url(#pe7e1b7495f)">
     <use xlink:href="#m6700304847" x="243.18" y="255.51552" style="fill: #ffffff; stroke: #4c4c4c"/>
    </g>
   </g>
   <g id="PathCollection_2">
    <g clip-path="url(#pe7e1b7495f)">
     <use xlink:href="#m6700304847" x="399.42" y="255.51552" style="fill: #ffffff; stroke: #4c4c4c"/>
    </g>
   </g>
   <g id="PathCollection_3">
    <g clip-path="url(#pe7e1b7495f)">
     <use xlink:href="#m6700304847" x="633.78" y="255.51552" style="fill: #ffffff; stroke: #4c4c4c"/>
    </g>
   </g>
   <g id="PathCollection_4">
    <g clip-path="url(#pe7e1b7495f)">
     <use xlink:href="#m6700304847" x="790.02" y="255.51552" style="fill: #ffffff; stroke: #4c4c4c"/>
    </g>
   </g>
   <g id="legend_1">
    <g id="patch_9">
     <path d="M 803.7725 125.514063 
L 899.5 125.514063 
Q 901.7 125.514063 901.7 123.314063 
L 901.7 76.82 
Q 901.7 74.62 899.5 74.62 
L 803.7725 74.62 
Q 801.5725 74.62 801.5725 76.82 
L 801.5725 123.314063 
Q 801.5725 125.514063 803.7725 125.514063 
z
" style="fill: #ffffff; opacity: 0.8; stroke: #cccccc; stroke-linejoin: miter"/>
    </g>
    <g id="text_11">
     <!-- Treatment -->
     <g style="fill: #262626" transform="translate(824.520937 87.609375)scale(0.12 -0.12)">
      <defs>
       <path id="ArialMT-54" d="M 1659 0 
L 1659 4041 
L 150 4041 
L 150 4581 
L 3781 4581 
L 3781 4041 
L 2266 4041 
L 2266 0 
L 1659 0 
z
" transform="scale(0.015625)"/>
       <path id="ArialMT-74" d="M 1650 503 
L 1731 6 
Q 1494 -44 1306 -44 
Q 1000 -44 831 53 
Q 663 150 594 308 
Q 525 466 525 972 
L 525 2881 
L 113 2881 
L 113 3319 
L 525 3319 
L 525 4141 
L 1084 4478 
L 1084 3319 
L 1650 3319 
L 1650 2881 
L 1084 2881 
L 1084 941 
Q 1084 700 1114 631 
Q 1144 563 1211 522 
Q 1278 481 1403 481 
Q 1497 481 1650 503 
z
" transform="scale(0.015625)"/>
       <path id="ArialMT-6d" d="M 422 0 
L 422 3319 
L 925 3319 
L 925 2853 
Q 1081 3097 1340 3245 
Q 1600 3394 1931 3394 
Q 2300 3394 2536 3241 
Q 2772 3088 2869 2813 
Q 3263 3394 3894 3394 
Q 4388 3394 4653 3120 
Q 4919 2847 4919 2278 
L 4919 0 
L 4359 0 
L 4359 2091 
Q 4359 2428 4304 2576 
Q 4250 2725 4106 2815 
Q 3963 2906 3769 2906 
Q 3419 2906 3187 2673 
Q 2956 2441 2956 1928 
L 2956 0 
L 2394 0 
L 2394 2156 
Q 2394 2531 2256 2718 
Q 2119 2906 1806 2906 
Q 1569 2906 1367 2781 
Q 1166 2656 1075 2415 
Q 984 2175 984 1722 
L 984 0 
L 422 0 
z
" transform="scale(0.015625)"/>
       <path id="ArialMT-6e" d="M 422 0 
L 422 3319 
L 928 3319 
L 928 2847 
Q 1294 3394 1984 3394 
Q 2284 3394 2536 3286 
Q 2788 3178 2913 3003 
Q 3038 2828 3088 2588 
Q 3119 2431 3119 2041 
L 3119 0 
L 2556 0 
L 2556 2019 
Q 2556 2363 2490 2533 
Q 2425 2703 2258 2804 
Q 2091 2906 1866 2906 
Q 1506 2906 1245 2678 
Q 984 2450 984 1813 
L 984 0 
L 422 0 
z
" transform="scale(0.015625)"/>
      </defs>
      <use xlink:href="#ArialMT-54"/>
      <use xlink:href="#ArialMT-72" x="57.333984"/>
      <use xlink:href="#ArialMT-65" x="90.634766"/>
      <use xlink:href="#ArialMT-61" x="146.25"/>
      <use xlink:href="#ArialMT-74" x="201.865234"/>
      <use xlink:href="#ArialMT-6d" x="229.648438"/>
      <use xlink:href="#ArialMT-65" x="312.949219"/>
      <use xlink:href="#ArialMT-6e" x="368.564453"/>
      <use xlink:href="#ArialMT-74" x="424.179688"/>
     </g>
    </g>
    <g id="patch_10">
     <path d="M 805.9725 103.367969 
L 827.9725 103.367969 
L 827.9725 95.667969 
L 805.9725 95.667969 
z
" style="fill: #5875a4; stroke: #4c4c4c; stroke-width: 0.75; stroke-linejoin: miter"/>
    </g>
    <g id="text_12">
     <!-- control -->
     <g style="fill: #262626" transform="translate(836.7725 103.367969)scale(0.11 -0.11)">
      <use xlink:href="#ArialMT-63"/>
      <use xlink:href="#ArialMT-6f" x="50"/>
      <use xlink:href="#ArialMT-6e" x="105.615234"/>
      <use xlink:href="#ArialMT-74" x="161.230469"/>
      <use xlink:href="#ArialMT-72" x="189.013672"/>
      <use xlink:href="#ArialMT-6f" x="222.314453"/>
      <use xlink:href="#ArialMT-6c" x="277.929688"/>
     </g>
    </g>
    <g id="patch_11">
     <path d="M 805.9725 118.927813 
L 827.9725 118.927813 
L 827.9725 111.227813 
L 805.9725 111.227813 
z
" style="fill: #cc8963; stroke: #4c4c4c; stroke-width: 0.75; stroke-linejoin: miter"/>
    </g>
    <g id="text_13">
     <!-- deltamethrin -->
     <g style="fill: #262626" transform="translate(836.7725 118.927813)scale(0.11 -0.11)">
      <defs>
       <path id="ArialMT-68" d="M 422 0 
L 422 4581 
L 984 4581 
L 984 2938 
Q 1378 3394 1978 3394 
Q 2347 3394 2619 3248 
Q 2891 3103 3008 2847 
Q 3125 2591 3125 2103 
L 3125 0 
L 2563 0 
L 2563 2103 
Q 2563 2525 2380 2717 
Q 2197 2909 1863 2909 
Q 1613 2909 1392 2779 
Q 1172 2650 1078 2428 
Q 984 2206 984 1816 
L 984 0 
L 422 0 
z
" transform="scale(0.015625)"/>
       <path id="ArialMT-69" d="M 425 3934 
L 425 4581 
L 988 4581 
L 988 3934 
L 425 3934 
z
M 425 0 
L 425 3319 
L 988 3319 
L 988 0 
L 425 0 
z
" transform="scale(0.015625)"/>
      </defs>
      <use xlink:href="#ArialMT-64"/>
      <use xlink:href="#ArialMT-65" x="55.615234"/>
      <use xlink:href="#ArialMT-6c" x="111.230469"/>
      <use xlink:href="#ArialMT-74" x="133.447266"/>
      <use xlink:href="#ArialMT-61" x="161.230469"/>
      <use xlink:href="#ArialMT-6d" x="216.845703"/>
      <use xlink:href="#ArialMT-65" x="300.146484"/>
      <use xlink:href="#ArialMT-74" x="355.761719"/>
      <use xlink:href="#ArialMT-68" x="383.544922"/>
      <use xlink:href="#ArialMT-72" x="439.160156"/>
      <use xlink:href="#ArialMT-69" x="472.460938"/>
      <use xlink:href="#ArialMT-6e" x="494.677734"/>
     </g>
    </g>
   </g>
  </g>
 </g>
 <defs>
  <clipPath id="pe7e1b7495f">
   <rect x="126" y="69.12" width="781.2" height="443.52"/>
  </clipPath>
 </defs>
</svg>
